<svg xmlns="http://www.w3.org/2000/svg" viewBox="0 0 200 200"><defs><style>.a{fill:#0f0f0f;}.b{fill:#f0f4f7;}.c{fill:#262626;}.d{fill:#c4c5c6;}.e{fill:#2a2b2b;}.f{fill:#36637f;}.g{fill:#1a3949;}.h{fill:#7ba5ba;}</style></defs><title>000-1</title><rect class="a" x="119.23" y="146.15" width="3.85" height="3.85"/><rect class="b" x="119.23" y="142.31" width="3.85" height="3.84"/><rect class="b" x="119.23" y="138.46" width="3.85" height="3.85"/><rect class="c" x="119.23" y="134.62" width="3.85" height="3.84"/><rect class="b" x="119.23" y="130.77" width="3.85" height="3.85"/><rect class="b" x="119.23" y="126.92" width="3.85" height="3.85"/><rect class="c" x="119.23" y="123.08" width="3.85" height="3.84"/><rect class="b" x="119.23" y="119.23" width="3.85" height="3.85"/><rect class="b" x="119.23" y="115.38" width="3.85" height="3.85"/><rect class="c" x="119.23" y="111.54" width="3.85" height="3.84"/><rect class="b" x="119.23" y="107.69" width="3.85" height="3.85"/><rect class="a" x="115.38" y="146.15" width="3.85" height="3.85"/><rect class="d" x="115.38" y="142.31" width="3.85" height="3.84"/><rect class="d" x="115.38" y="138.46" width="3.85" height="3.85"/><rect class="c" x="115.38" y="134.62" width="3.85" height="3.84"/><rect class="d" x="115.38" y="130.77" width="3.85" height="3.85"/><rect class="d" x="115.38" y="126.92" width="3.85" height="3.85"/><rect class="c" x="115.38" y="123.08" width="3.85" height="3.84"/><rect class="d" x="115.38" y="119.23" width="3.85" height="3.85"/><rect class="b" x="115.38" y="115.38" width="3.85" height="3.85"/><rect class="c" x="115.38" y="111.54" width="3.85" height="3.84"/><rect class="b" x="115.38" y="107.69" width="3.85" height="3.85"/><rect class="e" x="111.54" y="165.38" width="3.84" height="3.85"/><rect class="e" x="111.54" y="161.54" width="3.84" height="3.84"/><rect class="e" x="111.54" y="157.69" width="3.84" height="3.85"/><rect class="f" x="111.54" y="153.85" width="3.84" height="3.84"/><rect class="g" x="111.54" y="150" width="3.84" height="3.85"/><rect class="h" x="111.54" y="146.15" width="3.84" height="3.85"/><rect class="f" x="111.54" y="142.31" width="3.84" height="3.84"/><rect class="f" x="111.54" y="138.46" width="3.84" height="3.85"/><rect class="a" x="111.54" y="134.62" width="3.84" height="3.84"/><rect class="d" x="111.54" y="130.77" width="3.84" height="3.85"/><rect class="d" x="111.54" y="126.92" width="3.84" height="3.85"/><rect class="a" x="111.54" y="123.08" width="3.84" height="3.84"/><rect class="d" x="111.54" y="119.23" width="3.84" height="3.85"/><rect class="d" x="111.54" y="115.38" width="3.84" height="3.85"/><rect class="a" x="111.54" y="111.54" width="3.84" height="3.84"/><rect class="b" x="111.54" y="107.69" width="3.84" height="3.85"/><rect class="b" x="111.54" y="103.85" width="3.84" height="3.84"/><rect class="e" x="107.69" y="165.38" width="3.85" height="3.85"/><rect class="e" x="107.69" y="161.54" width="3.85" height="3.84"/><rect class="e" x="107.69" y="157.69" width="3.85" height="3.85"/><rect class="g" x="107.69" y="153.85" width="3.85" height="3.84"/><rect class="g" x="107.69" y="150" width="3.85" height="3.85"/><rect class="g" x="107.69" y="146.15" width="3.85" height="3.85"/><rect class="g" x="107.69" y="142.31" width="3.85" height="3.84"/><rect class="f" x="107.69" y="138.46" width="3.85" height="3.85"/><rect class="c" x="107.69" y="134.62" width="3.85" height="3.84"/><rect class="b" x="107.69" y="130.77" width="3.85" height="3.85"/><rect class="b" x="107.69" y="126.92" width="3.85" height="3.85"/><rect class="c" x="107.69" y="123.08" width="3.85" height="3.84"/><rect class="b" x="107.69" y="119.23" width="3.85" height="3.85"/><rect class="b" x="107.69" y="115.38" width="3.85" height="3.85"/><rect class="c" x="107.69" y="111.54" width="3.85" height="3.84"/><rect class="b" x="107.69" y="107.69" width="3.85" height="3.85"/><rect class="b" x="107.69" y="103.85" width="3.85" height="3.84"/><rect class="g" x="103.85" y="150" width="3.84" height="3.85"/><rect class="f" x="103.85" y="146.15" width="3.84" height="3.85"/><rect class="h" x="103.85" y="142.31" width="3.84" height="3.84"/><rect class="g" x="103.85" y="138.46" width="3.84" height="3.85"/><rect class="a" x="103.85" y="134.62" width="3.84" height="3.84"/><rect class="b" x="103.85" y="130.77" width="3.84" height="3.85"/><rect class="b" x="103.85" y="126.92" width="3.84" height="3.85"/><rect class="c" x="103.85" y="123.08" width="3.84" height="3.84"/><rect class="b" x="103.85" y="119.23" width="3.84" height="3.85"/><rect class="b" x="103.85" y="115.38" width="3.84" height="3.85"/><rect class="c" x="103.85" y="111.54" width="3.84" height="3.84"/><rect class="b" x="103.85" y="107.69" width="3.84" height="3.85"/><rect class="b" x="103.85" y="103.85" width="3.84" height="3.84"/><rect class="g" x="100" y="150" width="3.85" height="3.85"/><rect class="f" x="100" y="146.15" width="3.85" height="3.85"/><rect class="f" x="100" y="142.31" width="3.85" height="3.84"/><rect class="g" x="100" y="138.46" width="3.85" height="3.85"/><rect class="a" x="100" y="134.62" width="3.85" height="3.84"/><rect class="b" x="100" y="130.77" width="3.85" height="3.85"/><rect class="b" x="100" y="126.92" width="3.85" height="3.85"/><rect class="c" x="100" y="123.08" width="3.85" height="3.84"/><rect class="b" x="100" y="119.23" width="3.85" height="3.85"/><rect class="b" x="100" y="115.38" width="3.85" height="3.85"/><rect class="c" x="100" y="111.54" width="3.85" height="3.84"/><rect class="b" x="100" y="107.69" width="3.85" height="3.85"/><rect class="d" x="100" y="103.85" width="3.85" height="3.84"/><rect class="g" x="96.15" y="150" width="3.85" height="3.85"/><rect class="f" x="96.15" y="146.15" width="3.85" height="3.85"/><rect class="h" x="96.15" y="142.31" width="3.85" height="3.84"/><rect class="g" x="96.15" y="138.46" width="3.85" height="3.85"/><rect class="a" x="96.15" y="134.62" width="3.85" height="3.84"/><rect class="b" x="96.15" y="130.77" width="3.85" height="3.85"/><rect class="b" x="96.15" y="126.92" width="3.85" height="3.85"/><rect class="c" x="96.15" y="123.08" width="3.85" height="3.84"/><rect class="b" x="96.15" y="119.23" width="3.85" height="3.85"/><rect class="b" x="96.15" y="115.38" width="3.85" height="3.85"/><rect class="c" x="96.15" y="111.54" width="3.85" height="3.84"/><rect class="b" x="96.15" y="107.69" width="3.85" height="3.85"/><rect class="d" x="96.15" y="103.85" width="3.85" height="3.84"/><rect class="f" x="92.31" y="150" width="3.84" height="3.85"/><rect class="h" x="92.31" y="146.15" width="3.84" height="3.85"/><rect class="h" x="92.31" y="142.31" width="3.84" height="3.84"/><rect class="g" x="92.31" y="138.46" width="3.84" height="3.85"/><rect class="a" x="92.31" y="134.62" width="3.84" height="3.84"/><rect class="b" x="92.31" y="130.77" width="3.84" height="3.85"/><rect class="b" x="92.31" y="126.92" width="3.84" height="3.85"/><rect class="c" x="92.31" y="123.08" width="3.84" height="3.84"/><rect class="b" x="92.31" y="119.23" width="3.84" height="3.85"/><rect class="b" x="92.31" y="115.38" width="3.84" height="3.85"/><rect class="c" x="92.31" y="111.54" width="3.84" height="3.84"/><rect class="b" x="92.31" y="107.69" width="3.84" height="3.85"/><rect class="d" x="92.31" y="103.85" width="3.84" height="3.84"/><rect class="e" x="88.46" y="165.38" width="3.85" height="3.85"/><rect class="e" x="88.46" y="161.54" width="3.85" height="3.84"/><rect class="e" x="88.46" y="157.69" width="3.85" height="3.85"/><rect class="g" x="88.46" y="153.85" width="3.85" height="3.84"/><rect class="g" x="88.46" y="150" width="3.85" height="3.85"/><rect class="h" x="88.46" y="146.15" width="3.85" height="3.85"/><rect class="g" x="88.46" y="142.31" width="3.85" height="3.84"/><rect class="g" x="88.46" y="138.46" width="3.85" height="3.85"/><rect class="a" x="88.46" y="134.62" width="3.85" height="3.84"/><rect class="b" x="88.46" y="130.77" width="3.85" height="3.85"/><rect class="b" x="88.46" y="126.92" width="3.85" height="3.85"/><rect class="c" x="88.46" y="123.08" width="3.85" height="3.84"/><rect class="b" x="88.46" y="119.23" width="3.85" height="3.85"/><rect class="b" x="88.46" y="115.38" width="3.85" height="3.85"/><rect class="c" x="88.46" y="111.54" width="3.85" height="3.84"/><rect class="b" x="88.46" y="107.69" width="3.85" height="3.85"/><rect class="d" x="88.46" y="103.85" width="3.85" height="3.84"/><rect class="e" x="84.62" y="165.38" width="3.84" height="3.85"/><rect class="e" x="84.62" y="161.54" width="3.84" height="3.84"/><rect class="e" x="84.62" y="157.69" width="3.84" height="3.85"/><rect class="g" x="84.62" y="153.85" width="3.84" height="3.84"/><rect class="g" x="84.62" y="150" width="3.84" height="3.85"/><rect class="g" x="84.62" y="146.15" width="3.84" height="3.85"/><rect class="g" x="84.62" y="142.31" width="3.84" height="3.84"/><rect class="g" x="84.62" y="138.46" width="3.84" height="3.85"/><rect class="a" x="84.62" y="134.62" width="3.84" height="3.84"/><rect class="d" x="84.62" y="130.77" width="3.84" height="3.85"/><rect class="d" x="84.62" y="126.92" width="3.84" height="3.85"/><rect class="a" x="84.62" y="123.08" width="3.84" height="3.84"/><rect class="d" x="84.62" y="119.23" width="3.84" height="3.85"/><rect class="d" x="84.62" y="115.38" width="3.84" height="3.85"/><rect class="a" x="84.62" y="111.54" width="3.84" height="3.84"/><rect class="b" x="84.62" y="107.69" width="3.84" height="3.85"/><rect class="d" x="84.62" y="103.85" width="3.84" height="3.84"/><rect class="a" x="80.77" y="146.15" width="3.85" height="3.85"/><rect class="d" x="80.77" y="142.31" width="3.85" height="3.84"/><rect class="b" x="80.77" y="138.46" width="3.85" height="3.85"/><rect class="c" x="80.77" y="134.62" width="3.85" height="3.84"/><rect class="b" x="80.77" y="130.77" width="3.85" height="3.85"/><rect class="b" x="80.77" y="126.92" width="3.85" height="3.85"/><rect class="c" x="80.77" y="123.08" width="3.85" height="3.84"/><rect class="b" x="80.77" y="119.23" width="3.85" height="3.85"/><rect class="b" x="80.77" y="115.38" width="3.85" height="3.85"/><rect class="c" x="80.77" y="111.54" width="3.85" height="3.84"/><rect class="d" x="80.77" y="107.69" width="3.85" height="3.85"/><rect class="a" x="76.92" y="146.15" width="3.85" height="3.85"/><rect class="d" x="76.92" y="142.31" width="3.85" height="3.84"/><rect class="d" x="76.92" y="138.46" width="3.85" height="3.85"/><rect class="c" x="76.92" y="134.62" width="3.85" height="3.84"/><rect class="b" x="76.92" y="130.77" width="3.85" height="3.85"/><rect class="b" x="76.92" y="126.92" width="3.85" height="3.85"/><rect class="c" x="76.92" y="123.08" width="3.85" height="3.84"/><rect class="b" x="76.92" y="119.23" width="3.85" height="3.85"/><rect class="b" x="76.92" y="115.38" width="3.85" height="3.85"/><rect class="c" x="76.92" y="111.54" width="3.85" height="3.84"/><rect class="d" x="76.92" y="107.69" width="3.85" height="3.85"/></svg>