<svg xmlns="http://www.w3.org/2000/svg" viewBox="0 0 200 200"><defs><style>.a{fill:#4c4b4a;}.b{fill:#727170;}.c{fill:#9b9998;}</style></defs><title>000</title><rect class="a" x="119.23" y="142.31" width="3.85" height="3.84"/><rect class="a" x="119.23" y="138.46" width="3.85" height="3.85"/><rect class="b" x="119.23" y="134.62" width="3.85" height="3.84"/><rect class="b" x="119.23" y="130.77" width="3.85" height="3.85"/><rect class="b" x="119.23" y="126.92" width="3.85" height="3.85"/><rect class="b" x="119.23" y="123.08" width="3.85" height="3.84"/><rect class="b" x="119.23" y="119.23" width="3.85" height="3.85"/><rect class="b" x="119.23" y="115.38" width="3.85" height="3.85"/><rect class="b" x="119.23" y="111.54" width="3.85" height="3.84"/><rect class="c" x="119.23" y="107.69" width="3.85" height="3.85"/><rect class="a" x="115.38" y="142.31" width="3.85" height="3.84"/><rect class="a" x="115.38" y="138.46" width="3.85" height="3.85"/><rect class="a" x="115.38" y="134.62" width="3.85" height="3.84"/><rect class="a" x="115.38" y="130.77" width="3.85" height="3.85"/><rect class="a" x="115.38" y="126.92" width="3.85" height="3.85"/><rect class="a" x="115.38" y="123.08" width="3.85" height="3.84"/><rect class="b" x="115.38" y="119.23" width="3.85" height="3.85"/><rect class="b" x="115.38" y="115.38" width="3.85" height="3.85"/><rect class="c" x="115.38" y="111.54" width="3.85" height="3.84"/><rect class="c" x="115.38" y="107.69" width="3.85" height="3.85"/><rect class="b" x="111.54" y="142.31" width="3.84" height="3.84"/><rect class="a" x="111.54" y="138.46" width="3.84" height="3.85"/><rect class="a" x="111.54" y="134.62" width="3.84" height="3.84"/><rect class="a" x="111.54" y="130.77" width="3.84" height="3.85"/><rect class="a" x="111.54" y="126.92" width="3.84" height="3.85"/><rect class="a" x="111.54" y="123.08" width="3.84" height="3.84"/><rect class="a" x="111.54" y="119.23" width="3.84" height="3.85"/><rect class="a" x="111.54" y="115.38" width="3.84" height="3.85"/><rect class="c" x="111.54" y="111.54" width="3.84" height="3.84"/><rect class="c" x="111.54" y="107.69" width="3.84" height="3.85"/><rect class="c" x="111.54" y="103.85" width="3.84" height="3.84"/><rect class="b" x="107.69" y="142.31" width="3.85" height="3.84"/><rect class="b" x="107.69" y="138.46" width="3.85" height="3.85"/><rect class="b" x="107.69" y="134.62" width="3.85" height="3.84"/><rect class="b" x="107.69" y="130.77" width="3.85" height="3.85"/><rect class="b" x="107.69" y="126.92" width="3.85" height="3.85"/><rect class="c" x="107.69" y="123.08" width="3.85" height="3.84"/><rect class="c" x="107.69" y="119.23" width="3.85" height="3.85"/><rect class="c" x="107.69" y="115.38" width="3.85" height="3.85"/><rect class="c" x="107.69" y="111.54" width="3.85" height="3.84"/><rect class="b" x="107.69" y="107.69" width="3.85" height="3.85"/><rect class="c" x="107.69" y="103.85" width="3.85" height="3.84"/><rect class="a" x="103.85" y="142.31" width="3.84" height="3.84"/><rect class="b" x="103.85" y="138.46" width="3.84" height="3.85"/><rect class="b" x="103.85" y="134.62" width="3.84" height="3.84"/><rect class="b" x="103.85" y="130.77" width="3.84" height="3.85"/><rect class="b" x="103.85" y="126.92" width="3.84" height="3.85"/><rect class="b" x="103.85" y="123.08" width="3.84" height="3.84"/><rect class="c" x="103.85" y="119.23" width="3.84" height="3.85"/><rect class="c" x="103.85" y="115.38" width="3.84" height="3.85"/><rect class="c" x="103.85" y="111.54" width="3.84" height="3.84"/><rect class="b" x="103.85" y="107.69" width="3.84" height="3.85"/><rect class="b" x="103.85" y="103.85" width="3.84" height="3.84"/><rect class="a" x="100" y="142.31" width="3.85" height="3.84"/><rect class="a" x="100" y="138.46" width="3.85" height="3.85"/><rect class="b" x="100" y="134.62" width="3.85" height="3.84"/><rect class="b" x="100" y="130.77" width="3.85" height="3.85"/><rect class="b" x="100" y="126.92" width="3.85" height="3.85"/><rect class="b" x="100" y="123.08" width="3.85" height="3.84"/><rect class="b" x="100" y="119.23" width="3.85" height="3.85"/><rect class="c" x="100" y="115.38" width="3.85" height="3.85"/><rect class="b" x="100" y="111.54" width="3.85" height="3.84"/><rect class="b" x="100" y="107.69" width="3.85" height="3.85"/><rect class="b" x="100" y="103.85" width="3.85" height="3.84"/><rect class="a" x="100" y="100" width="3.85" height="3.85"/><rect class="a" x="96.15" y="142.31" width="3.85" height="3.84"/><rect class="a" x="96.15" y="138.46" width="3.85" height="3.85"/><rect class="a" x="96.15" y="134.62" width="3.85" height="3.84"/><rect class="b" x="96.15" y="130.77" width="3.85" height="3.85"/><rect class="b" x="96.15" y="126.92" width="3.85" height="3.85"/><rect class="b" x="96.15" y="123.08" width="3.85" height="3.84"/><rect class="b" x="96.15" y="119.23" width="3.85" height="3.85"/><rect class="b" x="96.15" y="115.38" width="3.85" height="3.85"/><rect class="b" x="96.15" y="111.54" width="3.85" height="3.84"/><rect class="b" x="96.15" y="107.69" width="3.85" height="3.85"/><rect class="a" x="96.15" y="103.85" width="3.85" height="3.84"/><rect class="a" x="96.15" y="100" width="3.85" height="3.85"/><rect class="a" x="92.31" y="142.31" width="3.84" height="3.84"/><rect class="a" x="92.31" y="138.46" width="3.84" height="3.85"/><rect class="a" x="92.31" y="134.62" width="3.84" height="3.84"/><rect class="a" x="92.31" y="130.77" width="3.84" height="3.85"/><rect class="b" x="92.31" y="126.92" width="3.84" height="3.85"/><rect class="b" x="92.31" y="123.08" width="3.84" height="3.84"/><rect class="b" x="92.31" y="119.23" width="3.84" height="3.85"/><rect class="b" x="92.31" y="115.38" width="3.84" height="3.85"/><rect class="b" x="92.31" y="111.54" width="3.84" height="3.84"/><rect class="b" x="92.31" y="107.69" width="3.84" height="3.85"/><rect class="a" x="92.31" y="103.85" width="3.84" height="3.84"/><rect class="a" x="88.46" y="142.31" width="3.85" height="3.84"/><rect class="a" x="88.46" y="138.46" width="3.85" height="3.85"/><rect class="a" x="88.46" y="134.62" width="3.85" height="3.84"/><rect class="a" x="88.46" y="130.77" width="3.85" height="3.85"/><rect class="a" x="88.46" y="126.92" width="3.85" height="3.85"/><rect class="a" x="88.46" y="123.08" width="3.85" height="3.84"/><rect class="b" x="88.46" y="119.23" width="3.85" height="3.85"/><rect class="b" x="88.46" y="115.38" width="3.85" height="3.85"/><rect class="b" x="88.46" y="111.54" width="3.85" height="3.84"/><rect class="b" x="88.46" y="107.69" width="3.85" height="3.85"/><rect class="a" x="88.46" y="103.85" width="3.85" height="3.84"/><rect class="a" x="84.62" y="142.31" width="3.84" height="3.84"/><rect class="a" x="84.62" y="138.46" width="3.84" height="3.85"/><rect class="a" x="84.62" y="134.62" width="3.84" height="3.84"/><rect class="a" x="84.62" y="130.77" width="3.84" height="3.85"/><rect class="a" x="84.62" y="126.92" width="3.84" height="3.85"/><rect class="a" x="84.62" y="123.08" width="3.84" height="3.84"/><rect class="a" x="84.62" y="119.23" width="3.84" height="3.85"/><rect class="a" x="84.62" y="115.38" width="3.84" height="3.85"/><rect class="b" x="84.62" y="111.54" width="3.84" height="3.84"/><rect class="b" x="84.62" y="107.69" width="3.84" height="3.85"/><rect class="a" x="84.62" y="103.85" width="3.84" height="3.84"/><rect class="a" x="80.77" y="142.31" width="3.85" height="3.84"/><rect class="a" x="80.77" y="138.46" width="3.85" height="3.85"/><rect class="a" x="80.77" y="134.62" width="3.85" height="3.84"/><rect class="a" x="80.77" y="130.77" width="3.85" height="3.85"/><rect class="a" x="80.77" y="126.92" width="3.85" height="3.85"/><rect class="a" x="80.77" y="123.08" width="3.85" height="3.84"/><rect class="b" x="80.77" y="119.23" width="3.85" height="3.85"/><rect class="c" x="80.77" y="115.38" width="3.85" height="3.85"/><rect class="c" x="80.77" y="111.54" width="3.85" height="3.84"/><rect class="c" x="80.77" y="107.69" width="3.85" height="3.85"/><rect class="a" x="76.92" y="142.31" width="3.85" height="3.84"/><rect class="b" x="76.92" y="138.46" width="3.85" height="3.85"/><rect class="b" x="76.92" y="134.62" width="3.85" height="3.84"/><rect class="b" x="76.92" y="130.77" width="3.85" height="3.85"/><rect class="b" x="76.92" y="126.92" width="3.85" height="3.85"/><rect class="b" x="76.92" y="123.08" width="3.85" height="3.84"/><rect class="b" x="76.92" y="119.23" width="3.85" height="3.85"/><rect class="b" x="76.92" y="115.38" width="3.85" height="3.85"/><rect class="c" x="76.92" y="111.54" width="3.85" height="3.84"/><rect class="c" x="76.92" y="107.69" width="3.85" height="3.85"/></svg>