<svg xmlns="http://www.w3.org/2000/svg" viewBox="0 0 200 200"><defs><style>.a{fill:#1a3899;}.b{fill:#162e68;}</style></defs><title>male_shorts_1</title><rect class="a" x="115.38" y="153.85" width="3.85" height="3.84"/><rect class="a" x="115.38" y="150" width="3.85" height="3.85"/><rect class="a" x="115.38" y="146.15" width="3.85" height="3.85"/><rect class="a" x="115.38" y="142.31" width="3.85" height="3.84"/><rect class="b" x="111.54" y="153.85" width="3.84" height="3.84"/><rect class="a" x="111.54" y="150" width="3.84" height="3.85"/><rect class="a" x="111.54" y="146.15" width="3.84" height="3.85"/><rect class="b" x="111.54" y="142.31" width="3.84" height="3.84"/><rect class="b" x="107.69" y="153.85" width="3.85" height="3.84"/><rect class="b" x="107.69" y="150" width="3.85" height="3.85"/><rect class="a" x="107.69" y="146.15" width="3.85" height="3.85"/><rect class="b" x="107.69" y="142.31" width="3.85" height="3.84"/><rect class="a" x="103.85" y="150" width="3.84" height="3.85"/><rect class="a" x="103.85" y="146.15" width="3.84" height="3.85"/><rect class="b" x="103.85" y="142.31" width="3.84" height="3.84"/><rect class="a" x="100" y="150" width="3.85" height="3.85"/><rect class="a" x="100" y="146.15" width="3.85" height="3.85"/><rect class="b" x="100" y="142.31" width="3.85" height="3.84"/><rect class="a" x="96.15" y="150" width="3.85" height="3.85"/><rect class="a" x="96.15" y="146.15" width="3.85" height="3.85"/><rect class="b" x="96.15" y="142.31" width="3.85" height="3.84"/><rect class="a" x="92.31" y="150" width="3.84" height="3.85"/><rect class="a" x="92.31" y="146.15" width="3.84" height="3.85"/><rect class="b" x="92.31" y="142.31" width="3.84" height="3.84"/><rect class="b" x="88.46" y="153.85" width="3.85" height="3.84"/><rect class="a" x="88.46" y="150" width="3.85" height="3.85"/><rect class="a" x="88.46" y="146.15" width="3.85" height="3.85"/><rect class="b" x="88.46" y="142.31" width="3.85" height="3.84"/><rect class="b" x="84.62" y="153.85" width="3.84" height="3.84"/><rect class="b" x="84.62" y="150" width="3.84" height="3.85"/><rect class="b" x="84.62" y="146.15" width="3.84" height="3.85"/><rect class="b" x="80.77" y="153.85" width="3.85" height="3.84"/><rect class="b" x="80.77" y="150" width="3.85" height="3.85"/><rect class="b" x="80.77" y="146.15" width="3.85" height="3.85"/><rect class="b" x="80.77" y="142.31" width="3.85" height="3.84"/><rect class="b" x="84.62" y="142.31" width="3.84" height="3.84"/></svg>