<svg xmlns="http://www.w3.org/2000/svg" viewBox="0 0 200 200"><defs><style>.a{fill:#282828;}</style></defs><title>cobweb</title><rect class="a" x="100" y="196.15" width="3.85" height="3.85"/><rect class="a" x="142.31" y="196.15" width="3.84" height="3.85"/><rect class="a" x="50" y="196.15" width="3.85" height="3.85"/><rect class="a" x="76.92" width="3.85" height="3.85"/><rect class="a" x="80.77" width="3.85" height="3.85"/><rect class="a" x="84.62" width="3.84" height="3.85"/><rect class="a" x="88.46" width="3.85" height="3.85"/><rect class="a" x="92.31" width="3.84" height="3.85"/><rect class="a" x="196.15" y="196.15" width="3.85" height="3.85"/><rect class="a" x="196.15" y="142.31" width="3.85" height="3.84"/><rect class="a" x="196.15" y="96.15" width="3.85" height="3.85"/><rect class="a" x="196.15" width="3.85" height="3.85"/><rect class="a" x="192.31" y="192.31" width="3.84" height="3.84"/><rect class="a" x="192.31" y="146.15" width="3.84" height="3.85"/><rect class="a" x="192.31" y="96.15" width="3.84" height="3.85"/><rect class="a" x="192.31" y="3.85" width="3.84" height="3.84"/><rect class="a" x="188.46" y="188.46" width="3.85" height="3.85"/><rect class="a" x="188.46" y="153.85" width="3.85" height="3.84"/><rect class="a" x="188.46" y="150" width="3.85" height="3.85"/><rect class="a" x="188.46" y="96.15" width="3.85" height="3.85"/><rect class="a" x="188.46" y="92.31" width="3.85" height="3.84"/><rect class="a" x="188.46" y="7.69" width="3.85" height="3.85"/><rect class="a" x="184.62" y="184.62" width="3.84" height="3.84"/><rect class="a" x="184.62" y="157.69" width="3.84" height="3.85"/><rect class="a" x="184.62" y="100" width="3.84" height="3.85"/><rect class="a" x="184.62" y="96.15" width="3.84" height="3.85"/><rect class="a" x="184.62" y="88.46" width="3.84" height="3.85"/><rect class="a" x="184.62" y="84.62" width="3.84" height="3.84"/><rect class="a" x="184.62" y="11.54" width="3.84" height="3.84"/><rect class="a" x="180.77" y="180.77" width="3.85" height="3.85"/><rect class="a" x="180.77" y="161.54" width="3.85" height="3.84"/><rect class="a" x="180.77" y="103.85" width="3.85" height="3.84"/><rect class="a" x="180.77" y="96.15" width="3.85" height="3.85"/><rect class="a" x="180.77" y="80.77" width="3.85" height="3.85"/><rect class="a" x="180.77" y="76.92" width="3.85" height="3.85"/><rect class="a" x="180.77" y="15.38" width="3.85" height="3.85"/><rect class="a" x="176.92" y="176.92" width="3.85" height="3.85"/><rect class="a" x="176.92" y="165.38" width="3.85" height="3.85"/><rect class="a" x="176.92" y="107.69" width="3.85" height="3.85"/><rect class="a" x="176.92" y="96.15" width="3.85" height="3.85"/><rect class="a" x="176.92" y="73.08" width="3.85" height="3.84"/><rect class="a" x="176.92" y="69.23" width="3.85" height="3.85"/><rect class="a" x="176.92" y="19.23" width="3.85" height="3.85"/><rect class="a" x="173.08" y="173.08" width="3.84" height="3.84"/><rect class="a" x="173.08" y="169.23" width="3.84" height="3.85"/><rect class="a" x="173.08" y="119.23" width="3.84" height="3.85"/><rect class="a" x="173.08" y="115.38" width="3.84" height="3.85"/><rect class="a" x="173.08" y="111.54" width="3.84" height="3.84"/><rect class="a" x="173.08" y="96.15" width="3.84" height="3.85"/><rect class="a" x="173.08" y="65.38" width="3.84" height="3.85"/><rect class="a" x="173.08" y="61.54" width="3.84" height="3.84"/><rect class="a" x="173.08" y="23.08" width="3.84" height="3.84"/><rect class="a" x="173.08" y="19.23" width="3.84" height="3.85"/><rect class="a" x="169.23" y="176.92" width="3.85" height="3.85"/><rect class="a" x="169.23" y="169.23" width="3.85" height="3.85"/><rect class="a" x="169.23" y="134.62" width="3.85" height="3.84"/><rect class="a" x="169.23" y="130.77" width="3.85" height="3.85"/><rect class="a" x="169.23" y="126.92" width="3.85" height="3.85"/><rect class="a" x="169.23" y="123.08" width="3.85" height="3.84"/><rect class="a" x="169.23" y="96.15" width="3.85" height="3.85"/><rect class="a" x="169.23" y="57.69" width="3.85" height="3.85"/><rect class="a" x="169.23" y="53.85" width="3.85" height="3.84"/><rect class="a" x="169.23" y="42.31" width="3.85" height="3.84"/><rect class="a" x="169.23" y="38.46" width="3.85" height="3.85"/><rect class="a" x="169.23" y="30.77" width="3.85" height="3.85"/><rect class="a" x="169.23" y="26.92" width="3.85" height="3.85"/><rect class="a" x="169.23" y="19.23" width="3.85" height="3.85"/><rect class="a" x="165.38" y="176.92" width="3.85" height="3.85"/><rect class="a" x="165.38" y="165.38" width="3.85" height="3.85"/><rect class="a" x="165.38" y="138.46" width="3.85" height="3.85"/><rect class="a" x="165.38" y="96.15" width="3.85" height="3.85"/><rect class="a" x="165.38" y="50" width="3.85" height="3.85"/><rect class="a" x="165.38" y="46.15" width="3.85" height="3.85"/><rect class="a" x="165.38" y="34.62" width="3.85" height="3.84"/><rect class="a" x="165.38" y="30.77" width="3.85" height="3.85"/><rect class="a" x="165.38" y="19.23" width="3.85" height="3.85"/><rect class="a" x="161.54" y="176.92" width="3.84" height="3.85"/><rect class="a" x="161.54" y="161.54" width="3.84" height="3.84"/><rect class="a" x="161.54" y="142.31" width="3.84" height="3.84"/><rect class="a" x="161.54" y="96.15" width="3.84" height="3.85"/><rect class="a" x="161.54" y="34.62" width="3.84" height="3.84"/><rect class="a" x="161.54" y="15.38" width="3.84" height="3.85"/><rect class="a" x="157.69" y="180.77" width="3.85" height="3.85"/><rect class="a" x="157.69" y="157.69" width="3.85" height="3.85"/><rect class="a" x="157.69" y="150" width="3.85" height="3.85"/><rect class="a" x="157.69" y="146.15" width="3.85" height="3.85"/><rect class="a" x="157.69" y="103.85" width="3.85" height="3.84"/><rect class="a" x="157.69" y="100" width="3.85" height="3.85"/><rect class="a" x="157.69" y="96.15" width="3.85" height="3.85"/><rect class="a" x="157.69" y="92.31" width="3.85" height="3.84"/><rect class="a" x="157.69" y="38.46" width="3.85" height="3.85"/><rect class="a" x="157.69" y="15.38" width="3.85" height="3.85"/><rect class="a" x="153.85" y="180.77" width="3.84" height="3.85"/><rect class="a" x="153.85" y="153.85" width="3.84" height="3.84"/><rect class="a" x="153.85" y="107.69" width="3.84" height="3.85"/><rect class="a" x="153.85" y="96.15" width="3.84" height="3.85"/><rect class="a" x="153.85" y="88.46" width="3.84" height="3.85"/><rect class="a" x="153.85" y="42.31" width="3.84" height="3.84"/><rect class="a" x="153.85" y="15.38" width="3.84" height="3.85"/><rect class="a" x="150" y="184.62" width="3.85" height="3.84"/><rect class="a" x="150" y="157.69" width="3.85" height="3.85"/><rect class="a" x="150" y="150" width="3.85" height="3.85"/><rect class="a" x="150" y="111.54" width="3.85" height="3.84"/><rect class="a" x="150" y="96.15" width="3.85" height="3.85"/><rect class="a" x="150" y="84.62" width="3.85" height="3.84"/><rect class="a" x="150" y="46.15" width="3.85" height="3.85"/><rect class="a" x="150" y="38.46" width="3.85" height="3.85"/><rect class="a" x="150" y="15.38" width="3.85" height="3.85"/><rect class="a" x="146.15" y="188.46" width="3.85" height="3.85"/><rect class="a" x="146.15" y="161.54" width="3.85" height="3.84"/><rect class="a" x="146.15" y="146.15" width="3.85" height="3.85"/><rect class="a" x="146.15" y="115.38" width="3.85" height="3.85"/><rect class="a" x="146.15" y="96.15" width="3.85" height="3.85"/><rect class="a" x="146.15" y="80.77" width="3.85" height="3.85"/><rect class="a" x="146.15" y="76.92" width="3.85" height="3.85"/><rect class="a" x="146.15" y="61.54" width="3.85" height="3.84"/><rect class="a" x="146.15" y="57.69" width="3.85" height="3.85"/><rect class="a" x="146.15" y="50" width="3.85" height="3.85"/><rect class="a" x="146.15" y="38.46" width="3.85" height="3.85"/><rect class="a" x="146.15" y="19.23" width="3.85" height="3.85"/><rect class="a" x="142.31" y="192.31" width="3.84" height="3.84"/><rect class="a" x="142.31" y="161.54" width="3.84" height="3.84"/><rect class="a" x="142.31" y="142.31" width="3.84" height="3.84"/><rect class="a" x="142.31" y="130.77" width="3.84" height="3.85"/><rect class="a" x="142.31" y="126.92" width="3.84" height="3.85"/><rect class="a" x="142.31" y="119.23" width="3.84" height="3.85"/><rect class="a" x="142.31" y="96.15" width="3.84" height="3.85"/><rect class="a" x="142.31" y="73.08" width="3.84" height="3.84"/><rect class="a" x="142.31" y="69.23" width="3.84" height="3.85"/><rect class="a" x="142.31" y="65.38" width="3.84" height="3.85"/><rect class="a" x="142.31" y="53.85" width="3.84" height="3.84"/><rect class="a" x="142.31" y="38.46" width="3.84" height="3.85"/><rect class="a" x="142.31" y="19.23" width="3.84" height="3.85"/><rect class="a" x="138.46" y="161.54" width="3.85" height="3.84"/><rect class="a" x="138.46" y="138.46" width="3.85" height="3.85"/><rect class="a" x="138.46" y="134.62" width="3.85" height="3.84"/><rect class="a" x="138.46" y="123.08" width="3.85" height="3.84"/><rect class="a" x="138.46" y="96.15" width="3.85" height="3.85"/><rect class="a" x="138.46" y="57.69" width="3.85" height="3.85"/><rect class="a" x="138.46" y="38.46" width="3.85" height="3.85"/><rect class="a" x="138.46" y="19.23" width="3.85" height="3.85"/><rect class="a" x="134.62" y="165.38" width="3.84" height="3.85"/><rect class="a" x="134.62" y="138.46" width="3.84" height="3.85"/><rect class="a" x="134.62" y="134.62" width="3.84" height="3.84"/><rect class="a" x="134.62" y="103.85" width="3.84" height="3.84"/><rect class="a" x="134.62" y="100" width="3.84" height="3.85"/><rect class="a" x="134.62" y="96.15" width="3.84" height="3.85"/><rect class="a" x="134.62" y="92.31" width="3.84" height="3.84"/><rect class="a" x="134.62" y="88.46" width="3.84" height="3.85"/><rect class="a" x="134.62" y="61.54" width="3.84" height="3.84"/><rect class="a" x="134.62" y="38.46" width="3.84" height="3.85"/><rect class="a" x="134.62" y="19.23" width="3.84" height="3.85"/><rect class="a" x="130.77" y="165.38" width="3.85" height="3.85"/><rect class="a" x="130.77" y="142.31" width="3.85" height="3.84"/><rect class="a" x="130.77" y="130.77" width="3.85" height="3.85"/><rect class="a" x="130.77" y="107.69" width="3.85" height="3.85"/><rect class="a" x="130.77" y="96.15" width="3.85" height="3.85"/><rect class="a" x="130.77" y="84.62" width="3.85" height="3.84"/><rect class="a" x="130.77" y="76.92" width="3.85" height="3.85"/><rect class="a" x="130.77" y="73.08" width="3.85" height="3.84"/><rect class="a" x="130.77" y="69.23" width="3.85" height="3.85"/><rect class="a" x="130.77" y="65.38" width="3.85" height="3.85"/><rect class="a" x="130.77" y="38.46" width="3.85" height="3.85"/><rect class="a" x="130.77" y="19.23" width="3.85" height="3.85"/><rect class="a" x="126.92" y="169.23" width="3.85" height="3.85"/><rect class="a" x="126.92" y="142.31" width="3.85" height="3.84"/><rect class="a" x="126.92" y="126.92" width="3.85" height="3.85"/><rect class="a" x="126.92" y="111.54" width="3.85" height="3.84"/><rect class="a" x="126.92" y="96.15" width="3.85" height="3.85"/><rect class="a" x="126.92" y="80.77" width="3.85" height="3.85"/><rect class="a" x="126.92" y="69.23" width="3.85" height="3.85"/><rect class="a" x="126.92" y="42.31" width="3.85" height="3.84"/><rect class="a" x="126.92" y="15.38" width="3.85" height="3.85"/><rect class="a" x="123.08" y="169.23" width="3.84" height="3.85"/><rect class="a" x="123.08" y="146.15" width="3.84" height="3.85"/><rect class="a" x="123.08" y="123.08" width="3.84" height="3.84"/><rect class="a" x="123.08" y="115.38" width="3.84" height="3.85"/><rect class="a" x="123.08" y="96.15" width="3.84" height="3.85"/><rect class="a" x="123.08" y="73.08" width="3.84" height="3.84"/><rect class="a" x="123.08" y="65.38" width="3.84" height="3.85"/><rect class="a" x="123.08" y="42.31" width="3.84" height="3.84"/><rect class="a" x="123.08" y="15.38" width="3.84" height="3.85"/><rect class="a" x="119.23" y="173.08" width="3.85" height="3.84"/><rect class="a" x="119.23" y="146.15" width="3.85" height="3.85"/><rect class="a" x="119.23" y="123.08" width="3.85" height="3.84"/><rect class="a" x="119.23" y="119.23" width="3.85" height="3.85"/><rect class="a" x="119.23" y="100" width="3.85" height="3.85"/><rect class="a" x="119.23" y="96.15" width="3.85" height="3.85"/><rect class="a" x="119.23" y="92.31" width="3.85" height="3.84"/><rect class="a" x="119.23" y="76.92" width="3.85" height="3.85"/><rect class="a" x="119.23" y="65.38" width="3.85" height="3.85"/><rect class="a" x="119.23" y="42.31" width="3.85" height="3.84"/><rect class="a" x="119.23" y="15.38" width="3.85" height="3.85"/><rect class="a" x="115.38" y="173.08" width="3.85" height="3.84"/><rect class="a" x="115.38" y="146.15" width="3.85" height="3.85"/><rect class="a" x="115.38" y="126.92" width="3.85" height="3.85"/><rect class="a" x="115.38" y="115.38" width="3.85" height="3.85"/><rect class="a" x="115.38" y="103.85" width="3.85" height="3.84"/><rect class="a" x="115.38" y="96.15" width="3.85" height="3.85"/><rect class="a" x="115.38" y="88.46" width="3.85" height="3.85"/><rect class="a" x="115.38" y="80.77" width="3.85" height="3.85"/><rect class="a" x="115.38" y="61.54" width="3.85" height="3.84"/><rect class="a" x="115.38" y="42.31" width="3.85" height="3.84"/><rect class="a" x="115.38" y="15.38" width="3.85" height="3.85"/><rect class="a" x="111.54" y="176.92" width="3.84" height="3.85"/><rect class="a" x="111.54" y="150" width="3.84" height="3.85"/><rect class="a" x="111.54" y="126.92" width="3.84" height="3.85"/><rect class="a" x="111.54" y="111.54" width="3.84" height="3.84"/><rect class="a" x="111.54" y="107.69" width="3.84" height="3.85"/><rect class="a" x="111.54" y="96.15" width="3.84" height="3.85"/><rect class="a" x="111.54" y="84.62" width="3.84" height="3.84"/><rect class="a" x="111.54" y="61.54" width="3.84" height="3.84"/><rect class="a" x="111.54" y="38.46" width="3.84" height="3.85"/><rect class="a" x="111.54" y="11.54" width="3.84" height="3.84"/><rect class="a" x="107.69" y="180.77" width="3.85" height="3.85"/><rect class="a" x="107.69" y="153.85" width="3.85" height="3.84"/><rect class="a" x="107.69" y="126.92" width="3.85" height="3.85"/><rect class="a" x="107.69" y="115.38" width="3.85" height="3.85"/><rect class="a" x="107.69" y="107.69" width="3.85" height="3.85"/><rect class="a" x="107.69" y="96.15" width="3.85" height="3.85"/><rect class="a" x="107.69" y="88.46" width="3.85" height="3.85"/><rect class="a" x="107.69" y="80.77" width="3.85" height="3.85"/><rect class="a" x="107.69" y="57.69" width="3.85" height="3.85"/><rect class="a" x="107.69" y="38.46" width="3.85" height="3.85"/><rect class="a" x="107.69" y="11.54" width="3.85" height="3.84"/><rect class="a" x="103.85" y="184.62" width="3.84" height="3.84"/><rect class="a" x="103.85" y="161.54" width="3.84" height="3.84"/><rect class="a" x="103.85" y="157.69" width="3.84" height="3.85"/><rect class="a" x="103.85" y="130.77" width="3.84" height="3.85"/><rect class="a" x="103.85" y="115.38" width="3.84" height="3.85"/><rect class="a" x="103.85" y="103.85" width="3.84" height="3.84"/><rect class="a" x="103.85" y="96.15" width="3.84" height="3.85"/><rect class="a" x="103.85" y="92.31" width="3.84" height="3.84"/><rect class="a" x="103.85" y="76.92" width="3.84" height="3.85"/><rect class="a" x="103.85" y="53.85" width="3.84" height="3.84"/><rect class="a" x="103.85" y="34.62" width="3.84" height="3.84"/><rect class="a" x="103.85" y="11.54" width="3.84" height="3.84"/><rect class="a" x="100" y="192.31" width="3.85" height="3.84"/><rect class="a" x="100" y="188.46" width="3.85" height="3.85"/><rect class="a" x="100" y="184.62" width="3.85" height="3.84"/><rect class="a" x="100" y="180.77" width="3.85" height="3.85"/><rect class="a" x="100" y="176.92" width="3.85" height="3.85"/><rect class="a" x="100" y="173.08" width="3.85" height="3.84"/><rect class="a" x="100" y="169.23" width="3.85" height="3.85"/><rect class="a" x="100" y="165.38" width="3.85" height="3.85"/><rect class="a" x="100" y="161.54" width="3.85" height="3.84"/><rect class="a" x="100" y="157.69" width="3.85" height="3.85"/><rect class="a" x="100" y="153.85" width="3.85" height="3.84"/><rect class="a" x="100" y="150" width="3.85" height="3.85"/><rect class="a" x="100" y="146.15" width="3.85" height="3.85"/><rect class="a" x="100" y="142.31" width="3.85" height="3.84"/><rect class="a" x="100" y="138.46" width="3.85" height="3.85"/><rect class="a" x="100" y="134.62" width="3.85" height="3.84"/><rect class="a" x="100" y="130.77" width="3.85" height="3.85"/><rect class="a" x="100" y="126.92" width="3.85" height="3.85"/><rect class="a" x="100" y="123.08" width="3.85" height="3.84"/><rect class="a" x="100" y="119.23" width="3.85" height="3.85"/><rect class="a" x="100" y="115.38" width="3.85" height="3.85"/><rect class="a" x="100" y="111.54" width="3.85" height="3.84"/><rect class="a" x="100" y="107.69" width="3.85" height="3.85"/><rect class="a" x="100" y="103.85" width="3.85" height="3.84"/><rect class="a" x="100" y="100" width="3.85" height="3.85"/><rect class="a" x="100" y="96.15" width="3.85" height="3.85"/><rect class="a" x="100" y="73.08" width="3.85" height="3.84"/><rect class="a" x="100" y="50" width="3.85" height="3.85"/><rect class="a" x="100" y="30.77" width="3.85" height="3.85"/><rect class="a" x="100" y="7.69" width="3.85" height="3.85"/><rect class="a" x="96.15" y="188.46" width="3.85" height="3.85"/><rect class="a" x="96.15" y="161.54" width="3.85" height="3.84"/><rect class="a" x="96.15" y="130.77" width="3.85" height="3.85"/><rect class="a" x="96.15" y="115.38" width="3.85" height="3.85"/><rect class="a" x="96.15" y="100" width="3.85" height="3.85"/><rect class="a" x="96.15" y="96.15" width="3.85" height="3.85"/><rect class="a" x="96.15" y="92.31" width="3.85" height="3.84"/><rect class="a" x="96.15" y="88.46" width="3.85" height="3.85"/><rect class="a" x="96.15" y="84.62" width="3.85" height="3.84"/><rect class="a" x="96.15" y="80.77" width="3.85" height="3.85"/><rect class="a" x="96.15" y="76.92" width="3.85" height="3.85"/><rect class="a" x="96.15" y="73.08" width="3.85" height="3.84"/><rect class="a" x="96.15" y="69.23" width="3.85" height="3.85"/><rect class="a" x="96.15" y="65.38" width="3.85" height="3.85"/><rect class="a" x="96.15" y="61.54" width="3.85" height="3.84"/><rect class="a" x="96.15" y="57.69" width="3.85" height="3.85"/><rect class="a" x="96.15" y="53.85" width="3.85" height="3.84"/><rect class="a" x="96.15" y="50" width="3.85" height="3.85"/><rect class="a" x="96.15" y="46.15" width="3.85" height="3.85"/><rect class="a" x="96.15" y="42.31" width="3.85" height="3.84"/><rect class="a" x="96.15" y="38.46" width="3.85" height="3.85"/><rect class="a" x="96.15" y="34.62" width="3.85" height="3.84"/><rect class="a" x="96.15" y="30.77" width="3.85" height="3.85"/><rect class="a" x="96.15" y="26.92" width="3.85" height="3.85"/><rect class="a" x="96.15" y="23.08" width="3.85" height="3.84"/><rect class="a" x="96.15" y="19.23" width="3.85" height="3.85"/><rect class="a" x="96.15" y="15.38" width="3.85" height="3.85"/><rect class="a" x="96.15" y="11.54" width="3.85" height="3.84"/><rect class="a" x="96.15" y="7.69" width="3.85" height="3.85"/><rect class="a" x="96.15" y="3.85" width="3.85" height="3.84"/><rect class="a" x="96.15" width="3.85" height="3.85"/><rect class="a" x="92.31" y="184.62" width="3.84" height="3.84"/><rect class="a" x="92.31" y="157.69" width="3.84" height="3.85"/><rect class="a" x="92.31" y="126.92" width="3.84" height="3.85"/><rect class="a" x="92.31" y="115.38" width="3.84" height="3.85"/><rect class="a" x="92.31" y="103.85" width="3.84" height="3.84"/><rect class="a" x="92.31" y="100" width="3.84" height="3.85"/><rect class="a" x="92.31" y="92.31" width="3.84" height="3.84"/><rect class="a" x="92.31" y="73.08" width="3.84" height="3.84"/><rect class="a" x="92.31" y="50" width="3.84" height="3.85"/><rect class="a" x="92.31" y="26.92" width="3.84" height="3.85"/><rect class="a" x="88.46" y="180.77" width="3.85" height="3.85"/><rect class="a" x="88.46" y="157.69" width="3.85" height="3.85"/><rect class="a" x="88.46" y="126.92" width="3.85" height="3.85"/><rect class="a" x="88.46" y="111.54" width="3.85" height="3.84"/><rect class="a" x="88.46" y="107.69" width="3.85" height="3.85"/><rect class="a" x="88.46" y="100" width="3.85" height="3.85"/><rect class="a" x="88.46" y="88.46" width="3.85" height="3.85"/><rect class="a" x="88.46" y="76.92" width="3.85" height="3.85"/><rect class="a" x="88.46" y="57.69" width="3.85" height="3.85"/><rect class="a" x="88.46" y="53.85" width="3.85" height="3.84"/><rect class="a" x="88.46" y="30.77" width="3.85" height="3.85"/><rect class="a" x="84.62" y="176.92" width="3.84" height="3.85"/><rect class="a" x="84.62" y="157.69" width="3.84" height="3.85"/><rect class="a" x="84.62" y="126.92" width="3.84" height="3.85"/><rect class="a" x="84.62" y="111.54" width="3.84" height="3.84"/><rect class="a" x="84.62" y="100" width="3.84" height="3.85"/><rect class="a" x="84.62" y="88.46" width="3.84" height="3.85"/><rect class="a" x="84.62" y="84.62" width="3.84" height="3.84"/><rect class="a" x="84.62" y="80.77" width="3.84" height="3.85"/><rect class="a" x="84.62" y="61.54" width="3.84" height="3.84"/><rect class="a" x="84.62" y="30.77" width="3.84" height="3.85"/><rect class="a" x="80.77" y="176.92" width="3.85" height="3.85"/><rect class="a" x="80.77" y="153.85" width="3.85" height="3.84"/><rect class="a" x="80.77" y="126.92" width="3.85" height="3.85"/><rect class="a" x="80.77" y="115.38" width="3.85" height="3.85"/><rect class="a" x="80.77" y="107.69" width="3.85" height="3.85"/><rect class="a" x="80.77" y="100" width="3.85" height="3.85"/><rect class="a" x="80.77" y="92.31" width="3.85" height="3.84"/><rect class="a" x="80.77" y="80.77" width="3.85" height="3.85"/><rect class="a" x="80.77" y="65.38" width="3.85" height="3.85"/><rect class="a" x="80.77" y="34.62" width="3.85" height="3.84"/><rect class="a" x="76.92" y="176.92" width="3.85" height="3.85"/><rect class="a" x="76.92" y="153.85" width="3.85" height="3.84"/><rect class="a" x="76.92" y="123.08" width="3.85" height="3.84"/><rect class="a" x="76.92" y="119.23" width="3.85" height="3.85"/><rect class="a" x="76.92" y="103.85" width="3.85" height="3.84"/><rect class="a" x="76.92" y="100" width="3.85" height="3.85"/><rect class="a" x="76.92" y="96.15" width="3.85" height="3.85"/><rect class="a" x="76.92" y="76.92" width="3.85" height="3.85"/><rect class="a" x="76.92" y="65.38" width="3.85" height="3.85"/><rect class="a" x="76.92" y="34.62" width="3.85" height="3.84"/><rect class="a" x="73.08" y="173.08" width="3.84" height="3.84"/><rect class="a" x="73.08" y="150" width="3.84" height="3.85"/><rect class="a" x="73.08" y="123.08" width="3.84" height="3.84"/><rect class="a" x="73.08" y="100" width="3.84" height="3.85"/><rect class="a" x="73.08" y="73.08" width="3.84" height="3.84"/><rect class="a" x="73.08" y="65.38" width="3.84" height="3.85"/><rect class="a" x="73.08" y="38.46" width="3.84" height="3.85"/><rect class="a" x="73.08" y="3.85" width="3.84" height="3.84"/><rect class="a" x="69.23" y="169.23" width="3.85" height="3.85"/><rect class="a" x="69.23" y="150" width="3.85" height="3.85"/><rect class="a" x="69.23" y="126.92" width="3.85" height="3.85"/><rect class="a" x="69.23" y="119.23" width="3.85" height="3.85"/><rect class="a" x="69.23" y="100" width="3.85" height="3.85"/><rect class="a" x="69.23" y="88.46" width="3.85" height="3.85"/><rect class="a" x="69.23" y="84.62" width="3.85" height="3.84"/><rect class="a" x="69.23" y="80.77" width="3.85" height="3.85"/><rect class="a" x="69.23" y="76.92" width="3.85" height="3.85"/><rect class="a" x="69.23" y="73.08" width="3.85" height="3.84"/><rect class="a" x="69.23" y="69.23" width="3.85" height="3.85"/><rect class="a" x="69.23" y="65.38" width="3.85" height="3.85"/><rect class="a" x="69.23" y="38.46" width="3.85" height="3.85"/><rect class="a" x="69.23" y="3.85" width="3.85" height="3.84"/><rect class="a" x="65.38" y="169.23" width="3.85" height="3.85"/><rect class="a" x="65.38" y="146.15" width="3.85" height="3.85"/><rect class="a" x="65.38" y="130.77" width="3.85" height="3.85"/><rect class="a" x="65.38" y="115.38" width="3.85" height="3.85"/><rect class="a" x="65.38" y="111.54" width="3.85" height="3.84"/><rect class="a" x="65.38" y="107.69" width="3.85" height="3.85"/><rect class="a" x="65.38" y="100" width="3.85" height="3.85"/><rect class="a" x="65.38" y="92.31" width="3.85" height="3.84"/><rect class="a" x="65.38" y="65.38" width="3.85" height="3.85"/><rect class="a" x="65.38" y="42.31" width="3.85" height="3.84"/><rect class="a" x="65.38" y="7.69" width="3.85" height="3.85"/><rect class="a" x="61.54" y="169.23" width="3.84" height="3.85"/><rect class="a" x="61.54" y="146.15" width="3.84" height="3.85"/><rect class="a" x="61.54" y="134.62" width="3.84" height="3.84"/><rect class="a" x="61.54" y="103.85" width="3.84" height="3.84"/><rect class="a" x="61.54" y="100" width="3.84" height="3.85"/><rect class="a" x="61.54" y="96.15" width="3.84" height="3.85"/><rect class="a" x="61.54" y="61.54" width="3.84" height="3.84"/><rect class="a" x="61.54" y="42.31" width="3.84" height="3.84"/><rect class="a" x="61.54" y="7.69" width="3.84" height="3.85"/><rect class="a" x="57.69" y="169.23" width="3.85" height="3.85"/><rect class="a" x="57.69" y="146.15" width="3.85" height="3.85"/><rect class="a" x="57.69" y="138.46" width="3.85" height="3.85"/><rect class="a" x="57.69" y="100" width="3.85" height="3.85"/><rect class="a" x="57.69" y="57.69" width="3.85" height="3.85"/><rect class="a" x="57.69" y="42.31" width="3.85" height="3.84"/><rect class="a" x="57.69" y="11.54" width="3.85" height="3.84"/><rect class="a" x="53.85" y="165.38" width="3.84" height="3.85"/><rect class="a" x="53.85" y="146.15" width="3.84" height="3.85"/><rect class="a" x="53.85" y="142.31" width="3.84" height="3.84"/><rect class="a" x="53.85" y="100" width="3.84" height="3.85"/><rect class="a" x="53.85" y="80.77" width="3.84" height="3.85"/><rect class="a" x="53.85" y="76.92" width="3.84" height="3.85"/><rect class="a" x="53.85" y="73.08" width="3.84" height="3.84"/><rect class="a" x="53.85" y="53.85" width="3.84" height="3.84"/><rect class="a" x="53.85" y="42.31" width="3.84" height="3.84"/><rect class="a" x="53.85" y="11.54" width="3.84" height="3.84"/><rect class="a" x="50" y="192.31" width="3.85" height="3.84"/><rect class="a" x="50" y="165.38" width="3.85" height="3.85"/><rect class="a" x="50" y="146.15" width="3.85" height="3.85"/><rect class="a" x="50" y="142.31" width="3.85" height="3.84"/><rect class="a" x="50" y="138.46" width="3.85" height="3.85"/><rect class="a" x="50" y="123.08" width="3.85" height="3.84"/><rect class="a" x="50" y="100" width="3.85" height="3.85"/><rect class="a" x="50" y="88.46" width="3.85" height="3.85"/><rect class="a" x="50" y="84.62" width="3.85" height="3.84"/><rect class="a" x="50" y="69.23" width="3.85" height="3.85"/><rect class="a" x="50" y="65.38" width="3.85" height="3.85"/><rect class="a" x="50" y="50" width="3.85" height="3.85"/><rect class="a" x="50" y="42.31" width="3.85" height="3.84"/><rect class="a" x="50" y="15.38" width="3.85" height="3.85"/><rect class="a" x="46.15" y="188.46" width="3.85" height="3.85"/><rect class="a" x="46.15" y="165.38" width="3.85" height="3.85"/><rect class="a" x="46.15" y="150" width="3.85" height="3.85"/><rect class="a" x="46.15" y="134.62" width="3.85" height="3.84"/><rect class="a" x="46.15" y="130.77" width="3.85" height="3.85"/><rect class="a" x="46.15" y="126.92" width="3.85" height="3.85"/><rect class="a" x="46.15" y="119.23" width="3.85" height="3.85"/><rect class="a" x="46.15" y="115.38" width="3.85" height="3.85"/><rect class="a" x="46.15" y="111.54" width="3.85" height="3.84"/><rect class="a" x="46.15" y="100" width="3.85" height="3.85"/><rect class="a" x="46.15" y="92.31" width="3.85" height="3.84"/><rect class="a" x="46.15" y="61.54" width="3.85" height="3.84"/><rect class="a" x="46.15" y="57.69" width="3.85" height="3.85"/><rect class="a" x="46.15" y="53.85" width="3.85" height="3.84"/><rect class="a" x="46.15" y="46.15" width="3.85" height="3.85"/><rect class="a" x="46.15" y="15.38" width="3.85" height="3.85"/><rect class="a" x="42.31" y="188.46" width="3.84" height="3.85"/><rect class="a" x="42.31" y="165.38" width="3.84" height="3.85"/><rect class="a" x="42.31" y="153.85" width="3.84" height="3.84"/><rect class="a" x="42.31" y="107.69" width="3.84" height="3.85"/><rect class="a" x="42.31" y="100" width="3.84" height="3.85"/><rect class="a" x="42.31" y="96.15" width="3.84" height="3.85"/><rect class="a" x="42.31" y="50" width="3.84" height="3.85"/><rect class="a" x="42.31" y="42.31" width="3.84" height="3.84"/><rect class="a" x="42.31" y="15.38" width="3.84" height="3.85"/><rect class="a" x="38.46" y="188.46" width="3.85" height="3.85"/><rect class="a" x="38.46" y="169.23" width="3.85" height="3.85"/><rect class="a" x="38.46" y="157.69" width="3.85" height="3.85"/><rect class="a" x="38.46" y="103.85" width="3.85" height="3.84"/><rect class="a" x="38.46" y="100" width="3.85" height="3.85"/><rect class="a" x="38.46" y="38.46" width="3.85" height="3.85"/><rect class="a" x="38.46" y="15.38" width="3.85" height="3.85"/><rect class="a" x="34.62" y="188.46" width="3.84" height="3.85"/><rect class="a" x="34.62" y="169.23" width="3.84" height="3.85"/><rect class="a" x="34.62" y="161.54" width="3.84" height="3.84"/><rect class="a" x="34.62" y="100" width="3.84" height="3.85"/><rect class="a" x="34.62" y="34.62" width="3.84" height="3.84"/><rect class="a" x="34.62" y="15.38" width="3.84" height="3.85"/><rect class="a" x="30.77" y="188.46" width="3.85" height="3.85"/><rect class="a" x="30.77" y="169.23" width="3.85" height="3.85"/><rect class="a" x="30.77" y="165.38" width="3.85" height="3.85"/><rect class="a" x="30.77" y="100" width="3.85" height="3.85"/><rect class="a" x="30.77" y="30.77" width="3.85" height="3.85"/><rect class="a" x="30.77" y="15.38" width="3.85" height="3.85"/><rect class="a" x="26.92" y="188.46" width="3.85" height="3.85"/><rect class="a" x="26.92" y="169.23" width="3.85" height="3.85"/><rect class="a" x="26.92" y="100" width="3.85" height="3.85"/><rect class="a" x="26.92" y="26.92" width="3.85" height="3.85"/><rect class="a" x="26.92" y="15.38" width="3.85" height="3.85"/><rect class="a" x="23.08" y="184.62" width="3.84" height="3.84"/><rect class="a" x="23.08" y="173.08" width="3.84" height="3.84"/><rect class="a" x="23.08" y="100" width="3.84" height="3.85"/><rect class="a" x="23.08" y="61.54" width="3.84" height="3.84"/><rect class="a" x="23.08" y="57.69" width="3.84" height="3.85"/><rect class="a" x="23.08" y="53.85" width="3.84" height="3.84"/><rect class="a" x="23.08" y="50" width="3.84" height="3.85"/><rect class="a" x="23.08" y="46.15" width="3.84" height="3.85"/><rect class="a" x="23.08" y="23.08" width="3.84" height="3.84"/><rect class="a" x="23.08" y="15.38" width="3.84" height="3.85"/><rect class="a" x="19.23" y="184.62" width="3.85" height="3.84"/><rect class="a" x="19.23" y="176.92" width="3.85" height="3.85"/><rect class="a" x="19.23" y="100" width="3.85" height="3.85"/><rect class="a" x="19.23" y="88.46" width="3.85" height="3.85"/><rect class="a" x="19.23" y="84.62" width="3.85" height="3.84"/><rect class="a" x="19.23" y="80.77" width="3.85" height="3.85"/><rect class="a" x="19.23" y="76.92" width="3.85" height="3.85"/><rect class="a" x="19.23" y="73.08" width="3.85" height="3.84"/><rect class="a" x="19.23" y="69.23" width="3.85" height="3.85"/><rect class="a" x="19.23" y="65.38" width="3.85" height="3.85"/><rect class="a" x="19.23" y="42.31" width="3.85" height="3.84"/><rect class="a" x="19.23" y="38.46" width="3.85" height="3.85"/><rect class="a" x="19.23" y="34.62" width="3.85" height="3.84"/><rect class="a" x="19.23" y="30.77" width="3.85" height="3.85"/><rect class="a" x="19.23" y="26.92" width="3.85" height="3.85"/><rect class="a" x="19.23" y="19.23" width="3.85" height="3.85"/><rect class="a" x="15.38" y="184.62" width="3.85" height="3.84"/><rect class="a" x="15.38" y="180.77" width="3.85" height="3.85"/><rect class="a" x="15.38" y="150" width="3.85" height="3.85"/><rect class="a" x="15.38" y="146.15" width="3.85" height="3.85"/><rect class="a" x="15.38" y="142.31" width="3.85" height="3.84"/><rect class="a" x="15.38" y="138.46" width="3.85" height="3.85"/><rect class="a" x="15.38" y="134.62" width="3.85" height="3.84"/><rect class="a" x="15.38" y="130.77" width="3.85" height="3.85"/><rect class="a" x="15.38" y="126.92" width="3.85" height="3.85"/><rect class="a" x="15.38" y="123.08" width="3.85" height="3.84"/><rect class="a" x="15.38" y="119.23" width="3.85" height="3.85"/><rect class="a" x="15.38" y="115.38" width="3.85" height="3.85"/><rect class="a" x="15.38" y="111.54" width="3.85" height="3.84"/><rect class="a" x="15.38" y="100" width="3.85" height="3.85"/><rect class="a" x="15.38" y="92.31" width="3.85" height="3.84"/><rect class="a" x="15.38" y="15.38" width="3.85" height="3.85"/><rect class="a" x="11.54" y="184.62" width="3.84" height="3.84"/><rect class="a" x="11.54" y="169.23" width="3.84" height="3.85"/><rect class="a" x="11.54" y="165.38" width="3.84" height="3.85"/><rect class="a" x="11.54" y="161.54" width="3.84" height="3.84"/><rect class="a" x="11.54" y="157.69" width="3.84" height="3.85"/><rect class="a" x="11.54" y="153.85" width="3.84" height="3.84"/><rect class="a" x="11.54" y="107.69" width="3.84" height="3.85"/><rect class="a" x="11.54" y="100" width="3.84" height="3.85"/><rect class="a" x="11.54" y="96.15" width="3.84" height="3.85"/><rect class="a" x="11.54" y="11.54" width="3.84" height="3.84"/><rect class="a" x="7.69" y="188.46" width="3.85" height="3.85"/><rect class="a" x="7.69" y="184.62" width="3.85" height="3.84"/><rect class="a" x="7.69" y="180.77" width="3.85" height="3.85"/><rect class="a" x="7.69" y="176.92" width="3.85" height="3.85"/><rect class="a" x="7.69" y="173.08" width="3.85" height="3.84"/><rect class="a" x="7.69" y="103.85" width="3.85" height="3.84"/><rect class="a" x="7.69" y="100" width="3.85" height="3.85"/><rect class="a" x="7.69" y="7.69" width="3.85" height="3.85"/><rect class="a" x="3.85" y="192.31" width="3.84" height="3.84"/><rect class="a" x="3.85" y="100" width="3.84" height="3.85"/><rect class="a" x="3.85" y="3.85" width="3.84" height="3.84"/><rect class="a" y="196.15" width="3.85" height="3.85"/><rect class="a" y="100" width="3.85" height="3.85"/><rect class="a" width="3.85" height="3.85"/></svg>