<svg xmlns="http://www.w3.org/2000/svg" viewBox="0 0 91.53 84.67"><defs><style>.a{fill:#ab68e7;}.b{fill:#ead9fc;}.c{fill:#d1b3ff;}</style></defs><title>exp</title><rect class="a" x="89.25" y="36.62" width="2.28" height="2.28"/><rect class="a" x="89.25" y="34.32" width="2.28" height="2.3"/><rect class="a" x="89.25" y="32.03" width="2.28" height="2.28"/><rect class="a" x="89.25" y="29.75" width="2.28" height="2.28"/><rect class="a" x="89.25" y="27.45" width="2.28" height="2.3"/><rect class="a" x="89.25" y="25.17" width="2.28" height="2.28"/><rect class="a" x="89.25" y="22.88" width="2.28" height="2.28"/><rect class="a" x="89.25" y="20.6" width="2.28" height="2.28"/><rect class="a" x="89.25" y="18.3" width="2.28" height="2.3"/><rect class="a" x="89.25" y="16.02" width="2.28" height="2.28"/><rect class="a" x="89.25" y="13.73" width="2.28" height="2.28"/><rect class="a" x="89.25" y="11.44" width="2.28" height="2.3"/><rect class="a" x="89.25" y="9.15" width="2.28" height="2.28"/><rect class="a" x="86.97" y="38.9" width="2.28" height="2.28"/><rect class="a" x="86.97" y="36.62" width="2.28" height="2.28"/><rect class="a" x="86.97" y="34.32" width="2.28" height="2.3"/><rect class="a" x="86.97" y="32.03" width="2.28" height="2.28"/><rect class="a" x="86.97" y="29.75" width="2.28" height="2.28"/><rect class="a" x="86.97" y="27.45" width="2.28" height="2.3"/><rect class="a" x="86.97" y="25.17" width="2.28" height="2.28"/><rect class="a" x="86.97" y="22.88" width="2.28" height="2.28"/><rect class="a" x="86.97" y="20.6" width="2.28" height="2.28"/><rect class="a" x="86.97" y="18.3" width="2.28" height="2.3"/><rect class="a" x="86.97" y="16.02" width="2.28" height="2.28"/><rect class="a" x="86.97" y="13.73" width="2.28" height="2.28"/><rect class="a" x="86.97" y="11.44" width="2.28" height="2.3"/><rect class="a" x="86.97" y="9.15" width="2.28" height="2.28"/><rect class="a" x="86.97" y="6.87" width="2.28" height="2.28"/><rect class="a" x="84.67" y="41.19" width="2.3" height="2.3"/><rect class="a" x="84.67" y="38.9" width="2.3" height="2.28"/><rect class="a" x="84.67" y="36.62" width="2.3" height="2.28"/><rect class="a" x="84.67" y="34.32" width="2.3" height="2.3"/><rect class="a" x="84.67" y="32.03" width="2.3" height="2.28"/><rect class="a" x="84.67" y="29.75" width="2.3" height="2.28"/><rect class="a" x="84.67" y="27.45" width="2.3" height="2.3"/><rect class="a" x="84.67" y="25.17" width="2.3" height="2.28"/><rect class="a" x="84.67" y="22.88" width="2.3" height="2.28"/><rect class="a" x="84.67" y="20.6" width="2.3" height="2.28"/><rect class="a" x="84.67" y="18.3" width="2.3" height="2.3"/><rect class="a" x="84.67" y="16.02" width="2.3" height="2.28"/><rect class="a" x="84.67" y="13.73" width="2.3" height="2.28"/><rect class="a" x="84.67" y="11.44" width="2.3" height="2.3"/><rect class="a" x="84.67" y="9.15" width="2.3" height="2.28"/><rect class="a" x="84.67" y="6.87" width="2.3" height="2.28"/><rect class="a" x="84.67" y="4.57" width="2.3" height="2.3"/><rect class="a" x="82.38" y="43.48" width="2.28" height="2.28"/><rect class="a" x="82.38" y="41.19" width="2.28" height="2.3"/><rect class="a" x="82.38" y="38.9" width="2.28" height="2.28"/><rect class="a" x="82.38" y="36.62" width="2.28" height="2.28"/><rect class="a" x="82.38" y="34.32" width="2.28" height="2.3"/><rect class="a" x="82.38" y="32.03" width="2.28" height="2.28"/><rect class="a" x="82.38" y="29.75" width="2.28" height="2.28"/><rect class="a" x="82.38" y="27.45" width="2.28" height="2.3"/><rect class="a" x="82.38" y="25.17" width="2.28" height="2.28"/><rect class="a" x="82.38" y="22.88" width="2.28" height="2.28"/><rect class="a" x="82.38" y="20.6" width="2.28" height="2.28"/><rect class="a" x="82.38" y="18.3" width="2.28" height="2.3"/><rect class="a" x="82.38" y="16.02" width="2.28" height="2.28"/><rect class="a" x="82.38" y="13.73" width="2.28" height="2.28"/><rect class="a" x="82.38" y="11.44" width="2.28" height="2.3"/><rect class="a" x="82.38" y="9.15" width="2.28" height="2.28"/><rect class="a" x="82.38" y="6.87" width="2.28" height="2.28"/><rect class="a" x="82.38" y="4.57" width="2.28" height="2.3"/><rect class="a" x="82.38" y="2.28" width="2.28" height="2.28"/><rect class="a" x="80.1" y="43.48" width="2.28" height="2.28"/><rect class="a" x="80.1" y="41.19" width="2.28" height="2.3"/><rect class="a" x="80.1" y="38.9" width="2.28" height="2.28"/><rect class="a" x="80.1" y="36.62" width="2.28" height="2.28"/><rect class="a" x="80.1" y="34.32" width="2.28" height="2.3"/><rect class="a" x="80.1" y="32.03" width="2.28" height="2.28"/><rect class="a" x="80.1" y="29.75" width="2.28" height="2.28"/><rect class="a" x="80.1" y="27.45" width="2.28" height="2.3"/><rect class="a" x="80.1" y="25.17" width="2.28" height="2.28"/><rect class="a" x="80.1" y="22.88" width="2.28" height="2.28"/><rect class="a" x="80.1" y="20.6" width="2.28" height="2.28"/><rect class="a" x="80.1" y="18.3" width="2.28" height="2.3"/><rect class="a" x="80.1" y="16.02" width="2.28" height="2.28"/><rect class="a" x="80.1" y="13.73" width="2.28" height="2.28"/><rect class="a" x="80.1" y="11.44" width="2.28" height="2.3"/><rect class="a" x="80.1" y="9.15" width="2.28" height="2.28"/><rect class="a" x="80.1" y="6.87" width="2.28" height="2.28"/><rect class="a" x="80.1" y="4.57" width="2.28" height="2.3"/><rect class="a" x="80.1" y="2.28" width="2.28" height="2.28"/><rect class="b" x="77.8" y="45.77" width="2.3" height="2.28"/><rect class="b" x="77.8" y="43.48" width="2.3" height="2.28"/><rect class="b" x="77.8" y="41.19" width="2.3" height="2.3"/><rect class="b" x="77.8" y="38.9" width="2.3" height="2.28"/><rect class="b" x="77.8" y="36.62" width="2.3" height="2.28"/><rect class="b" x="77.8" y="34.32" width="2.3" height="2.3"/><rect class="b" x="77.8" y="11.44" width="2.3" height="2.3"/><rect class="b" x="77.8" y="9.15" width="2.3" height="2.28"/><rect class="b" x="77.8" y="6.87" width="2.3" height="2.28"/><rect class="b" x="77.8" y="4.57" width="2.3" height="2.3"/><rect class="b" x="77.8" y="2.28" width="2.3" height="2.28"/><rect class="b" x="77.8" width="2.3" height="2.28"/><rect class="b" x="75.52" y="45.77" width="2.28" height="2.28"/><rect class="b" x="75.52" y="43.48" width="2.28" height="2.28"/><rect class="b" x="75.52" y="41.19" width="2.28" height="2.3"/><rect class="b" x="75.52" y="38.9" width="2.28" height="2.28"/><rect class="b" x="75.52" y="36.62" width="2.28" height="2.28"/><rect class="b" x="75.52" y="9.15" width="2.28" height="2.28"/><rect class="b" x="75.52" y="6.87" width="2.28" height="2.28"/><rect class="b" x="75.52" y="4.57" width="2.28" height="2.3"/><rect class="b" x="75.52" y="2.28" width="2.28" height="2.28"/><rect class="b" x="75.52" width="2.28" height="2.28"/><rect class="a" x="73.23" y="45.77" width="2.28" height="2.28"/><rect class="a" x="73.23" y="43.48" width="2.28" height="2.28"/><rect class="a" x="73.23" y="41.19" width="2.28" height="2.3"/><rect class="a" x="73.23" y="38.9" width="2.28" height="2.28"/><rect class="a" x="73.23" y="36.62" width="2.28" height="2.28"/><rect class="a" x="73.23" y="9.15" width="2.28" height="2.28"/><rect class="a" x="73.23" y="6.87" width="2.28" height="2.28"/><rect class="a" x="73.23" y="4.57" width="2.28" height="2.3"/><rect class="a" x="73.23" y="2.28" width="2.28" height="2.28"/><rect class="a" x="73.23" width="2.28" height="2.28"/><rect class="a" x="70.94" y="45.77" width="2.3" height="2.28"/><rect class="a" x="70.94" y="43.48" width="2.3" height="2.28"/><rect class="a" x="70.94" y="41.19" width="2.3" height="2.3"/><rect class="a" x="70.94" y="38.9" width="2.3" height="2.28"/><rect class="a" x="70.94" y="36.62" width="2.3" height="2.28"/><rect class="a" x="70.94" y="9.15" width="2.3" height="2.28"/><rect class="a" x="70.94" y="6.87" width="2.3" height="2.28"/><rect class="a" x="70.94" y="4.57" width="2.3" height="2.3"/><rect class="a" x="70.94" y="2.28" width="2.3" height="2.28"/><rect class="a" x="70.94" width="2.3" height="2.28"/><rect class="a" x="68.65" y="45.77" width="2.28" height="2.28"/><rect class="a" x="68.65" y="43.48" width="2.28" height="2.28"/><rect class="a" x="68.65" y="41.19" width="2.28" height="2.3"/><rect class="a" x="68.65" y="38.9" width="2.28" height="2.28"/><rect class="a" x="68.65" y="36.62" width="2.28" height="2.28"/><rect class="a" x="68.65" y="9.15" width="2.28" height="2.28"/><rect class="a" x="68.65" y="6.87" width="2.28" height="2.28"/><rect class="a" x="68.65" y="4.57" width="2.28" height="2.3"/><rect class="a" x="68.65" y="2.28" width="2.28" height="2.28"/><rect class="a" x="68.65" width="2.28" height="2.28"/><rect class="c" x="66.37" y="82.38" width="2.28" height="2.28"/><rect class="c" x="66.37" y="80.1" width="2.28" height="2.28"/><rect class="c" x="66.37" y="77.8" width="2.28" height="2.3"/><rect class="c" x="66.37" y="75.52" width="2.28" height="2.28"/><rect class="c" x="66.37" y="73.23" width="2.28" height="2.28"/><rect class="c" x="66.37" y="70.94" width="2.28" height="2.3"/><rect class="c" x="66.37" y="68.65" width="2.28" height="2.28"/><rect class="c" x="66.37" y="66.37" width="2.28" height="2.28"/><rect class="c" x="66.37" y="64.07" width="2.28" height="2.3"/><rect class="c" x="66.37" y="61.78" width="2.28" height="2.28"/><rect class="c" x="66.37" y="59.5" width="2.28" height="2.28"/><rect class="c" x="66.37" y="57.2" width="2.28" height="2.3"/><rect class="c" x="66.37" y="54.92" width="2.28" height="2.28"/><rect class="c" x="66.37" y="52.63" width="2.28" height="2.28"/><rect class="c" x="66.37" y="50.35" width="2.28" height="2.28"/><rect class="c" x="66.37" y="48.05" width="2.28" height="2.3"/><rect class="c" x="66.37" y="45.77" width="2.28" height="2.28"/><rect class="c" x="66.37" y="43.48" width="2.28" height="2.28"/><rect class="c" x="66.37" y="41.19" width="2.28" height="2.3"/><rect class="c" x="66.37" y="38.9" width="2.28" height="2.28"/><rect class="c" x="66.37" y="36.62" width="2.28" height="2.28"/><rect class="c" x="66.37" y="34.32" width="2.28" height="2.3"/><rect class="c" x="66.37" y="32.03" width="2.28" height="2.28"/><rect class="c" x="66.37" y="29.75" width="2.28" height="2.28"/><rect class="c" x="66.37" y="27.45" width="2.28" height="2.3"/><rect class="c" x="66.37" y="25.17" width="2.28" height="2.28"/><rect class="c" x="66.37" y="22.88" width="2.28" height="2.28"/><rect class="c" x="66.37" y="20.6" width="2.28" height="2.28"/><rect class="c" x="66.37" y="18.3" width="2.28" height="2.3"/><rect class="c" x="66.37" y="16.02" width="2.28" height="2.28"/><rect class="c" x="66.37" y="13.73" width="2.28" height="2.28"/><rect class="c" x="66.37" y="11.44" width="2.28" height="2.3"/><rect class="c" x="66.37" y="9.15" width="2.28" height="2.28"/><rect class="c" x="66.37" y="6.87" width="2.28" height="2.28"/><rect class="c" x="66.37" y="4.57" width="2.28" height="2.3"/><rect class="c" x="66.37" y="2.28" width="2.28" height="2.28"/><rect class="c" x="66.37" width="2.28" height="2.28"/><rect class="c" x="64.07" y="82.38" width="2.3" height="2.28"/><rect class="c" x="64.07" y="80.1" width="2.3" height="2.28"/><rect class="c" x="64.07" y="77.8" width="2.3" height="2.3"/><rect class="c" x="64.07" y="75.52" width="2.3" height="2.28"/><rect class="c" x="64.07" y="73.23" width="2.3" height="2.28"/><rect class="c" x="64.07" y="70.94" width="2.3" height="2.3"/><rect class="c" x="64.07" y="68.65" width="2.3" height="2.28"/><rect class="c" x="64.07" y="66.37" width="2.3" height="2.28"/><rect class="c" x="64.07" y="64.07" width="2.3" height="2.3"/><rect class="c" x="64.07" y="61.78" width="2.3" height="2.28"/><rect class="c" x="64.07" y="59.5" width="2.3" height="2.28"/><rect class="c" x="64.07" y="57.2" width="2.3" height="2.3"/><rect class="c" x="64.07" y="54.92" width="2.3" height="2.28"/><rect class="c" x="64.07" y="52.63" width="2.3" height="2.28"/><rect class="c" x="64.07" y="50.35" width="2.3" height="2.28"/><rect class="c" x="64.07" y="48.05" width="2.3" height="2.3"/><rect class="c" x="64.07" y="45.77" width="2.3" height="2.28"/><rect class="c" x="64.07" y="43.48" width="2.3" height="2.28"/><rect class="c" x="64.07" y="41.19" width="2.3" height="2.3"/><rect class="c" x="64.07" y="38.9" width="2.3" height="2.28"/><rect class="c" x="64.07" y="36.62" width="2.3" height="2.28"/><rect class="c" x="64.07" y="34.32" width="2.3" height="2.3"/><rect class="c" x="64.07" y="32.03" width="2.3" height="2.28"/><rect class="c" x="64.07" y="29.75" width="2.3" height="2.28"/><rect class="c" x="64.07" y="27.45" width="2.3" height="2.3"/><rect class="c" x="64.07" y="25.17" width="2.3" height="2.28"/><rect class="c" x="64.07" y="22.88" width="2.3" height="2.28"/><rect class="c" x="64.07" y="20.6" width="2.3" height="2.28"/><rect class="c" x="64.07" y="18.3" width="2.3" height="2.3"/><rect class="c" x="64.07" y="16.02" width="2.3" height="2.28"/><rect class="c" x="64.07" y="13.73" width="2.3" height="2.28"/><rect class="c" x="64.07" y="11.44" width="2.3" height="2.3"/><rect class="c" x="64.07" y="9.15" width="2.3" height="2.28"/><rect class="c" x="64.07" y="6.87" width="2.3" height="2.28"/><rect class="c" x="64.07" y="4.57" width="2.3" height="2.3"/><rect class="c" x="64.07" y="2.28" width="2.3" height="2.28"/><rect class="c" x="64.07" width="2.3" height="2.28"/><rect class="c" x="61.78" y="82.38" width="2.28" height="2.28"/><rect class="c" x="61.78" y="80.1" width="2.28" height="2.28"/><rect class="c" x="61.78" y="77.8" width="2.28" height="2.3"/><rect class="c" x="61.78" y="75.52" width="2.28" height="2.28"/><rect class="c" x="61.78" y="73.23" width="2.28" height="2.28"/><rect class="c" x="61.78" y="70.94" width="2.28" height="2.3"/><rect class="c" x="61.78" y="68.65" width="2.28" height="2.28"/><rect class="c" x="61.78" y="66.37" width="2.28" height="2.28"/><rect class="c" x="61.78" y="64.07" width="2.28" height="2.3"/><rect class="c" x="61.78" y="61.78" width="2.28" height="2.28"/><rect class="c" x="61.78" y="59.5" width="2.28" height="2.28"/><rect class="c" x="61.78" y="57.2" width="2.28" height="2.3"/><rect class="c" x="61.78" y="54.92" width="2.28" height="2.28"/><rect class="c" x="61.78" y="52.63" width="2.28" height="2.28"/><rect class="c" x="61.78" y="50.35" width="2.28" height="2.28"/><rect class="c" x="61.78" y="48.05" width="2.28" height="2.3"/><rect class="c" x="61.78" y="45.77" width="2.28" height="2.28"/><rect class="c" x="61.78" y="43.48" width="2.28" height="2.28"/><rect class="c" x="61.78" y="41.19" width="2.28" height="2.3"/><rect class="c" x="61.78" y="38.9" width="2.28" height="2.28"/><rect class="c" x="61.78" y="36.62" width="2.28" height="2.28"/><rect class="c" x="61.78" y="34.32" width="2.28" height="2.3"/><rect class="c" x="61.78" y="32.03" width="2.28" height="2.28"/><rect class="c" x="61.78" y="29.75" width="2.28" height="2.28"/><rect class="c" x="61.78" y="27.45" width="2.28" height="2.3"/><rect class="c" x="61.78" y="25.17" width="2.28" height="2.28"/><rect class="c" x="61.78" y="22.88" width="2.28" height="2.28"/><rect class="c" x="61.78" y="20.6" width="2.28" height="2.28"/><rect class="c" x="61.78" y="18.3" width="2.28" height="2.3"/><rect class="c" x="61.78" y="16.02" width="2.28" height="2.28"/><rect class="c" x="61.78" y="13.73" width="2.28" height="2.28"/><rect class="c" x="61.78" y="11.44" width="2.28" height="2.3"/><rect class="c" x="61.78" y="9.15" width="2.28" height="2.28"/><rect class="c" x="61.78" y="6.87" width="2.28" height="2.28"/><rect class="c" x="61.78" y="4.57" width="2.28" height="2.3"/><rect class="c" x="61.78" y="2.28" width="2.28" height="2.28"/><rect class="c" x="61.78" width="2.28" height="2.28"/><rect class="c" x="59.5" y="82.38" width="2.28" height="2.28"/><rect class="c" x="59.5" y="80.1" width="2.28" height="2.28"/><rect class="c" x="59.5" y="77.8" width="2.28" height="2.3"/><rect class="c" x="59.5" y="75.52" width="2.28" height="2.28"/><rect class="c" x="59.5" y="73.23" width="2.28" height="2.28"/><rect class="c" x="59.5" y="70.94" width="2.28" height="2.3"/><rect class="c" x="59.5" y="68.65" width="2.28" height="2.28"/><rect class="c" x="59.5" y="66.37" width="2.28" height="2.28"/><rect class="c" x="59.5" y="64.07" width="2.28" height="2.3"/><rect class="c" x="59.5" y="61.78" width="2.28" height="2.28"/><rect class="c" x="59.5" y="59.5" width="2.28" height="2.28"/><rect class="c" x="59.5" y="57.2" width="2.28" height="2.3"/><rect class="c" x="59.5" y="54.92" width="2.28" height="2.28"/><rect class="c" x="59.5" y="52.63" width="2.28" height="2.28"/><rect class="c" x="59.5" y="50.35" width="2.28" height="2.28"/><rect class="c" x="59.5" y="48.05" width="2.28" height="2.3"/><rect class="c" x="59.5" y="45.77" width="2.28" height="2.28"/><rect class="c" x="59.5" y="43.48" width="2.28" height="2.28"/><rect class="c" x="59.5" y="41.19" width="2.28" height="2.3"/><rect class="c" x="59.5" y="38.9" width="2.28" height="2.28"/><rect class="c" x="59.5" y="36.62" width="2.28" height="2.28"/><rect class="c" x="59.5" y="34.32" width="2.28" height="2.3"/><rect class="c" x="59.5" y="32.03" width="2.28" height="2.28"/><rect class="c" x="59.5" y="29.75" width="2.28" height="2.28"/><rect class="c" x="59.5" y="27.45" width="2.28" height="2.3"/><rect class="c" x="59.5" y="25.17" width="2.28" height="2.28"/><rect class="c" x="59.5" y="22.88" width="2.28" height="2.28"/><rect class="c" x="59.5" y="20.6" width="2.28" height="2.28"/><rect class="c" x="59.5" y="18.3" width="2.28" height="2.3"/><rect class="c" x="59.5" y="16.02" width="2.28" height="2.28"/><rect class="c" x="59.5" y="13.73" width="2.28" height="2.28"/><rect class="c" x="59.5" y="11.44" width="2.28" height="2.3"/><rect class="c" x="59.5" y="9.15" width="2.28" height="2.28"/><rect class="c" x="59.5" y="6.87" width="2.28" height="2.28"/><rect class="c" x="59.5" y="4.57" width="2.28" height="2.3"/><rect class="c" x="59.5" y="2.28" width="2.28" height="2.28"/><rect class="c" x="59.5" width="2.28" height="2.28"/><rect class="b" x="57.22" y="82.38" width="2.28" height="2.28"/><rect class="b" x="57.22" y="80.1" width="2.28" height="2.28"/><rect class="b" x="57.22" y="77.8" width="2.28" height="2.3"/><rect class="b" x="57.22" y="75.52" width="2.28" height="2.28"/><rect class="b" x="57.22" y="73.23" width="2.28" height="2.28"/><rect class="b" x="57.22" y="70.94" width="2.28" height="2.3"/><rect class="b" x="57.22" y="68.65" width="2.28" height="2.28"/><rect class="b" x="57.22" y="66.37" width="2.28" height="2.28"/><rect class="b" x="57.22" y="64.07" width="2.28" height="2.3"/><rect class="b" x="57.22" y="61.78" width="2.28" height="2.28"/><rect class="b" x="57.22" y="59.5" width="2.28" height="2.28"/><rect class="b" x="57.22" y="57.2" width="2.28" height="2.3"/><rect class="b" x="57.22" y="54.92" width="2.28" height="2.28"/><rect class="b" x="57.22" y="52.63" width="2.28" height="2.28"/><rect class="b" x="57.22" y="50.35" width="2.28" height="2.28"/><rect class="b" x="57.22" y="48.05" width="2.28" height="2.3"/><rect class="b" x="57.22" y="45.77" width="2.28" height="2.28"/><rect class="b" x="57.22" y="43.48" width="2.28" height="2.28"/><rect class="b" x="57.22" y="41.19" width="2.28" height="2.3"/><rect class="b" x="57.22" y="38.9" width="2.28" height="2.28"/><rect class="b" x="57.22" y="36.62" width="2.28" height="2.28"/><rect class="b" x="57.22" y="34.32" width="2.28" height="2.3"/><rect class="b" x="57.22" y="32.03" width="2.28" height="2.28"/><rect class="b" x="57.22" y="29.75" width="2.28" height="2.28"/><rect class="b" x="57.22" y="27.45" width="2.28" height="2.3"/><rect class="b" x="57.22" y="25.17" width="2.28" height="2.28"/><rect class="b" x="57.22" y="22.88" width="2.28" height="2.28"/><rect class="b" x="57.22" y="20.6" width="2.28" height="2.28"/><rect class="b" x="57.22" y="18.3" width="2.28" height="2.3"/><rect class="b" x="57.22" y="16.02" width="2.28" height="2.28"/><rect class="b" x="57.22" y="13.73" width="2.28" height="2.28"/><rect class="b" x="57.22" y="11.44" width="2.28" height="2.3"/><rect class="b" x="57.22" y="9.15" width="2.28" height="2.28"/><rect class="b" x="57.22" y="6.87" width="2.28" height="2.28"/><rect class="b" x="57.22" y="4.57" width="2.28" height="2.3"/><rect class="b" x="57.22" y="2.28" width="2.28" height="2.28"/><rect class="b" x="57.22" width="2.28" height="2.28"/><rect class="b" x="54.92" y="82.38" width="2.3" height="2.28"/><rect class="b" x="54.92" y="80.1" width="2.3" height="2.28"/><rect class="b" x="54.92" y="77.8" width="2.3" height="2.3"/><rect class="b" x="54.92" y="75.52" width="2.3" height="2.28"/><rect class="b" x="54.92" y="73.23" width="2.3" height="2.28"/><rect class="b" x="54.92" y="70.94" width="2.3" height="2.3"/><rect class="b" x="54.92" y="68.65" width="2.3" height="2.28"/><rect class="b" x="54.92" y="66.37" width="2.3" height="2.28"/><rect class="b" x="54.92" y="64.07" width="2.3" height="2.3"/><rect class="b" x="54.92" y="61.78" width="2.3" height="2.28"/><rect class="b" x="54.92" y="59.5" width="2.3" height="2.28"/><rect class="b" x="54.92" y="57.2" width="2.3" height="2.3"/><rect class="b" x="54.92" y="54.92" width="2.3" height="2.28"/><rect class="b" x="54.92" y="52.63" width="2.3" height="2.28"/><rect class="b" x="54.92" y="50.35" width="2.3" height="2.28"/><rect class="b" x="54.92" y="48.05" width="2.3" height="2.3"/><rect class="b" x="54.92" y="45.77" width="2.3" height="2.28"/><rect class="b" x="54.92" y="43.48" width="2.3" height="2.28"/><rect class="b" x="54.92" y="41.19" width="2.3" height="2.3"/><rect class="b" x="54.92" y="38.9" width="2.3" height="2.28"/><rect class="b" x="54.92" y="36.62" width="2.3" height="2.28"/><rect class="b" x="54.92" y="34.32" width="2.3" height="2.3"/><rect class="b" x="54.92" y="32.03" width="2.3" height="2.28"/><rect class="b" x="54.92" y="29.75" width="2.3" height="2.28"/><rect class="b" x="54.92" y="27.45" width="2.3" height="2.3"/><rect class="b" x="54.92" y="25.17" width="2.3" height="2.28"/><rect class="b" x="54.92" y="22.88" width="2.3" height="2.28"/><rect class="b" x="54.92" y="20.6" width="2.3" height="2.28"/><rect class="b" x="54.92" y="18.3" width="2.3" height="2.3"/><rect class="b" x="54.92" y="16.02" width="2.3" height="2.28"/><rect class="b" x="54.92" y="13.73" width="2.3" height="2.28"/><rect class="b" x="54.92" y="11.44" width="2.3" height="2.3"/><rect class="b" x="54.92" y="9.15" width="2.3" height="2.28"/><rect class="b" x="54.92" y="6.87" width="2.3" height="2.28"/><rect class="b" x="54.92" y="4.57" width="2.3" height="2.3"/><rect class="b" x="54.92" y="2.28" width="2.3" height="2.28"/><rect class="b" x="54.92" width="2.3" height="2.28"/><rect class="a" x="38.9" y="82.38" width="2.28" height="2.28"/><rect class="a" x="38.9" y="80.1" width="2.28" height="2.28"/><rect class="a" x="38.9" y="77.8" width="2.28" height="2.3"/><rect class="a" x="38.9" y="75.52" width="2.28" height="2.28"/><rect class="a" x="38.9" y="73.23" width="2.28" height="2.28"/><rect class="a" x="38.9" y="70.94" width="2.28" height="2.3"/><rect class="a" x="38.9" y="68.65" width="2.28" height="2.28"/><rect class="a" x="38.9" y="13.73" width="2.28" height="2.28"/><rect class="a" x="38.9" y="11.44" width="2.28" height="2.3"/><rect class="a" x="38.9" y="9.15" width="2.28" height="2.28"/><rect class="a" x="38.9" y="6.87" width="2.28" height="2.28"/><rect class="a" x="38.9" y="4.57" width="2.28" height="2.3"/><rect class="a" x="38.9" y="2.28" width="2.28" height="2.28"/><rect class="a" x="38.9" width="2.28" height="2.28"/><rect class="a" x="36.62" y="82.38" width="2.28" height="2.28"/><rect class="a" x="36.62" y="80.1" width="2.28" height="2.28"/><rect class="a" x="36.62" y="77.8" width="2.28" height="2.3"/><rect class="a" x="36.62" y="75.52" width="2.28" height="2.28"/><rect class="a" x="36.62" y="73.23" width="2.28" height="2.28"/><rect class="a" x="36.62" y="70.94" width="2.28" height="2.3"/><rect class="a" x="36.62" y="68.65" width="2.28" height="2.28"/><rect class="a" x="36.62" y="13.73" width="2.28" height="2.28"/><rect class="a" x="36.62" y="11.44" width="2.28" height="2.3"/><rect class="a" x="36.62" y="9.15" width="2.28" height="2.28"/><rect class="a" x="36.62" y="6.87" width="2.28" height="2.28"/><rect class="a" x="36.62" y="4.57" width="2.28" height="2.3"/><rect class="a" x="36.62" y="2.28" width="2.28" height="2.28"/><rect class="a" x="36.62" width="2.28" height="2.28"/><rect class="a" x="34.32" y="82.38" width="2.3" height="2.28"/><rect class="a" x="34.32" y="80.1" width="2.3" height="2.28"/><rect class="a" x="34.32" y="77.8" width="2.3" height="2.3"/><rect class="a" x="34.32" y="75.52" width="2.3" height="2.28"/><rect class="a" x="34.32" y="73.23" width="2.3" height="2.28"/><rect class="a" x="34.32" y="70.94" width="2.3" height="2.3"/><rect class="a" x="34.32" y="68.65" width="2.3" height="2.28"/><rect class="a" x="34.32" y="66.37" width="2.3" height="2.28"/><rect class="a" x="34.32" y="64.07" width="2.3" height="2.3"/><rect class="a" x="34.32" y="61.78" width="2.3" height="2.28"/><rect class="a" x="34.32" y="59.5" width="2.3" height="2.28"/><rect class="a" x="34.32" y="57.2" width="2.3" height="2.3"/><rect class="a" x="34.32" y="54.92" width="2.3" height="2.28"/><rect class="a" x="34.32" y="27.45" width="2.3" height="2.3"/><rect class="a" x="34.32" y="25.17" width="2.3" height="2.28"/><rect class="a" x="34.32" y="22.88" width="2.3" height="2.28"/><rect class="a" x="34.32" y="20.6" width="2.3" height="2.28"/><rect class="a" x="34.32" y="18.3" width="2.3" height="2.3"/><rect class="a" x="34.32" y="16.02" width="2.3" height="2.28"/><rect class="a" x="34.32" y="13.73" width="2.3" height="2.28"/><rect class="a" x="34.32" y="11.44" width="2.3" height="2.3"/><rect class="a" x="34.32" y="9.15" width="2.3" height="2.28"/><rect class="a" x="34.32" y="6.87" width="2.3" height="2.28"/><rect class="a" x="34.32" y="4.57" width="2.3" height="2.3"/><rect class="a" x="34.32" y="2.28" width="2.3" height="2.28"/><rect class="a" x="34.32" width="2.3" height="2.28"/><rect class="a" x="32.03" y="82.38" width="2.28" height="2.28"/><rect class="a" x="32.03" y="80.1" width="2.28" height="2.28"/><rect class="a" x="32.03" y="77.8" width="2.28" height="2.3"/><rect class="a" x="32.03" y="75.52" width="2.28" height="2.28"/><rect class="a" x="32.03" y="73.23" width="2.28" height="2.28"/><rect class="a" x="32.03" y="70.94" width="2.28" height="2.3"/><rect class="a" x="32.03" y="68.65" width="2.28" height="2.28"/><rect class="a" x="32.03" y="66.37" width="2.28" height="2.28"/><rect class="a" x="32.03" y="64.07" width="2.28" height="2.3"/><rect class="a" x="32.03" y="61.78" width="2.28" height="2.28"/><rect class="a" x="32.03" y="59.5" width="2.28" height="2.28"/><rect class="a" x="32.03" y="57.2" width="2.28" height="2.3"/><rect class="a" x="32.03" y="54.92" width="2.28" height="2.28"/><rect class="a" x="32.03" y="27.45" width="2.28" height="2.3"/><rect class="a" x="32.03" y="25.17" width="2.28" height="2.28"/><rect class="a" x="32.03" y="22.88" width="2.28" height="2.28"/><rect class="a" x="32.03" y="20.6" width="2.28" height="2.28"/><rect class="a" x="32.03" y="18.3" width="2.28" height="2.3"/><rect class="a" x="32.03" y="16.02" width="2.28" height="2.28"/><rect class="a" x="32.03" y="13.73" width="2.28" height="2.28"/><rect class="a" x="32.03" y="11.44" width="2.28" height="2.3"/><rect class="a" x="32.03" y="9.15" width="2.28" height="2.28"/><rect class="a" x="32.03" y="6.87" width="2.28" height="2.28"/><rect class="a" x="32.03" y="4.57" width="2.28" height="2.3"/><rect class="a" x="32.03" y="2.28" width="2.28" height="2.28"/><rect class="a" x="32.03" width="2.28" height="2.28"/><rect class="a" x="29.75" y="82.38" width="2.28" height="2.28"/><rect class="a" x="29.75" y="80.1" width="2.28" height="2.28"/><rect class="a" x="29.75" y="77.8" width="2.28" height="2.3"/><rect class="a" x="29.75" y="75.52" width="2.28" height="2.28"/><rect class="a" x="29.75" y="73.23" width="2.28" height="2.28"/><rect class="a" x="29.75" y="70.94" width="2.28" height="2.3"/><rect class="a" x="29.75" y="68.65" width="2.28" height="2.28"/><rect class="a" x="29.75" y="66.37" width="2.28" height="2.28"/><rect class="a" x="29.75" y="64.07" width="2.28" height="2.3"/><rect class="a" x="29.75" y="61.78" width="2.28" height="2.28"/><rect class="a" x="29.75" y="59.5" width="2.28" height="2.28"/><rect class="a" x="29.75" y="57.2" width="2.28" height="2.3"/><rect class="a" x="29.75" y="54.92" width="2.28" height="2.28"/><rect class="a" x="29.75" y="52.63" width="2.28" height="2.28"/><rect class="a" x="29.75" y="50.35" width="2.28" height="2.28"/><rect class="a" x="29.75" y="48.05" width="2.28" height="2.3"/><rect class="a" x="29.75" y="45.77" width="2.28" height="2.28"/><rect class="a" x="29.75" y="36.62" width="2.28" height="2.28"/><rect class="a" x="29.75" y="34.32" width="2.28" height="2.3"/><rect class="a" x="29.75" y="32.03" width="2.28" height="2.28"/><rect class="a" x="29.75" y="29.75" width="2.28" height="2.28"/><rect class="a" x="29.75" y="27.45" width="2.28" height="2.3"/><rect class="a" x="29.75" y="25.17" width="2.28" height="2.28"/><rect class="a" x="29.75" y="22.88" width="2.28" height="2.28"/><rect class="a" x="29.75" y="20.6" width="2.28" height="2.28"/><rect class="a" x="29.75" y="18.3" width="2.28" height="2.3"/><rect class="a" x="29.75" y="16.02" width="2.28" height="2.28"/><rect class="a" x="29.75" y="13.73" width="2.28" height="2.28"/><rect class="a" x="29.75" y="11.44" width="2.28" height="2.3"/><rect class="a" x="29.75" y="9.15" width="2.28" height="2.28"/><rect class="a" x="29.75" y="6.87" width="2.28" height="2.28"/><rect class="a" x="29.75" y="4.57" width="2.28" height="2.3"/><rect class="a" x="29.75" y="2.28" width="2.28" height="2.28"/><rect class="a" x="29.75" width="2.28" height="2.28"/><rect class="b" x="27.47" y="66.37" width="2.28" height="2.28"/><rect class="b" x="27.47" y="64.07" width="2.28" height="2.3"/><rect class="b" x="27.47" y="61.78" width="2.28" height="2.28"/><rect class="b" x="27.47" y="59.5" width="2.28" height="2.28"/><rect class="b" x="27.47" y="57.2" width="2.28" height="2.3"/><rect class="b" x="27.47" y="54.92" width="2.28" height="2.28"/><rect class="b" x="27.47" y="52.63" width="2.28" height="2.28"/><rect class="b" x="27.47" y="50.35" width="2.28" height="2.28"/><rect class="b" x="27.47" y="48.05" width="2.28" height="2.3"/><rect class="b" x="27.47" y="45.77" width="2.28" height="2.28"/><rect class="b" x="27.47" y="36.62" width="2.28" height="2.28"/><rect class="b" x="27.47" y="34.32" width="2.28" height="2.3"/><rect class="b" x="27.47" y="32.03" width="2.28" height="2.28"/><rect class="b" x="27.47" y="29.75" width="2.28" height="2.28"/><rect class="b" x="27.47" y="27.45" width="2.28" height="2.3"/><rect class="b" x="27.47" y="25.17" width="2.28" height="2.28"/><rect class="b" x="27.47" y="22.88" width="2.28" height="2.28"/><rect class="b" x="27.47" y="20.6" width="2.28" height="2.28"/><rect class="b" x="27.47" y="18.3" width="2.28" height="2.3"/><rect class="b" x="27.47" y="16.02" width="2.28" height="2.28"/><rect class="b" x="25.17" y="66.37" width="2.3" height="2.28"/><rect class="b" x="25.17" y="64.07" width="2.3" height="2.3"/><rect class="b" x="25.17" y="61.78" width="2.3" height="2.28"/><rect class="b" x="25.17" y="59.5" width="2.3" height="2.28"/><rect class="b" x="25.17" y="57.2" width="2.3" height="2.3"/><rect class="b" x="25.17" y="54.92" width="2.3" height="2.28"/><rect class="b" x="25.17" y="52.63" width="2.3" height="2.28"/><rect class="b" x="25.17" y="50.35" width="2.3" height="2.28"/><rect class="b" x="25.17" y="48.05" width="2.3" height="2.3"/><rect class="b" x="25.17" y="45.77" width="2.3" height="2.28"/><rect class="b" x="25.17" y="43.48" width="2.3" height="2.28"/><rect class="b" x="25.17" y="41.19" width="2.3" height="2.3"/><rect class="b" x="25.17" y="38.9" width="2.3" height="2.28"/><rect class="b" x="25.17" y="36.62" width="2.3" height="2.28"/><rect class="b" x="25.17" y="34.32" width="2.3" height="2.3"/><rect class="b" x="25.17" y="32.03" width="2.3" height="2.28"/><rect class="b" x="25.17" y="29.75" width="2.3" height="2.28"/><rect class="b" x="25.17" y="27.45" width="2.3" height="2.3"/><rect class="b" x="25.17" y="25.17" width="2.3" height="2.28"/><rect class="b" x="25.17" y="22.88" width="2.3" height="2.28"/><rect class="b" x="25.17" y="20.6" width="2.3" height="2.28"/><rect class="b" x="25.17" y="18.3" width="2.3" height="2.3"/><rect class="b" x="25.17" y="16.02" width="2.3" height="2.28"/><rect class="a" x="22.88" y="52.63" width="2.28" height="2.28"/><rect class="a" x="22.88" y="50.35" width="2.28" height="2.28"/><rect class="a" x="22.88" y="48.05" width="2.28" height="2.3"/><rect class="a" x="22.88" y="45.77" width="2.28" height="2.28"/><rect class="a" x="22.88" y="43.48" width="2.28" height="2.28"/><rect class="a" x="22.88" y="41.19" width="2.28" height="2.3"/><rect class="a" x="22.88" y="38.9" width="2.28" height="2.28"/><rect class="a" x="22.88" y="36.62" width="2.28" height="2.28"/><rect class="a" x="22.88" y="34.32" width="2.28" height="2.3"/><rect class="a" x="22.88" y="32.03" width="2.28" height="2.28"/><rect class="a" x="22.88" y="29.75" width="2.28" height="2.28"/><rect class="a" x="20.6" y="52.63" width="2.28" height="2.28"/><rect class="a" x="20.6" y="50.35" width="2.28" height="2.28"/><rect class="a" x="20.6" y="48.05" width="2.28" height="2.3"/><rect class="a" x="20.6" y="45.77" width="2.28" height="2.28"/><rect class="a" x="20.6" y="43.48" width="2.28" height="2.28"/><rect class="a" x="20.6" y="41.19" width="2.28" height="2.3"/><rect class="a" x="20.6" y="38.9" width="2.28" height="2.28"/><rect class="a" x="20.6" y="36.62" width="2.28" height="2.28"/><rect class="a" x="20.6" y="34.32" width="2.28" height="2.3"/><rect class="a" x="20.6" y="32.03" width="2.28" height="2.28"/><rect class="a" x="20.6" y="29.75" width="2.28" height="2.28"/><rect class="c" x="18.3" y="52.63" width="2.3" height="2.28"/><rect class="c" x="18.3" y="50.35" width="2.3" height="2.28"/><rect class="c" x="18.3" y="48.05" width="2.3" height="2.3"/><rect class="c" x="18.3" y="45.77" width="2.3" height="2.28"/><rect class="c" x="18.3" y="43.48" width="2.3" height="2.28"/><rect class="c" x="18.3" y="41.19" width="2.3" height="2.3"/><rect class="c" x="18.3" y="38.9" width="2.3" height="2.28"/><rect class="c" x="18.3" y="36.62" width="2.3" height="2.28"/><rect class="c" x="18.3" y="34.32" width="2.3" height="2.3"/><rect class="c" x="18.3" y="32.03" width="2.3" height="2.28"/><rect class="c" x="18.3" y="29.75" width="2.3" height="2.28"/><rect class="c" x="16.02" y="52.63" width="2.28" height="2.28"/><rect class="c" x="16.02" y="50.35" width="2.28" height="2.28"/><rect class="c" x="16.02" y="48.05" width="2.28" height="2.3"/><rect class="c" x="16.02" y="45.77" width="2.28" height="2.28"/><rect class="c" x="16.02" y="43.48" width="2.28" height="2.28"/><rect class="c" x="16.02" y="41.19" width="2.28" height="2.3"/><rect class="c" x="16.02" y="38.9" width="2.28" height="2.28"/><rect class="c" x="16.02" y="36.62" width="2.28" height="2.28"/><rect class="c" x="16.02" y="34.32" width="2.28" height="2.3"/><rect class="c" x="16.02" y="32.03" width="2.28" height="2.28"/><rect class="c" x="16.02" y="29.75" width="2.28" height="2.28"/><rect class="c" x="13.73" y="66.37" width="2.28" height="2.28"/><rect class="c" x="13.73" y="64.07" width="2.28" height="2.3"/><rect class="c" x="13.73" y="61.78" width="2.28" height="2.28"/><rect class="c" x="13.73" y="59.5" width="2.28" height="2.28"/><rect class="c" x="13.73" y="57.2" width="2.28" height="2.3"/><rect class="c" x="13.73" y="54.92" width="2.28" height="2.28"/><rect class="c" x="13.73" y="52.63" width="2.28" height="2.28"/><rect class="c" x="13.73" y="50.35" width="2.28" height="2.28"/><rect class="c" x="13.73" y="48.05" width="2.28" height="2.3"/><rect class="c" x="13.73" y="45.77" width="2.28" height="2.28"/><rect class="c" x="13.73" y="43.48" width="2.28" height="2.28"/><rect class="c" x="13.73" y="41.19" width="2.28" height="2.3"/><rect class="c" x="13.73" y="38.9" width="2.28" height="2.28"/><rect class="c" x="13.73" y="36.62" width="2.28" height="2.28"/><rect class="c" x="13.73" y="34.32" width="2.28" height="2.3"/><rect class="c" x="13.73" y="32.03" width="2.28" height="2.28"/><rect class="c" x="13.73" y="29.75" width="2.28" height="2.28"/><rect class="c" x="13.73" y="27.45" width="2.28" height="2.3"/><rect class="c" x="13.73" y="25.17" width="2.28" height="2.28"/><rect class="c" x="13.73" y="22.88" width="2.28" height="2.28"/><rect class="c" x="13.73" y="20.6" width="2.28" height="2.28"/><rect class="c" x="13.73" y="18.3" width="2.28" height="2.3"/><rect class="c" x="13.73" y="16.02" width="2.28" height="2.28"/><rect class="c" x="11.44" y="66.37" width="2.3" height="2.28"/><rect class="c" x="11.44" y="64.07" width="2.3" height="2.3"/><rect class="c" x="11.44" y="61.78" width="2.3" height="2.28"/><rect class="c" x="11.44" y="59.5" width="2.3" height="2.28"/><rect class="c" x="11.44" y="57.2" width="2.3" height="2.3"/><rect class="c" x="11.44" y="54.92" width="2.3" height="2.28"/><rect class="c" x="11.44" y="52.63" width="2.3" height="2.28"/><rect class="c" x="11.44" y="50.35" width="2.3" height="2.28"/><rect class="c" x="11.44" y="48.05" width="2.3" height="2.3"/><rect class="c" x="11.44" y="45.77" width="2.3" height="2.28"/><rect class="c" x="11.44" y="36.62" width="2.3" height="2.28"/><rect class="c" x="11.44" y="34.32" width="2.3" height="2.3"/><rect class="c" x="11.44" y="32.03" width="2.3" height="2.28"/><rect class="c" x="11.44" y="29.75" width="2.3" height="2.28"/><rect class="c" x="11.44" y="27.45" width="2.3" height="2.3"/><rect class="c" x="11.44" y="25.17" width="2.3" height="2.28"/><rect class="c" x="11.44" y="22.88" width="2.3" height="2.28"/><rect class="c" x="11.44" y="20.6" width="2.3" height="2.28"/><rect class="c" x="11.44" y="18.3" width="2.3" height="2.3"/><rect class="c" x="11.44" y="16.02" width="2.3" height="2.28"/><rect class="c" x="9.15" y="82.38" width="2.28" height="2.28"/><rect class="c" x="9.15" y="80.1" width="2.28" height="2.28"/><rect class="c" x="9.15" y="77.8" width="2.28" height="2.3"/><rect class="c" x="9.15" y="75.52" width="2.28" height="2.28"/><rect class="c" x="9.15" y="73.23" width="2.28" height="2.28"/><rect class="c" x="9.15" y="70.94" width="2.28" height="2.3"/><rect class="c" x="9.15" y="68.65" width="2.28" height="2.28"/><rect class="c" x="9.15" y="66.37" width="2.28" height="2.28"/><rect class="c" x="9.15" y="64.07" width="2.28" height="2.3"/><rect class="c" x="9.15" y="61.78" width="2.28" height="2.28"/><rect class="c" x="9.15" y="59.5" width="2.28" height="2.28"/><rect class="c" x="9.15" y="57.2" width="2.28" height="2.3"/><rect class="c" x="9.15" y="54.92" width="2.28" height="2.28"/><rect class="c" x="9.15" y="52.63" width="2.28" height="2.28"/><rect class="c" x="9.15" y="50.35" width="2.28" height="2.28"/><rect class="c" x="9.15" y="48.05" width="2.28" height="2.3"/><rect class="c" x="9.15" y="45.77" width="2.28" height="2.28"/><rect class="c" x="9.15" y="36.62" width="2.28" height="2.28"/><rect class="c" x="9.15" y="34.32" width="2.28" height="2.3"/><rect class="c" x="9.15" y="32.03" width="2.28" height="2.28"/><rect class="c" x="9.15" y="29.75" width="2.28" height="2.28"/><rect class="c" x="9.15" y="27.45" width="2.28" height="2.3"/><rect class="c" x="9.15" y="25.17" width="2.28" height="2.28"/><rect class="c" x="9.15" y="22.88" width="2.28" height="2.28"/><rect class="c" x="9.15" y="20.6" width="2.28" height="2.28"/><rect class="c" x="9.15" y="18.3" width="2.28" height="2.3"/><rect class="c" x="9.15" y="16.02" width="2.28" height="2.28"/><rect class="c" x="9.15" y="13.73" width="2.28" height="2.28"/><rect class="c" x="9.15" y="11.44" width="2.28" height="2.3"/><rect class="c" x="9.15" y="9.15" width="2.28" height="2.28"/><rect class="c" x="9.15" y="6.87" width="2.28" height="2.28"/><rect class="c" x="9.15" y="4.57" width="2.28" height="2.3"/><rect class="c" x="9.15" y="2.28" width="2.28" height="2.28"/><rect class="c" x="9.15" width="2.28" height="2.28"/><rect class="c" x="6.87" y="82.38" width="2.28" height="2.28"/><rect class="c" x="6.87" y="80.1" width="2.28" height="2.28"/><rect class="c" x="6.87" y="77.8" width="2.28" height="2.3"/><rect class="c" x="6.87" y="75.52" width="2.28" height="2.28"/><rect class="c" x="6.87" y="73.23" width="2.28" height="2.28"/><rect class="c" x="6.87" y="70.94" width="2.28" height="2.3"/><rect class="c" x="6.87" y="68.65" width="2.28" height="2.28"/><rect class="c" x="6.87" y="66.37" width="2.28" height="2.28"/><rect class="c" x="6.87" y="64.07" width="2.28" height="2.3"/><rect class="c" x="6.87" y="61.78" width="2.28" height="2.28"/><rect class="c" x="6.87" y="59.5" width="2.28" height="2.28"/><rect class="c" x="6.87" y="57.2" width="2.28" height="2.3"/><rect class="c" x="6.87" y="54.92" width="2.28" height="2.28"/><rect class="c" x="6.87" y="27.45" width="2.28" height="2.3"/><rect class="c" x="6.87" y="25.17" width="2.28" height="2.28"/><rect class="c" x="6.87" y="22.88" width="2.28" height="2.28"/><rect class="c" x="6.87" y="20.6" width="2.28" height="2.28"/><rect class="c" x="6.87" y="18.3" width="2.28" height="2.3"/><rect class="c" x="6.87" y="16.02" width="2.28" height="2.28"/><rect class="c" x="6.87" y="13.73" width="2.28" height="2.28"/><rect class="c" x="6.87" y="11.44" width="2.28" height="2.3"/><rect class="c" x="6.87" y="9.15" width="2.28" height="2.28"/><rect class="c" x="6.87" y="6.87" width="2.28" height="2.28"/><rect class="c" x="6.87" y="4.57" width="2.28" height="2.3"/><rect class="c" x="6.87" y="2.28" width="2.28" height="2.28"/><rect class="c" x="6.87" width="2.28" height="2.28"/><rect class="c" x="4.57" y="82.38" width="2.3" height="2.28"/><rect class="c" x="4.57" y="80.1" width="2.3" height="2.28"/><rect class="c" x="4.57" y="77.8" width="2.3" height="2.3"/><rect class="c" x="4.57" y="75.52" width="2.3" height="2.28"/><rect class="c" x="4.57" y="73.23" width="2.3" height="2.28"/><rect class="c" x="4.57" y="70.94" width="2.3" height="2.3"/><rect class="c" x="4.57" y="68.65" width="2.3" height="2.28"/><rect class="c" x="4.57" y="66.37" width="2.3" height="2.28"/><rect class="c" x="4.57" y="64.07" width="2.3" height="2.3"/><rect class="c" x="4.57" y="61.78" width="2.3" height="2.28"/><rect class="c" x="4.57" y="59.5" width="2.3" height="2.28"/><rect class="c" x="4.57" y="57.2" width="2.3" height="2.3"/><rect class="c" x="4.57" y="54.92" width="2.3" height="2.28"/><rect class="c" x="4.57" y="27.45" width="2.3" height="2.3"/><rect class="c" x="4.57" y="25.17" width="2.3" height="2.28"/><rect class="c" x="4.57" y="22.88" width="2.3" height="2.28"/><rect class="c" x="4.57" y="20.6" width="2.3" height="2.28"/><rect class="c" x="4.57" y="18.3" width="2.3" height="2.3"/><rect class="c" x="4.57" y="16.02" width="2.3" height="2.28"/><rect class="c" x="4.57" y="13.73" width="2.3" height="2.28"/><rect class="c" x="4.57" y="11.44" width="2.3" height="2.3"/><rect class="c" x="4.57" y="9.15" width="2.3" height="2.28"/><rect class="c" x="4.57" y="6.87" width="2.3" height="2.28"/><rect class="c" x="4.57" y="4.57" width="2.3" height="2.3"/><rect class="c" x="4.57" y="2.28" width="2.3" height="2.28"/><rect class="c" x="4.57" width="2.3" height="2.28"/><rect class="b" x="2.28" y="82.38" width="2.28" height="2.28"/><rect class="b" x="2.28" y="80.1" width="2.28" height="2.28"/><rect class="b" x="2.28" y="77.8" width="2.28" height="2.3"/><rect class="b" x="2.28" y="75.52" width="2.28" height="2.28"/><rect class="b" x="2.28" y="73.23" width="2.28" height="2.28"/><rect class="b" x="2.28" y="70.94" width="2.28" height="2.3"/><rect class="b" x="2.28" y="68.65" width="2.28" height="2.28"/><rect class="b" x="2.28" y="13.73" width="2.28" height="2.28"/><rect class="b" x="2.28" y="11.44" width="2.28" height="2.3"/><rect class="b" x="2.28" y="9.15" width="2.28" height="2.28"/><rect class="b" x="2.28" y="6.87" width="2.28" height="2.28"/><rect class="b" x="2.28" y="4.57" width="2.28" height="2.3"/><rect class="b" x="2.28" y="2.28" width="2.28" height="2.28"/><rect class="b" x="2.28" width="2.28" height="2.28"/><rect class="b" y="82.38" width="2.28" height="2.28"/><rect class="b" y="80.1" width="2.28" height="2.28"/><rect class="b" y="77.8" width="2.28" height="2.3"/><rect class="b" y="75.52" width="2.28" height="2.28"/><rect class="b" y="73.23" width="2.28" height="2.28"/><rect class="b" y="70.94" width="2.28" height="2.3"/><rect class="b" y="68.65" width="2.28" height="2.28"/><rect class="b" y="13.73" width="2.28" height="2.28"/><rect class="b" y="11.44" width="2.28" height="2.3"/><rect class="b" y="9.15" width="2.28" height="2.28"/><rect class="b" y="6.87" width="2.28" height="2.28"/><rect class="b" y="4.57" width="2.28" height="2.3"/><rect class="b" y="2.28" width="2.28" height="2.28"/><rect class="b" width="2.28" height="2.28"/></svg>