<svg xmlns="http://www.w3.org/2000/svg" viewBox="0 0 2000 1200"><defs><style>.a,.d{fill:#fff;}.a,.b,.c,.f{opacity:0.17;}.b,.e,.f{fill:none;stroke:#fff;stroke-miterlimit:10;}.b{stroke-width:2px;}.f{font-size:19.32px;font-family:Arial-BoldMT, Arial;font-weight:700;}</style></defs><title>questboard_background</title><path class="a" d="M1714.08,739.05l-.43-.25L1530.52,844.53l-.22-.13-.23.39L1419.74,908.5l-1.3.75,224.12,128.8.07.13.07,0,31.36,18,.43.25,293.34-169.36,1.29-.75Zm123.26,113.46,34.9-20.15,30,17.32-34.9,20.15Zm-1.72-1-30-17.31,34.9-20.15,30,17.31ZM1803.9,833.2l-30-17.32,34.9-20.15,30,17.32Zm-31.72-18.31-30-17.32,34.9-20.15,30,17.32Zm-31.72-18.32-30-17.32L1745.19,759l30.17,17.42Zm-68.34,2.84-30-17.32,34.9-20.15,30,17.32Zm-1.73,1-34.72,20.05-30.16-17.22,34.89-20.14Zm-36.45,21.05-35.07,20.25-30-17.32,34.9-20.15Zm74.8-41.2h0l188.58,108.87L1679.3,1015h0L1490.72,906.13ZM1525.62,884l-30-17.32,34.9-20.15,30,17.32Zm-1.73,1L1489,905.14l-29.93-17.36,34.84-20.11ZM1489,907.13l30,17.32-35,20.49-30.35-17.45Zm31.72,18.31,30,17.32-34.82,20.51-30.17-17.34Zm31.72,18.32,30,17.31-34.88,20.39-29.93-17.2Zm31.72,18.31,30,17.31-35,20.22-29.85-17.15Zm31.72,18.31,30,17.32-34.95,20.17-30.06-17.27Zm31.71,18.31,30,17.32-34.88,20.14-30.06-17.28Zm68.35-2.83,30,17.32-35,20.19L1681,1016Zm1.72-1,34.9-20.15,30,17.32-34.9,20.15Zm36.63-21.14,34.9-20.15,30,17.31L1784.27,991Zm36.62-21.15,34.9-20.15,30,17.32-34.9,20.15Zm36.63-21.14,34.9-20.15,29.49,17,.86-1.49-28.63-16.53,34.9-20.15,30,17.32-71.53,41.29Zm41.53-60.61,34.9-20.15L1934,868l-34.89,20.15ZM1743.47,758l-34.73,20.25-30-17.31,34.9-20.15Zm-176.32,67.37,30,17.31-34.9,20.15-30-17.31Zm-109.81,63.4,29.93,17.35-35.35,20.37-30-17.26Zm217.15,165.64-30.06-17.28L1679.3,1017l29.93,17.36Zm256.28-148-30-17.32,34.9-20.15,30,17.32Z"/><polygon class="b" points="1872.39 650.16 1920.45 663.84 1945.47 692.36 1896.75 720.49 1848.03 706.42 1823.67 678.29 1872.39 650.16"/><polygon class="b" points="1872.39 650.16 1920.45 663.84 1945.47 692.36 1896.75 720.49 1848.03 706.42 1823.67 678.29 1872.39 650.16"/><polyline class="b" points="1823.67 678.29 1823.68 681.13 1848.04 709.25 1896.76 723.32 1945.47 695.19 1945.47 692.36"/><line class="b" x1="1896.75" y1="720.48" x2="1896.76" y2="723.32"/><line class="b" x1="1848.03" y1="706.42" x2="1848.03" y2="709.25"/><polygon class="b" points="1848.03 722.58 1896.09 736.26 1921.11 764.77 1872.39 792.9 1823.67 778.84 1799.31 750.71 1848.03 722.58"/><polygon class="b" points="1848.03 722.58 1896.09 736.26 1921.11 764.77 1872.39 792.9 1823.67 778.84 1799.31 750.71 1848.03 722.58"/><polyline class="b" points="1799.31 750.71 1799.32 753.54 1823.68 781.67 1872.4 795.73 1921.12 767.61 1921.11 764.77"/><line class="b" x1="1872.39" y1="792.9" x2="1872.4" y2="795.73"/><line class="b" x1="1823.67" y1="778.84" x2="1823.67" y2="781.67"/><polygon class="b" points="1763.18 669.84 1811.24 683.52 1836.26 712.04 1787.54 740.16 1738.82 726.1 1714.46 697.97 1763.18 669.84"/><polygon class="b" points="1763.18 669.84 1811.24 683.52 1836.26 712.04 1787.54 740.16 1738.82 726.1 1714.46 697.97 1763.18 669.84"/><polyline class="b" points="1714.46 697.97 1714.46 700.8 1738.82 728.93 1787.54 743 1836.26 714.87 1836.26 712.04"/><line class="b" x1="1787.54" y1="740.16" x2="1787.54" y2="743"/><path class="a" d="M1871.48,684.72v-7.85l-5.52-6.56-4,1.06h0l-14,8.1-.1,0v7.9l9.52,5.49.15-.08,14-8.07Zm-14.18.13-5.23-6.22,13.8-8,5.23,6.23Zm4.71-13.19,2.85-.76-13.07,7.55-2.85.75Zm-14,15.59v-7.5l3.74-1,5.33,6.34v7.4Zm9.37,5.24v-7.36l13.76-8v7.36Z"/><path class="a" d="M1898.59,753.81V746l-5.52-6.57-4,1.07h0l-14,8.1-.09,0v7.91l9.52,5.49.15-.08,14-8.07Zm-14.17.14-5.23-6.22,13.8-8,5.23,6.22Zm4.71-13.2L1892,740l-13.07,7.55-2.85.75Zm-14,15.6v-7.51l3.74-1,5.33,6.34v7.4Zm9.37,5.24v-7.37l13.76-7.94v7.36Z"/><path class="a" d="M1779.79,689.7v-7.85l-5.52-6.56-4,1.06h0l-14,8.1-.09,0v7.9l9.51,5.49.16-.08,14-8.07Zm-14.17.13-5.23-6.22,13.79-8,5.23,6.23Zm4.71-13.19,2.85-.76-13.08,7.55-2.84.75Zm-14,15.59v-7.5l3.74-1,5.33,6.33v7.4Zm9.37,5.24v-7.36l13.76-8v7.37Z"/><path class="a" d="M1909.87,816.82v-7.17l-5-5.46-4.22.17-14.31,8.19h-.07v14.54l9.16,5.25,8.43,5,.1-.06,14.26-8.16,0,0v-7.3Zm8.08,5-14.11,8.07-8.19-4.81,14.12-8.08Zm-22.4-3.88,14.12-8.07v7l-14.12,8.07Zm5.14-13.37,4.07-.17,4.85,5.27-14.14,8.09-4.94-5.37-3.78.15Zm3,32.46-8.23-4.85-9.07-5.2V812.74l4-.16,4.91,5.33v7.21l8.38,4.93Zm.2,0v-7l14.11-8.07v7Z"/><path class="a" d="M1843.47,753.81v-7.17l-5-5.46-4.21.17-14.31,8.18h-.07v14.53l9.16,5.26,8.44,5,.09-.06,14.27-8.16,0,0v-7.3Zm8.09,5-14.12,8.07-8.18-4.82,14.11-8.07Zm-22.4-3.88,14.12-8.07v7l-14.12,8.07Zm5.14-13.37,4.07-.17,4.85,5.27-14.14,8.09-4.94-5.37-3.79.15Zm3,32.46-8.23-4.85-9.06-5.2V749.73l4-.16,4.9,5.33v7.21l8.38,4.93Zm.2,0v-7l14.12-8.07v7Z"/><path class="a" d="M1793.24,720.15h0v-7.23l-6.26-3.61,0,0,0,0-15.56,9,0,0v7.31l6.33,3.66v-.06l15.55-9ZM1787,709.41l6.13,3.54-15.48,8.94-6.13-3.54Zm-15.53,16.1v-7.08l6.13,3.54v7.08Zm6.23-3.54,15.48-8.93v7.08l-15.48,8.93Z"/><path class="a" d="M1887.57,809.5h0v-7.22l-6.26-3.61,0,0,0,0-15.56,9,0,0v7.31l6.33,3.65v-.06l15.55-9Zm-6.23-10.73,6.13,3.54L1872,811.24l-6.13-3.54Zm-15.53,16.1v-7.08l6.13,3.54v7.08Zm6.23-3.54,15.48-8.94v7.08L1872,818.41Z"/><path class="a" d="M1461.41,905.85l.07,0-4.9-2.8c.07-.77.25-1.74.41-2.64a9.85,9.85,0,0,0,.31-2.56.63.63,0,0,0-.39-.43c-.52-.18-1.36.33-1.55.45a.43.43,0,0,0-.23-.07h0l-6.93,4h0a.45.45,0,0,0-.2.32,2.38,2.38,0,0,0-1.37,1.14,2.1,2.1,0,0,0,.17,1.88l.15.33-.08.05a5.74,5.74,0,0,0-2.73,3.65,5.37,5.37,0,0,0-.11,2.14v0h0a9.28,9.28,0,0,0,3.53.63,15,15,0,0,0,3.5-.44,19.13,19.13,0,0,0,3.56-1.23l6.73-3.89,0-.06h.06Zm-.2,0-6.63,3.82c-.06,0-5.93,2.86-10.43,1a5.48,5.48,0,0,1,2.66-5l.1-.07,0,0,.06,0a8.86,8.86,0,0,1,.63,2.34c.07.45.11.72.27.82a.43.43,0,0,0,.25.07,2.35,2.35,0,0,0,1-.35l0,0v0a8.13,8.13,0,0,0-.93-3.52l5.62-3.26,1.53,1a6.32,6.32,0,0,0-.11,2,.23.23,0,0,0,.18.14h.07a2.42,2.42,0,0,0,1-.56l0,0v0a3.27,3.27,0,0,1,0-.91Zm-12.94-3.93c.17,0,.36.39.36.93a1.46,1.46,0,0,1-.21.83l-.18.11h0a.2.2,0,0,1-.08-.14l0,0c.2,0,.35-.34.35-.77s-.16-.77-.37-.77h0A.24.24,0,0,1,1448.27,901.88Zm-.25,1.81a.3.3,0,0,0,.12.16.16.16,0,0,0,.1,0h0a.33.33,0,0,0,.24-.13l6.87-3.93a.77.77,0,0,0,.38-.45.21.21,0,0,1,.1,0c.07.06,0,.55-.08.76s0,.21-.06.29,0,.16,0,.3c-.1.58-.2,1.2-.28,1.77l-1.55-1,0,0-5.65,3.28-.09-.15a.79.79,0,0,1-.17-.67A.52.52,0,0,1,1448,903.69Zm8.85-6.18a.48.48,0,0,1,.29.34,10.29,10.29,0,0,1-.31,2.5,15.69,15.69,0,0,0-.42,3.71c-.21.18-.74.55-1,.5a.13.13,0,0,1-.09-.07,15.22,15.22,0,0,1,.44-3.8c0-.14,0-.24,0-.3s0-.18.05-.28c.11-.49.16-.82,0-.91a.14.14,0,0,0-.11,0,2.76,2.76,0,0,0,0-.44,1.07,1.07,0,0,0-.38-.83C1455.73,897.77,1456.44,897.36,1456.87,897.51Zm-1.72.39a.85.85,0,0,1,.57.85,1,1,0,0,1-.4,1l-6.67,3.81a2,2,0,0,0,.11-.7,1.26,1.26,0,0,0-.35-1Zm-8.41,5.37a2.37,2.37,0,0,1,1.42-1.09c.09,0,.22.25.22.63s-.13.63-.23.63h0a.72.72,0,0,0-.37.43,1,1,0,0,0,.19.79,8,8,0,0,1,1.07,3.67c-.24.14-.81.42-1,.27s-.15-.35-.21-.73a9,9,0,0,0-.86-2.84A2,2,0,0,1,1446.74,903.27Zm7.84,6.89c-.06,0-5.92,2.85-10.42,1.05v-.38a9.21,9.21,0,0,0,3.43.59,15,15,0,0,0,3.5-.44,19.58,19.58,0,0,0,3.56-1.22l6.63-3.83v.36Z"/><path class="a" d="M1614,817.42l-.29-.16-5.36,3.08a4.33,4.33,0,0,0-.83-.32l-2.28-1.35,4.41-2.61,0,0v-1.15l-.07,0-.29-.16-5.27,3c-1.43-1-3.67-1-6.55-.09a25.93,25.93,0,0,0-4.62,2l-.08,0v5.56l-.68,1.31a1.82,1.82,0,0,0-1-.31,2,2,0,0,0-1.58.52,3,3,0,0,0,0,4.1,2.24,2.24,0,0,0,1.51.58h.32a2.44,2.44,0,0,0,1.83-2.59v-.11l4.42-.67V828l0,.06,9.09-5.25.73.64.89.3.07.05,1-2.56,4.58-2.71,0,0v-1.15Zm-.29,0,.14.08-5.2,3-.14-.08Zm-16,10.47v-5.28a26.45,26.45,0,0,1,4.62-2c3.77-1.16,5.74-.52,6.76.36h0l.1.1.11.1Zm-1-.51-3.69-2.13V820l4.57,2.64v4.52Zm5.61-7.11a24.84,24.84,0,0,0-4.65,1.8l-4-2.23c1-.52,7.95-4,10.79-1.56l.16.16h0l.05,0h0l2.35,1.39A10.91,10.91,0,0,0,1602.25,820.28Zm7.28-4.32-4.44,2.62-.39-.22a1.07,1.07,0,0,0-.19-.18l-.09-.09,5.11-2.94Zm-.21-1,.14.07-5.16,3-.11-.09Zm-11.77,2.91a9.94,9.94,0,0,1,4.92-.54,11,11,0,0,0-4.5.57,27,27,0,0,0-4.53,1.9l-.12.06,4.28,2.4,0,0a24.46,24.46,0,0,1,4.66-1.8c.44-.12.91-.23,1.39-.32-.46.1-.94.23-1.44.38a27.12,27.12,0,0,0-4.64,2l-4.57-2.64A26.87,26.87,0,0,1,1597.55,817.86Zm-4.64,7.55,3.53,2-3.29.93a2.65,2.65,0,0,0-.15-.57l.41-.29-.82-.47a2.39,2.39,0,0,0-.35-.36Zm-1.35,3.4,1.32-.92a2.82,2.82,0,0,1,.12.52Zm1.46-.25a.19.19,0,0,1,0,.08l-.68.11Zm-.07-.9a3.59,3.59,0,0,0-.17-.34l.36.21Zm-3.32,3.13a2.61,2.61,0,0,1-.74-1.92,2.64,2.64,0,0,1,.79-2,1.88,1.88,0,0,1,.6-.37,2.73,2.73,0,0,0-1.15,2.34,2.82,2.82,0,0,0,1,2.25A2.1,2.1,0,0,1,1589.63,830.79Zm3.41-1.91a2.3,2.3,0,0,1-1.7,2.44h-.29a2.28,2.28,0,0,1-1.77-2.45,2.22,2.22,0,0,1,1.88-2.45,1.89,1.89,0,0,1,1.66,1.31l-2.06,1.45.42-.12,1.86-.28Zm.13-.36,4.35-1.23V828l-4.34.66S1593.17,828.55,1593.17,828.52Zm14.36-5.17-.67-.58.17-.1,1,.85Zm.82.24-1.18-1,2.07-1.2Zm5.58-5.14-4.52,2.67a4.38,4.38,0,0,0-.62-.52l5.14-3Z"/><polygon class="b" points="1231.72 1012.94 1279.77 1026.62 1304.8 1055.13 1256.08 1083.26 1207.36 1069.2 1183 1041.07 1231.72 1012.94"/><polygon class="b" points="1231.72 1012.94 1279.77 1026.62 1304.8 1055.13 1256.08 1083.26 1207.36 1069.2 1183 1041.07 1231.72 1012.94"/><polyline class="b" points="1183 1041.07 1183 1043.9 1207.36 1072.03 1256.08 1086.1 1304.8 1057.97 1304.8 1055.13"/><polygon class="b" points="1346.29 1049.52 1394.34 1063.2 1419.37 1091.71 1370.65 1119.84 1321.93 1105.78 1297.57 1077.65 1346.29 1049.52"/><polygon class="b" points="1346.29 1049.52 1394.34 1063.2 1419.37 1091.71 1370.65 1119.84 1321.93 1105.78 1297.57 1077.65 1346.29 1049.52"/><polyline class="b" points="1297.57 1077.65 1297.57 1080.48 1321.93 1108.61 1370.65 1122.67 1419.37 1094.55 1419.37 1091.71"/><path class="a" d="M1230.8,1047.49v-7.84l-5.52-6.57-4,1.07h0l-14,8.1-.09,0v7.91l9.51,5.49.15-.08,14-8.07Zm-14.17.14-5.23-6.23,13.79-8,5.23,6.22Zm4.71-13.2,2.84-.75-13.07,7.55-2.85.75Zm-14,15.6v-7.51l3.74-1,5.33,6.34v7.39Zm9.37,5.23v-7.36l13.76-7.94v7.36Z"/><path class="a" d="M1362.9,1069.37v-7.84l-5.52-6.57-4,1.07h0l-14,8.11-.09,0v7.91l9.51,5.49.15-.08,14-8.08Zm-14.17.14-5.23-6.23,13.79-8,5.23,6.22Zm4.71-13.2,2.85-.75-13.08,7.54-2.84.76Zm-14,15.6v-7.51l3.75-1,5.33,6.34v7.39Zm9.37,5.23v-7.36l13.76-7.94v7.36Z"/><path class="a" d="M1936.67,930v-7.18l-5-5.45-4.22.17-14.31,8.18h-.07v14.54l9.16,5.26,8.43,5,.1-.06,14.26-8.15,0,0v-7.31Zm8.08,5-14.11,8.07-8.19-4.82,14.12-8.07Zm-22.4-3.89,14.12-8.07v7l-14.12,8.07Zm5.14-13.37,4.08-.16,4.84,5.27-14.13,8.08-5-5.37-3.78.15Zm3,32.46-8.23-4.84-9.07-5.2V925.91l4-.16,4.91,5.33v7.22l8.38,4.93Zm.2,0v-7l14.11-8.07v7Z"/><path class="a" d="M1973.48,918.25h0V911l-6.26-3.61,0,0,0,0-15.55,9-.05,0v7.31l6.33,3.65v-.05l15.55-9Zm-6.23-10.74,6.13,3.54L1957.9,920l-6.13-3.54Zm-15.53,16.1v-7.08l6.13,3.54v7.08Zm6.23-3.54,15.48-8.93v7.08L1958,927.15Z"/><path class="a" d="M1963.58,966.38v-7.85l-5.53-6.56-4,1.07h0l-14,8.1-.09,0v7.9l9.52,5.5.15-.09,14-8.07Zm-14.17.13-5.24-6.22,13.8-8,5.23,6.22Zm4.71-13.19,2.84-.76-13.07,7.55-2.85.75Zm-14,15.59v-7.5l3.74-1,5.33,6.34v7.39Zm9.37,5.24v-7.36l13.76-7.95v7.37Z"/><path class="a" d="M1974.43,993.4v-7.84l-5.52-6.57-4,1.07h0l-14,8.11-.09,0v7.9l9.52,5.5.15-.09,14-8.07Zm-14.17.13-5.23-6.22,13.79-8,5.24,6.22Zm4.71-13.19,2.85-.75-13.07,7.54-2.85.76Zm-14,15.59v-7.5l3.74-1,5.33,6.34v7.39Zm9.37,5.24v-7.36l13.75-7.94v7.36Z"/><polygon class="b" points="1905.77 571.62 1953.83 585.3 1978.85 613.82 1930.13 641.95 1881.41 627.88 1857.05 599.75 1905.77 571.62"/><polygon class="b" points="1905.77 571.62 1953.83 585.3 1978.85 613.82 1930.13 641.95 1881.41 627.88 1857.05 599.75 1905.77 571.62"/><polyline class="b" points="1857.05 599.75 1857.06 602.59 1881.41 630.71 1930.14 644.78 1978.86 616.65 1978.85 613.82"/><polygon class="b" points="1981.37 696.45 2029.42 710.13 2054.45 738.65 2005.73 766.77 1957.01 752.71 1932.65 724.58 1981.37 696.45"/><polygon class="b" points="1981.37 696.45 2029.42 710.13 2054.45 738.65 2005.73 766.77 1957.01 752.71 1932.65 724.58 1981.37 696.45"/><polyline class="b" points="1932.65 724.58 1932.65 727.42 1957.01 755.54 2005.73 769.61 2054.45 741.48 2054.45 738.65"/><polygon class="b" points="1208.73 1091.62 1256.78 1105.3 1281.81 1133.81 1233.09 1161.94 1184.37 1147.87 1160.01 1119.74 1208.73 1091.62"/><polygon class="b" points="1208.73 1091.62 1256.78 1105.3 1281.81 1133.81 1233.09 1161.94 1184.37 1147.87 1160.01 1119.74 1208.73 1091.62"/><polyline class="b" points="1160.01 1119.74 1160.01 1122.58 1184.37 1150.71 1233.09 1164.77 1281.81 1136.64 1281.81 1133.81"/><path class="a" d="M1207.81,1126.17v-7.85l-5.52-6.56-4,1.07h0l-14,8.11-.09,0v7.9l9.51,5.5.15-.09,14-8.07Zm-14.17.13-5.23-6.22,13.79-8,5.23,6.22Zm4.71-13.19,2.85-.76-13.08,7.55-2.85.76Zm-14,15.59v-7.5l3.75-1,5.33,6.34v7.39Zm9.37,5.24v-7.36l13.76-7.94V1126Z"/><polygon class="b" points="1399.76 1128.82 1447.81 1142.5 1472.84 1171.01 1424.12 1199.14 1375.4 1185.07 1351.04 1156.95 1399.76 1128.82"/><polyline class="b" points="1351.04 1156.95 1351.04 1159.78 1375.4 1187.91 1424.12 1201.97 1472.84 1173.84 1472.84 1171.01"/><path class="a" d="M1398.84,1163.37v-7.84l-5.52-6.57-4,1.07h0l-14,8.11-.09,0v7.9l9.51,5.5.16-.09,14-8.07Zm-14.17.13-5.23-6.22,13.79-8,5.23,6.22Zm4.71-13.19,2.85-.75-13.08,7.54-2.84.76Zm-14,15.59v-7.5l3.74-1,5.33,6.34v7.39Zm9.38,5.24v-7.36l13.76-7.94v7.36Z"/><polygon class="b" points="1505.44 1089.12 1553.5 1102.8 1578.52 1131.31 1529.8 1159.44 1481.08 1145.38 1456.72 1117.25 1505.44 1089.12"/><polygon class="b" points="1505.44 1089.12 1553.5 1102.8 1578.52 1131.31 1529.8 1159.44 1481.08 1145.38 1456.72 1117.25 1505.44 1089.12"/><polyline class="b" points="1456.72 1117.25 1456.72 1120.08 1481.09 1148.21 1529.81 1162.28 1578.52 1134.15 1578.52 1131.31"/><path class="a" d="M1556,1120.35v-7.84l-5.52-6.57-4,1.07h0l-14,8.1-.09,0v7.9l9.52,5.49.15-.08,14-8.07Zm-14.17.14-5.23-6.22,13.79-8,5.24,6.22Zm4.71-13.2,2.85-.75-13.07,7.55-2.85.75Zm-14,15.6v-7.51l3.74-1,5.33,6.34v7.4Zm9.37,5.24v-7.37l13.75-7.94v7.36Z"/><path class="a" d="M1500.88,1120.35v-7.17l-5-5.46-4.21.17-14.31,8.18h-.08v14.54l9.16,5.25,8.44,5,.09-.06,14.26-8.16,0,0v-7.3Zm8.09,5-14.12,8.07-8.18-4.81,14.11-8.08Zm-22.4-3.88,14.12-8.07v7l-14.12,8.07Zm5.14-13.37,4.07-.17,4.85,5.27-14.14,8.09-4.94-5.37-3.79.15Zm3,32.46-8.23-4.85-9.06-5.2v-14.23l4-.16,4.9,5.33v7.21l8.38,4.93Zm.2,0v-7l14.12-8.07v7Z"/><polygon class="b" points="1280.52 1152.85 1328.57 1166.53 1353.6 1195.04 1304.88 1223.17 1256.16 1209.1 1231.8 1180.97 1280.52 1152.85"/><polygon class="b" points="1280.52 1152.85 1328.57 1166.53 1353.6 1195.04 1304.88 1223.17 1256.16 1209.1 1231.8 1180.97 1280.52 1152.85"/><polyline class="b" points="1231.8 1180.97 1231.8 1183.81 1256.16 1211.94 1304.88 1226 1353.6 1197.87 1353.6 1195.04"/><path class="a" d="M1331.08,1184.08v-7.84l-5.52-6.57-4,1.07h0l-14,8.11-.09,0v7.9l9.51,5.5.15-.09,14-8.07Zm-14.17.13-5.23-6.22,13.79-8,5.23,6.22Zm4.71-13.19,2.84-.75-13.07,7.54-2.85.76Zm-14,15.59v-7.5l3.75-1,5.33,6.34v7.39Zm9.37,5.24v-7.36l13.76-7.94v7.36Z"/><path class="a" d="M1276,1184.08v-7.18l-5-5.45-4.21.17-14.32,8.18h-.07v14.54l9.16,5.26,8.43,5,.1-.06,14.26-8.15,0,0V1189Zm8.09,5-14.12,8.07-8.19-4.82,14.12-8.07Zm-22.4-3.89,14.11-8.07v7l-14.11,8.07Zm5.13-13.37,4.08-.16,4.84,5.27-14.13,8.08-4.94-5.37-3.79.15Zm3,32.46-8.23-4.84-9.06-5.2V1180l4-.16,4.91,5.33v7.22l8.38,4.93Zm.2,0v-7l14.11-8.07v7Z"/><path class="a" d="M1858.08,1136.3v-7.18l-5-5.46-4.22.17-14.31,8.19h-.07v14.54l9.16,5.25,8.43,5,.1-.06,14.26-8.16,0,0v-7.3Zm8.08,5-14.11,8.07-8.19-4.81,14.12-8.07Zm-22.39-3.88,14.11-8.07v7l-14.12,8.08Zm5.13-13.37,4.08-.17,4.84,5.27-14.13,8.09-4.94-5.37-3.79.15Zm3,32.46-8.23-4.85-9.06-5.2v-14.23l4-.16,4.91,5.33v7.21l8.38,4.93Zm.2,0v-7l14.11-8.07v7Z"/><path class="a" d="M1818.73,1156v-7.85l-5.52-6.56-4,1.06h0l-14,8.1-.09,0v7.9l9.51,5.49.16-.08,14-8.07Zm-14.17.13-5.23-6.22,13.79-8,5.23,6.23Zm4.71-13.19,2.85-.76-13.08,7.55-2.84.75Zm-14,15.59V1151l3.74-1,5.33,6.34v7.4Zm9.37,5.24v-7.36l13.76-7.95v7.36Z"/><path class="a" d="M1829.59,1183v-7.85l-5.52-6.56-4,1.07h0l-14,8.11-.09,0v7.9l9.52,5.5.15-.09,14-8.07Zm-14.17.13-5.24-6.22,13.8-8,5.23,6.22Zm4.71-13.19,2.84-.76-13.07,7.55-2.85.76Zm-14,15.59V1178l3.74-1,5.33,6.34v7.39Zm9.37,5.24v-7.36l13.76-7.94v7.36Z"/><path class="a" d="M1735.44,825.22l4.39-2.54-5.28-3,4.4-2.54-32.15-18.57-.14-.08-55.51,32,5.28,3-4.4,2.55,5.52,3.19-4.39,2.53,32.15,18.57.15.08L1741,828.41Zm-28.78-26.11,31.14,18-54.36,31.38-31.14-18ZM1657,833.88l26.29,15.17.14.09L1734,820l4.71,2.72-54.36,31.39-31.14-18Zm-2.7,7.93,3.82-2.2,26,15,.15.08,50.55-29.18,5,2.86-54.36,31.39Z"/><path class="a" d="M1733.17,960l4.39-2.54-5.29-3,4.41-2.54-32.15-18.57-.14-.08-55.52,32,5.29,3.05-4.41,2.55,5.53,3.19-4.39,2.53L1683,995.2l.14.08,55.51-32Zm-28.78-26.12,31.14,18-54.36,31.38-31.15-18Zm-49.66,34.78L1681,983.87l.15.09,50.53-29.18,4.71,2.72L1682,988.89l-31.14-18Zm-2.69,7.93,3.81-2.2,26.05,15,.14.08,50.55-29.18,5,2.86-54.36,31.38Z"/><path class="a" d="M1438.21,1074.44l20.18-11.65,25.35,14.64,25.82-14.91,25.83,14.91,64.45-37.22-5.75-3.32,4.74-2.73-43.48-25.11-23.1,13.34L1506,1007.2l-20.43,11.8L1461,1004.82,1396.52,1042l5.43,3.14-7.22,4.16Zm16.29-15.67,5.93-3.42,24.55,14.17,23.1-13.33,4.68,2.7-29,16.76Zm142.26-18.56-61.37,35.44-24.28-14,3.19-1.85,20.07,11.59,58.18-33.59Zm-41.41-29.38,40.39,23.33-61.37,35.43-24.75-14.29,39.82-23-15.65-9Zm-9,21.48L1485,1067.74l-40.39-23.32L1506,1009ZM1461,1006.6l23,13.29-42.49,24.53,17.39,10-18.89,10.9L1399.61,1042Zm-21,60.54,13-7.48,3.89,2.24-18.64,10.76-40.4-23.33,5.68-3.27Z"/><path class="a" d="M1462.85,986.15l-5.76-3.32,4.74-2.74L1418.35,955l-23.1,13.33L1369,953.14l-20.43,11.79L1324,950.75,1259.52,988l5.43,3.13-7.22,4.17,43.48,25.1,20.18-11.65,25.35,14.64,25.83-14.91,25.82,14.91Zm-44.5-29.38,40.39,23.32-61.37,35.44-24.75-14.3,39.82-23-15.65-9Zm-9,21.47L1348,1013.68l-40.39-23.33L1369,954.92ZM1324,952.53l23,13.29-42.49,24.53,17.39,10-18.89,10.9L1262.61,988Zm-22.77,66.06-40.39-23.32,5.67-3.28,36.51,21.08,13-7.48,3.89,2.24Zm16.29-13.89,5.93-3.42,24.55,14.18,23.1-13.34,4.68,2.71-29,16.75Zm59.8,1,20.07,11.59,58.18-33.59,4.21,2.43-61.37,35.43-24.28-14Z"/><path class="a" d="M1917.63,966.54a1.84,1.84,0,0,0,0-.41,2.53,2.53,0,0,0-1.47-2.1l-17.68-10.21a7.63,7.63,0,0,0-6.87,0L1874,964a2.52,2.52,0,0,0-1.47,2.1,1.8,1.8,0,0,0,0,.22v1.85a1.45,1.45,0,0,0,0,.48v.12h0a2.71,2.71,0,0,0,1.43,1.73l17.69,10.21a7.6,7.6,0,0,0,6.87,0l17.68-10.2a2.53,2.53,0,0,0,1.47-2.1,1.92,1.92,0,0,0,0-.41Zm-43.46-2.18,17.68-10.2a7.14,7.14,0,0,1,6.49,0L1916,964.37a2.3,2.3,0,0,1,1.26,1.54h0v.59a1.67,1.67,0,0,1-.21.48,3.36,3.36,0,0,0-.82-.63l-17.68-10.21a7.56,7.56,0,0,0-6.87,0L1874,966.34a4.22,4.22,0,0,0-.82.63,1.7,1.7,0,0,1-.25-.63v-.21h0A2.2,2.2,0,0,1,1874.17,964.36Zm42.62,2.92a3.24,3.24,0,0,1-.77.61l-17.68,10.21a7.2,7.2,0,0,1-6.49,0l-17.68-10.21a3.36,3.36,0,0,1-.78-.61,3.21,3.21,0,0,1,.77-.6l17.69-10.21a7.18,7.18,0,0,1,6.48,0L1916,966.68A3.49,3.49,0,0,1,1916.79,967.28Zm-.77,2.92-17.69,10.21a7.18,7.18,0,0,1-6.48,0l-17.69-10.21a2.3,2.3,0,0,1-1.26-1.54v-.45a1.72,1.72,0,0,1,.25-.62,3.86,3.86,0,0,0,.82.63l17.69,10.21a7.6,7.6,0,0,0,6.87,0l17.68-10.21a3.62,3.62,0,0,0,.82-.63,1.61,1.61,0,0,1,.21.49v.09h0a1.24,1.24,0,0,1,0,.27A2.17,2.17,0,0,1,1916,970.2Z"/><g class="c"><path class="d" d="M1892.15,973.23l-.07-.14a6,6,0,0,1-.45-1.34,7.5,7.5,0,0,1-.14-.87,10.72,10.72,0,0,1-3.13-1.23c-1.65-1-2.46-2-2.42-3.18,0-1.34,1.14-2.64,3.24-3.85a13.41,13.41,0,0,1,6.15-1.89,10.55,10.55,0,0,1,5.74,1.37c1.8,1,2.64,2.2,2.5,3.45s-1.25,2.45-3.3,3.63A13.73,13.73,0,0,1,1895,971c.06.3.1.49.13.58a4.69,4.69,0,0,0,.32.64l.13.23Zm3.68-12.12h-.49a13,13,0,0,0-6,1.83c-2,1.14-3,2.33-3,3.54,0,1,.72,2,2.23,2.82a10.15,10.15,0,0,0,3.16,1.22l.16,0v.16a5.61,5.61,0,0,0,.14.95,5.15,5.15,0,0,0,.36,1.11l2.59-.59a4.5,4.5,0,0,1-.22-.48,7.8,7.8,0,0,1-.19-.84l0-.21.21,0a13.35,13.35,0,0,0,5.35-1.79c1.94-1.12,3-2.25,3.12-3.34s-.66-2.11-2.32-3.07A10,10,0,0,0,1895.83,961.11Zm-1.79,7.41,0-.17a3.42,3.42,0,0,1-.09-.38,4,4,0,0,0-.22-.89,1.8,1.8,0,0,0-.33-.39l-1.5.4a1.94,1.94,0,0,1,.32,1.13l0,.24-.23-.08a3.41,3.41,0,0,1-.73-.33c-.76-.44-1.06-1-.9-1.6s.91-1.27,2.29-2.06a7.72,7.72,0,0,1,3.18-1.12,4.17,4.17,0,0,1,2.47.46c.77.45,1.08,1,.93,1.61s-.83,1.23-2.11,2a10.06,10.06,0,0,1-2.84,1.18Zm-.58-2.25.07.07a1.82,1.82,0,0,1,.49.57,4.15,4.15,0,0,1,.26,1,1.36,1.36,0,0,0,0,.17,9.83,9.83,0,0,0,2.53-1.1c1.46-.84,1.86-1.4,1.94-1.73s-.14-.82-.75-1.17a3.83,3.83,0,0,0-2.25-.42,7.6,7.6,0,0,0-3,1.07c-1.58.91-2,1.5-2.1,1.83s.11.82.71,1.17a3.49,3.49,0,0,0,.39.19,2.39,2.39,0,0,0-.38-.84l-.14-.22Z"/></g><g class="c"><path class="e" d="M1953.17,833.35,1963,839l-3,1.72-3.3-1.9-9.1,5.25-3.23-1.87,9.1-5.25-3.3-1.91Z"/></g><path class="a" d="M1976.23,840.72a1.84,1.84,0,0,0,0-.41,2.53,2.53,0,0,0-1.47-2.1L1957.12,828a7.63,7.63,0,0,0-6.87,0l-17.68,10.21a2.52,2.52,0,0,0-1.47,2.1,1.62,1.62,0,0,0,0,.22v1.85a1.45,1.45,0,0,0,0,.48V843h0a2.73,2.73,0,0,0,1.44,1.73l17.68,10.21a7.6,7.6,0,0,0,6.87,0l17.68-10.2a2.52,2.52,0,0,0,1.48-2.1,1.92,1.92,0,0,0,0-.41Zm-43.47-2.17,17.69-10.21a7.12,7.12,0,0,1,6.48,0l17.68,10.21a2.29,2.29,0,0,1,1.27,1.54h0v.59a1.67,1.67,0,0,1-.21.48,3.93,3.93,0,0,0-.83-.63l-17.68-10.21a7.56,7.56,0,0,0-6.87,0l-17.68,10.21a3.6,3.6,0,0,0-.82.62,1.54,1.54,0,0,1-.25-.63v-.21h0A2.16,2.16,0,0,1,1932.76,838.55Zm42.63,2.92a3.34,3.34,0,0,1-.78.6l-17.68,10.21a7.18,7.18,0,0,1-6.48,0l-17.69-10.21a.62.62,0,1,1,0-1.21l17.68-10.21a7.2,7.2,0,0,1,6.49,0l17.68,10.21A3.11,3.11,0,0,1,1975.39,841.47Zm-.78,2.91-17.68,10.21a7.18,7.18,0,0,1-6.48,0l-17.69-10.21a2.3,2.3,0,0,1-1.26-1.54v-.44a1.54,1.54,0,0,1,.25-.63,3.62,3.62,0,0,0,.82.63l17.68,10.21a7.63,7.63,0,0,0,6.88,0l17.68-10.21a4.13,4.13,0,0,0,.82-.63,1.61,1.61,0,0,1,.21.49v.1h0a2.11,2.11,0,0,1,0,.26A2.14,2.14,0,0,1,1974.61,844.38Z"/><path class="a" d="M1890.73,1074.5a2,2,0,0,0,0-.42,2.5,2.5,0,0,0-1.47-2.09l-17.68-10.21a7.56,7.56,0,0,0-6.87,0L1847.07,1072a2.5,2.5,0,0,0-1.47,2.09,1.64,1.64,0,0,0,0,.22v1.86a1.64,1.64,0,0,0,0,.23,1.94,1.94,0,0,0,0,.24v.12h0a2.72,2.72,0,0,0,1.43,1.74l17.69,10.21a7.6,7.6,0,0,0,6.87,0l17.68-10.21a2.52,2.52,0,0,0,1.47-2.1,2,2,0,0,0,0-.41Zm-43.46-2.18,17.68-10.21a7.22,7.22,0,0,1,6.49,0l17.68,10.21a2.32,2.32,0,0,1,1.26,1.54h0v.59a2.05,2.05,0,0,1-.22.48,3.62,3.62,0,0,0-.82-.63l-17.68-10.21a7.63,7.63,0,0,0-6.87,0l-17.69,10.21a3.86,3.86,0,0,0-.82.63,1.81,1.81,0,0,1-.25-.64v-.21h0A2.15,2.15,0,0,1,1847.27,1072.32Zm42.62,2.92a3.21,3.21,0,0,1-.77.6l-17.68,10.21a7.2,7.2,0,0,1-6.49,0l-17.68-10.21a3.34,3.34,0,0,1-.78-.6,3.11,3.11,0,0,1,.78-.61l17.68-10.21a7.2,7.2,0,0,1,6.49,0l17.68,10.21A3.51,3.51,0,0,1,1889.89,1075.24Zm-.77,2.92-17.68,10.2a7.2,7.2,0,0,1-6.49,0l-17.68-10.21a2.33,2.33,0,0,1-1.27-1.53v-.45a1.7,1.7,0,0,1,.25-.63,3.56,3.56,0,0,0,.82.63l17.69,10.21a7.6,7.6,0,0,0,6.87,0l17.68-10.2a3.93,3.93,0,0,0,.82-.63,1.74,1.74,0,0,1,.22.48v.1h0a1.15,1.15,0,0,1,0,.26A2.19,2.19,0,0,1,1889.12,1078.16Z"/><g class="c"><path class="d" d="M1865.25,1081.18l-.06-.13a5.82,5.82,0,0,1-.46-1.35,7.5,7.5,0,0,1-.14-.87,10.72,10.72,0,0,1-3.13-1.23c-1.65-.95-2.46-2-2.42-3.17,0-1.35,1.14-2.65,3.24-3.86a13.39,13.39,0,0,1,6.15-1.88,10.38,10.38,0,0,1,5.74,1.37c1.8,1,2.64,2.2,2.5,3.44s-1.25,2.45-3.3,3.64a13.9,13.9,0,0,1-5.3,1.82,3.8,3.8,0,0,0,.14.57,3.6,3.6,0,0,0,.31.65l.13.22Zm3.68-12.12h-.48a13.14,13.14,0,0,0-6,1.83c-2,1.15-3,2.34-3,3.54,0,1,.72,2,2.23,2.83a10.47,10.47,0,0,0,3.16,1.21l.16,0v.16a5.83,5.83,0,0,0,.14,1,5.33,5.33,0,0,0,.36,1.11l2.59-.6a3.21,3.21,0,0,1-.22-.48c0-.13-.1-.4-.19-.84l0-.21.21,0a13.05,13.05,0,0,0,5.35-1.79c1.94-1.12,3-2.24,3.12-3.34s-.66-2.11-2.32-3.07A9.94,9.94,0,0,0,1868.93,1069.06Zm-1.79,7.42-.05-.18a3,3,0,0,1-.09-.38,3.8,3.8,0,0,0-.22-.88,1.37,1.37,0,0,0-.33-.39l-1.5.39a2,2,0,0,1,.33,1.13l0,.25-.23-.08a4.8,4.8,0,0,1-.73-.33c-.76-.44-1.06-1-.89-1.61s.9-1.26,2.28-2.06a7.87,7.87,0,0,1,3.18-1.12,4.17,4.17,0,0,1,2.47.47c.77.44,1.09,1,.93,1.6s-.83,1.23-2.11,2a9.77,9.77,0,0,1-2.84,1.18Zm-.58-2.26.07.07a2.06,2.06,0,0,1,.49.57,3.83,3.83,0,0,1,.26,1,1,1,0,0,0,0,.17,10,10,0,0,0,2.54-1.09c1.45-.84,1.85-1.41,1.93-1.73s-.14-.83-.75-1.18a3.76,3.76,0,0,0-2.25-.41,7.31,7.31,0,0,0-3,1.07c-1.58.91-2,1.49-2.1,1.82s.11.83.71,1.17a3.6,3.6,0,0,0,.39.2,2.43,2.43,0,0,0-.38-.85l-.14-.22Z"/></g><g class="c"><path class="d" d="M1810,1113l-9.21-5.31,12.47-7.2,9.06,5.22-3,1.72-5.43-3.14-1.53.89,5,2.91-2.85,1.64-5-2.91-2,1.16,5.59,3.22Zm-8.44-5.31,8.44,4.87,2.35-1.36-5.58-3.22,2.77-1.6,5,2.91,2.08-1.2-5-2.91,2.3-1.33,5.43,3.13,2.2-1.27-8.29-4.78Z"/></g><g class="c"><path class="e" d="M1776.31,1121.64l3.3,1.65a2.41,2.41,0,0,0-.91,1c-.16.47.08.89.7,1.25a2.9,2.9,0,0,0,1.44.4,2.45,2.45,0,0,0,1.24-.29.82.82,0,0,0,.49-.69c0-.28-.31-.74-1-1.36a4.19,4.19,0,0,1-1.57-2.6c0-.71.48-1.33,1.42-1.88a6.73,6.73,0,0,1,2.23-.74,7.75,7.75,0,0,1,2.71.06,9.91,9.91,0,0,1,3,1.21c1.34.77,2.07,1.53,2.2,2.26s-.37,1.51-1.49,2.31l-3.26-1.64c.47-.36.69-.69.68-1s-.25-.57-.7-.84a2.47,2.47,0,0,0-1.13-.33,1.85,1.85,0,0,0-1,.23.48.48,0,0,0-.28.43c0,.18.2.48.64.89a9.26,9.26,0,0,1,2,2.37,1.64,1.64,0,0,1,0,1.54,3.41,3.41,0,0,1-1.37,1.27,7.62,7.62,0,0,1-2.7.92,8.86,8.86,0,0,1-3,0,9.69,9.69,0,0,1-3-1.16c-1.78-1-2.62-2-2.51-2.82A3.68,3.68,0,0,1,1776.31,1121.64Z"/></g><g class="c"><path class="e" d="M1754.12,1133.41l9.84,5.68-3,1.72-3.3-1.9-9.1,5.25-3.23-1.87,9.1-5.25-3.3-1.91Z"/></g><path class="a" d="M1834.83,1107a1.92,1.92,0,0,0,.05-.41,2.52,2.52,0,0,0-1.47-2.1l-17.68-10.21a7.63,7.63,0,0,0-6.87,0l-17.69,10.21a2.52,2.52,0,0,0-1.47,2.09,1.79,1.79,0,0,0,0,.23v1.85a1.45,1.45,0,0,0,0,.48v.12h0a2.68,2.68,0,0,0,1.43,1.73l17.68,10.21a7.63,7.63,0,0,0,6.88,0l17.68-10.21a2.5,2.5,0,0,0,1.47-2.09,1.84,1.84,0,0,0-.05-.41Zm-43.47-2.18,17.69-10.2a7.12,7.12,0,0,1,6.48,0l17.69,10.2a2.34,2.34,0,0,1,1.26,1.55h0v.58a1.61,1.61,0,0,1-.21.49,3.89,3.89,0,0,0-.82-.64l-17.68-10.2a7.58,7.58,0,0,0-6.88,0l-17.68,10.2a3.62,3.62,0,0,0-.82.63,1.6,1.6,0,0,1-.25-.63v-.21h0A2.19,2.19,0,0,1,1791.36,1104.86Zm42.63,2.92a3.51,3.51,0,0,1-.77.61l-17.69,10.2a7.12,7.12,0,0,1-6.48,0l-17.69-10.2a3.51,3.51,0,0,1-.77-.61,3.21,3.21,0,0,1,.77-.6l17.69-10.21a7.18,7.18,0,0,1,6.48,0l17.68,10.21A3.09,3.09,0,0,1,1834,1107.78Zm-.78,2.92-17.68,10.21a7.18,7.18,0,0,1-6.48,0l-17.69-10.21a2.3,2.3,0,0,1-1.26-1.54v-.45a1.72,1.72,0,0,1,.25-.62,3.62,3.62,0,0,0,.82.63l17.69,10.21a7.6,7.6,0,0,0,6.87,0l17.68-10.21a3.86,3.86,0,0,0,.82-.63,1.61,1.61,0,0,1,.21.49v.09h0a1.24,1.24,0,0,1,0,.27A2.17,2.17,0,0,1,1833.21,1110.7Z"/><path class="a" d="M1806,1123.76a1.84,1.84,0,0,0,0-.41,2.5,2.5,0,0,0-1.47-2.09l-17.69-10.21a7.56,7.56,0,0,0-6.87,0l-17.68,10.2a2.53,2.53,0,0,0-1.47,2.1,1.62,1.62,0,0,0,0,.22v1.85a1.45,1.45,0,0,0,0,.48v.12h0a2.74,2.74,0,0,0,1.44,1.74L1780,1138a7.6,7.6,0,0,0,6.87,0l17.68-10.21a2.51,2.51,0,0,0,1.48-2.1,1.92,1.92,0,0,0,0-.41Zm-43.47-2.17,17.69-10.21a7.2,7.2,0,0,1,6.48,0l17.68,10.21a2.29,2.29,0,0,1,1.27,1.54h0v.59a1.67,1.67,0,0,1-.21.48,3.93,3.93,0,0,0-.83-.63l-17.68-10.21a7.63,7.63,0,0,0-6.87,0l-17.68,10.21a3.62,3.62,0,0,0-.82.63,1.64,1.64,0,0,1-.25-.64v-.21h0A2.16,2.16,0,0,1,1762.54,1121.59Zm42.63,2.92a3.09,3.09,0,0,1-.78.6l-17.68,10.21a7.18,7.18,0,0,1-6.48,0l-17.69-10.21a3.52,3.52,0,0,1-.78-.61,3.82,3.82,0,0,1,.78-.6l17.68-10.21a7.2,7.2,0,0,1,6.49,0l17.68,10.21A3.11,3.11,0,0,1,1805.17,1124.51Zm-.78,2.91-17.68,10.21a7.18,7.18,0,0,1-6.48,0l-17.69-10.21a2.31,2.31,0,0,1-1.26-1.53v-.45a1.54,1.54,0,0,1,.25-.63,3.62,3.62,0,0,0,.82.63l17.68,10.21a7.6,7.6,0,0,0,6.87,0l17.69-10.21a4.1,4.1,0,0,0,.82-.62,1.46,1.46,0,0,1,.21.48v.1h0a2.28,2.28,0,0,1,0,.26A2.14,2.14,0,0,1,1804.39,1127.42Z"/><path class="a" d="M1777.18,1140.78a1.84,1.84,0,0,0,0-.41,2.53,2.53,0,0,0-1.47-2.1l-17.69-10.21a7.63,7.63,0,0,0-6.87,0l-17.68,10.21a2.52,2.52,0,0,0-1.47,2.1,1.62,1.62,0,0,0,0,.22v1.85a1.45,1.45,0,0,0,0,.48v.12h0a2.73,2.73,0,0,0,1.44,1.73L1751.2,1155a7.6,7.6,0,0,0,6.87,0l17.68-10.2a2.52,2.52,0,0,0,1.48-2.1,1.92,1.92,0,0,0,0-.41Zm-43.47-2.17,17.69-10.21a7.12,7.12,0,0,1,6.48,0l17.68,10.21a2.29,2.29,0,0,1,1.27,1.54h0v.59a1.67,1.67,0,0,1-.21.48,3.62,3.62,0,0,0-.83-.63l-17.68-10.21a7.56,7.56,0,0,0-6.87,0l-17.68,10.21a3.6,3.6,0,0,0-.82.62,1.54,1.54,0,0,1-.25-.63v-.21h0A2.16,2.16,0,0,1,1733.71,1138.61Zm42.63,2.91a3.11,3.11,0,0,1-.78.61l-17.68,10.21a7.18,7.18,0,0,1-6.48,0l-17.69-10.21a3.84,3.84,0,0,1-.78-.61,3.49,3.49,0,0,1,.78-.6l17.68-10.21a7.2,7.2,0,0,1,6.49,0l17.68,10.21A3.34,3.34,0,0,1,1776.34,1141.52Zm-.78,2.92-17.68,10.21a7.18,7.18,0,0,1-6.48,0l-17.69-10.21a2.3,2.3,0,0,1-1.26-1.54v-.45a1.56,1.56,0,0,1,.25-.62,3.62,3.62,0,0,0,.82.63l17.68,10.21a7.63,7.63,0,0,0,6.88,0l17.68-10.21a4.13,4.13,0,0,0,.82-.63,1.61,1.61,0,0,1,.21.49v.09h0a2.45,2.45,0,0,1,0,.27A2.15,2.15,0,0,1,1775.56,1144.44Z"/><path class="a" d="M1863.24,1090.91a2,2,0,0,0,0-.42,2.52,2.52,0,0,0-1.47-2.09l-17.68-10.21a7.63,7.63,0,0,0-6.87,0l-17.69,10.21a2.52,2.52,0,0,0-1.47,2.09,1.79,1.79,0,0,0,0,.23v1.85a1.94,1.94,0,0,0,0,.24,1.79,1.79,0,0,0,0,.23v.13h0a2.73,2.73,0,0,0,1.43,1.73l17.69,10.21a7.6,7.6,0,0,0,6.87,0l17.68-10.21a2.52,2.52,0,0,0,1.47-2.09,1.84,1.84,0,0,0,0-.41Zm-43.46-2.18,17.68-10.21a7.22,7.22,0,0,1,6.49,0l17.68,10.21a2.34,2.34,0,0,1,1.26,1.55h0v.58a1.46,1.46,0,0,1-.21.48,3.62,3.62,0,0,0-.82-.63l-17.68-10.21a7.63,7.63,0,0,0-6.87,0l-17.69,10.21a3.86,3.86,0,0,0-.82.63,1.74,1.74,0,0,1-.25-.64v-.21h0A2.17,2.17,0,0,1,1819.78,1088.73Zm42.62,2.92a3.21,3.21,0,0,1-.77.6L1844,1102.46a7.2,7.2,0,0,1-6.49,0l-17.68-10.21a3.09,3.09,0,0,1-.78-.6,3.51,3.51,0,0,1,.77-.61l17.69-10.2a7.15,7.15,0,0,1,6.48,0l17.69,10.21A3.21,3.21,0,0,1,1862.4,1091.65Zm-.77,2.92-17.69,10.2a7.12,7.12,0,0,1-6.48,0l-17.69-10.2a2.34,2.34,0,0,1-1.26-1.54v-.45a1.72,1.72,0,0,1,.25-.62,4.22,4.22,0,0,0,.82.63l17.69,10.2a7.52,7.52,0,0,0,6.87,0l17.68-10.2a3.62,3.62,0,0,0,.82-.63,1.67,1.67,0,0,1,.21.48v.1h0a1.24,1.24,0,0,1,0,.27A2.17,2.17,0,0,1,1861.63,1094.57Z"/><text class="f" transform="matrix(0.75, 0.43, -0.87, 0.5, 1829.06, 1091.37)">U</text><path class="a" d="M1753.85,1102.44l4.39-2.53-5.29-3.05,4.41-2.55-32.15-18.56-.15-.08-55.51,32,5.29,3-4.41,2.54,5.52,3.19-4.39,2.54,32.15,18.56.15.08,55.51-32Zm-28.79-26.11,31.15,18-54.37,31.39-31.14-18Zm-49.65,34.77,26.29,15.18.14.08,50.53-29.17,4.71,2.72-54.36,31.38-31.14-18Zm-2.69,7.94,3.81-2.2,26,15,.14.08,50.55-29.19,5,2.86L1703.86,1137Z"/><path class="a" d="M1658.12,1084.9l4.39-2.53-5.28-3,4.41-2.55-32.15-18.56-.15-.08-55.51,32,5.28,3-4.4,2.55,5.52,3.19-4.39,2.53,32.15,18.56.15.08,55.51-32.05Zm-28.78-26.11,31.15,18-54.37,31.39-31.14-18Zm-49.65,34.77,26.29,15.18.14.08,50.53-29.17,4.71,2.72L1607,1113.76l-31.14-18Zm-2.7,7.94,3.82-2.2,26,15,.14.08,50.55-29.18,5,2.85-54.36,31.39Z"/><path class="a" d="M1966.67,1021.52l-5.75-3.32,4.74-2.73-43.48-25.11-23.1,13.34-26.29-15.19-20.43,11.8-24.55-14.18-64.46,37.21,5.43,3.14-7.22,4.16,43.48,25.11,20.18-11.65,25.35,14.64,25.82-14.92,25.83,14.92Zm-44.49-29.38,40.39,23.33-61.37,35.43-24.75-14.29,39.82-23-15.65-9Zm-9,21.48-61.37,35.43-40.4-23.32,61.38-35.44Zm-85.37-25.71,23,13.29-42.49,24.53,17.39,10-18.89,10.9-40.39-23.33ZM1805,1054l-40.4-23.33,5.68-3.27,36.51,21.08,13-7.48,3.89,2.24Zm16.29-13.89,5.93-3.42,24.55,14.17,23.1-13.33,4.68,2.7-29,16.76Zm59.8,1,20.07,11.59,58.18-33.59,4.21,2.43L1902.22,1057l-24.28-14Z"/><path class="a" d="M1633.08,726c-7.72,0-13.78,2.42-13.78,5.52h0l0,2.19c0,3.1,6,5.53,13.78,5.53s13.78-2.43,13.78-5.52l0-2.19h0C1646.86,728.38,1640.81,726,1633.08,726Zm0,.56c7.17,0,13.22,2.27,13.22,5h0c0,2.7-6,5-13.22,5s-13.22-2.27-13.22-5S1625.91,726.51,1633.08,726.51Zm13.19,7.15c0,2.7-6,5-13.22,5s-13.22-2.27-13.22-5V733c1.64,2.32,6.87,4,13.24,4s11.51-1.62,13.2-3.91Z"/><path class="a" d="M1576.91,731.06c-7.73,0-13.78,2.42-13.79,5.52h0l0,2.19c0,3.1,6.06,5.52,13.79,5.52s13.78-2.42,13.78-5.52l0-2.19h0C1590.69,733.48,1584.63,731.06,1576.91,731.06Zm0,.55c7.16,0,13.22,2.28,13.22,5h0c0,2.69-6.06,5-13.22,5s-13.23-2.27-13.23-5S1569.74,731.61,1576.91,731.61Zm13.19,7.16c0,2.69-6.06,5-13.22,5s-13.23-2.27-13.23-5v-.63c1.64,2.31,6.87,4,13.25,4s11.51-1.62,13.2-3.9Z"/><path class="a" d="M1608.72,747.65c-7.73,0-13.78,2.43-13.78,5.52h0l0,2.2c0,3.1,6,5.52,13.78,5.52s13.78-2.42,13.78-5.52l0-2.19h0C1622.5,750.08,1616.45,747.65,1608.72,747.65Zm0,.56c7.16,0,13.22,2.28,13.22,5h0c0,2.69-6.06,5-13.22,5s-13.22-2.27-13.22-5S1601.55,748.21,1608.72,748.21Zm13.19,7.16c0,2.69-6.05,5-13.22,5s-13.22-2.27-13.22-5v-.63c1.64,2.31,6.87,4,13.25,4s11.51-1.62,13.2-3.9Z"/><path class="a" d="M1634.19,698.5c-7.72,0-13.78,2.42-13.78,5.52h0l0,2.19c0,3.1,6,5.53,13.78,5.53s13.78-2.43,13.78-5.53l0-2.19h0C1648,700.92,1641.92,698.5,1634.19,698.5Zm0,.56c7.17,0,13.22,2.27,13.22,5h0c0,2.69-6.05,5-13.22,5s-13.22-2.28-13.22-5S1627,699.06,1634.19,699.06Zm13.19,7.15c0,2.69-6.05,5-13.22,5s-13.22-2.28-13.22-5v-.63c1.64,2.31,6.87,4,13.24,4s11.51-1.63,13.2-3.91Z"/><path class="a" d="M1561.28,779.09c-7.72,0-13.77,2.42-13.78,5.52h0l0,2.19c0,3.1,6,5.52,13.78,5.52S1575,789.9,1575,786.8l0-2.19h0C1575.06,781.51,1569,779.09,1561.28,779.09Zm0,.55c7.17,0,13.22,2.28,13.23,5h0c0,2.69-6.06,5-13.23,5s-13.22-2.27-13.22-5S1554.12,779.64,1561.28,779.64Zm13.2,7.16c0,2.69-6.06,5-13.23,5s-13.22-2.27-13.22-5v-.63c1.64,2.31,6.87,4,13.24,4s11.51-1.62,13.2-3.9Z"/><path class="a" d="M1680.82,714.61c0-3.1-6-5.53-13.78-5.53s-13.77,2.43-13.78,5.52h0l0,2.2c0,3.09,6,5.52,13.78,5.52s13.78-2.43,13.78-5.52l0-2.19Zm-13.78-5c7.17,0,13.22,2.28,13.23,5h0c0,2.69-6.06,5-13.23,5s-13.22-2.27-13.22-5S1659.88,709.64,1667,709.64Zm13.2,7.16c0,2.69-6.06,5-13.23,5s-13.22-2.27-13.22-5v-.64c1.64,2.32,6.87,4,13.24,4s11.51-1.62,13.2-3.9Z"/><path class="a" d="M1571.24,758.17c-7.73,0-13.78,2.43-13.79,5.52h0l0,2.2c0,3.09,6.06,5.52,13.79,5.52S1585,769,1585,765.89l0-2.19h0C1585,760.6,1579,758.17,1571.24,758.17Zm0,.56c7.16,0,13.22,2.28,13.22,5h0c0,2.69-6.06,5-13.22,5s-13.23-2.27-13.23-5S1564.07,758.73,1571.24,758.73Zm13.19,7.16c0,2.69-6.06,5-13.22,5s-13.23-2.27-13.23-5v-.64c1.64,2.32,6.87,4,13.25,4s11.51-1.62,13.2-3.9Z"/><path class="a" d="M1602.7,712.09c-7.73,0-13.78,2.42-13.79,5.52h0l0,2.19c0,3.1,6.06,5.53,13.79,5.53s13.78-2.43,13.78-5.52l0-2.19h0C1616.48,714.52,1610.42,712.09,1602.7,712.09Zm0,.56c7.16,0,13.22,2.27,13.22,5h0c0,2.69-6.06,5-13.22,5s-13.23-2.28-13.23-5S1595.53,712.65,1602.7,712.65Zm13.19,7.15c0,2.69-6.06,5-13.22,5s-13.23-2.28-13.23-5v-.64c1.64,2.32,6.87,4,13.25,4s11.51-1.62,13.2-3.91Z"/><path class="a" d="M1561.27,714c-7.73,0-13.78,2.42-13.78,5.52h0l0,2.19c0,3.1,6,5.53,13.78,5.53s13.78-2.43,13.78-5.52l0-2.19h0C1575.05,716.43,1569,714,1561.27,714Zm0,.56c7.16,0,13.22,2.27,13.22,5h0c0,2.69-6.06,5-13.22,5s-13.22-2.28-13.22-5S1554.1,714.56,1561.27,714.56Zm13.19,7.15c0,2.69-6,5-13.22,5s-13.22-2.28-13.22-5v-.64c1.64,2.32,6.87,4,13.25,4s11.51-1.62,13.2-3.91Z"/><path class="a" d="M1584.27,701.5c0-3.1-6.06-5.52-13.78-5.52s-13.78,2.42-13.79,5.52h0l0,2.19c0,3.1,6.06,5.53,13.79,5.53s13.78-2.43,13.78-5.52l0-2.19h0Zm-13.78-5c7.16,0,13.22,2.27,13.22,5h0c0,2.69-6.06,5-13.22,5s-13.23-2.28-13.23-5S1563.32,696.54,1570.49,696.54Zm13.19,7.15c0,2.69-6.06,5-13.22,5s-13.23-2.28-13.23-5v-.64c1.64,2.31,6.87,4,13.25,4s11.51-1.63,13.2-3.91Z"/><path class="a" d="M1960.61,1064.4c0-3.1-6-5.52-13.78-5.52s-13.77,2.42-13.78,5.52h0l0,2.19c0,3.1,6,5.53,13.78,5.53s13.78-2.43,13.78-5.52l0-2.19h0Zm-13.78-5c7.17,0,13.22,2.27,13.23,5h0c0,2.69-6.06,5-13.23,5s-13.22-2.28-13.22-5S1939.67,1059.44,1946.83,1059.44Zm13.2,7.15c0,2.69-6.06,5-13.23,5s-13.22-2.28-13.22-5V1066c1.64,2.31,6.87,4,13.24,4s11.51-1.63,13.2-3.91Z"/><path class="a" d="M1966.46,1124.25c-7.72,0-13.78,2.42-13.78,5.52h0l0,2.19c0,3.1,6,5.53,13.78,5.53s13.78-2.43,13.78-5.52l0-2.19h0C1980.24,1126.67,1974.19,1124.25,1966.46,1124.25Zm0,.56c7.17,0,13.22,2.27,13.22,5h0c0,2.69-6,5-13.22,5s-13.22-2.28-13.22-5S1959.29,1124.81,1966.46,1124.81Zm13.19,7.15c0,2.69-6.05,5-13.22,5s-13.22-2.28-13.22-5v-.64c1.64,2.32,6.87,4,13.24,4s11.51-1.63,13.2-3.91Z"/><path class="a" d="M1910.29,1129.35c-7.73,0-13.78,2.43-13.79,5.52h0l0,2.2c0,3.1,6.06,5.52,13.79,5.52s13.78-2.42,13.78-5.52l0-2.19h0C1924.07,1131.78,1918,1129.35,1910.29,1129.35Zm0,.56c7.16,0,13.22,2.28,13.22,5h0c0,2.69-6.06,5-13.22,5s-13.23-2.27-13.23-5S1903.12,1129.91,1910.29,1129.91Zm13.19,7.16c0,2.69-6.06,5-13.22,5s-13.23-2.27-13.23-5v-.64c1.64,2.32,6.87,4,13.25,4s11.51-1.62,13.2-3.9Z"/><path class="a" d="M1942.1,1146c-7.73,0-13.78,2.43-13.78,5.52h0l0,2.2c0,3.09,6,5.52,13.78,5.52s13.78-2.43,13.78-5.52l0-2.19h0C1955.88,1148.38,1949.83,1146,1942.1,1146Zm0,.56c7.16,0,13.22,2.27,13.22,5h0c0,2.69-6.06,5-13.22,5s-13.22-2.27-13.22-5S1934.93,1146.51,1942.1,1146.51Zm13.19,7.16c0,2.69-6,5-13.22,5s-13.22-2.27-13.22-5V1153c1.64,2.32,6.87,4,13.25,4s11.51-1.62,13.2-3.9Z"/><path class="a" d="M1967.57,1096.79c-7.72,0-13.78,2.43-13.78,5.52h0l0,2.2c0,3.1,6,5.52,13.78,5.52s13.78-2.42,13.78-5.52l0-2.19h0C1981.35,1099.22,1975.3,1096.79,1967.57,1096.79Zm0,.56c7.17,0,13.22,2.28,13.22,5h0c0,2.69-6,5-13.22,5s-13.22-2.27-13.22-5S1960.4,1097.35,1967.57,1097.35Zm13.19,7.16c0,2.69-6,5-13.22,5s-13.22-2.27-13.22-5v-.63c1.64,2.31,6.87,4,13.24,4s11.51-1.62,13.2-3.9Z"/><path class="a" d="M1904.62,1156.47c-7.73,0-13.78,2.43-13.79,5.52h0l0,2.19c0,3.1,6.06,5.53,13.79,5.53s13.78-2.43,13.78-5.52l0-2.19h0C1918.4,1158.9,1912.34,1156.47,1904.62,1156.47Zm0,.56c7.16,0,13.22,2.27,13.22,5h0c0,2.69-6.06,5-13.22,5s-13.23-2.27-13.23-5S1897.45,1157,1904.62,1157Zm13.19,7.15c0,2.7-6.06,5-13.22,5s-13.23-2.27-13.23-5v-.64c1.64,2.32,6.87,4,13.25,4s11.51-1.62,13.2-3.91Z"/><path class="a" d="M1936.08,1110.39c-7.73,0-13.78,2.42-13.79,5.52h0l0,2.19c0,3.1,6.06,5.52,13.79,5.52s13.78-2.42,13.78-5.52l0-2.19h0C1949.86,1112.81,1943.8,1110.39,1936.08,1110.39Zm0,.56c7.16,0,13.22,2.27,13.22,5h0c0,2.69-6.06,5-13.22,5s-13.23-2.28-13.23-5S1928.91,1111,1936.08,1111Zm13.19,7.15c0,2.69-6.06,5-13.22,5s-13.23-2.28-13.23-5v-.63c1.64,2.31,6.87,4,13.25,4s11.51-1.62,13.2-3.9Z"/><path class="a" d="M1894.65,1112.3c-7.73,0-13.78,2.42-13.78,5.52h0l0,2.19c0,3.1,6.05,5.52,13.78,5.52s13.78-2.42,13.78-5.52l0-2.19h0C1908.43,1114.72,1902.38,1112.3,1894.65,1112.3Zm0,.56c7.16,0,13.22,2.27,13.22,5h0c0,2.69-6.06,5-13.22,5s-13.22-2.28-13.22-5S1887.48,1112.86,1894.65,1112.86Zm13.19,7.15c0,2.69-6,5-13.22,5s-13.22-2.28-13.22-5v-.63c1.64,2.31,6.87,4,13.25,4s11.51-1.63,13.2-3.91Z"/><path class="a" d="M1917.65,1099.8c0-3.1-6.06-5.53-13.78-5.53s-13.78,2.43-13.79,5.53h0l0,2.19c0,3.1,6.06,5.52,13.79,5.52s13.78-2.42,13.78-5.52l0-2.19Zm-13.78-5c7.16,0,13.22,2.28,13.22,5h0c0,2.69-6.06,5-13.22,5s-13.23-2.27-13.23-5S1896.7,1094.83,1903.87,1094.83Zm13.19,7.16c0,2.69-6.06,5-13.22,5s-13.23-2.27-13.23-5v-.63c1.64,2.31,6.87,4,13.25,4s11.51-1.62,13.2-3.9Z"/><path class="a" d="M1125.7,1094.22c-7.72,0-13.77,2.42-13.78,5.52h0l0,2.19c0,3.1,6.06,5.53,13.78,5.53s13.79-2.43,13.79-5.52l0-2.19h0C1139.49,1096.64,1133.43,1094.22,1125.7,1094.22Zm0,.56c7.17,0,13.23,2.27,13.23,5h0c0,2.69-6.06,5-13.23,5s-13.22-2.28-13.22-5S1118.54,1094.78,1125.7,1094.78Zm13.2,7.15c0,2.69-6.06,5-13.23,5s-13.22-2.28-13.22-5v-.64c1.64,2.32,6.87,4,13.24,4s11.52-1.63,13.2-3.91Z"/><path class="a" d="M1069.53,1099.32c-7.73,0-13.78,2.43-13.78,5.52h0l0,2.2c0,3.1,6,5.52,13.78,5.52s13.78-2.42,13.78-5.52l0-2.19h0C1083.31,1101.75,1077.26,1099.32,1069.53,1099.32Zm0,.56c7.17,0,13.22,2.28,13.22,5h0c0,2.69-6,5-13.22,5s-13.22-2.27-13.22-5S1062.36,1099.88,1069.53,1099.88Zm13.19,7.16c0,2.69-6,5-13.22,5s-13.22-2.27-13.22-5v-.64c1.64,2.32,6.87,4,13.24,4s11.51-1.62,13.2-3.9Z"/><path class="a" d="M1101.34,1115.92c-7.72,0-13.77,2.43-13.78,5.52h0l0,2.2c0,3.09,6,5.52,13.78,5.52s13.78-2.43,13.78-5.52l0-2.19h0C1115.12,1118.35,1109.07,1115.92,1101.34,1115.92Zm0,.56c7.17,0,13.22,2.28,13.22,5h0c0,2.69-6,5-13.22,5s-13.22-2.27-13.22-5S1094.17,1116.48,1101.34,1116.48Zm13.19,7.16c0,2.69-6,5-13.22,5s-13.22-2.27-13.22-5V1123c1.64,2.32,6.87,4,13.24,4s11.51-1.62,13.2-3.9Z"/><path class="a" d="M1126.81,1066.76c-7.72,0-13.77,2.43-13.78,5.53h0l0,2.19c0,3.1,6.06,5.52,13.78,5.52s13.79-2.42,13.79-5.52l0-2.19h0C1140.6,1069.19,1134.54,1066.76,1126.81,1066.76Zm0,.56c7.17,0,13.23,2.28,13.23,5h0c0,2.69-6.06,5-13.23,5s-13.22-2.27-13.22-5S1119.65,1067.32,1126.81,1067.32Zm13.2,7.16c0,2.69-6.06,5-13.23,5s-13.22-2.27-13.22-5v-.63c1.64,2.31,6.87,4,13.24,4s11.52-1.62,13.2-3.9Z"/><path class="a" d="M1173.45,1082.87c0-3.09-6-5.52-13.78-5.52s-13.78,2.43-13.78,5.52h0l0,2.19c0,3.1,6.05,5.53,13.78,5.53s13.78-2.43,13.78-5.52l0-2.19h0Zm-13.78-5c7.16,0,13.22,2.27,13.22,5h0c0,2.69-6.06,5-13.22,5s-13.23-2.27-13.23-5S1152.5,1077.91,1159.67,1077.91Zm13.19,7.15c0,2.7-6.06,5-13.22,5s-13.23-2.27-13.23-5v-.64c1.64,2.32,6.87,4,13.25,4s11.51-1.62,13.2-3.91Z"/><path class="a" d="M1095.32,1080.36c-7.72,0-13.78,2.42-13.78,5.52h0l0,2.19c0,3.1,6,5.53,13.78,5.53s13.78-2.43,13.78-5.53l0-2.19h0C1109.1,1082.78,1103.05,1080.36,1095.32,1080.36Zm0,.56c7.17,0,13.22,2.27,13.22,5h0c0,2.69-6,5-13.22,5s-13.22-2.28-13.22-5S1088.15,1080.92,1095.32,1080.92Zm13.19,7.15c0,2.69-6,5-13.22,5s-13.22-2.28-13.22-5v-.63c1.64,2.31,6.87,4,13.24,4s11.51-1.62,13.2-3.9Z"/><path class="a" d="M1053.89,1082.27c-7.72,0-13.77,2.42-13.78,5.52h0l0,2.19c0,3.1,6.05,5.53,13.78,5.53s13.78-2.43,13.78-5.53l0-2.19h0C1067.67,1084.69,1061.62,1082.27,1053.89,1082.27Zm0,.56c7.17,0,13.22,2.27,13.22,5h0c0,2.69-6,5-13.22,5s-13.22-2.28-13.22-5S1046.72,1082.83,1053.89,1082.83Zm13.19,7.15c0,2.69-6,5-13.22,5s-13.22-2.28-13.22-5v-.63c1.64,2.31,6.87,4,13.24,4s11.51-1.63,13.2-3.91Z"/><path class="a" d="M1076.89,1069.77c0-3.1-6.05-5.53-13.78-5.53s-13.78,2.43-13.78,5.53h0l0,2.19c0,3.1,6,5.52,13.78,5.52s13.78-2.42,13.78-5.52l0-2.19Zm-13.78-5c7.17,0,13.22,2.28,13.22,5h0c0,2.69-6,5-13.22,5s-13.22-2.27-13.22-5S1055.94,1064.8,1063.11,1064.8Zm13.19,7.16c0,2.69-6,5-13.22,5s-13.22-2.27-13.22-5v-.63c1.64,2.31,6.87,4,13.24,4s11.51-1.62,13.2-3.9Z"/><path class="a" d="M1134.06,1174.06c-7.72,0-13.77,2.43-13.78,5.52h0l0,2.2c0,3.09,6.06,5.52,13.78,5.52s13.79-2.43,13.79-5.52l0-2.19h0C1147.85,1176.49,1141.79,1174.06,1134.06,1174.06Zm0,.56c7.17,0,13.23,2.27,13.23,5h0c0,2.69-6.06,5-13.23,5s-13.22-2.27-13.22-5S1126.9,1174.62,1134.06,1174.62Zm13.2,7.16c0,2.69-6.06,5-13.23,5s-13.22-2.27-13.22-5v-.64c1.64,2.32,6.87,4,13.24,4s11.52-1.62,13.2-3.9Z"/><path class="a" d="M1077.89,1179.17c-7.73,0-13.78,2.42-13.78,5.52h0l0,2.19c0,3.1,6.05,5.53,13.78,5.53s13.78-2.43,13.78-5.52l0-2.19h0C1091.67,1181.59,1085.62,1179.17,1077.89,1179.17Zm0,.56c7.17,0,13.22,2.27,13.22,5h0c0,2.69-6,5-13.22,5s-13.22-2.28-13.22-5S1070.72,1179.73,1077.89,1179.73Zm13.19,7.15c0,2.69-6,5-13.22,5s-13.22-2.28-13.22-5v-.64c1.64,2.31,6.87,4,13.24,4s11.51-1.63,13.2-3.91Z"/><path class="a" d="M1109.7,1195.77c-7.72,0-13.78,2.42-13.78,5.52h0l0,2.19c0,3.1,6,5.52,13.78,5.52s13.78-2.42,13.78-5.52l0-2.19h0C1123.48,1198.19,1117.43,1195.77,1109.7,1195.77Zm0,.56c7.17,0,13.22,2.27,13.22,5h0c0,2.69-6.05,5-13.22,5s-13.22-2.28-13.22-5S1102.53,1196.33,1109.7,1196.33Zm13.19,7.15c0,2.69-6.05,5-13.22,5s-13.22-2.28-13.22-5v-.63c1.64,2.31,6.87,4,13.24,4s11.51-1.62,13.2-3.9Z"/><path class="a" d="M1135.17,1146.61c-7.72,0-13.77,2.42-13.78,5.52h0l0,2.19c0,3.1,6.06,5.53,13.78,5.53s13.79-2.43,13.79-5.52l0-2.19h0C1149,1149,1142.9,1146.61,1135.17,1146.61Zm0,.56c7.17,0,13.23,2.27,13.23,5h0c0,2.69-6.06,5-13.23,5s-13.22-2.28-13.22-5S1128,1147.17,1135.17,1147.17Zm13.2,7.15c0,2.69-6.06,5-13.23,5s-13.22-2.28-13.22-5v-.64c1.64,2.32,6.87,4,13.24,4s11.52-1.62,13.2-3.91Z"/><path class="a" d="M1181.81,1162.72c0-3.1-6.06-5.53-13.78-5.53s-13.78,2.43-13.79,5.52h0l0,2.2c0,3.1,6.06,5.52,13.79,5.52s13.78-2.42,13.78-5.52l0-2.19Zm-13.78-5c7.16,0,13.22,2.28,13.22,5h0c0,2.69-6.06,5-13.22,5s-13.23-2.27-13.23-5S1160.86,1157.75,1168,1157.75Zm13.19,7.16c0,2.69-6.06,5-13.22,5s-13.23-2.27-13.23-5v-.63c1.64,2.31,6.87,4,13.25,4s11.51-1.62,13.2-3.9Z"/><path class="a" d="M1103.68,1160.2c-7.73,0-13.78,2.42-13.78,5.52h0l0,2.19c0,3.1,6.05,5.53,13.78,5.53s13.78-2.43,13.78-5.52l0-2.19h0C1117.46,1162.63,1111.41,1160.2,1103.68,1160.2Zm0,.56c7.17,0,13.22,2.27,13.22,5h0c0,2.69-6.05,5-13.22,5s-13.22-2.27-13.22-5S1096.51,1160.76,1103.68,1160.76Zm13.19,7.15c0,2.7-6,5-13.22,5s-13.22-2.27-13.22-5v-.64c1.64,2.32,6.87,4,13.24,4s11.51-1.62,13.2-3.91Z"/><path class="a" d="M1062.25,1162.11c-7.72,0-13.78,2.43-13.78,5.52h0l0,2.19c0,3.1,6,5.53,13.78,5.53s13.78-2.43,13.78-5.52l0-2.19h0C1076,1164.54,1070,1162.11,1062.25,1162.11Zm0,.56c7.17,0,13.22,2.27,13.22,5h0c0,2.69-6,5-13.22,5s-13.22-2.27-13.22-5S1055.08,1162.67,1062.25,1162.67Zm13.19,7.15c0,2.7-6,5-13.22,5s-13.22-2.27-13.22-5v-.64c1.64,2.32,6.87,4,13.24,4s11.51-1.62,13.2-3.91Z"/><path class="a" d="M1085.25,1149.61c0-3.09-6-5.52-13.78-5.52s-13.78,2.42-13.78,5.52h0l0,2.19c0,3.1,6,5.53,13.78,5.53s13.78-2.43,13.78-5.52l0-2.19h0Zm-13.78-5c7.17,0,13.22,2.27,13.22,5h0c0,2.69-6,5-13.22,5s-13.22-2.28-13.22-5S1064.3,1144.65,1071.47,1144.65Zm13.19,7.15c0,2.69-6.05,5-13.22,5s-13.22-2.28-13.22-5v-.64c1.63,2.32,6.87,4,13.24,4s11.51-1.62,13.2-3.91Z"/><path class="a" d="M1670.19,906.3h0l0,0a2.5,2.5,0,0,0-.66-1l0,0h0l-.23-.16-5.48-3.16a2.35,2.35,0,0,0-2.13,0l-5.47,3.16a2.36,2.36,0,0,0-1.07,1.84v6.33a2.36,2.36,0,0,0,1.07,1.84l5.47,3.16.27.12v0h0a2.39,2.39,0,0,0,.77.12,2.43,2.43,0,0,0,.77-.12h0v0a1.31,1.31,0,0,0,.27-.12l5.48-3.16a2.38,2.38,0,0,0,1.06-1.84v-6.33A2.09,2.09,0,0,0,1670.19,906.3ZM1670,906l0,0a.71.71,0,0,0-.25,0,.48.48,0,0,0,.08-.28v0A3.87,3.87,0,0,1,1670,906Zm-13.74-.88,5.47-3.16a2.22,2.22,0,0,1,2,0l5.48,3.16.26.19a.68.68,0,0,1,.19.38.44.44,0,0,1-.17.36l-6.19,3.58a1.23,1.23,0,0,0-.58.63,1.09,1.09,0,0,0-.5-.6l-5.92-3.41c0-.06-.53-.67-.27-1h0Zm-.14,1.07a1,1,0,0,0-.79.19,2.41,2.41,0,0,1,.52-.92A1.25,1.25,0,0,0,1656.07,906.22Zm.14,8.73a2.21,2.21,0,0,1-1-1.73v-6.33a1.31,1.31,0,0,1,0-.27.9.9,0,0,1,1-.25l5.93,3.42a1,1,0,0,1,.51.78v7.17a1.33,1.33,0,0,1-.71.48l-.24-.1Zm5.89,3.33a1.49,1.49,0,0,0,.59-.43,2,2,0,0,0,.6.43A2.4,2.4,0,0,1,1662.1,918.28Zm8.07-5.06a2.23,2.23,0,0,1-1,1.74l-5.48,3.16-.23.1a1.76,1.76,0,0,1-.71-.49v-7.16h0a1,1,0,0,1,.57-.81l6.19-3.58a.49.49,0,0,1,.36,0,.31.31,0,0,1,.19.18,1.8,1.8,0,0,1,.11.58Z"/><path class="a" d="M1666.66,913.33a.48.48,0,0,1-.2,0,.7.7,0,0,1-.39-.61,2.05,2.05,0,0,1,.14-1,2,2,0,0,1,.58-.81.69.69,0,0,1,.7-.16h0c.43.17.54.88.25,1.59a2,2,0,0,1-.57.81A.87.87,0,0,1,1666.66,913.33Zm.64-2.52a.72.72,0,0,0-.44.18,1.83,1.83,0,0,0-.54.76,1.89,1.89,0,0,0-.13.92.61.61,0,0,0,.32.51.59.59,0,0,0,.59-.15,1.73,1.73,0,0,0,.53-.76c.26-.64.18-1.29-.18-1.43h0Z"/><path class="a" d="M1660.07,912.78c-.33,0-.72-.34-.94-.85a1.73,1.73,0,0,1-.14-.84.63.63,0,0,1,.33-.54h0a.63.63,0,0,1,.62.13,1.86,1.86,0,0,1,.51.69c.26.61.17,1.21-.19,1.37A.65.65,0,0,1,1660.07,912.78Zm-.57-2.15a.31.31,0,0,0-.13,0h0a.52.52,0,0,0-.26.44,1.6,1.6,0,0,0,.13.78c.23.54.67.88,1,.75s.36-.68.13-1.22a1.58,1.58,0,0,0-.48-.63A.59.59,0,0,0,1659.5,910.63Z"/><path class="a" d="M1662.74,907.66c-.7,0-1.25-.33-1.25-.75s.55-.75,1.25-.75,1.25.33,1.25.75S1663.44,907.66,1662.74,907.66Zm0-1.38c-.62,0-1.13.28-1.13.63s.51.63,1.13.63,1.13-.28,1.13-.63S1663.37,906.28,1662.74,906.28Z"/><path class="a" d="M1665.44,906.17c-.7,0-1.25-.33-1.25-.75s.55-.75,1.25-.75,1.25.33,1.25.75S1666.14,906.17,1665.44,906.17Zm0-1.38c-.62,0-1.13.28-1.13.63s.51.63,1.13.63,1.13-.29,1.13-.63S1666.06,904.79,1665.44,904.79Z"/><path class="a" d="M1660.2,906.35c-.7,0-1.25-.32-1.25-.74s.55-.75,1.25-.75,1.25.32,1.25.75S1660.9,906.35,1660.2,906.35Zm0-1.37c-.62,0-1.13.28-1.13.63s.51.62,1.13.62,1.13-.28,1.13-.62S1660.83,905,1660.2,905Z"/><path class="a" d="M1662.9,904.86c-.7,0-1.25-.33-1.25-.75s.55-.75,1.25-.75,1.25.33,1.25.75S1663.6,904.86,1662.9,904.86Zm0-1.38c-.62,0-1.13.29-1.13.63s.51.63,1.13.63,1.13-.28,1.13-.63S1663.52,903.48,1662.9,903.48Z"/><path class="a" d="M1657.51,892.38h0l0,0a2.59,2.59,0,0,0-.65-1l-.06-.05h0l-.23-.16-5.48-3.16a2.33,2.33,0,0,0-2.12,0l-5.48,3.16a2.35,2.35,0,0,0-1.06,1.84v6.33a2.35,2.35,0,0,0,1.06,1.84l5.47,3.16a1.59,1.59,0,0,0,.27.12v0h0a2.39,2.39,0,0,0,.77.12,2.43,2.43,0,0,0,.77-.12h0v0a1.11,1.11,0,0,0,.27-.12l5.48-3.16a2.38,2.38,0,0,0,1.06-1.84V893A2.09,2.09,0,0,0,1657.51,892.38Zm-.45-.61a2.39,2.39,0,0,1,.21.34l0,0a.66.66,0,0,0-.24,0,.47.47,0,0,0,.07-.28Zm-13.53-.53,5.48-3.17a2.27,2.27,0,0,1,2,0l5.48,3.17a2,2,0,0,1,.26.18.68.68,0,0,1,.19.38.47.47,0,0,1-.17.37l-6.19,3.57a1.24,1.24,0,0,0-.57.63,1.15,1.15,0,0,0-.51-.6l-5.92-3.41c0-.06-.53-.67-.27-1h0A1.07,1.07,0,0,1,1643.53,891.24Zm-.41.34a1.24,1.24,0,0,0,.27.72,1,1,0,0,0-.79.19A2.43,2.43,0,0,1,1643.12,891.58ZM1649,904.2l-5.47-3.16a2.23,2.23,0,0,1-1-1.74V893a1.27,1.27,0,0,1,0-.27.86.86,0,0,1,1-.24l5.93,3.41a1,1,0,0,1,.51.79v7.16a1.43,1.43,0,0,1-.71.49Zm.42.16a1.41,1.41,0,0,0,.59-.43,2,2,0,0,0,.6.43A2.4,2.4,0,0,1,1649.42,904.36Zm8.07-5.06a2.23,2.23,0,0,1-1,1.74L1651,904.2l-.23.1a1.76,1.76,0,0,1-.71-.49v-7.16a1,1,0,0,1,.57-.81l6.19-3.58a.51.51,0,0,1,.36,0,.38.38,0,0,1,.2.18,2.08,2.08,0,0,1,.1.58Z"/><path class="a" d="M1655.94,895.91l-.14,0a.51.51,0,0,1-.28-.43,1.38,1.38,0,0,1,.1-.68,1.27,1.27,0,0,1,.39-.55.5.5,0,0,1,.5-.12h0c.3.12.38.61.18,1.1S1656.22,895.91,1655.94,895.91Zm.43-1.71a.45.45,0,0,0-.28.12,1.17,1.17,0,0,0-.36.51,1.13,1.13,0,0,0-.09.61.39.39,0,0,0,.2.33c.24.1.57-.18.74-.6s.12-.86-.11-.95Z"/><path class="a" d="M1654,899.07l-.15,0a.53.53,0,0,1-.28-.43,1.54,1.54,0,0,1,.1-.68c.2-.49.6-.79.9-.67h0c.3.12.38.61.18,1.1S1654.29,899.07,1654,899.07Zm.43-1.71c-.22,0-.5.26-.65.63a1.35,1.35,0,0,0-.09.61.43.43,0,0,0,.21.34c.23.09.57-.19.74-.61s.11-.85-.12-1Z"/><path class="a" d="M1652.13,902.26a.32.32,0,0,1-.14,0c-.31-.12-.39-.6-.19-1.1s.6-.79.9-.67h0c.3.12.38.6.18,1.1S1652.4,902.26,1652.13,902.26Zm.43-1.71c-.22,0-.5.26-.64.62s-.12.86.11,1,.57-.18.74-.6.11-.86-.12-.95Z"/><path class="a" d="M1644.47,896.69a.6.6,0,0,1-.35-.14,1.39,1.39,0,0,1-.41-.55c-.21-.49-.14-1,.16-1.1h0c.3-.13.7.16.91.65a1.26,1.26,0,0,1,.11.67.52.52,0,0,1-.27.44Zm-.55-1.68c-.23.1-.28.53-.1,1a1.21,1.21,0,0,0,.37.5.42.42,0,0,0,.38.09.4.4,0,0,0,.2-.34,1.12,1.12,0,0,0-.1-.61c-.18-.42-.52-.69-.75-.59Z"/><path class="a" d="M1647.86,898.41a.59.59,0,0,1-.35-.13,1.39,1.39,0,0,1-.41-.55c-.21-.49-.14-1,.16-1.1h0c.3-.13.7.16.91.65a1.26,1.26,0,0,1,.11.67.47.47,0,0,1-.27.43Zm-.55-1.67c-.23.09-.27.53-.1,1a1.18,1.18,0,0,0,.37.49.33.33,0,0,0,.58-.24,1.17,1.17,0,0,0-.1-.62c-.18-.41-.52-.68-.75-.58Z"/><path class="a" d="M1646.05,899.44a.54.54,0,0,1-.35-.13,1.37,1.37,0,0,1-.41-.55c-.21-.49-.14-1,.15-1.11h0c.3-.12.7.16.91.66s.14,1-.15,1.1Zm-.56-1.68c-.23.1-.27.54-.09,1a1.21,1.21,0,0,0,.37.5.36.36,0,0,0,.38.09c.23-.1.27-.53.09-.95s-.52-.68-.75-.59Z"/><path class="a" d="M1644.35,900.55a.59.59,0,0,1-.35-.13,1.47,1.47,0,0,1-.41-.55c-.21-.49-.14-1,.16-1.11h0a.51.51,0,0,1,.5.11,1.41,1.41,0,0,1,.52,1.22.5.5,0,0,1-.27.43Zm-.55-1.68c-.23.1-.28.54-.1,1a1.21,1.21,0,0,0,.37.5.39.39,0,0,0,.38.09.37.37,0,0,0,.2-.34,1.14,1.14,0,0,0-.1-.61,1.21,1.21,0,0,0-.37-.5.42.42,0,0,0-.38-.09Z"/><path class="a" d="M1647.86,902.25a1,1,0,0,1-.76-.68c-.21-.49-.14-1,.16-1.1s.7.15.91.65.14,1-.16,1.1Zm-.45-1.69a.16.16,0,0,0-.1,0c-.23.09-.27.53-.1.95s.52.68.75.58.28-.53.1-1S1647.63,900.56,1647.41,900.56Z"/><path class="a" d="M1649.29,894.1c-.53,0-1-.25-1-.57s.42-.58,1-.58,1,.25,1,.58S1649.83,894.1,1649.29,894.1Zm0-1c-.45,0-.83.21-.83.46s.38.45.83.45.84-.21.84-.45S1649.75,893.07,1649.29,893.07Z"/><path class="a" d="M1651.38,893c-.53,0-1-.26-1-.58s.42-.58,1-.58,1,.25,1,.58S1651.92,893,1651.38,893Zm0-1c-.45,0-.83.21-.83.46s.38.46.83.46.84-.21.84-.46S1651.84,891.93,1651.38,891.93Z"/><path class="a" d="M1653.41,891.84c-.53,0-1-.25-1-.58s.42-.58,1-.58,1,.26,1,.58S1654,891.84,1653.41,891.84Zm0-1c-.45,0-.83.21-.83.46s.38.46.83.46.84-.21.84-.46S1653.87,890.8,1653.41,890.8Z"/><path class="a" d="M1646.66,892.69c-.53,0-1-.25-1-.58s.42-.58,1-.58,1,.26,1,.58S1647.2,892.69,1646.66,892.69Zm0-1c-.45,0-.83.21-.83.46s.38.46.83.46.84-.21.84-.46S1647.12,891.65,1646.66,891.65Z"/><path class="a" d="M1648.75,891.55c-.53,0-1-.25-1-.58s.42-.57,1-.57,1,.25,1,.57S1649.29,891.55,1648.75,891.55Zm0-1c-.45,0-.83.21-.83.45s.38.46.83.46.84-.21.84-.46S1649.21,890.52,1648.75,890.52Z"/><path class="a" d="M1650.79,890.43c-.54,0-1-.25-1-.58s.42-.58,1-.58,1,.26,1,.58S1651.32,890.43,1650.79,890.43Zm0-1c-.46,0-.84.21-.84.46s.38.46.84.46.83-.21.83-.46S1651.24,889.39,1650.79,889.39Z"/><path class="a" d="M1657.74,914.21a1.23,1.23,0,0,1-.94-.85,1.73,1.73,0,0,1-.14-.84.6.6,0,0,1,.33-.53c.37-.16.86.2,1.12.81s.18,1.22-.18,1.37A.43.43,0,0,1,1657.74,914.21Zm-.56-2.14a.32.32,0,0,0-.14,0h0a.5.5,0,0,0-.26.43,1.57,1.57,0,0,0,.13.78c.23.55.67.88,1,.75s.36-.67.13-1.21S1657.46,912.07,1657.18,912.07Z"/><path class="a" d="M1954.38,797.52h0l0,0a2.48,2.48,0,0,0-.65-1s-.06,0-.06-.06h0l-.23-.16-5.48-3.16a2.33,2.33,0,0,0-2.12,0l-5.48,3.16a2.35,2.35,0,0,0-1.06,1.84v6.33a2.35,2.35,0,0,0,1.06,1.84l5.47,3.16.27.12v0h0a2.39,2.39,0,0,0,.77.13,2.44,2.44,0,0,0,.77-.13h0a1.69,1.69,0,0,0,.27-.13l5.48-3.16a2.36,2.36,0,0,0,1.06-1.84v-6.33A2.09,2.09,0,0,0,1954.38,797.52Zm-.24-.27h0a.51.51,0,0,0-.24,0,.47.47,0,0,0,.07-.28v0A2.39,2.39,0,0,1,1954.14,797.25Zm-13.74-.87,5.48-3.16a2.2,2.2,0,0,1,2,0l5.48,3.16a2,2,0,0,1,.26.18.68.68,0,0,1,.19.38.47.47,0,0,1-.17.37l-6.19,3.57a1.24,1.24,0,0,0-.57.63,1.15,1.15,0,0,0-.51-.6l-5.92-3.41c0-.06-.53-.67-.27-1h0A1.07,1.07,0,0,1,1940.4,796.38Zm-.14,1.06a1,1,0,0,0-.79.19,2.43,2.43,0,0,1,.52-.91A1.24,1.24,0,0,0,1940.26,797.44Zm.14,8.74a2.24,2.24,0,0,1-1-1.74v-6.33a1.39,1.39,0,0,1,0-.27.86.86,0,0,1,1-.24l5.93,3.42a1,1,0,0,1,.51.78V809a1.38,1.38,0,0,1-.71.49,1.75,1.75,0,0,1-.24-.11Zm5.89,3.32a1.33,1.33,0,0,0,.59-.43,2,2,0,0,0,.6.43A2.4,2.4,0,0,1,1946.29,809.5Zm8.07-5.06a2.23,2.23,0,0,1-1,1.74l-5.48,3.16-.23.1a1.89,1.89,0,0,1-.71-.48v-7.17h0a1,1,0,0,1,.57-.81l6.19-3.58a.51.51,0,0,1,.36,0,.38.38,0,0,1,.2.18,2.08,2.08,0,0,1,.1.58Z"/><path class="a" d="M1950.85,804.55a.41.41,0,0,1-.19,0,.72.72,0,0,1-.4-.61,2.05,2.05,0,0,1,.14-1,2,2,0,0,1,.58-.8.69.69,0,0,1,.71-.17h0c.42.17.53.88.25,1.59a2,2,0,0,1-.58.81A.87.87,0,0,1,1950.85,804.55Zm.64-2.52a.72.72,0,0,0-.44.18,1.73,1.73,0,0,0-.53.76,1.81,1.81,0,0,0-.14.92.61.61,0,0,0,.32.51.59.59,0,0,0,.59-.15,1.83,1.83,0,0,0,.54-.76c.25-.64.17-1.28-.19-1.43h0Z"/><path class="a" d="M1944.26,804c-.33,0-.72-.34-.94-.85a1.73,1.73,0,0,1-.14-.84.63.63,0,0,1,.33-.54h0a.65.65,0,0,1,.62.13,1.86,1.86,0,0,1,.51.69c.26.61.17,1.21-.19,1.37A.41.41,0,0,1,1944.26,804Zm-.57-2.14-.13,0h0a.52.52,0,0,0-.26.44,1.59,1.59,0,0,0,.13.78c.23.54.67.88,1,.75s.36-.67.13-1.22a1.74,1.74,0,0,0-.47-.63A.59.59,0,0,0,1943.69,801.86Z"/><path class="a" d="M1946.93,798.88c-.7,0-1.25-.33-1.25-.75s.55-.75,1.25-.75,1.25.33,1.25.75S1947.63,798.88,1946.93,798.88Zm0-1.38c-.62,0-1.13.28-1.13.63s.51.63,1.13.63,1.13-.28,1.13-.63S1947.56,797.5,1946.93,797.5Z"/><path class="a" d="M1949.63,797.39c-.7,0-1.25-.33-1.25-.75s.55-.75,1.25-.75,1.25.33,1.25.75S1950.33,797.39,1949.63,797.39Zm0-1.38c-.62,0-1.13.28-1.13.63s.51.63,1.13.63,1.13-.29,1.13-.63S1950.25,796,1949.63,796Z"/><path class="a" d="M1944.4,797.58c-.71,0-1.25-.33-1.25-.75s.54-.75,1.25-.75,1.25.33,1.25.75S1945.1,797.58,1944.4,797.58Zm0-1.38c-.63,0-1.14.28-1.14.63s.51.63,1.14.63,1.13-.29,1.13-.63S1945,796.2,1944.4,796.2Z"/><path class="a" d="M1947.09,796.08c-.7,0-1.25-.33-1.25-.75s.55-.74,1.25-.74,1.25.32,1.25.74S1947.79,796.08,1947.09,796.08Zm0-1.38c-.62,0-1.13.29-1.13.63s.51.63,1.13.63,1.13-.28,1.13-.63S1947.72,794.7,1947.09,794.7Z"/><path class="a" d="M1941.7,783.6h0l0,0a2.48,2.48,0,0,0-.65-1l-.06-.06h0a1.24,1.24,0,0,0-.23-.17l-5.48-3.16a2.33,2.33,0,0,0-2.12,0l-5.48,3.16a2.35,2.35,0,0,0-1.06,1.85v6.32a2.33,2.33,0,0,0,1.06,1.84l5.48,3.16a1.23,1.23,0,0,0,.26.12v0h0a2.35,2.35,0,0,0,1.54,0h0a1.69,1.69,0,0,0,.27-.13l5.48-3.16a2.33,2.33,0,0,0,1.06-1.84V784.2A2.15,2.15,0,0,0,1941.7,783.6Zm-.45-.61a2.39,2.39,0,0,1,.21.34h0a.4.4,0,0,0-.24,0,.52.52,0,0,0,.07-.29Zm-13.53-.53,5.48-3.16a2.22,2.22,0,0,1,2,0l5.47,3.16a1.15,1.15,0,0,1,.26.19.57.57,0,0,1,.19.37.47.47,0,0,1-.17.37l-6.19,3.57a1.24,1.24,0,0,0-.57.63,1.19,1.19,0,0,0-.51-.6l-5.91-3.41c0-.06-.54-.66-.27-1h0A1.43,1.43,0,0,1,1927.72,782.46Zm-.41.34a1.35,1.35,0,0,0,.27.73,1,1,0,0,0-.79.18A2.43,2.43,0,0,1,1927.31,782.8Zm5.89,12.62-5.48-3.16a2.23,2.23,0,0,1-1-1.74V784.2c0-.09,0-.18,0-.28a.88.88,0,0,1,1-.24l5.92,3.42a1,1,0,0,1,.51.78V795a1.32,1.32,0,0,1-.71.49Zm.41.17a1.33,1.33,0,0,0,.59-.44,2.15,2.15,0,0,0,.6.43A2.52,2.52,0,0,1,1933.61,795.59Zm8.07-5.07a2.23,2.23,0,0,1-1,1.74l-5.48,3.16-.22.11a2.07,2.07,0,0,1-.72-.49v-7.16a1,1,0,0,1,.57-.82l6.2-3.57a.46.46,0,0,1,.35-.06.37.37,0,0,1,.2.19,2,2,0,0,1,.1.58Z"/><path class="a" d="M1940.13,787.13a.34.34,0,0,1-.14,0,.5.5,0,0,1-.28-.43,1.41,1.41,0,0,1,.1-.68,1.21,1.21,0,0,1,.4-.55.48.48,0,0,1,.49-.12h0c.3.12.38.61.18,1.11A.94.94,0,0,1,1940.13,787.13Zm.43-1.7a.46.46,0,0,0-.28.11,1.3,1.3,0,0,0-.36.51,1.23,1.23,0,0,0-.09.61.4.4,0,0,0,.21.34c.23.09.56-.19.73-.61s.12-.85-.11-.95Z"/><path class="a" d="M1938.21,790.3a.32.32,0,0,1-.14,0,.5.5,0,0,1-.28-.43,1.34,1.34,0,0,1,.09-.67c.2-.5.6-.8.9-.68h0c.3.12.38.61.18,1.11S1938.48,790.3,1938.21,790.3Zm.43-1.71c-.22,0-.5.25-.64.62a1.24,1.24,0,0,0-.1.61.41.41,0,0,0,.21.34c.23.09.57-.19.74-.61s.11-.85-.12-.95Z"/><path class="a" d="M1936.32,793.48a.32.32,0,0,1-.14,0c-.3-.12-.38-.6-.18-1.1s.59-.79.89-.67h0c.3.12.38.61.18,1.1S1936.59,793.48,1936.32,793.48Zm.43-1.71c-.22,0-.5.26-.64.63s-.12.85.11.94.57-.18.74-.6.12-.86-.12-1Z"/><path class="a" d="M1928.66,787.91a.6.6,0,0,1-.35-.14,1.36,1.36,0,0,1-.41-.54c-.21-.5-.14-1,.16-1.11h0c.3-.13.7.16.91.65a1.26,1.26,0,0,1,.11.67.5.5,0,0,1-.27.44A.37.37,0,0,1,1928.66,787.91Zm-.55-1.68c-.23.1-.27.53-.1.95a1.31,1.31,0,0,0,.37.5.43.43,0,0,0,.39.09.41.41,0,0,0,.19-.34,1.14,1.14,0,0,0-.1-.61c-.18-.42-.52-.69-.75-.59Z"/><path class="a" d="M1932.05,789.64a.6.6,0,0,1-.35-.14,1.39,1.39,0,0,1-.41-.55c-.21-.49-.14-1,.16-1.1h0c.3-.13.7.16.91.65a1.26,1.26,0,0,1,.11.67.5.5,0,0,1-.27.44A.33.33,0,0,1,1932.05,789.64Zm-.55-1.68c-.23.1-.27.53-.1.95a1.31,1.31,0,0,0,.37.5.43.43,0,0,0,.39.09.41.41,0,0,0,.19-.34,1.12,1.12,0,0,0-.1-.61c-.18-.42-.52-.69-.75-.59Z"/><path class="a" d="M1930.24,790.66a.59.59,0,0,1-.35-.13,1.31,1.31,0,0,1-.41-.55c-.21-.49-.14-1,.16-1.1h0c.29-.13.69.15.9.65s.15,1-.15,1.1Zm-.56-1.67c-.23.09-.27.53-.09.94a1.15,1.15,0,0,0,.37.5.36.36,0,0,0,.38.09c.23-.09.27-.53.09-.95s-.52-.68-.75-.58Z"/><path class="a" d="M1928.54,791.77a.59.59,0,0,1-.35-.13,1.47,1.47,0,0,1-.41-.55c-.21-.49-.14-1,.16-1.11h0a.51.51,0,0,1,.5.11,1.31,1.31,0,0,1,.41.55,1.25,1.25,0,0,1,.11.67.47.47,0,0,1-.27.43A.37.37,0,0,1,1928.54,791.77Zm-.55-1.68c-.23.1-.27.54-.1.95a1.31,1.31,0,0,0,.37.5.33.33,0,0,0,.58-.25,1.14,1.14,0,0,0-.1-.61,1.28,1.28,0,0,0-.37-.5.41.41,0,0,0-.38-.09Z"/><path class="a" d="M1932.05,793.48c-.27,0-.58-.27-.76-.69s-.14-1,.16-1.1.7.16.91.65.14,1-.16,1.11Zm-.45-1.7a.16.16,0,0,0-.1,0c-.23.1-.27.53-.1,1s.53.68.76.59.27-.54.09-1S1931.82,791.78,1931.6,791.78Z"/><path class="a" d="M1933.48,785.33c-.53,0-1-.26-1-.58s.42-.58,1-.58,1,.25,1,.58S1934,785.33,1933.48,785.33Zm0-1c-.45,0-.83.21-.83.46s.38.46.83.46.84-.21.84-.46S1933.94,784.29,1933.48,784.29Z"/><path class="a" d="M1935.57,784.19c-.53,0-1-.26-1-.58s.42-.58,1-.58,1,.25,1,.58S1936.11,784.19,1935.57,784.19Zm0-1c-.45,0-.83.21-.83.46s.38.46.83.46.84-.21.84-.46S1936,783.15,1935.57,783.15Z"/><path class="a" d="M1937.61,783.06c-.54,0-1-.25-1-.58s.42-.57,1-.57,1,.25,1,.57S1938.14,783.06,1937.61,783.06Zm0-1c-.46,0-.84.22-.84.46s.38.46.84.46.83-.21.83-.46S1938.06,782,1937.61,782Z"/><path class="a" d="M1930.85,783.91c-.53,0-.95-.25-.95-.57s.42-.58.95-.58,1,.25,1,.58S1931.39,783.91,1930.85,783.91Zm0-1c-.45,0-.83.21-.83.46s.38.45.83.45.84-.21.84-.45S1931.31,782.88,1930.85,782.88Z"/><path class="a" d="M1932.94,782.78c-.53,0-1-.26-1-.58s.42-.58,1-.58,1,.25,1,.58S1933.48,782.78,1932.94,782.78Zm0-1c-.45,0-.83.21-.83.46s.38.46.83.46.84-.21.84-.46S1933.4,781.74,1932.94,781.74Z"/><path class="a" d="M1935,781.65c-.54,0-1-.25-1-.58s.42-.58,1-.58,1,.26,1,.58S1935.51,781.65,1935,781.65Zm0-1c-.46,0-.84.21-.84.46s.38.46.84.46.83-.21.83-.46S1935.43,780.61,1935,780.61Z"/><path class="a" d="M1941.93,805.43a1.23,1.23,0,0,1-.94-.85,1.71,1.71,0,0,1-.14-.84.6.6,0,0,1,.33-.53c.37-.16.86.2,1.13.81s.17,1.22-.19,1.38A.58.58,0,0,1,1941.93,805.43Zm-.56-2.14a.32.32,0,0,0-.14,0h0a.51.51,0,0,0-.26.44,1.55,1.55,0,0,0,.13.77c.23.55.67.88,1,.76s.36-.68.13-1.22S1941.65,803.29,1941.37,803.29Z"/><path class="a" d="M1754.13,1044.8h0l0,0a3.38,3.38,0,0,0-.9-1.37.54.54,0,0,0-.08-.08h0a3.09,3.09,0,0,0-.31-.23l-7.53-4.34a3.22,3.22,0,0,0-2.93,0l-7.53,4.34a3.26,3.26,0,0,0-1.47,2.54v8.69a3.26,3.26,0,0,0,1.47,2.54l7.53,4.34a2.09,2.09,0,0,0,.37.17v0h0a3.1,3.1,0,0,0,1.06.17,3.06,3.06,0,0,0,1.06-.17h0v0a1.56,1.56,0,0,0,.37-.17l7.53-4.34a3.26,3.26,0,0,0,1.47-2.54v-8.69A2.46,2.46,0,0,0,1754.13,1044.8Zm-.33-.37,0,0a.63.63,0,0,0-.33,0,.69.69,0,0,0,.1-.39v0A4.48,4.48,0,0,1,1753.8,1044.43Zm-18.89-1.2,7.53-4.35a3.05,3.05,0,0,1,2.76,0l7.53,4.34a3,3,0,0,1,.36.26.86.86,0,0,1,.27.52.68.68,0,0,1-.24.5l-8.51,4.92a1.64,1.64,0,0,0-.79.87,1.6,1.6,0,0,0-.7-.83l-8.13-4.69c-.07-.08-.74-.91-.38-1.33h0A1.82,1.82,0,0,1,1734.91,1043.23Zm-.19,1.46a1.38,1.38,0,0,0-1.09.26,3.37,3.37,0,0,1,.72-1.26A1.74,1.74,0,0,0,1734.72,1044.69Zm.19,12a3.06,3.06,0,0,1-1.38-2.39v-8.69a2.53,2.53,0,0,1,0-.38,1.21,1.21,0,0,1,1.33-.34l8.15,4.71a1.39,1.39,0,0,1,.7,1.07v9.85a.81.81,0,0,1-1.3.52Zm8.11,4.58a2,2,0,0,0,.81-.59,2.79,2.79,0,0,0,.82.58A3.22,3.22,0,0,1,1743,1061.28Zm11.09-7a3.06,3.06,0,0,1-1.38,2.39l-7.53,4.35a1.77,1.77,0,0,1-.31.15,2.9,2.9,0,0,1-1-.67v-9.85h0a1.35,1.35,0,0,1,.79-1.12l8.52-4.92a.72.72,0,0,1,.49-.08.52.52,0,0,1,.27.26,2.54,2.54,0,0,1,.14.8Z"/><path class="a" d="M1749.29,1054.47a.76.76,0,0,1-.27,0,1,1,0,0,1-.55-.84,2.63,2.63,0,0,1,.2-1.35,2.75,2.75,0,0,1,.79-1.11,1,1,0,0,1,1-.23h0c.58.23.74,1.21.35,2.19a2.82,2.82,0,0,1-.79,1.11A1.21,1.21,0,0,1,1749.29,1054.47Zm.87-3.47a1,1,0,0,0-.6.25,2.51,2.51,0,0,0-.74,1,2.53,2.53,0,0,0-.18,1.27.8.8,0,0,0,.44.7.83.83,0,0,0,.81-.2,2.5,2.5,0,0,0,.73-1c.36-.88.25-1.77-.25-2h0A.78.78,0,0,0,1750.16,1051Z"/><path class="a" d="M1740.22,1053.71a1.68,1.68,0,0,1-1.29-1.17,2.24,2.24,0,0,1-.19-1.16.83.83,0,0,1,.45-.73h0a.86.86,0,0,1,.85.18,2.3,2.3,0,0,1,.7.94c.36.84.24,1.67-.26,1.89A.75.75,0,0,1,1740.22,1053.71Zm-.78-3a.37.37,0,0,0-.18,0h0a.69.69,0,0,0-.36.6,2.09,2.09,0,0,0,.18,1.07c.32.75.92,1.21,1.33,1s.5-.93.18-1.68a2.12,2.12,0,0,0-.65-.87A.84.84,0,0,0,1739.44,1050.76Z"/><path class="a" d="M1743.9,1046.67c-1,0-1.72-.46-1.72-1s.75-1,1.72-1,1.72.45,1.72,1S1744.86,1046.67,1743.9,1046.67Zm0-1.9c-.86,0-1.56.39-1.56.87s.7.86,1.56.86,1.55-.39,1.55-.86S1744.75,1044.77,1743.9,1044.77Z"/><path class="a" d="M1747.61,1044.62c-1,0-1.72-.46-1.72-1s.75-1,1.72-1,1.72.46,1.72,1S1748.57,1044.62,1747.61,1044.62Zm0-1.9c-.86,0-1.56.39-1.56.87s.7.86,1.56.86,1.55-.39,1.55-.86S1748.46,1042.72,1747.61,1042.72Z"/><path class="a" d="M1740.41,1044.88c-1,0-1.72-.46-1.72-1s.75-1,1.72-1,1.72.46,1.72,1S1741.37,1044.88,1740.41,1044.88Zm0-1.9c-.86,0-1.56.39-1.56.86s.7.87,1.56.87,1.55-.39,1.55-.87S1741.26,1043,1740.41,1043Z"/><path class="a" d="M1744.12,1042.82c-1,0-1.72-.45-1.72-1s.75-1,1.72-1,1.71.46,1.71,1S1745.08,1042.82,1744.12,1042.82Zm0-1.89c-.86,0-1.56.39-1.56.86s.7.87,1.56.87,1.55-.39,1.55-.87S1745,1040.93,1744.12,1040.93Z"/><path class="a" d="M1737,1055.68a1.68,1.68,0,0,1-1.29-1.17,2.32,2.32,0,0,1-.2-1.16.87.87,0,0,1,.46-.73c.5-.22,1.18.28,1.54,1.12s.25,1.67-.26,1.89A.7.7,0,0,1,1737,1055.68Zm-.78-3a.65.65,0,0,0-.19,0h0a.71.71,0,0,0-.36.6,2.14,2.14,0,0,0,.19,1.08c.32.74.91,1.21,1.33,1s.49-.93.17-1.68S1736.63,1052.73,1736.24,1052.73Z"/><path class="a" d="M1619.85,1141.35h0a.14.14,0,0,0,0-.06,3.54,3.54,0,0,0-.91-1.37l-.07-.07h0a2.18,2.18,0,0,0-.31-.22l-7.53-4.35a3.28,3.28,0,0,0-2.93,0l-7.53,4.35a3.21,3.21,0,0,0-1.46,2.53v8.7a3.21,3.21,0,0,0,1.46,2.53l7.53,4.35a2.09,2.09,0,0,0,.37.17v0h0a3.36,3.36,0,0,0,1.06.17,3.32,3.32,0,0,0,1.06-.17h0v0a2.59,2.59,0,0,0,.38-.17l7.53-4.35a3.24,3.24,0,0,0,1.46-2.53v-8.7A2.6,2.6,0,0,0,1619.85,1141.35Zm-.33-.37-.06,0a.74.74,0,0,0-.33,0,.72.72,0,0,0,.1-.4v0A3.82,3.82,0,0,1,1619.52,1141Zm-18.9-1.21,7.53-4.35a3.14,3.14,0,0,1,2.77,0l7.53,4.35a2.11,2.11,0,0,1,.35.26.86.86,0,0,1,.27.52.68.68,0,0,1-.24.5l-8.51,4.91a1.73,1.73,0,0,0-.79.88,1.55,1.55,0,0,0-.7-.83l-8.13-4.69c-.07-.09-.74-.92-.37-1.33h0Zm-.19,1.47a1.38,1.38,0,0,0-1.08.25,3.25,3.25,0,0,1,.71-1.25A1.74,1.74,0,0,0,1600.43,1141.24Zm.19,12a3.06,3.06,0,0,1-1.38-2.39v-8.7a1.61,1.61,0,0,1,0-.37,1.19,1.19,0,0,1,1.32-.34l8.15,4.7a1.4,1.4,0,0,1,.7,1.08v9.85a1.82,1.82,0,0,1-1,.67,1.87,1.87,0,0,1-.32-.15Zm8.11,4.58a2,2,0,0,0,.81-.6,2.77,2.77,0,0,0,.82.59A3.33,3.33,0,0,1,1608.73,1157.83Zm11.1-7a3,3,0,0,1-1.39,2.39l-7.53,4.35-.31.15a2.73,2.73,0,0,1-1-.68v-9.85h0a1.39,1.39,0,0,1,.79-1.12l8.52-4.91a.61.61,0,0,1,.49-.08.5.5,0,0,1,.27.25,2.62,2.62,0,0,1,.15.8Z"/><path class="a" d="M1615,1151a.62.62,0,0,1-.27,0,1,1,0,0,1-.55-.83,2.86,2.86,0,0,1,.2-1.35,2.79,2.79,0,0,1,.79-1.12,1,1,0,0,1,1-.22h0c.58.23.74,1.21.35,2.18a2.69,2.69,0,0,1-.79,1.11A1.14,1.14,0,0,1,1615,1151Zm.87-3.46a1,1,0,0,0-.6.24,2.5,2.5,0,0,0-.73,1,2.39,2.39,0,0,0-.19,1.26.7.7,0,0,0,1.25.5,2.51,2.51,0,0,0,.74-1c.35-.89.24-1.77-.26-2h0A.46.46,0,0,0,1615.87,1147.55Z"/><path class="a" d="M1605.94,1150.25c-.47,0-1-.46-1.3-1.17a2.29,2.29,0,0,1-.19-1.15.85.85,0,0,1,.45-.74h0a.88.88,0,0,1,.85.18,2.37,2.37,0,0,1,.7.94c.36.85.25,1.68-.26,1.89A.56.56,0,0,1,1605.94,1150.25Zm-.79-2.94a.39.39,0,0,0-.18,0h0a.7.7,0,0,0-.36.6,2.22,2.22,0,0,0,.18,1.07c.32.75.92,1.21,1.33,1s.5-.93.18-1.67a2.23,2.23,0,0,0-.65-.88A.83.83,0,0,0,1605.15,1147.31Z"/><path class="a" d="M1609.61,1143.21c-1,0-1.72-.45-1.72-1s.76-1,1.72-1,1.72.46,1.72,1S1610.57,1143.21,1609.61,1143.21Zm0-1.89c-.86,0-1.55.39-1.55.86s.69.87,1.55.87,1.55-.39,1.55-.87S1610.47,1141.32,1609.61,1141.32Z"/><path class="a" d="M1613.32,1141.16c-1,0-1.72-.45-1.72-1s.76-1,1.72-1,1.72.45,1.72,1S1614.28,1141.16,1613.32,1141.16Zm0-1.89c-.86,0-1.56.38-1.56.86s.7.87,1.56.87,1.55-.39,1.55-.87S1614.18,1139.27,1613.32,1139.27Z"/><path class="a" d="M1606.12,1141.42c-1,0-1.72-.45-1.72-1s.75-1,1.72-1,1.72.45,1.72,1S1607.08,1141.42,1606.12,1141.42Zm0-1.89c-.86,0-1.56.38-1.56.86s.7.87,1.56.87,1.55-.39,1.55-.87S1607,1139.53,1606.12,1139.53Z"/><path class="a" d="M1609.83,1139.37c-1,0-1.72-.45-1.72-1s.75-1,1.72-1,1.72.45,1.72,1S1610.79,1139.37,1609.83,1139.37Zm0-1.9c-.86,0-1.56.39-1.56.87s.7.87,1.56.87,1.55-.39,1.55-.87S1610.68,1137.47,1609.83,1137.47Z"/><path class="a" d="M1602.73,1152.23a1.68,1.68,0,0,1-1.29-1.17,2.36,2.36,0,0,1-.2-1.16.84.84,0,0,1,.46-.73c.51-.22,1.18.27,1.54,1.12s.25,1.67-.26,1.89A.7.7,0,0,1,1602.73,1152.23Zm-.78-3a.43.43,0,0,0-.19,0h0a.67.67,0,0,0-.35.6,2.11,2.11,0,0,0,.18,1.07c.32.75.91,1.21,1.33,1s.49-.92.17-1.67S1602.34,1149.28,1602,1149.28Z"/><path class="a" d="M1671.45,1149.16h0s0,0,0,0a2.65,2.65,0,0,0-.66-1l-.06,0h0a1.19,1.19,0,0,0-.23-.16l-5.47-3.16a2.35,2.35,0,0,0-2.13,0l-5.48,3.16a2.36,2.36,0,0,0-1.06,1.84v6.32a2.35,2.35,0,0,0,1.06,1.84l5.48,3.17.27.12h0a2.43,2.43,0,0,0,.77.12,2.39,2.39,0,0,0,.77-.12h0a1.69,1.69,0,0,0,.27-.12l5.48-3.16a2.35,2.35,0,0,0,1.06-1.85v-6.32A1.8,1.8,0,0,0,1671.45,1149.16Zm-.24-.27,0,0a.49.49,0,0,0-.24,0,.5.5,0,0,0,.07-.29v0A2.5,2.5,0,0,1,1671.21,1148.89Zm-13.74-.88,5.48-3.16a2.22,2.22,0,0,1,2,0l5.47,3.16a1.57,1.57,0,0,1,.26.19.55.55,0,0,1,.19.38.45.45,0,0,1-.17.36l-6.19,3.57a1.21,1.21,0,0,0-.57.64,1.12,1.12,0,0,0-.51-.6l-5.91-3.42c0-.06-.54-.66-.27-1h0A1.53,1.53,0,0,1,1657.47,1148Zm-.13,1.07a1,1,0,0,0-.8.18,2.51,2.51,0,0,1,.52-.91A1.28,1.28,0,0,0,1657.34,1149.08Zm.13,8.73a2.23,2.23,0,0,1-1-1.74v-6.32a2.45,2.45,0,0,1,0-.27.87.87,0,0,1,1-.25l5.92,3.42a1,1,0,0,1,.51.78v7.16a1.32,1.32,0,0,1-.71.49l-.23-.11Zm5.9,3.33a1.49,1.49,0,0,0,.59-.43,2.08,2.08,0,0,0,.59.42A2.25,2.25,0,0,1,1663.37,1161.14Zm8.06-5.07a2.23,2.23,0,0,1-1,1.74L1665,1161l-.23.11a1.82,1.82,0,0,1-.72-.49v-7.16h0a1,1,0,0,1,.57-.81l6.2-3.58a.51.51,0,0,1,.35-.06.34.34,0,0,1,.2.19,1.7,1.7,0,0,1,.11.58Z"/><path class="a" d="M1667.93,1156.18a.64.64,0,0,1-.2,0,.74.74,0,0,1-.4-.61,1.93,1.93,0,0,1,.15-1,1.91,1.91,0,0,1,.57-.81.74.74,0,0,1,.71-.17h0c.42.17.53.89.25,1.59a1.92,1.92,0,0,1-.58.81A.78.78,0,0,1,1667.93,1156.18Zm.63-2.51a.76.76,0,0,0-.43.17,1.9,1.9,0,0,0-.54.76,1.82,1.82,0,0,0-.14.92.61.61,0,0,0,.32.52.64.64,0,0,0,.59-.15,1.83,1.83,0,0,0,.54-.76c.26-.65.17-1.29-.19-1.44h0Z"/><path class="a" d="M1661.34,1155.63c-.34,0-.72-.33-.94-.85a1.6,1.6,0,0,1-.15-.84.63.63,0,0,1,.34-.53h0a.61.61,0,0,1,.61.13,1.57,1.57,0,0,1,.51.68c.26.62.18,1.22-.19,1.38Zm-.57-2.14a.32.32,0,0,0-.14,0h0a.51.51,0,0,0-.26.44,1.51,1.51,0,0,0,.14.78c.23.54.66.87,1,.75s.36-.68.13-1.22a1.6,1.6,0,0,0-.47-.64A.66.66,0,0,0,1660.77,1153.49Z"/><path class="a" d="M1664,1150.51c-.7,0-1.25-.33-1.25-.75s.55-.74,1.25-.74,1.25.32,1.25.74S1664.71,1150.51,1664,1150.51Zm0-1.38c-.63,0-1.13.29-1.13.63s.5.63,1.13.63,1.13-.28,1.13-.63S1664.63,1149.13,1664,1149.13Z"/><path class="a" d="M1666.7,1149c-.7,0-1.25-.33-1.25-.75s.55-.75,1.25-.75,1.25.33,1.25.75S1667.4,1149,1666.7,1149Zm0-1.38c-.62,0-1.13.29-1.13.63s.51.63,1.13.63,1.13-.28,1.13-.63S1667.33,1147.64,1666.7,1147.64Z"/><path class="a" d="M1661.47,1149.21c-.7,0-1.25-.33-1.25-.75s.55-.75,1.25-.75,1.25.33,1.25.75S1662.17,1149.21,1661.47,1149.21Zm0-1.38c-.63,0-1.13.28-1.13.63s.5.63,1.13.63,1.13-.28,1.13-.63S1662.09,1147.83,1661.47,1147.83Z"/><path class="a" d="M1664.17,1147.72c-.71,0-1.25-.33-1.25-.75s.54-.75,1.25-.75,1.25.33,1.25.75S1664.87,1147.72,1664.17,1147.72Zm0-1.38c-.63,0-1.14.28-1.14.63s.51.63,1.14.63,1.13-.28,1.13-.63S1664.79,1146.34,1664.17,1146.34Z"/><path class="a" d="M1658.77,1135.24h0l0,0a2.54,2.54,0,0,0-.66-1l-.06,0h0a1.19,1.19,0,0,0-.23-.16l-5.47-3.16a2.35,2.35,0,0,0-2.13,0l-5.48,3.16a2.36,2.36,0,0,0-1.06,1.84v6.32a2.38,2.38,0,0,0,1.06,1.85l5.48,3.16a1.11,1.11,0,0,0,.27.12h0a2.43,2.43,0,0,0,.77.12,2.39,2.39,0,0,0,.77-.12h0a1.39,1.39,0,0,0,.28-.12l5.47-3.16a2.36,2.36,0,0,0,1.07-1.85v-6.32A1.8,1.8,0,0,0,1658.77,1135.24Zm-.45-.62a2.5,2.5,0,0,1,.21.35l0,0a.49.49,0,0,0-.24,0,.6.6,0,0,0,.08-.29S1658.32,1134.63,1658.32,1134.62Zm-13.53-.53,5.48-3.16a2.22,2.22,0,0,1,2,0l5.47,3.16a1.57,1.57,0,0,1,.26.19.63.63,0,0,1,.2.38.5.5,0,0,1-.18.36l-6.18,3.57a1.24,1.24,0,0,0-.58.64,1.12,1.12,0,0,0-.51-.6l-5.91-3.42s-.54-.66-.27-1h0A1.46,1.46,0,0,1,1644.79,1134.09Zm-.41.34a1.28,1.28,0,0,0,.28.73,1,1,0,0,0-.79.18A2.35,2.35,0,0,1,1644.38,1134.43Zm5.89,12.62-5.48-3.16a2.23,2.23,0,0,1-1-1.74v-6.32a2.45,2.45,0,0,1,0-.27.89.89,0,0,1,1-.25l5.92,3.42a1,1,0,0,1,.51.78v7.17a1.33,1.33,0,0,1-.71.48A1,1,0,0,1,1650.27,1147.05Zm.42.17a1.49,1.49,0,0,0,.59-.43,2.2,2.2,0,0,0,.6.43A2.4,2.4,0,0,1,1650.69,1147.22Zm8.07-5.07a2.21,2.21,0,0,1-1,1.74l-5.47,3.16-.23.11a1.91,1.91,0,0,1-.72-.49v-7.16a1,1,0,0,1,.58-.81l6.19-3.58a.49.49,0,0,1,.36,0,.3.3,0,0,1,.19.18,1.75,1.75,0,0,1,.11.58Z"/><path class="a" d="M1657.21,1138.77l-.15,0a.52.52,0,0,1-.28-.43,1.36,1.36,0,0,1,.1-.67,1.49,1.49,0,0,1,.4-.56.51.51,0,0,1,.5-.11h0c.3.12.38.6.18,1.1S1657.48,1138.77,1657.21,1138.77Zm.43-1.71a.48.48,0,0,0-.29.12,1.29,1.29,0,0,0-.36.5,1.4,1.4,0,0,0-.09.62.39.39,0,0,0,.21.33c.23.09.57-.18.74-.6s.11-.86-.12-1Z"/><path class="a" d="M1655.28,1141.93a.32.32,0,0,1-.14,0,.5.5,0,0,1-.28-.42,1.27,1.27,0,0,1,.1-.68c.2-.5.59-.79.89-.67h0c.3.12.38.6.18,1.1S1655.55,1141.93,1655.28,1141.93Zm.43-1.71c-.22,0-.49.26-.64.62a1.17,1.17,0,0,0-.09.62.37.37,0,0,0,.2.33c.23.09.57-.18.74-.6s.12-.86-.11-1Z"/><path class="a" d="M1653.39,1145.12a.35.35,0,0,1-.14,0c-.3-.12-.38-.61-.18-1.1s.59-.8.89-.68h0c.3.13.38.61.18,1.11S1653.66,1145.12,1653.39,1145.12Zm.43-1.71c-.22,0-.49.25-.64.62s-.12.86.11,1,.57-.19.74-.61.12-.85-.11-.94A.16.16,0,0,0,1653.82,1143.41Z"/><path class="a" d="M1645.74,1139.54a.54.54,0,0,1-.35-.13,1.31,1.31,0,0,1-.41-.55c-.21-.49-.14-1,.15-1.11h0c.3-.12.7.16.91.66a1.39,1.39,0,0,1,.12.67.51.51,0,0,1-.27.43Zm-.56-1.68c-.23.1-.27.54-.09,1a1.21,1.21,0,0,0,.37.5.33.33,0,0,0,.58-.24,1.28,1.28,0,0,0-.11-.62c-.18-.41-.52-.68-.75-.59Z"/><path class="a" d="M1649.13,1141.27a.54.54,0,0,1-.35-.13,1.37,1.37,0,0,1-.41-.55c-.21-.49-.14-1,.15-1.11h0c.3-.12.7.16.91.65a1.4,1.4,0,0,1,.12.68.52.52,0,0,1-.27.43Zm-.56-1.68c-.23.1-.27.54-.09,1a1.21,1.21,0,0,0,.37.5.36.36,0,0,0,.38.09.37.37,0,0,0,.2-.34,1.26,1.26,0,0,0-.11-.61c-.18-.42-.52-.69-.75-.59Z"/><path class="a" d="M1647.31,1142.3a.6.6,0,0,1-.35-.14,1.27,1.27,0,0,1-.41-.54c-.21-.5-.14-1,.16-1.11h0c.3-.13.7.16.91.65s.14,1-.16,1.11Zm-.55-1.68c-.23.1-.28.53-.1,1a1.21,1.21,0,0,0,.37.5.42.42,0,0,0,.38.09c.23-.1.27-.53.1-1s-.52-.69-.75-.59Z"/><path class="a" d="M1645.62,1143.41a.56.56,0,0,1-.35-.14,1.27,1.27,0,0,1-.41-.54c-.21-.5-.14-1,.15-1.11h0a.51.51,0,0,1,.5.1,1.49,1.49,0,0,1,.53,1.22.54.54,0,0,1-.27.44Zm-.56-1.68c-.23.1-.27.53-.09,1a1.21,1.21,0,0,0,.37.5.41.41,0,0,0,.38.09.4.4,0,0,0,.2-.34,1.26,1.26,0,0,0-.11-.61,1.21,1.21,0,0,0-.37-.5.39.39,0,0,0-.38-.09Z"/><path class="a" d="M1649.13,1145.11a1,1,0,0,1-.76-.68c-.21-.49-.14-1,.15-1.11s.7.16.91.65.14,1-.15,1.11Zm-.46-1.7-.1,0c-.23.1-.27.54-.09,1s.52.69.75.59.27-.53.09-1S1648.89,1143.41,1648.67,1143.41Z"/><path class="a" d="M1650.56,1137c-.54,0-1-.25-1-.58s.42-.58,1-.58,1,.26,1,.58S1651.09,1137,1650.56,1137Zm0-1c-.46,0-.84.21-.84.46s.38.46.84.46.83-.21.83-.46S1651,1135.92,1650.56,1135.92Z"/><path class="a" d="M1652.65,1135.82c-.54,0-1-.25-1-.58s.42-.58,1-.58.95.26.95.58S1653.18,1135.82,1652.65,1135.82Zm0-1c-.46,0-.84.21-.84.46s.38.46.84.46.83-.21.83-.46S1653.1,1134.78,1652.65,1134.78Z"/><path class="a" d="M1654.68,1134.7c-.54,0-1-.26-1-.58s.42-.58,1-.58,1,.25,1,.58S1655.21,1134.7,1654.68,1134.7Zm0-1c-.46,0-.84.21-.84.46s.38.46.84.46.83-.21.83-.46S1655.13,1133.66,1654.68,1133.66Z"/><path class="a" d="M1647.93,1135.55c-.54,0-1-.26-1-.58s.42-.58,1-.58,1,.26,1,.58S1648.46,1135.55,1647.93,1135.55Zm0-1c-.46,0-.84.21-.84.46s.38.46.84.46.83-.21.83-.46S1648.38,1134.51,1647.93,1134.51Z"/><path class="a" d="M1650,1134.41c-.54,0-1-.25-1-.58s.42-.58,1-.58,1,.26,1,.58S1650.55,1134.41,1650,1134.41Zm0-1c-.46,0-.84.21-.84.46s.38.46.84.46.83-.21.83-.46S1650.47,1133.37,1650,1133.37Z"/><path class="a" d="M1652.05,1133.29c-.54,0-1-.26-1-.58s.42-.58,1-.58,1,.25,1,.58S1652.59,1133.29,1652.05,1133.29Zm0-1c-.45,0-.84.21-.84.46s.39.46.84.46.84-.21.84-.46S1652.5,1132.25,1652.05,1132.25Z"/><path class="a" d="M1659,1157.07c-.34,0-.72-.34-.94-.85a1.64,1.64,0,0,1-.15-.84.63.63,0,0,1,.34-.54c.36-.15.86.2,1.12.82s.18,1.21-.19,1.37A.39.39,0,0,1,1659,1157.07Zm-.57-2.15a.35.35,0,0,0-.14,0h0a.52.52,0,0,0-.26.44,1.49,1.49,0,0,0,.14.78c.23.54.66.88,1,.75s.36-.67.13-1.22S1658.72,1154.92,1658.44,1154.92Z"/></svg>