<svg xmlns="http://www.w3.org/2000/svg" viewBox="0 0 263.72 57"><defs><style>.a{fill:#e41245;}.b{fill:#205dcc;}.c{fill:#f4c21b;}.d{fill:#404040;}.e{fill:#dadada;}</style></defs><title>questboard_logo_small</title><path class="a" d="M223.7,33.12l5.16-5.34L215.08,14,200.51,28.57l5.18,5a13.94,13.94,0,0,1,18-.45Z" transform="translate(-42.91 -14)"/><path class="a" d="M215,37.16a6,6,0,0,0-4,1.51l3.82,3.68,3.84-4a6,6,0,0,0-1.44-.81A6.14,6.14,0,0,0,215,37.16Z" transform="translate(-42.91 -14)"/><path class="b" d="M202.65,37.78A12.45,12.45,0,0,1,205.27,34l-5.16-5L186.58,42.5l14.28,14.28,4.93-5.1-.25-.22A12,12,0,0,1,202.65,37.78Z" transform="translate(-42.91 -14)"/><path class="b" d="M209.63,44.66a5.31,5.31,0,0,0,1.24,1.75l3.52-3.64-3.83-3.7A5.15,5.15,0,0,0,209.63,44.66Z" transform="translate(-42.91 -14)"/><path class="c" d="M223.88,51.93a13.51,13.51,0,0,1-3.81,2.25,14.16,14.16,0,0,1-5.11,1,13.75,13.75,0,0,1-8.73-3.09l-5,5.14L215.08,71l14-14Z" transform="translate(-42.91 -14)"/><path class="c" d="M215,48a6,6,0,0,0,3.61-1.19l-3.78-3.65-3.49,3.62A6,6,0,0,0,215,48Z" transform="translate(-42.91 -14)"/><path class="d" d="M228.31,42.59h0a12.23,12.23,0,0,0-4.61-9.47l-5.07,5.26a5.28,5.28,0,0,1,2.13,4.21,5.36,5.36,0,0,1-2.18,4.23l5.3,5.11A12.17,12.17,0,0,0,228.31,42.59Z" transform="translate(-42.91 -14)"/><polygon class="e" points="186.19 42.98 186.19 49.84 182.23 46.93 186.19 42.98"/><path class="d" d="M61,31.07c-5.47-2.5-11.11-1.22-15.12,3.45a12.17,12.17,0,0,0,0,16A14.12,14.12,0,0,0,62,54V69.81h7.87v-40H62.2ZM62,42.5a5.46,5.46,0,0,1-5.49,5.27h-.14a5.62,5.62,0,0,1-5.2-3.26,5,5,0,0,1,1.21-5.73,5.8,5.8,0,0,1,4-1.55,6,6,0,0,1,2.16.4A5.26,5.26,0,0,1,62,42.5Z" transform="translate(-42.91 -14)"/><path class="d" d="M90,44a4,4,0,0,1-8.06,0V29.8H74.05V44a11,11,0,0,0,5.25,9.29,12.46,12.46,0,0,0,6.64,1.91,12.71,12.71,0,0,0,4-.66v.66h7.86V29.8H90Z" transform="translate(-42.91 -14)"/><path class="d" d="M127.36,37.56l-.12-.24a7.32,7.32,0,0,0-.38-.73l-.13-.23c-.11-.18-.22-.36-.34-.54s-.11-.17-.17-.26l-.29-.4-.1-.13h0a14.05,14.05,0,0,0-16.42-4.09,12.54,12.54,0,0,0-7.63,14.44l0,.06A11.91,11.91,0,0,0,103,48.37l0,0a12.37,12.37,0,0,0,1.33,1.92l0,0a14.23,14.23,0,0,0,10.84,4.87h.17a16.13,16.13,0,0,0,10.74-4l.25-.21-5.11-5.64-.23.18a8.33,8.33,0,0,1-5.8,2.12,5.5,5.5,0,0,1-2.28-.42l16-6.21Zm-14.52.08a5,5,0,0,1,1.92-.38h0a5.68,5.68,0,0,1,3,.83l-8,3.1A5.15,5.15,0,0,1,112.84,37.64Z" transform="translate(-42.91 -14)"/><path class="d" d="M150.11,41.19a9,9,0,0,0-6.13-2.4h-4.35a.78.78,0,1,1,0-1.56h10.59V29.8H139.63A8.48,8.48,0,0,0,130.92,38a8.48,8.48,0,0,0,8.71,8.21H144a.78.78,0,1,1,0,1.55H133.37V55.2h10.71A8.71,8.71,0,0,0,152,50.09a7.85,7.85,0,0,0-1.92-8.9Z" transform="translate(-42.91 -14)"/><path class="d" d="M164.73,15.21h-7.86V29.8h-2.1v7.43h2.1v11a7.21,7.21,0,0,0,7.4,7h3.93V47.77h-3.47V37.23h3.47V29.8h-3.47Z" transform="translate(-42.91 -14)"/><path class="d" d="M185.28,29.82h0A14.16,14.16,0,0,0,179.65,31V15.21h-7.87v40h7.87V54.06a14.24,14.24,0,0,0,14.67-2.12,12.25,12.25,0,0,0,3.54-14A13.56,13.56,0,0,0,185.28,29.82Zm5.63,12.7a5.47,5.47,0,0,1-5.52,5.27h-.11a5.28,5.28,0,1,1,5.63-5.27Z" transform="translate(-42.91 -14)"/><path class="d" d="M250.83,31a14.13,14.13,0,0,0-16.12,3.55,12.19,12.19,0,0,0,0,16,14.13,14.13,0,0,0,16.12,3.55v1.16h7.87V29.82h-7.87Zm0,11.54a5.46,5.46,0,0,1-5.52,5.27h-.11a5.28,5.28,0,1,1,5.63-5.27Z" transform="translate(-42.91 -14)"/><path class="d" d="M280.14,32.59A10.47,10.47,0,0,0,273,29.8h0a10.55,10.55,0,0,0-2.25.24V29.8h-7.87V55.22h7.87V39.33a2.1,2.1,0,0,1,1.39-1.94,2.37,2.37,0,0,1,2.47.46l.21.2,5.58-5.24Z" transform="translate(-42.91 -14)"/><path class="d" d="M298.77,15.21V31a14.15,14.15,0,0,0-16.13,3.55,12.21,12.21,0,0,0,0,16,14.15,14.15,0,0,0,16.13,3.55v1.16h7.86v-40Zm0,27.31a5.64,5.64,0,1,1-5.63-5.27A5.47,5.47,0,0,1,298.77,42.52Z" transform="translate(-42.91 -14)"/></svg>