<svg xmlns="http://www.w3.org/2000/svg" viewBox="0 0 200 200"><defs><style>.a{fill:#d1d1d1;}.b{fill:#efeeed;}.c{fill:#999898;}.d{fill:#db9d12;}.e{fill:#f9be2b;}.f{fill:#fff;}.g{fill:#e41245;}.h{fill:#a31941;}.i{fill:#282727;}.j{fill:#404040;}.k{fill:#dadada;}.l{fill:#f4c21b;}.m{fill:#205dcc;}</style></defs><title>questboard_mascot_fornow</title><rect class="a" x="167.46" y="88.46" width="3.85" height="3.85"/><rect class="a" x="167.46" y="84.62" width="3.85" height="3.84"/><rect class="b" x="167.46" y="80.77" width="3.85" height="3.85"/><rect class="b" x="163.62" y="92.31" width="3.84" height="3.84"/><rect class="b" x="163.62" y="88.46" width="3.84" height="3.85"/><rect class="b" x="163.62" y="84.62" width="3.84" height="3.84"/><rect class="a" x="163.62" y="80.77" width="3.84" height="3.85"/><rect class="b" x="159.77" y="96.15" width="3.85" height="3.85"/><rect class="b" x="159.77" y="92.31" width="3.85" height="3.84"/><rect class="c" x="159.77" y="88.46" width="3.85" height="3.85"/><rect class="a" x="159.77" y="84.62" width="3.85" height="3.84"/><rect class="a" x="159.77" y="80.77" width="3.85" height="3.85"/><rect class="b" x="155.92" y="100" width="3.85" height="3.85"/><rect class="b" x="155.92" y="96.15" width="3.85" height="3.85"/><rect class="c" x="155.92" y="92.31" width="3.85" height="3.84"/><rect class="a" x="155.92" y="88.46" width="3.85" height="3.85"/><rect class="a" x="155.92" y="84.62" width="3.85" height="3.84"/><rect class="b" x="152.08" y="103.85" width="3.84" height="3.84"/><rect class="b" x="152.08" y="100" width="3.84" height="3.85"/><rect class="c" x="152.08" y="96.15" width="3.84" height="3.85"/><rect class="a" x="152.08" y="92.31" width="3.84" height="3.84"/><rect class="a" x="152.08" y="88.46" width="3.84" height="3.85"/><rect class="a" x="148.23" y="107.69" width="3.85" height="3.85"/><rect class="a" x="148.23" y="103.85" width="3.85" height="3.84"/><rect class="c" x="148.23" y="100" width="3.85" height="3.85"/><rect class="a" x="148.23" y="96.15" width="3.85" height="3.85"/><rect class="a" x="148.23" y="92.31" width="3.85" height="3.84"/><rect class="a" x="144.38" y="111.54" width="3.85" height="3.84"/><rect class="a" x="144.38" y="107.69" width="3.85" height="3.85"/><rect class="c" x="144.38" y="103.85" width="3.85" height="3.84"/><rect class="a" x="144.38" y="100" width="3.85" height="3.85"/><rect class="a" x="144.38" y="96.15" width="3.85" height="3.85"/><rect class="a" x="140.54" y="115.38" width="3.84" height="3.85"/><rect class="a" x="140.54" y="111.54" width="3.84" height="3.84"/><rect class="c" x="140.54" y="107.69" width="3.84" height="3.85"/><rect class="a" x="140.54" y="103.85" width="3.84" height="3.84"/><rect class="a" x="140.54" y="100" width="3.84" height="3.85"/><rect class="d" x="136.69" y="126.92" width="3.85" height="3.85"/><rect class="a" x="136.69" y="119.23" width="3.85" height="3.85"/><rect class="a" x="136.69" y="115.38" width="3.85" height="3.85"/><rect class="c" x="136.69" y="111.54" width="3.85" height="3.84"/><rect class="a" x="136.69" y="107.69" width="3.85" height="3.85"/><rect class="a" x="136.69" y="103.85" width="3.85" height="3.84"/><rect class="e" x="132.85" y="126.92" width="3.84" height="3.85"/><rect class="a" x="132.85" y="123.08" width="3.84" height="3.84"/><rect class="a" x="132.85" y="119.23" width="3.84" height="3.85"/><rect class="c" x="132.85" y="115.38" width="3.84" height="3.85"/><rect class="a" x="132.85" y="111.54" width="3.84" height="3.84"/><rect class="a" x="132.85" y="107.69" width="3.84" height="3.85"/><rect class="d" x="129" y="126.92" width="3.85" height="3.85"/><rect class="e" x="129" y="123.08" width="3.85" height="3.84"/><rect class="d" x="129" y="119.23" width="3.85" height="3.85"/><rect class="a" x="129" y="115.38" width="3.85" height="3.85"/><rect class="a" x="129" y="111.54" width="3.85" height="3.84"/><rect class="f" x="125.15" y="134.62" width="3.85" height="3.84"/><rect class="f" x="125.15" y="130.77" width="3.85" height="3.85"/><rect class="g" x="125.15" y="126.92" width="3.85" height="3.85"/><rect class="h" x="125.15" y="123.08" width="3.85" height="3.84"/><rect class="e" x="125.15" y="119.23" width="3.85" height="3.85"/><rect class="a" x="125.15" y="115.38" width="3.85" height="3.85"/><rect class="f" x="121.31" y="134.62" width="3.84" height="3.84"/><rect class="f" x="121.31" y="130.77" width="3.84" height="3.85"/><rect class="f" x="121.31" y="126.92" width="3.84" height="3.85"/><rect class="g" x="121.31" y="123.08" width="3.84" height="3.84"/><rect class="d" x="121.31" y="119.23" width="3.84" height="3.85"/><rect class="e" x="121.31" y="115.38" width="3.84" height="3.85"/><rect class="d" x="121.31" y="111.54" width="3.84" height="3.84"/><rect class="g" x="117.46" y="134.62" width="3.85" height="3.84"/><rect class="f" x="117.46" y="130.77" width="3.85" height="3.85"/><rect class="f" x="117.46" y="126.92" width="3.85" height="3.85"/><rect class="f" x="117.46" y="123.08" width="3.85" height="3.84"/><rect class="g" x="113.62" y="138.46" width="3.84" height="3.85"/><rect class="h" x="113.62" y="134.62" width="3.84" height="3.84"/><rect class="g" x="113.62" y="130.77" width="3.84" height="3.85"/><rect class="f" x="113.62" y="126.92" width="3.84" height="3.85"/><rect class="f" x="113.62" y="123.08" width="3.84" height="3.84"/><rect class="f" x="113.62" y="119.23" width="3.84" height="3.85"/><rect class="f" x="113.62" y="92.31" width="3.84" height="3.84"/><rect class="f" x="113.62" y="88.46" width="3.84" height="3.85"/><rect class="f" x="113.62" y="84.62" width="3.84" height="3.84"/><rect class="f" x="113.62" y="80.77" width="3.84" height="3.85"/><rect class="f" x="113.62" y="76.92" width="3.84" height="3.85"/><rect class="f" x="113.62" y="73.08" width="3.84" height="3.84"/><rect class="f" x="113.62" y="69.23" width="3.84" height="3.85"/><rect class="f" x="113.62" y="65.38" width="3.84" height="3.85"/><rect class="f" x="113.62" y="61.54" width="3.84" height="3.84"/><rect class="f" x="113.62" y="57.69" width="3.84" height="3.85"/><rect class="f" x="113.62" y="53.85" width="3.84" height="3.84"/><rect class="f" x="113.62" y="50" width="3.84" height="3.85"/><rect class="g" x="109.77" y="142.31" width="3.85" height="3.84"/><rect class="h" x="109.77" y="138.46" width="3.85" height="3.85"/><rect class="g" x="109.77" y="134.62" width="3.85" height="3.84"/><rect class="f" x="109.77" y="123.08" width="3.85" height="3.84"/><rect class="f" x="109.77" y="119.23" width="3.85" height="3.85"/><rect class="f" x="109.77" y="115.38" width="3.85" height="3.85"/><rect class="f" x="109.77" y="92.31" width="3.85" height="3.84"/><rect class="f" x="109.77" y="88.46" width="3.85" height="3.85"/><rect class="f" x="109.77" y="84.62" width="3.85" height="3.84"/><rect class="f" x="109.77" y="80.77" width="3.85" height="3.85"/><rect class="f" x="109.77" y="76.92" width="3.85" height="3.85"/><rect class="f" x="109.77" y="73.08" width="3.85" height="3.84"/><rect class="f" x="109.77" y="69.23" width="3.85" height="3.85"/><rect class="f" x="109.77" y="65.38" width="3.85" height="3.85"/><rect class="f" x="109.77" y="61.54" width="3.85" height="3.84"/><rect class="f" x="109.77" y="57.69" width="3.85" height="3.85"/><rect class="f" x="109.77" y="53.85" width="3.85" height="3.84"/><rect class="f" x="109.77" y="50" width="3.85" height="3.85"/><rect class="d" x="105.92" y="142.31" width="3.85" height="3.84"/><rect class="g" x="105.92" y="138.46" width="3.85" height="3.85"/><rect class="f" x="105.92" y="119.23" width="3.85" height="3.85"/><rect class="f" x="105.92" y="115.38" width="3.85" height="3.85"/><rect class="b" x="105.92" y="111.54" width="3.85" height="3.84"/><rect class="f" x="105.92" y="96.15" width="3.85" height="3.85"/><rect class="f" x="105.92" y="92.31" width="3.85" height="3.84"/><rect class="f" x="105.92" y="88.46" width="3.85" height="3.85"/><rect class="f" x="105.92" y="84.62" width="3.85" height="3.84"/><rect class="f" x="105.92" y="80.77" width="3.85" height="3.85"/><rect class="f" x="105.92" y="76.92" width="3.85" height="3.85"/><rect class="f" x="105.92" y="73.08" width="3.85" height="3.84"/><rect class="f" x="105.92" y="69.23" width="3.85" height="3.85"/><rect class="f" x="105.92" y="65.38" width="3.85" height="3.85"/><rect class="f" x="105.92" y="61.54" width="3.85" height="3.84"/><rect class="f" x="105.92" y="57.69" width="3.85" height="3.85"/><rect class="f" x="105.92" y="53.85" width="3.85" height="3.84"/><rect class="f" x="105.92" y="50" width="3.85" height="3.85"/><rect class="f" x="105.92" y="46.15" width="3.85" height="3.85"/><rect class="f" x="105.92" y="42.31" width="3.85" height="3.84"/><rect class="b" x="102.08" y="115.38" width="3.84" height="3.85"/><rect class="b" x="102.08" y="111.54" width="3.84" height="3.84"/><rect class="b" x="102.08" y="107.69" width="3.84" height="3.85"/><rect class="f" x="102.08" y="96.15" width="3.84" height="3.85"/><rect class="f" x="102.08" y="92.31" width="3.84" height="3.84"/><rect class="f" x="102.08" y="88.46" width="3.84" height="3.85"/><rect class="f" x="102.08" y="84.62" width="3.84" height="3.84"/><rect class="f" x="102.08" y="80.77" width="3.84" height="3.85"/><rect class="f" x="102.08" y="76.92" width="3.84" height="3.85"/><rect class="f" x="102.08" y="73.08" width="3.84" height="3.84"/><rect class="f" x="102.08" y="69.23" width="3.84" height="3.85"/><rect class="f" x="102.08" y="65.38" width="3.84" height="3.85"/><rect class="f" x="102.08" y="61.54" width="3.84" height="3.84"/><rect class="f" x="102.08" y="57.69" width="3.84" height="3.85"/><rect class="f" x="102.08" y="53.85" width="3.84" height="3.84"/><rect class="f" x="102.08" y="50" width="3.84" height="3.85"/><rect class="f" x="102.08" y="46.15" width="3.84" height="3.85"/><rect class="f" x="102.08" y="42.31" width="3.84" height="3.84"/><rect class="f" x="98.23" y="173.08" width="3.85" height="3.84"/><rect class="f" x="98.23" y="169.23" width="3.85" height="3.85"/><rect class="b" x="98.23" y="111.54" width="3.85" height="3.84"/><rect class="b" x="98.23" y="107.69" width="3.85" height="3.85"/><rect class="f" x="98.23" y="96.15" width="3.85" height="3.85"/><rect class="f" x="98.23" y="92.31" width="3.85" height="3.84"/><rect class="f" x="98.23" y="88.46" width="3.85" height="3.85"/><rect class="f" x="98.23" y="84.62" width="3.85" height="3.84"/><rect class="f" x="98.23" y="80.77" width="3.85" height="3.85"/><rect class="f" x="98.23" y="76.92" width="3.85" height="3.85"/><rect class="f" x="98.23" y="73.08" width="3.85" height="3.84"/><rect class="f" x="98.23" y="69.23" width="3.85" height="3.85"/><rect class="f" x="98.23" y="65.38" width="3.85" height="3.85"/><rect class="f" x="98.23" y="61.54" width="3.85" height="3.84"/><rect class="f" x="98.23" y="57.69" width="3.85" height="3.85"/><rect class="f" x="98.23" y="53.85" width="3.85" height="3.84"/><rect class="f" x="98.23" y="50" width="3.85" height="3.85"/><rect class="f" x="98.23" y="46.15" width="3.85" height="3.85"/><rect class="f" x="98.23" y="42.31" width="3.85" height="3.84"/><rect class="f" x="94.38" y="173.08" width="3.85" height="3.84"/><rect class="f" x="94.38" y="169.23" width="3.85" height="3.85"/><rect class="f" x="94.38" y="165.38" width="3.85" height="3.85"/><rect class="f" x="94.38" y="161.54" width="3.85" height="3.84"/><rect class="f" x="94.38" y="157.69" width="3.85" height="3.85"/><rect class="f" x="94.38" y="153.85" width="3.85" height="3.84"/><rect class="f" x="94.38" y="150" width="3.85" height="3.85"/><rect class="f" x="94.38" y="146.15" width="3.85" height="3.85"/><rect class="b" x="94.38" y="142.31" width="3.85" height="3.84"/><rect class="b" x="94.38" y="138.46" width="3.85" height="3.85"/><rect class="b" x="94.38" y="134.62" width="3.85" height="3.84"/><rect class="b" x="94.38" y="130.77" width="3.85" height="3.85"/><rect class="b" x="94.38" y="126.92" width="3.85" height="3.85"/><rect class="b" x="94.38" y="123.08" width="3.85" height="3.84"/><rect class="b" x="94.38" y="119.23" width="3.85" height="3.85"/><rect class="b" x="94.38" y="115.38" width="3.85" height="3.85"/><rect class="b" x="94.38" y="111.54" width="3.85" height="3.84"/><rect class="b" x="94.38" y="107.69" width="3.85" height="3.85"/><rect class="b" x="94.38" y="103.85" width="3.85" height="3.84"/><rect class="f" x="94.38" y="96.15" width="3.85" height="3.85"/><rect class="f" x="94.38" y="92.31" width="3.85" height="3.84"/><rect class="f" x="94.38" y="88.46" width="3.85" height="3.85"/><rect class="f" x="94.38" y="84.62" width="3.85" height="3.84"/><rect class="i" x="94.38" y="80.77" width="3.85" height="3.85"/><rect class="i" x="94.38" y="76.92" width="3.85" height="3.85"/><rect class="i" x="94.38" y="73.08" width="3.85" height="3.84"/><rect class="i" x="94.38" y="69.23" width="3.85" height="3.85"/><rect class="f" x="94.38" y="65.38" width="3.85" height="3.85"/><rect class="f" x="94.38" y="61.54" width="3.85" height="3.84"/><rect class="f" x="94.38" y="57.69" width="3.85" height="3.85"/><rect class="f" x="94.38" y="53.85" width="3.85" height="3.84"/><rect class="f" x="94.38" y="50" width="3.85" height="3.85"/><rect class="f" x="94.38" y="46.15" width="3.85" height="3.85"/><rect class="f" x="94.38" y="42.31" width="3.85" height="3.84"/><rect class="f" x="90.54" y="173.08" width="3.84" height="3.84"/><rect class="f" x="90.54" y="169.23" width="3.84" height="3.85"/><rect class="f" x="90.54" y="165.38" width="3.84" height="3.85"/><rect class="f" x="90.54" y="161.54" width="3.84" height="3.84"/><rect class="f" x="90.54" y="157.69" width="3.84" height="3.85"/><rect class="f" x="90.54" y="153.85" width="3.84" height="3.84"/><rect class="f" x="90.54" y="150" width="3.84" height="3.85"/><rect class="f" x="90.54" y="146.15" width="3.84" height="3.85"/><rect class="b" x="90.54" y="142.31" width="3.84" height="3.84"/><rect class="b" x="90.54" y="138.46" width="3.84" height="3.85"/><rect class="b" x="90.54" y="134.62" width="3.84" height="3.84"/><rect class="b" x="90.54" y="130.77" width="3.84" height="3.85"/><rect class="b" x="90.54" y="126.92" width="3.84" height="3.85"/><rect class="b" x="90.54" y="123.08" width="3.84" height="3.84"/><rect class="b" x="90.54" y="119.23" width="3.84" height="3.85"/><rect class="b" x="90.54" y="115.38" width="3.84" height="3.85"/><rect class="b" x="90.54" y="111.54" width="3.84" height="3.84"/><rect class="b" x="90.54" y="107.69" width="3.84" height="3.85"/><rect class="b" x="90.54" y="103.85" width="3.84" height="3.84"/><rect class="f" x="90.54" y="96.15" width="3.84" height="3.85"/><rect class="f" x="90.54" y="92.31" width="3.84" height="3.84"/><rect class="f" x="90.54" y="88.46" width="3.84" height="3.85"/><rect class="f" x="90.54" y="84.62" width="3.84" height="3.84"/><rect class="i" x="90.54" y="80.77" width="3.84" height="3.85"/><rect class="i" x="90.54" y="76.92" width="3.84" height="3.85"/><rect class="i" x="90.54" y="73.08" width="3.84" height="3.84"/><rect class="i" x="90.54" y="69.23" width="3.84" height="3.85"/><rect class="f" x="90.54" y="65.38" width="3.84" height="3.85"/><rect class="f" x="90.54" y="61.54" width="3.84" height="3.84"/><rect class="f" x="90.54" y="57.69" width="3.84" height="3.85"/><rect class="f" x="90.54" y="53.85" width="3.84" height="3.84"/><rect class="f" x="90.54" y="50" width="3.84" height="3.85"/><rect class="f" x="90.54" y="46.15" width="3.84" height="3.85"/><rect class="f" x="90.54" y="42.31" width="3.84" height="3.84"/><rect class="f" x="86.69" y="173.08" width="3.85" height="3.84"/><rect class="f" x="86.69" y="169.23" width="3.85" height="3.85"/><rect class="f" x="86.69" y="165.38" width="3.85" height="3.85"/><rect class="f" x="86.69" y="161.54" width="3.85" height="3.84"/><rect class="f" x="86.69" y="157.69" width="3.85" height="3.85"/><rect class="f" x="86.69" y="153.85" width="3.85" height="3.84"/><rect class="f" x="86.69" y="150" width="3.85" height="3.85"/><rect class="f" x="86.69" y="146.15" width="3.85" height="3.85"/><rect class="b" x="86.69" y="142.31" width="3.85" height="3.84"/><rect class="b" x="86.69" y="138.46" width="3.85" height="3.85"/><rect class="b" x="86.69" y="134.62" width="3.85" height="3.84"/><rect class="b" x="86.69" y="130.77" width="3.85" height="3.85"/><rect class="b" x="86.69" y="126.92" width="3.85" height="3.85"/><rect class="j" x="86.69" y="123.08" width="3.85" height="3.84"/><rect class="b" x="86.69" y="119.23" width="3.85" height="3.85"/><rect class="b" x="86.69" y="115.38" width="3.85" height="3.85"/><rect class="b" x="86.69" y="111.54" width="3.85" height="3.84"/><rect class="b" x="86.69" y="107.69" width="3.85" height="3.85"/><rect class="b" x="86.69" y="103.85" width="3.85" height="3.84"/><rect class="f" x="86.69" y="96.15" width="3.85" height="3.85"/><rect class="f" x="86.69" y="92.31" width="3.85" height="3.84"/><rect class="f" x="86.69" y="88.46" width="3.85" height="3.85"/><rect class="f" x="86.69" y="84.62" width="3.85" height="3.84"/><rect class="f" x="86.69" y="80.77" width="3.85" height="3.85"/><rect class="f" x="86.69" y="76.92" width="3.85" height="3.85"/><rect class="f" x="86.69" y="73.08" width="3.85" height="3.84"/><rect class="f" x="86.69" y="69.23" width="3.85" height="3.85"/><rect class="f" x="86.69" y="65.38" width="3.85" height="3.85"/><rect class="f" x="86.69" y="61.54" width="3.85" height="3.84"/><rect class="f" x="86.69" y="57.69" width="3.85" height="3.85"/><rect class="f" x="86.69" y="53.85" width="3.85" height="3.84"/><rect class="f" x="86.69" y="50" width="3.85" height="3.85"/><rect class="f" x="86.69" y="46.15" width="3.85" height="3.85"/><rect class="f" x="86.69" y="42.31" width="3.85" height="3.84"/><rect class="f" x="82.85" y="150" width="3.84" height="3.85"/><rect class="f" x="82.85" y="146.15" width="3.84" height="3.85"/><rect class="b" x="82.85" y="142.31" width="3.84" height="3.84"/><rect class="b" x="82.85" y="138.46" width="3.84" height="3.85"/><rect class="k" x="82.85" y="134.62" width="3.84" height="3.84"/><rect class="l" x="82.85" y="130.77" width="3.84" height="3.85"/><rect class="j" x="82.85" y="126.92" width="3.84" height="3.85"/><rect class="b" x="82.85" y="123.08" width="3.84" height="3.84"/><rect class="j" x="82.85" y="119.23" width="3.84" height="3.85"/><rect class="g" x="82.85" y="115.38" width="3.84" height="3.85"/><rect class="b" x="82.85" y="111.54" width="3.84" height="3.84"/><rect class="b" x="82.85" y="107.69" width="3.84" height="3.85"/><rect class="b" x="82.85" y="103.85" width="3.84" height="3.84"/><rect class="f" x="82.85" y="100" width="3.84" height="3.85"/><rect class="f" x="82.85" y="96.15" width="3.84" height="3.85"/><rect class="f" x="82.85" y="92.31" width="3.84" height="3.84"/><rect class="i" x="82.85" y="88.46" width="3.84" height="3.85"/><rect class="f" x="82.85" y="84.62" width="3.84" height="3.84"/><rect class="f" x="82.85" y="80.77" width="3.84" height="3.85"/><rect class="f" x="82.85" y="76.92" width="3.84" height="3.85"/><rect class="f" x="82.85" y="73.08" width="3.84" height="3.84"/><rect class="f" x="82.85" y="69.23" width="3.84" height="3.85"/><rect class="f" x="82.85" y="65.38" width="3.84" height="3.85"/><rect class="f" x="82.85" y="61.54" width="3.84" height="3.84"/><rect class="f" x="82.85" y="57.69" width="3.84" height="3.85"/><rect class="f" x="82.85" y="53.85" width="3.84" height="3.84"/><rect class="f" x="82.85" y="50" width="3.84" height="3.85"/><rect class="f" x="82.85" y="46.15" width="3.84" height="3.85"/><rect class="f" x="82.85" y="42.31" width="3.84" height="3.84"/><rect class="f" x="79" y="150" width="3.85" height="3.85"/><rect class="f" x="79" y="146.15" width="3.85" height="3.85"/><rect class="b" x="79" y="142.31" width="3.85" height="3.84"/><rect class="b" x="79" y="138.46" width="3.85" height="3.85"/><rect class="l" x="79" y="134.62" width="3.85" height="3.84"/><rect class="l" x="79" y="130.77" width="3.85" height="3.85"/><rect class="b" x="79" y="126.92" width="3.85" height="3.85"/><rect class="f" x="79" y="123.08" width="3.85" height="3.84"/><rect class="b" x="79" y="119.23" width="3.85" height="3.85"/><rect class="g" x="79" y="115.38" width="3.85" height="3.85"/><rect class="g" x="79" y="111.54" width="3.85" height="3.84"/><rect class="b" x="79" y="107.69" width="3.85" height="3.85"/><rect class="b" x="79" y="103.85" width="3.85" height="3.84"/><rect class="f" x="79" y="100" width="3.85" height="3.85"/><rect class="f" x="79" y="96.15" width="3.85" height="3.85"/><rect class="i" x="79" y="92.31" width="3.85" height="3.84"/><rect class="f" x="79" y="88.46" width="3.85" height="3.85"/><rect class="f" x="79" y="84.62" width="3.85" height="3.84"/><rect class="f" x="79" y="80.77" width="3.85" height="3.85"/><rect class="f" x="79" y="76.92" width="3.85" height="3.85"/><rect class="f" x="79" y="73.08" width="3.85" height="3.84"/><rect class="f" x="79" y="69.23" width="3.85" height="3.85"/><rect class="f" x="79" y="65.38" width="3.85" height="3.85"/><rect class="f" x="79" y="61.54" width="3.85" height="3.84"/><rect class="f" x="79" y="57.69" width="3.85" height="3.85"/><rect class="f" x="79" y="53.85" width="3.85" height="3.84"/><rect class="f" x="79" y="50" width="3.85" height="3.85"/><rect class="f" x="79" y="46.15" width="3.85" height="3.85"/><rect class="f" x="79" y="42.31" width="3.85" height="3.84"/><rect class="f" x="75.15" y="150" width="3.85" height="3.85"/><rect class="f" x="75.15" y="146.15" width="3.85" height="3.85"/><rect class="b" x="75.15" y="142.31" width="3.85" height="3.84"/><rect class="b" x="75.15" y="138.46" width="3.85" height="3.85"/><rect class="b" x="75.15" y="134.62" width="3.85" height="3.84"/><rect class="l" x="75.15" y="130.77" width="3.85" height="3.85"/><rect class="b" x="75.15" y="126.92" width="3.85" height="3.85"/><rect class="b" x="75.15" y="123.08" width="3.85" height="3.84"/><rect class="b" x="75.15" y="119.23" width="3.85" height="3.85"/><rect class="g" x="75.15" y="115.38" width="3.85" height="3.85"/><rect class="b" x="75.15" y="111.54" width="3.85" height="3.84"/><rect class="b" x="75.15" y="107.69" width="3.85" height="3.85"/><rect class="b" x="75.15" y="103.85" width="3.85" height="3.84"/><rect class="f" x="75.15" y="100" width="3.85" height="3.85"/><rect class="f" x="75.15" y="96.15" width="3.85" height="3.85"/><rect class="i" x="75.15" y="92.31" width="3.85" height="3.84"/><rect class="f" x="75.15" y="88.46" width="3.85" height="3.85"/><rect class="f" x="75.15" y="84.62" width="3.85" height="3.84"/><rect class="f" x="75.15" y="80.77" width="3.85" height="3.85"/><rect class="f" x="75.15" y="76.92" width="3.85" height="3.85"/><rect class="f" x="75.15" y="73.08" width="3.85" height="3.84"/><rect class="f" x="75.15" y="69.23" width="3.85" height="3.85"/><rect class="f" x="75.15" y="65.38" width="3.85" height="3.85"/><rect class="f" x="75.15" y="61.54" width="3.85" height="3.84"/><rect class="f" x="75.15" y="57.69" width="3.85" height="3.85"/><rect class="f" x="75.15" y="53.85" width="3.85" height="3.84"/><rect class="f" x="75.15" y="50" width="3.85" height="3.85"/><rect class="f" x="75.15" y="46.15" width="3.85" height="3.85"/><rect class="f" x="75.15" y="42.31" width="3.85" height="3.84"/><rect class="f" x="71.31" y="150" width="3.84" height="3.85"/><rect class="f" x="71.31" y="146.15" width="3.84" height="3.85"/><rect class="b" x="71.31" y="142.31" width="3.84" height="3.84"/><rect class="b" x="71.31" y="138.46" width="3.84" height="3.85"/><rect class="b" x="71.31" y="134.62" width="3.84" height="3.84"/><rect class="b" x="71.31" y="130.77" width="3.84" height="3.85"/><rect class="m" x="71.31" y="126.92" width="3.84" height="3.85"/><rect class="m" x="71.31" y="123.08" width="3.84" height="3.84"/><rect class="m" x="71.31" y="119.23" width="3.84" height="3.85"/><rect class="b" x="71.31" y="115.38" width="3.84" height="3.85"/><rect class="b" x="71.31" y="111.54" width="3.84" height="3.84"/><rect class="b" x="71.31" y="107.69" width="3.84" height="3.85"/><rect class="b" x="71.31" y="103.85" width="3.84" height="3.84"/><rect class="f" x="71.31" y="100" width="3.84" height="3.85"/><rect class="f" x="71.31" y="96.15" width="3.84" height="3.85"/><rect class="f" x="71.31" y="92.31" width="3.84" height="3.84"/><rect class="i" x="71.31" y="88.46" width="3.84" height="3.85"/><rect class="f" x="71.31" y="84.62" width="3.84" height="3.84"/><rect class="f" x="71.31" y="80.77" width="3.84" height="3.85"/><rect class="f" x="71.31" y="76.92" width="3.84" height="3.85"/><rect class="f" x="71.31" y="73.08" width="3.84" height="3.84"/><rect class="f" x="71.31" y="69.23" width="3.84" height="3.85"/><rect class="f" x="71.31" y="65.38" width="3.84" height="3.85"/><rect class="f" x="71.31" y="61.54" width="3.84" height="3.84"/><rect class="f" x="71.31" y="57.69" width="3.84" height="3.85"/><rect class="f" x="71.31" y="53.85" width="3.84" height="3.84"/><rect class="f" x="71.31" y="50" width="3.84" height="3.85"/><rect class="f" x="71.31" y="46.15" width="3.84" height="3.85"/><rect class="f" x="71.31" y="42.31" width="3.84" height="3.84"/><rect class="f" x="67.46" y="173.08" width="3.85" height="3.84"/><rect class="f" x="67.46" y="169.23" width="3.85" height="3.85"/><rect class="f" x="67.46" y="165.38" width="3.85" height="3.85"/><rect class="f" x="67.46" y="161.54" width="3.85" height="3.84"/><rect class="f" x="67.46" y="157.69" width="3.85" height="3.85"/><rect class="f" x="67.46" y="153.85" width="3.85" height="3.84"/><rect class="f" x="67.46" y="150" width="3.85" height="3.85"/><rect class="f" x="67.46" y="146.15" width="3.85" height="3.85"/><rect class="b" x="67.46" y="142.31" width="3.85" height="3.84"/><rect class="b" x="67.46" y="138.46" width="3.85" height="3.85"/><rect class="b" x="67.46" y="134.62" width="3.85" height="3.84"/><rect class="b" x="67.46" y="130.77" width="3.85" height="3.85"/><rect class="b" x="67.46" y="126.92" width="3.85" height="3.85"/><rect class="m" x="67.46" y="123.08" width="3.85" height="3.84"/><rect class="b" x="67.46" y="119.23" width="3.85" height="3.85"/><rect class="b" x="67.46" y="115.38" width="3.85" height="3.85"/><rect class="b" x="67.46" y="111.54" width="3.85" height="3.84"/><rect class="b" x="67.46" y="107.69" width="3.85" height="3.85"/><rect class="b" x="67.46" y="103.85" width="3.85" height="3.84"/><rect class="f" x="67.46" y="96.15" width="3.85" height="3.85"/><rect class="f" x="67.46" y="92.31" width="3.85" height="3.84"/><rect class="f" x="67.46" y="88.46" width="3.85" height="3.85"/><rect class="f" x="67.46" y="84.62" width="3.85" height="3.84"/><rect class="f" x="67.46" y="80.77" width="3.85" height="3.85"/><rect class="f" x="67.46" y="76.92" width="3.85" height="3.85"/><rect class="f" x="67.46" y="73.08" width="3.85" height="3.84"/><rect class="f" x="67.46" y="69.23" width="3.85" height="3.85"/><rect class="f" x="67.46" y="65.38" width="3.85" height="3.85"/><rect class="f" x="67.46" y="61.54" width="3.85" height="3.84"/><rect class="f" x="67.46" y="57.69" width="3.85" height="3.85"/><rect class="f" x="67.46" y="53.85" width="3.85" height="3.84"/><rect class="f" x="67.46" y="50" width="3.85" height="3.85"/><rect class="f" x="67.46" y="46.15" width="3.85" height="3.85"/><rect class="f" x="67.46" y="42.31" width="3.85" height="3.84"/><rect class="f" x="63.62" y="173.08" width="3.84" height="3.84"/><rect class="f" x="63.62" y="169.23" width="3.84" height="3.85"/><rect class="f" x="63.62" y="165.38" width="3.84" height="3.85"/><rect class="f" x="63.62" y="161.54" width="3.84" height="3.84"/><rect class="f" x="63.62" y="157.69" width="3.84" height="3.85"/><rect class="f" x="63.62" y="153.85" width="3.84" height="3.84"/><rect class="f" x="63.62" y="150" width="3.84" height="3.85"/><rect class="f" x="63.62" y="146.15" width="3.84" height="3.85"/><rect class="b" x="63.62" y="142.31" width="3.84" height="3.84"/><rect class="b" x="63.62" y="138.46" width="3.84" height="3.85"/><rect class="b" x="63.62" y="134.62" width="3.84" height="3.84"/><rect class="b" x="63.62" y="130.77" width="3.84" height="3.85"/><rect class="b" x="63.62" y="126.92" width="3.84" height="3.85"/><rect class="b" x="63.62" y="123.08" width="3.84" height="3.84"/><rect class="b" x="63.62" y="119.23" width="3.84" height="3.85"/><rect class="b" x="63.62" y="115.38" width="3.84" height="3.85"/><rect class="b" x="63.62" y="111.54" width="3.84" height="3.84"/><rect class="b" x="63.62" y="107.69" width="3.84" height="3.85"/><rect class="b" x="63.62" y="103.85" width="3.84" height="3.84"/><rect class="f" x="63.62" y="96.15" width="3.84" height="3.85"/><rect class="f" x="63.62" y="92.31" width="3.84" height="3.84"/><rect class="f" x="63.62" y="88.46" width="3.84" height="3.85"/><rect class="f" x="63.62" y="84.62" width="3.84" height="3.84"/><rect class="i" x="63.62" y="80.77" width="3.84" height="3.85"/><rect class="i" x="63.62" y="76.92" width="3.84" height="3.85"/><rect class="i" x="63.62" y="73.08" width="3.84" height="3.84"/><rect class="i" x="63.62" y="69.23" width="3.84" height="3.85"/><rect class="f" x="63.62" y="65.38" width="3.84" height="3.85"/><rect class="f" x="63.62" y="61.54" width="3.84" height="3.84"/><rect class="f" x="63.62" y="57.69" width="3.84" height="3.85"/><rect class="f" x="63.62" y="53.85" width="3.84" height="3.84"/><rect class="f" x="63.62" y="50" width="3.84" height="3.85"/><rect class="f" x="63.62" y="46.15" width="3.84" height="3.85"/><rect class="f" x="63.62" y="42.31" width="3.84" height="3.84"/><rect class="f" x="59.77" y="173.08" width="3.85" height="3.84"/><rect class="f" x="59.77" y="169.23" width="3.85" height="3.85"/><rect class="f" x="59.77" y="165.38" width="3.85" height="3.85"/><rect class="f" x="59.77" y="161.54" width="3.85" height="3.84"/><rect class="f" x="59.77" y="157.69" width="3.85" height="3.85"/><rect class="f" x="59.77" y="153.85" width="3.85" height="3.84"/><rect class="f" x="59.77" y="150" width="3.85" height="3.85"/><rect class="f" x="59.77" y="146.15" width="3.85" height="3.85"/><rect class="b" x="59.77" y="142.31" width="3.85" height="3.84"/><rect class="b" x="59.77" y="138.46" width="3.85" height="3.85"/><rect class="b" x="59.77" y="134.62" width="3.85" height="3.84"/><rect class="b" x="59.77" y="130.77" width="3.85" height="3.85"/><rect class="b" x="59.77" y="126.92" width="3.85" height="3.85"/><rect class="b" x="59.77" y="123.08" width="3.85" height="3.84"/><rect class="b" x="59.77" y="119.23" width="3.85" height="3.85"/><rect class="b" x="59.77" y="115.38" width="3.85" height="3.85"/><rect class="b" x="59.77" y="111.54" width="3.85" height="3.84"/><rect class="b" x="59.77" y="107.69" width="3.85" height="3.85"/><rect class="b" x="59.77" y="103.85" width="3.85" height="3.84"/><rect class="f" x="59.77" y="96.15" width="3.85" height="3.85"/><rect class="f" x="59.77" y="92.31" width="3.85" height="3.84"/><rect class="f" x="59.77" y="88.46" width="3.85" height="3.85"/><rect class="f" x="59.77" y="84.62" width="3.85" height="3.84"/><rect class="i" x="59.77" y="80.77" width="3.85" height="3.85"/><rect class="i" x="59.77" y="76.92" width="3.85" height="3.85"/><rect class="i" x="59.77" y="73.08" width="3.85" height="3.84"/><rect class="i" x="59.77" y="69.23" width="3.85" height="3.85"/><rect class="f" x="59.77" y="65.38" width="3.85" height="3.85"/><rect class="f" x="59.77" y="61.54" width="3.85" height="3.84"/><rect class="f" x="59.77" y="57.69" width="3.85" height="3.85"/><rect class="f" x="59.77" y="53.85" width="3.85" height="3.84"/><rect class="f" x="59.77" y="50" width="3.85" height="3.85"/><rect class="f" x="59.77" y="46.15" width="3.85" height="3.85"/><rect class="f" x="59.77" y="42.31" width="3.85" height="3.84"/><rect class="f" x="55.92" y="173.08" width="3.85" height="3.84"/><rect class="f" x="55.92" y="169.23" width="3.85" height="3.85"/><rect class="f" x="55.92" y="146.15" width="3.85" height="3.85"/><rect class="f" x="55.92" y="142.31" width="3.85" height="3.84"/><rect class="f" x="55.92" y="138.46" width="3.85" height="3.85"/><rect class="f" x="55.92" y="134.62" width="3.85" height="3.84"/><rect class="f" x="55.92" y="130.77" width="3.85" height="3.85"/><rect class="f" x="55.92" y="126.92" width="3.85" height="3.85"/><rect class="f" x="55.92" y="123.08" width="3.85" height="3.84"/><rect class="f" x="55.92" y="119.23" width="3.85" height="3.85"/><rect class="b" x="55.92" y="115.38" width="3.85" height="3.85"/><rect class="b" x="55.92" y="111.54" width="3.85" height="3.84"/><rect class="b" x="55.92" y="107.69" width="3.85" height="3.85"/><rect class="f" x="55.92" y="96.15" width="3.85" height="3.85"/><rect class="f" x="55.92" y="92.31" width="3.85" height="3.84"/><rect class="f" x="55.92" y="88.46" width="3.85" height="3.85"/><rect class="f" x="55.92" y="84.62" width="3.85" height="3.84"/><rect class="f" x="55.92" y="80.77" width="3.85" height="3.85"/><rect class="f" x="55.92" y="76.92" width="3.85" height="3.85"/><rect class="f" x="55.92" y="73.08" width="3.85" height="3.84"/><rect class="f" x="55.92" y="69.23" width="3.85" height="3.85"/><rect class="f" x="55.92" y="65.38" width="3.85" height="3.85"/><rect class="f" x="55.92" y="61.54" width="3.85" height="3.84"/><rect class="f" x="55.92" y="57.69" width="3.85" height="3.85"/><rect class="f" x="55.92" y="53.85" width="3.85" height="3.84"/><rect class="f" x="55.92" y="50" width="3.85" height="3.85"/><rect class="f" x="55.92" y="46.15" width="3.85" height="3.85"/><rect class="f" x="55.92" y="42.31" width="3.85" height="3.84"/><rect class="f" x="52.08" y="146.15" width="3.84" height="3.85"/><rect class="f" x="52.08" y="142.31" width="3.84" height="3.84"/><rect class="f" x="52.08" y="138.46" width="3.84" height="3.85"/><rect class="f" x="52.08" y="134.62" width="3.84" height="3.84"/><rect class="f" x="52.08" y="130.77" width="3.84" height="3.85"/><rect class="f" x="52.08" y="126.92" width="3.84" height="3.85"/><rect class="f" x="52.08" y="123.08" width="3.84" height="3.84"/><rect class="f" x="52.08" y="119.23" width="3.84" height="3.85"/><rect class="b" x="52.08" y="115.38" width="3.84" height="3.85"/><rect class="b" x="52.08" y="111.54" width="3.84" height="3.84"/><rect class="b" x="52.08" y="107.69" width="3.84" height="3.85"/><rect class="f" x="52.08" y="96.15" width="3.84" height="3.85"/><rect class="f" x="52.08" y="92.31" width="3.84" height="3.84"/><rect class="f" x="52.08" y="88.46" width="3.84" height="3.85"/><rect class="f" x="52.08" y="84.62" width="3.84" height="3.84"/><rect class="f" x="52.08" y="80.77" width="3.84" height="3.85"/><rect class="f" x="52.08" y="76.92" width="3.84" height="3.85"/><rect class="f" x="52.08" y="73.08" width="3.84" height="3.84"/><rect class="f" x="52.08" y="69.23" width="3.84" height="3.85"/><rect class="f" x="52.08" y="65.38" width="3.84" height="3.85"/><rect class="f" x="52.08" y="61.54" width="3.84" height="3.84"/><rect class="f" x="52.08" y="57.69" width="3.84" height="3.85"/><rect class="f" x="52.08" y="53.85" width="3.84" height="3.84"/><rect class="f" x="52.08" y="50" width="3.84" height="3.85"/><rect class="f" x="52.08" y="46.15" width="3.84" height="3.85"/><rect class="f" x="52.08" y="42.31" width="3.84" height="3.84"/><rect class="f" x="48.23" y="96.15" width="3.85" height="3.85"/><rect class="f" x="48.23" y="92.31" width="3.85" height="3.84"/><rect class="f" x="48.23" y="88.46" width="3.85" height="3.85"/><rect class="f" x="48.23" y="84.62" width="3.85" height="3.84"/><rect class="f" x="48.23" y="80.77" width="3.85" height="3.85"/><rect class="f" x="48.23" y="76.92" width="3.85" height="3.85"/><rect class="f" x="48.23" y="73.08" width="3.85" height="3.84"/><rect class="f" x="48.23" y="69.23" width="3.85" height="3.85"/><rect class="f" x="48.23" y="65.38" width="3.85" height="3.85"/><rect class="f" x="48.23" y="61.54" width="3.85" height="3.84"/><rect class="f" x="48.23" y="57.69" width="3.85" height="3.85"/><rect class="f" x="48.23" y="53.85" width="3.85" height="3.84"/><rect class="f" x="48.23" y="50" width="3.85" height="3.85"/><rect class="f" x="48.23" y="46.15" width="3.85" height="3.85"/><rect class="f" x="48.23" y="42.31" width="3.85" height="3.84"/><rect class="f" x="44.38" y="92.31" width="3.85" height="3.84"/><rect class="f" x="44.38" y="88.46" width="3.85" height="3.85"/><rect class="f" x="44.38" y="84.62" width="3.85" height="3.84"/><rect class="f" x="44.38" y="80.77" width="3.85" height="3.85"/><rect class="f" x="44.38" y="76.92" width="3.85" height="3.85"/><rect class="f" x="44.38" y="73.08" width="3.85" height="3.84"/><rect class="f" x="44.38" y="69.23" width="3.85" height="3.85"/><rect class="f" x="44.38" y="65.38" width="3.85" height="3.85"/><rect class="f" x="44.38" y="61.54" width="3.85" height="3.84"/><rect class="f" x="44.38" y="57.69" width="3.85" height="3.85"/><rect class="f" x="44.38" y="53.85" width="3.85" height="3.84"/><rect class="f" x="44.38" y="50" width="3.85" height="3.85"/><rect class="f" x="40.54" y="92.31" width="3.84" height="3.84"/><rect class="f" x="40.54" y="88.46" width="3.84" height="3.85"/><rect class="f" x="40.54" y="84.62" width="3.84" height="3.84"/><rect class="f" x="40.54" y="80.77" width="3.84" height="3.85"/><rect class="f" x="40.54" y="76.92" width="3.84" height="3.85"/><rect class="f" x="40.54" y="73.08" width="3.84" height="3.84"/><rect class="f" x="40.54" y="69.23" width="3.84" height="3.85"/><rect class="f" x="40.54" y="65.38" width="3.84" height="3.85"/><rect class="f" x="40.54" y="61.54" width="3.84" height="3.84"/><rect class="f" x="40.54" y="57.69" width="3.84" height="3.85"/><rect class="f" x="40.54" y="53.85" width="3.84" height="3.84"/><rect class="f" x="40.54" y="50" width="3.84" height="3.85"/></svg>