<svg xmlns="http://www.w3.org/2000/svg" viewBox="0 0 200 200"><defs><style>.a{fill:#e41245;}</style></defs><title>0</title><rect class="a" x="145.73" y="107.42" width="2.81" height="2.8"/><rect class="a" x="145.73" y="104.61" width="2.81" height="2.81"/><rect class="a" x="145.73" y="101.81" width="2.81" height="2.8"/><rect class="a" x="145.73" y="99" width="2.81" height="2.81"/><rect class="a" x="145.73" y="96.19" width="2.81" height="2.81"/><rect class="a" x="145.73" y="93.39" width="2.81" height="2.8"/><rect class="a" x="145.73" y="90.58" width="2.81" height="2.81"/><rect class="a" x="145.73" y="87.77" width="2.81" height="2.8"/><rect class="a" x="142.92" y="113.04" width="2.8" height="2.81"/><rect class="a" x="142.92" y="110.23" width="2.8" height="2.81"/><rect class="a" x="142.92" y="107.42" width="2.8" height="2.8"/><rect class="a" x="142.92" y="104.61" width="2.8" height="2.81"/><rect class="a" x="142.92" y="101.81" width="2.8" height="2.8"/><rect class="a" x="142.92" y="99" width="2.8" height="2.81"/><rect class="a" x="142.92" y="96.19" width="2.8" height="2.81"/><rect class="a" x="142.92" y="93.39" width="2.8" height="2.8"/><rect class="a" x="142.92" y="90.58" width="2.8" height="2.81"/><rect class="a" x="142.92" y="87.77" width="2.8" height="2.8"/><rect class="a" x="142.92" y="84.96" width="2.8" height="2.81"/><rect class="a" x="142.92" y="82.15" width="2.8" height="2.81"/><rect class="a" x="140.11" y="118.65" width="2.81" height="2.81"/><rect class="a" x="140.11" y="115.85" width="2.81" height="2.8"/><rect class="a" x="140.11" y="113.04" width="2.81" height="2.81"/><rect class="a" x="140.11" y="110.23" width="2.81" height="2.81"/><rect class="a" x="140.11" y="107.42" width="2.81" height="2.8"/><rect class="a" x="140.11" y="104.61" width="2.81" height="2.81"/><rect class="a" x="140.11" y="101.81" width="2.81" height="2.8"/><rect class="a" x="140.11" y="99" width="2.81" height="2.81"/><rect class="a" x="140.11" y="96.19" width="2.81" height="2.81"/><rect class="a" x="140.11" y="93.39" width="2.81" height="2.8"/><rect class="a" x="140.11" y="90.58" width="2.81" height="2.81"/><rect class="a" x="140.11" y="87.77" width="2.81" height="2.8"/><rect class="a" x="140.11" y="84.96" width="2.81" height="2.81"/><rect class="a" x="140.11" y="82.15" width="2.81" height="2.81"/><rect class="a" x="140.11" y="79.35" width="2.81" height="2.8"/><rect class="a" x="140.11" y="76.54" width="2.81" height="2.81"/><rect class="a" x="137.31" y="124.27" width="2.8" height="2.8"/><rect class="a" x="137.31" y="121.46" width="2.8" height="2.81"/><rect class="a" x="137.31" y="118.65" width="2.8" height="2.81"/><rect class="a" x="137.31" y="115.85" width="2.8" height="2.8"/><rect class="a" x="137.31" y="113.04" width="2.8" height="2.81"/><rect class="a" x="137.31" y="110.23" width="2.8" height="2.81"/><rect class="a" x="137.31" y="107.42" width="2.8" height="2.8"/><rect class="a" x="137.31" y="104.61" width="2.8" height="2.81"/><rect class="a" x="137.31" y="101.81" width="2.8" height="2.8"/><rect class="a" x="137.31" y="99" width="2.8" height="2.81"/><rect class="a" x="137.31" y="96.19" width="2.8" height="2.81"/><rect class="a" x="137.31" y="93.39" width="2.8" height="2.8"/><rect class="a" x="137.31" y="90.58" width="2.8" height="2.81"/><rect class="a" x="137.31" y="87.77" width="2.8" height="2.8"/><rect class="a" x="137.31" y="84.96" width="2.8" height="2.81"/><rect class="a" x="137.31" y="82.15" width="2.8" height="2.81"/><rect class="a" x="137.31" y="79.35" width="2.8" height="2.8"/><rect class="a" x="137.31" y="76.54" width="2.8" height="2.81"/><rect class="a" x="137.31" y="73.73" width="2.8" height="2.81"/><rect class="a" x="137.31" y="70.92" width="2.8" height="2.8"/><rect class="a" x="134.5" y="127.08" width="2.81" height="2.81"/><rect class="a" x="134.5" y="124.27" width="2.81" height="2.8"/><rect class="a" x="134.5" y="121.46" width="2.81" height="2.81"/><rect class="a" x="134.5" y="118.65" width="2.81" height="2.81"/><rect class="a" x="134.5" y="115.85" width="2.81" height="2.8"/><rect class="a" x="134.5" y="113.04" width="2.81" height="2.81"/><rect class="a" x="134.5" y="110.23" width="2.81" height="2.81"/><rect class="a" x="134.5" y="107.42" width="2.81" height="2.8"/><rect class="a" x="134.5" y="104.61" width="2.81" height="2.81"/><rect class="a" x="134.5" y="90.58" width="2.81" height="2.81"/><rect class="a" x="134.5" y="87.77" width="2.81" height="2.8"/><rect class="a" x="134.5" y="84.96" width="2.81" height="2.81"/><rect class="a" x="134.5" y="82.15" width="2.81" height="2.81"/><rect class="a" x="134.5" y="79.35" width="2.81" height="2.8"/><rect class="a" x="134.5" y="76.54" width="2.81" height="2.81"/><rect class="a" x="134.5" y="73.73" width="2.81" height="2.81"/><rect class="a" x="134.5" y="70.92" width="2.81" height="2.8"/><rect class="a" x="134.5" y="68.11" width="2.81" height="2.81"/><rect class="a" x="131.69" y="129.89" width="2.81" height="2.8"/><rect class="a" x="131.69" y="127.08" width="2.81" height="2.81"/><rect class="a" x="131.69" y="124.27" width="2.81" height="2.8"/><rect class="a" x="131.69" y="121.46" width="2.81" height="2.81"/><rect class="a" x="131.69" y="118.65" width="2.81" height="2.81"/><rect class="a" x="131.69" y="115.85" width="2.81" height="2.8"/><rect class="a" x="131.69" y="113.04" width="2.81" height="2.81"/><rect class="a" x="131.69" y="82.15" width="2.81" height="2.81"/><rect class="a" x="131.69" y="79.35" width="2.81" height="2.8"/><rect class="a" x="131.69" y="76.54" width="2.81" height="2.81"/><rect class="a" x="131.69" y="73.73" width="2.81" height="2.81"/><rect class="a" x="131.69" y="70.92" width="2.81" height="2.8"/><rect class="a" x="131.69" y="68.11" width="2.81" height="2.81"/><rect class="a" x="131.69" y="65.31" width="2.81" height="2.8"/><rect class="a" x="128.89" y="132.69" width="2.8" height="2.81"/><rect class="a" x="128.89" y="129.89" width="2.8" height="2.8"/><rect class="a" x="128.89" y="127.08" width="2.8" height="2.81"/><rect class="a" x="128.89" y="124.27" width="2.8" height="2.8"/><rect class="a" x="128.89" y="121.46" width="2.8" height="2.81"/><rect class="a" x="128.89" y="118.65" width="2.8" height="2.81"/><rect class="a" x="128.89" y="76.54" width="2.8" height="2.81"/><rect class="a" x="128.89" y="73.73" width="2.8" height="2.81"/><rect class="a" x="128.89" y="70.92" width="2.8" height="2.8"/><rect class="a" x="128.89" y="68.11" width="2.8" height="2.81"/><rect class="a" x="128.89" y="65.31" width="2.8" height="2.8"/><rect class="a" x="128.89" y="62.5" width="2.8" height="2.81"/><rect class="a" x="126.08" y="135.5" width="2.81" height="2.81"/><rect class="a" x="126.08" y="132.69" width="2.81" height="2.81"/><rect class="a" x="126.08" y="129.89" width="2.81" height="2.8"/><rect class="a" x="126.08" y="127.08" width="2.81" height="2.81"/><rect class="a" x="126.08" y="124.27" width="2.81" height="2.8"/><rect class="a" x="126.08" y="121.46" width="2.81" height="2.81"/><rect class="a" x="126.08" y="118.65" width="2.81" height="2.81"/><rect class="a" x="126.08" y="73.73" width="2.81" height="2.81"/><rect class="a" x="126.08" y="70.92" width="2.81" height="2.8"/><rect class="a" x="126.08" y="68.11" width="2.81" height="2.81"/><rect class="a" x="126.08" y="65.31" width="2.81" height="2.8"/><rect class="a" x="126.08" y="62.5" width="2.81" height="2.81"/><rect class="a" x="126.08" y="59.69" width="2.81" height="2.81"/><rect class="a" x="123.27" y="138.31" width="2.8" height="2.8"/><rect class="a" x="123.27" y="135.5" width="2.8" height="2.81"/><rect class="a" x="123.27" y="132.69" width="2.8" height="2.81"/><rect class="a" x="123.27" y="129.89" width="2.8" height="2.8"/><rect class="a" x="123.27" y="127.08" width="2.8" height="2.81"/><rect class="a" x="123.27" y="124.27" width="2.8" height="2.8"/><rect class="a" x="123.27" y="121.46" width="2.8" height="2.81"/><rect class="a" x="123.27" y="118.65" width="2.8" height="2.81"/><rect class="a" x="123.27" y="115.85" width="2.8" height="2.8"/><rect class="a" x="123.27" y="70.92" width="2.8" height="2.8"/><rect class="a" x="123.27" y="68.11" width="2.8" height="2.81"/><rect class="a" x="123.27" y="65.31" width="2.8" height="2.8"/><rect class="a" x="123.27" y="62.5" width="2.8" height="2.81"/><rect class="a" x="123.27" y="59.69" width="2.8" height="2.81"/><rect class="a" x="123.27" y="56.89" width="2.8" height="2.8"/><rect class="a" x="120.46" y="138.31" width="2.81" height="2.8"/><rect class="a" x="120.46" y="135.5" width="2.81" height="2.81"/><rect class="a" x="120.46" y="132.69" width="2.81" height="2.81"/><rect class="a" x="120.46" y="129.89" width="2.81" height="2.8"/><rect class="a" x="120.46" y="127.08" width="2.81" height="2.81"/><rect class="a" x="120.46" y="124.27" width="2.81" height="2.8"/><rect class="a" x="120.46" y="121.46" width="2.81" height="2.81"/><rect class="a" x="120.46" y="118.65" width="2.81" height="2.81"/><rect class="a" x="120.46" y="115.85" width="2.81" height="2.8"/><rect class="a" x="120.46" y="113.04" width="2.81" height="2.81"/><rect class="a" x="120.46" y="68.11" width="2.81" height="2.81"/><rect class="a" x="120.46" y="65.31" width="2.81" height="2.8"/><rect class="a" x="120.46" y="62.5" width="2.81" height="2.81"/><rect class="a" x="120.46" y="59.69" width="2.81" height="2.81"/><rect class="a" x="120.46" y="56.89" width="2.81" height="2.8"/><rect class="a" x="117.65" y="141.11" width="2.81" height="2.81"/><rect class="a" x="117.65" y="138.31" width="2.81" height="2.8"/><rect class="a" x="117.65" y="135.5" width="2.81" height="2.81"/><rect class="a" x="117.65" y="132.69" width="2.81" height="2.81"/><rect class="a" x="117.65" y="129.89" width="2.81" height="2.8"/><rect class="a" x="117.65" y="127.08" width="2.81" height="2.81"/><rect class="a" x="117.65" y="124.27" width="2.81" height="2.8"/><rect class="a" x="117.65" y="121.46" width="2.81" height="2.81"/><rect class="a" x="117.65" y="118.65" width="2.81" height="2.81"/><rect class="a" x="117.65" y="115.85" width="2.81" height="2.8"/><rect class="a" x="117.65" y="113.04" width="2.81" height="2.81"/><rect class="a" x="117.65" y="110.23" width="2.81" height="2.81"/><rect class="a" x="117.65" y="65.31" width="2.81" height="2.8"/><rect class="a" x="117.65" y="62.5" width="2.81" height="2.81"/><rect class="a" x="117.65" y="59.69" width="2.81" height="2.81"/><rect class="a" x="117.65" y="56.89" width="2.81" height="2.8"/><rect class="a" x="117.65" y="54.08" width="2.81" height="2.81"/><rect class="a" x="114.85" y="141.11" width="2.8" height="2.81"/><rect class="a" x="114.85" y="138.31" width="2.8" height="2.8"/><rect class="a" x="114.85" y="135.5" width="2.8" height="2.81"/><rect class="a" x="114.85" y="132.69" width="2.8" height="2.81"/><rect class="a" x="114.85" y="124.27" width="2.8" height="2.8"/><rect class="a" x="114.85" y="121.46" width="2.8" height="2.81"/><rect class="a" x="114.85" y="118.65" width="2.8" height="2.81"/><rect class="a" x="114.85" y="115.85" width="2.8" height="2.8"/><rect class="a" x="114.85" y="113.04" width="2.8" height="2.81"/><rect class="a" x="114.85" y="110.23" width="2.8" height="2.81"/><rect class="a" x="114.85" y="107.42" width="2.8" height="2.8"/><rect class="a" x="114.85" y="62.5" width="2.8" height="2.81"/><rect class="a" x="114.85" y="59.69" width="2.8" height="2.81"/><rect class="a" x="114.85" y="56.89" width="2.8" height="2.8"/><rect class="a" x="114.85" y="54.08" width="2.8" height="2.81"/><rect class="a" x="112.04" y="143.92" width="2.81" height="2.8"/><rect class="a" x="112.04" y="141.11" width="2.81" height="2.81"/><rect class="a" x="112.04" y="138.31" width="2.81" height="2.8"/><rect class="a" x="112.04" y="135.5" width="2.81" height="2.81"/><rect class="a" x="112.04" y="132.69" width="2.81" height="2.81"/><rect class="a" x="112.04" y="121.46" width="2.81" height="2.81"/><rect class="a" x="112.04" y="118.65" width="2.81" height="2.81"/><rect class="a" x="112.04" y="115.85" width="2.81" height="2.8"/><rect class="a" x="112.04" y="113.04" width="2.81" height="2.81"/><rect class="a" x="112.04" y="110.23" width="2.81" height="2.81"/><rect class="a" x="112.04" y="107.42" width="2.81" height="2.8"/><rect class="a" x="112.04" y="104.61" width="2.81" height="2.81"/><rect class="a" x="112.04" y="62.5" width="2.81" height="2.81"/><rect class="a" x="112.04" y="59.69" width="2.81" height="2.81"/><rect class="a" x="112.04" y="56.89" width="2.81" height="2.8"/><rect class="a" x="112.04" y="54.08" width="2.81" height="2.81"/><rect class="a" x="112.04" y="51.27" width="2.81" height="2.8"/><rect class="a" x="109.23" y="143.92" width="2.81" height="2.8"/><rect class="a" x="109.23" y="141.11" width="2.81" height="2.81"/><rect class="a" x="109.23" y="138.31" width="2.81" height="2.8"/><rect class="a" x="109.23" y="135.5" width="2.81" height="2.81"/><rect class="a" x="109.23" y="118.65" width="2.81" height="2.81"/><rect class="a" x="109.23" y="115.85" width="2.81" height="2.8"/><rect class="a" x="109.23" y="113.04" width="2.81" height="2.81"/><rect class="a" x="109.23" y="110.23" width="2.81" height="2.81"/><rect class="a" x="109.23" y="107.42" width="2.81" height="2.8"/><rect class="a" x="109.23" y="104.61" width="2.81" height="2.81"/><rect class="a" x="109.23" y="101.81" width="2.81" height="2.8"/><rect class="a" x="109.23" y="59.69" width="2.81" height="2.81"/><rect class="a" x="109.23" y="56.89" width="2.81" height="2.8"/><rect class="a" x="109.23" y="54.08" width="2.81" height="2.81"/><rect class="a" x="109.23" y="51.27" width="2.81" height="2.8"/><rect class="a" x="106.42" y="143.92" width="2.8" height="2.8"/><rect class="a" x="106.42" y="141.11" width="2.8" height="2.81"/><rect class="a" x="106.42" y="138.31" width="2.8" height="2.8"/><rect class="a" x="106.42" y="135.5" width="2.8" height="2.81"/><rect class="a" x="106.42" y="115.85" width="2.8" height="2.8"/><rect class="a" x="106.42" y="113.04" width="2.8" height="2.81"/><rect class="a" x="106.42" y="110.23" width="2.8" height="2.81"/><rect class="a" x="106.42" y="107.42" width="2.8" height="2.8"/><rect class="a" x="106.42" y="104.61" width="2.8" height="2.81"/><rect class="a" x="106.42" y="101.81" width="2.8" height="2.8"/><rect class="a" x="106.42" y="99" width="2.8" height="2.81"/><rect class="a" x="106.42" y="59.69" width="2.8" height="2.81"/><rect class="a" x="106.42" y="56.89" width="2.8" height="2.8"/><rect class="a" x="106.42" y="54.08" width="2.8" height="2.81"/><rect class="a" x="106.42" y="51.27" width="2.8" height="2.8"/><rect class="a" x="103.61" y="146.73" width="2.81" height="2.81"/><rect class="a" x="103.61" y="143.92" width="2.81" height="2.8"/><rect class="a" x="103.61" y="141.11" width="2.81" height="2.81"/><rect class="a" x="103.61" y="138.31" width="2.81" height="2.8"/><rect class="a" x="103.61" y="135.5" width="2.81" height="2.81"/><rect class="a" x="103.61" y="113.04" width="2.81" height="2.81"/><rect class="a" x="103.61" y="110.23" width="2.81" height="2.81"/><rect class="a" x="103.61" y="107.42" width="2.81" height="2.8"/><rect class="a" x="103.61" y="104.61" width="2.81" height="2.81"/><rect class="a" x="103.61" y="101.81" width="2.81" height="2.8"/><rect class="a" x="103.61" y="99" width="2.81" height="2.81"/><rect class="a" x="103.61" y="96.19" width="2.81" height="2.81"/><rect class="a" x="103.61" y="59.69" width="2.81" height="2.81"/><rect class="a" x="103.61" y="56.89" width="2.81" height="2.8"/><rect class="a" x="103.61" y="54.08" width="2.81" height="2.81"/><rect class="a" x="103.61" y="51.27" width="2.81" height="2.8"/><rect class="a" x="103.61" y="48.46" width="2.81" height="2.81"/><rect class="a" x="100.81" y="146.73" width="2.8" height="2.81"/><rect class="a" x="100.81" y="143.92" width="2.8" height="2.8"/><rect class="a" x="100.81" y="141.11" width="2.8" height="2.81"/><rect class="a" x="100.81" y="138.31" width="2.8" height="2.8"/><rect class="a" x="100.81" y="110.23" width="2.8" height="2.81"/><rect class="a" x="100.81" y="107.42" width="2.8" height="2.8"/><rect class="a" x="100.81" y="104.61" width="2.8" height="2.81"/><rect class="a" x="100.81" y="101.81" width="2.8" height="2.8"/><rect class="a" x="100.81" y="99" width="2.8" height="2.81"/><rect class="a" x="100.81" y="96.19" width="2.8" height="2.81"/><rect class="a" x="100.81" y="93.39" width="2.8" height="2.8"/><rect class="a" x="100.81" y="56.89" width="2.8" height="2.8"/><rect class="a" x="100.81" y="54.08" width="2.8" height="2.81"/><rect class="a" x="100.81" y="51.27" width="2.8" height="2.8"/><rect class="a" x="100.81" y="48.46" width="2.8" height="2.81"/><rect class="a" x="98" y="146.73" width="2.81" height="2.81"/><rect class="a" x="98" y="143.92" width="2.81" height="2.8"/><rect class="a" x="98" y="141.11" width="2.81" height="2.81"/><rect class="a" x="98" y="138.31" width="2.81" height="2.8"/><rect class="a" x="98" y="107.42" width="2.81" height="2.8"/><rect class="a" x="98" y="104.61" width="2.81" height="2.81"/><rect class="a" x="98" y="101.81" width="2.81" height="2.8"/><rect class="a" x="98" y="99" width="2.81" height="2.81"/><rect class="a" x="98" y="96.19" width="2.81" height="2.81"/><rect class="a" x="98" y="93.39" width="2.81" height="2.8"/><rect class="a" x="98" y="90.58" width="2.81" height="2.81"/><rect class="a" x="98" y="56.89" width="2.81" height="2.8"/><rect class="a" x="98" y="54.08" width="2.81" height="2.81"/><rect class="a" x="98" y="51.27" width="2.81" height="2.8"/><rect class="a" x="98" y="48.46" width="2.81" height="2.81"/><rect class="a" x="95.19" y="146.73" width="2.81" height="2.81"/><rect class="a" x="95.19" y="143.92" width="2.81" height="2.8"/><rect class="a" x="95.19" y="141.11" width="2.81" height="2.81"/><rect class="a" x="95.19" y="138.31" width="2.81" height="2.8"/><rect class="a" x="95.19" y="104.61" width="2.81" height="2.81"/><rect class="a" x="95.19" y="101.81" width="2.81" height="2.8"/><rect class="a" x="95.19" y="99" width="2.81" height="2.81"/><rect class="a" x="95.19" y="96.19" width="2.81" height="2.81"/><rect class="a" x="95.19" y="93.39" width="2.81" height="2.8"/><rect class="a" x="95.19" y="90.58" width="2.81" height="2.81"/><rect class="a" x="95.19" y="87.77" width="2.81" height="2.8"/><rect class="a" x="95.19" y="56.89" width="2.81" height="2.8"/><rect class="a" x="95.19" y="54.08" width="2.81" height="2.81"/><rect class="a" x="95.19" y="51.27" width="2.81" height="2.8"/><rect class="a" x="95.19" y="48.46" width="2.81" height="2.81"/><rect class="a" x="92.39" y="146.73" width="2.8" height="2.81"/><rect class="a" x="92.39" y="143.92" width="2.8" height="2.8"/><rect class="a" x="92.39" y="141.11" width="2.8" height="2.81"/><rect class="a" x="92.39" y="138.31" width="2.8" height="2.8"/><rect class="a" x="92.39" y="101.81" width="2.8" height="2.8"/><rect class="a" x="92.39" y="99" width="2.8" height="2.81"/><rect class="a" x="92.39" y="96.19" width="2.8" height="2.81"/><rect class="a" x="92.39" y="93.39" width="2.8" height="2.8"/><rect class="a" x="92.39" y="90.58" width="2.8" height="2.81"/><rect class="a" x="92.39" y="87.77" width="2.8" height="2.8"/><rect class="a" x="92.39" y="84.96" width="2.8" height="2.81"/><rect class="a" x="92.39" y="56.89" width="2.8" height="2.8"/><rect class="a" x="92.39" y="54.08" width="2.8" height="2.81"/><rect class="a" x="92.39" y="51.27" width="2.8" height="2.8"/><rect class="a" x="92.39" y="48.46" width="2.8" height="2.81"/><rect class="a" x="89.58" y="146.73" width="2.81" height="2.81"/><rect class="a" x="89.58" y="143.92" width="2.81" height="2.8"/><rect class="a" x="89.58" y="141.11" width="2.81" height="2.81"/><rect class="a" x="89.58" y="138.31" width="2.81" height="2.8"/><rect class="a" x="89.58" y="135.5" width="2.81" height="2.81"/><rect class="a" x="89.58" y="99" width="2.81" height="2.81"/><rect class="a" x="89.58" y="96.19" width="2.81" height="2.81"/><rect class="a" x="89.58" y="93.39" width="2.81" height="2.8"/><rect class="a" x="89.58" y="90.58" width="2.81" height="2.81"/><rect class="a" x="89.58" y="87.77" width="2.81" height="2.8"/><rect class="a" x="89.58" y="84.96" width="2.81" height="2.81"/><rect class="a" x="89.58" y="82.15" width="2.81" height="2.81"/><rect class="a" x="89.58" y="59.69" width="2.81" height="2.81"/><rect class="a" x="89.58" y="56.89" width="2.81" height="2.8"/><rect class="a" x="89.58" y="54.08" width="2.81" height="2.81"/><rect class="a" x="89.58" y="51.27" width="2.81" height="2.8"/><rect class="a" x="89.58" y="48.46" width="2.81" height="2.81"/><rect class="a" x="86.77" y="143.92" width="2.8" height="2.8"/><rect class="a" x="86.77" y="141.11" width="2.8" height="2.81"/><rect class="a" x="86.77" y="138.31" width="2.8" height="2.8"/><rect class="a" x="86.77" y="135.5" width="2.8" height="2.81"/><rect class="a" x="86.77" y="96.19" width="2.8" height="2.81"/><rect class="a" x="86.77" y="93.39" width="2.8" height="2.8"/><rect class="a" x="86.77" y="90.58" width="2.8" height="2.81"/><rect class="a" x="86.77" y="87.77" width="2.8" height="2.8"/><rect class="a" x="86.77" y="84.96" width="2.8" height="2.81"/><rect class="a" x="86.77" y="82.15" width="2.8" height="2.81"/><rect class="a" x="86.77" y="79.35" width="2.8" height="2.8"/><rect class="a" x="86.77" y="59.69" width="2.8" height="2.81"/><rect class="a" x="86.77" y="56.89" width="2.8" height="2.8"/><rect class="a" x="86.77" y="54.08" width="2.8" height="2.81"/><rect class="a" x="86.77" y="51.27" width="2.8" height="2.8"/><rect class="a" x="83.96" y="143.92" width="2.81" height="2.8"/><rect class="a" x="83.96" y="141.11" width="2.81" height="2.81"/><rect class="a" x="83.96" y="138.31" width="2.81" height="2.8"/><rect class="a" x="83.96" y="135.5" width="2.81" height="2.81"/><rect class="a" x="83.96" y="93.39" width="2.81" height="2.8"/><rect class="a" x="83.96" y="90.58" width="2.81" height="2.81"/><rect class="a" x="83.96" y="87.77" width="2.81" height="2.8"/><rect class="a" x="83.96" y="84.96" width="2.81" height="2.81"/><rect class="a" x="83.96" y="82.15" width="2.81" height="2.81"/><rect class="a" x="83.96" y="79.35" width="2.81" height="2.8"/><rect class="a" x="83.96" y="76.54" width="2.81" height="2.81"/><rect class="a" x="83.96" y="59.69" width="2.81" height="2.81"/><rect class="a" x="83.96" y="56.89" width="2.81" height="2.8"/><rect class="a" x="83.96" y="54.08" width="2.81" height="2.81"/><rect class="a" x="83.96" y="51.27" width="2.81" height="2.8"/><rect class="a" x="81.15" y="143.92" width="2.81" height="2.8"/><rect class="a" x="81.15" y="141.11" width="2.81" height="2.81"/><rect class="a" x="81.15" y="138.31" width="2.81" height="2.8"/><rect class="a" x="81.15" y="135.5" width="2.81" height="2.81"/><rect class="a" x="81.15" y="132.69" width="2.81" height="2.81"/><rect class="a" x="81.15" y="90.58" width="2.81" height="2.81"/><rect class="a" x="81.15" y="87.77" width="2.81" height="2.8"/><rect class="a" x="81.15" y="84.96" width="2.81" height="2.81"/><rect class="a" x="81.15" y="82.15" width="2.81" height="2.81"/><rect class="a" x="81.15" y="79.35" width="2.81" height="2.8"/><rect class="a" x="81.15" y="76.54" width="2.81" height="2.81"/><rect class="a" x="81.15" y="73.73" width="2.81" height="2.81"/><rect class="a" x="81.15" y="62.5" width="2.81" height="2.81"/><rect class="a" x="81.15" y="59.69" width="2.81" height="2.81"/><rect class="a" x="81.15" y="56.89" width="2.81" height="2.8"/><rect class="a" x="81.15" y="54.08" width="2.81" height="2.81"/><rect class="a" x="81.15" y="51.27" width="2.81" height="2.8"/><rect class="a" x="78.35" y="141.11" width="2.8" height="2.81"/><rect class="a" x="78.35" y="138.31" width="2.8" height="2.8"/><rect class="a" x="78.35" y="135.5" width="2.8" height="2.81"/><rect class="a" x="78.35" y="132.69" width="2.8" height="2.81"/><rect class="a" x="78.35" y="87.77" width="2.8" height="2.8"/><rect class="a" x="78.35" y="84.96" width="2.8" height="2.81"/><rect class="a" x="78.35" y="82.15" width="2.8" height="2.81"/><rect class="a" x="78.35" y="79.35" width="2.8" height="2.8"/><rect class="a" x="78.35" y="76.54" width="2.8" height="2.81"/><rect class="a" x="78.35" y="73.73" width="2.8" height="2.81"/><rect class="a" x="78.35" y="70.92" width="2.8" height="2.8"/><rect class="a" x="78.35" y="62.5" width="2.8" height="2.81"/><rect class="a" x="78.35" y="59.69" width="2.8" height="2.81"/><rect class="a" x="78.35" y="56.89" width="2.8" height="2.8"/><rect class="a" x="78.35" y="54.08" width="2.8" height="2.81"/><rect class="a" x="75.54" y="141.11" width="2.81" height="2.81"/><rect class="a" x="75.54" y="138.31" width="2.81" height="2.8"/><rect class="a" x="75.54" y="135.5" width="2.81" height="2.81"/><rect class="a" x="75.54" y="132.69" width="2.81" height="2.81"/><rect class="a" x="75.54" y="129.89" width="2.81" height="2.8"/><rect class="a" x="75.54" y="84.96" width="2.81" height="2.81"/><rect class="a" x="75.54" y="82.15" width="2.81" height="2.81"/><rect class="a" x="75.54" y="79.35" width="2.81" height="2.8"/><rect class="a" x="75.54" y="76.54" width="2.81" height="2.81"/><rect class="a" x="75.54" y="73.73" width="2.81" height="2.81"/><rect class="a" x="75.54" y="70.92" width="2.81" height="2.8"/><rect class="a" x="75.54" y="68.11" width="2.81" height="2.81"/><rect class="a" x="75.54" y="65.31" width="2.81" height="2.8"/><rect class="a" x="75.54" y="62.5" width="2.81" height="2.81"/><rect class="a" x="75.54" y="59.69" width="2.81" height="2.81"/><rect class="a" x="75.54" y="56.89" width="2.81" height="2.8"/><rect class="a" x="75.54" y="54.08" width="2.81" height="2.81"/><rect class="a" x="72.73" y="138.31" width="2.81" height="2.8"/><rect class="a" x="72.73" y="135.5" width="2.81" height="2.81"/><rect class="a" x="72.73" y="132.69" width="2.81" height="2.81"/><rect class="a" x="72.73" y="129.89" width="2.81" height="2.8"/><rect class="a" x="72.73" y="127.08" width="2.81" height="2.81"/><rect class="a" x="72.73" y="82.15" width="2.81" height="2.81"/><rect class="a" x="72.73" y="79.35" width="2.81" height="2.8"/><rect class="a" x="72.73" y="76.54" width="2.81" height="2.81"/><rect class="a" x="72.73" y="73.73" width="2.81" height="2.81"/><rect class="a" x="72.73" y="70.92" width="2.81" height="2.8"/><rect class="a" x="72.73" y="68.11" width="2.81" height="2.81"/><rect class="a" x="72.73" y="65.31" width="2.81" height="2.8"/><rect class="a" x="72.73" y="62.5" width="2.81" height="2.81"/><rect class="a" x="72.73" y="59.69" width="2.81" height="2.81"/><rect class="a" x="72.73" y="56.89" width="2.81" height="2.8"/><rect class="a" x="69.92" y="138.31" width="2.8" height="2.8"/><rect class="a" x="69.92" y="135.5" width="2.8" height="2.81"/><rect class="a" x="69.92" y="132.69" width="2.8" height="2.81"/><rect class="a" x="69.92" y="129.89" width="2.8" height="2.8"/><rect class="a" x="69.92" y="127.08" width="2.8" height="2.81"/><rect class="a" x="69.92" y="124.27" width="2.8" height="2.8"/><rect class="a" x="69.92" y="79.35" width="2.8" height="2.8"/><rect class="a" x="69.92" y="76.54" width="2.8" height="2.81"/><rect class="a" x="69.92" y="73.73" width="2.8" height="2.81"/><rect class="a" x="69.92" y="70.92" width="2.8" height="2.8"/><rect class="a" x="69.92" y="68.11" width="2.8" height="2.81"/><rect class="a" x="69.92" y="65.31" width="2.8" height="2.8"/><rect class="a" x="69.92" y="62.5" width="2.8" height="2.81"/><rect class="a" x="69.92" y="59.69" width="2.8" height="2.81"/><rect class="a" x="69.92" y="56.89" width="2.8" height="2.8"/><rect class="a" x="67.11" y="135.5" width="2.81" height="2.81"/><rect class="a" x="67.11" y="132.69" width="2.81" height="2.81"/><rect class="a" x="67.11" y="129.89" width="2.81" height="2.8"/><rect class="a" x="67.11" y="127.08" width="2.81" height="2.81"/><rect class="a" x="67.11" y="124.27" width="2.81" height="2.8"/><rect class="a" x="67.11" y="121.46" width="2.81" height="2.81"/><rect class="a" x="67.11" y="76.54" width="2.81" height="2.81"/><rect class="a" x="67.11" y="73.73" width="2.81" height="2.81"/><rect class="a" x="67.11" y="70.92" width="2.81" height="2.8"/><rect class="a" x="67.11" y="68.11" width="2.81" height="2.81"/><rect class="a" x="67.11" y="65.31" width="2.81" height="2.8"/><rect class="a" x="67.11" y="62.5" width="2.81" height="2.81"/><rect class="a" x="67.11" y="59.69" width="2.81" height="2.81"/><rect class="a" x="64.31" y="132.69" width="2.8" height="2.81"/><rect class="a" x="64.31" y="129.89" width="2.8" height="2.8"/><rect class="a" x="64.31" y="127.08" width="2.8" height="2.81"/><rect class="a" x="64.31" y="124.27" width="2.8" height="2.8"/><rect class="a" x="64.31" y="121.46" width="2.8" height="2.81"/><rect class="a" x="64.31" y="118.65" width="2.8" height="2.81"/><rect class="a" x="64.31" y="76.54" width="2.8" height="2.81"/><rect class="a" x="64.31" y="73.73" width="2.8" height="2.81"/><rect class="a" x="64.31" y="70.92" width="2.8" height="2.8"/><rect class="a" x="64.31" y="68.11" width="2.8" height="2.81"/><rect class="a" x="64.31" y="65.31" width="2.8" height="2.8"/><rect class="a" x="64.31" y="62.5" width="2.8" height="2.81"/><rect class="a" x="61.5" y="129.89" width="2.81" height="2.8"/><rect class="a" x="61.5" y="127.08" width="2.81" height="2.81"/><rect class="a" x="61.5" y="124.27" width="2.81" height="2.8"/><rect class="a" x="61.5" y="121.46" width="2.81" height="2.81"/><rect class="a" x="61.5" y="118.65" width="2.81" height="2.81"/><rect class="a" x="61.5" y="115.85" width="2.81" height="2.8"/><rect class="a" x="61.5" y="113.04" width="2.81" height="2.81"/><rect class="a" x="61.5" y="82.15" width="2.81" height="2.81"/><rect class="a" x="61.5" y="79.35" width="2.81" height="2.8"/><rect class="a" x="61.5" y="76.54" width="2.81" height="2.81"/><rect class="a" x="61.5" y="73.73" width="2.81" height="2.81"/><rect class="a" x="61.5" y="70.92" width="2.81" height="2.8"/><rect class="a" x="61.5" y="68.11" width="2.81" height="2.81"/><rect class="a" x="61.5" y="65.31" width="2.81" height="2.8"/><rect class="a" x="58.69" y="127.08" width="2.81" height="2.81"/><rect class="a" x="58.69" y="124.27" width="2.81" height="2.8"/><rect class="a" x="58.69" y="121.46" width="2.81" height="2.81"/><rect class="a" x="58.69" y="118.65" width="2.81" height="2.81"/><rect class="a" x="58.69" y="115.85" width="2.81" height="2.8"/><rect class="a" x="58.69" y="113.04" width="2.81" height="2.81"/><rect class="a" x="58.69" y="110.23" width="2.81" height="2.81"/><rect class="a" x="58.69" y="107.42" width="2.81" height="2.8"/><rect class="a" x="58.69" y="104.61" width="2.81" height="2.81"/><rect class="a" x="58.69" y="90.58" width="2.81" height="2.81"/><rect class="a" x="58.69" y="87.77" width="2.81" height="2.8"/><rect class="a" x="58.69" y="84.96" width="2.81" height="2.81"/><rect class="a" x="58.69" y="82.15" width="2.81" height="2.81"/><rect class="a" x="58.69" y="79.35" width="2.81" height="2.8"/><rect class="a" x="58.69" y="76.54" width="2.81" height="2.81"/><rect class="a" x="58.69" y="73.73" width="2.81" height="2.81"/><rect class="a" x="58.69" y="70.92" width="2.81" height="2.8"/><rect class="a" x="58.69" y="68.11" width="2.81" height="2.81"/><rect class="a" x="55.89" y="124.27" width="2.8" height="2.8"/><rect class="a" x="55.89" y="121.46" width="2.8" height="2.81"/><rect class="a" x="55.89" y="118.65" width="2.8" height="2.81"/><rect class="a" x="55.89" y="115.85" width="2.8" height="2.8"/><rect class="a" x="55.89" y="113.04" width="2.8" height="2.81"/><rect class="a" x="55.89" y="110.23" width="2.8" height="2.81"/><rect class="a" x="55.89" y="107.42" width="2.8" height="2.8"/><rect class="a" x="55.89" y="104.61" width="2.8" height="2.81"/><rect class="a" x="55.89" y="101.81" width="2.8" height="2.8"/><rect class="a" x="55.89" y="99" width="2.8" height="2.81"/><rect class="a" x="55.89" y="96.19" width="2.8" height="2.81"/><rect class="a" x="55.89" y="93.39" width="2.8" height="2.8"/><rect class="a" x="55.89" y="90.58" width="2.8" height="2.81"/><rect class="a" x="55.89" y="87.77" width="2.8" height="2.8"/><rect class="a" x="55.89" y="84.96" width="2.8" height="2.81"/><rect class="a" x="55.89" y="82.15" width="2.8" height="2.81"/><rect class="a" x="55.89" y="79.35" width="2.8" height="2.8"/><rect class="a" x="55.89" y="76.54" width="2.8" height="2.81"/><rect class="a" x="55.89" y="73.73" width="2.8" height="2.81"/><rect class="a" x="55.89" y="70.92" width="2.8" height="2.8"/><rect class="a" x="53.08" y="118.65" width="2.81" height="2.81"/><rect class="a" x="53.08" y="115.85" width="2.81" height="2.8"/><rect class="a" x="53.08" y="113.04" width="2.81" height="2.81"/><rect class="a" x="53.08" y="110.23" width="2.81" height="2.81"/><rect class="a" x="53.08" y="107.42" width="2.81" height="2.8"/><rect class="a" x="53.08" y="104.61" width="2.81" height="2.81"/><rect class="a" x="53.08" y="101.81" width="2.81" height="2.8"/><rect class="a" x="53.08" y="99" width="2.81" height="2.81"/><rect class="a" x="53.08" y="96.19" width="2.81" height="2.81"/><rect class="a" x="53.08" y="93.39" width="2.81" height="2.8"/><rect class="a" x="53.08" y="90.58" width="2.81" height="2.81"/><rect class="a" x="53.08" y="87.77" width="2.81" height="2.8"/><rect class="a" x="53.08" y="84.96" width="2.81" height="2.81"/><rect class="a" x="53.08" y="82.15" width="2.81" height="2.81"/><rect class="a" x="53.08" y="79.35" width="2.81" height="2.8"/><rect class="a" x="53.08" y="76.54" width="2.81" height="2.81"/><rect class="a" x="50.27" y="113.04" width="2.8" height="2.81"/><rect class="a" x="50.27" y="110.23" width="2.8" height="2.81"/><rect class="a" x="50.27" y="107.42" width="2.8" height="2.8"/><rect class="a" x="50.27" y="104.61" width="2.8" height="2.81"/><rect class="a" x="50.27" y="101.81" width="2.8" height="2.8"/><rect class="a" x="50.27" y="99" width="2.8" height="2.81"/><rect class="a" x="50.27" y="96.19" width="2.8" height="2.81"/><rect class="a" x="50.27" y="93.39" width="2.8" height="2.8"/><rect class="a" x="50.27" y="90.58" width="2.8" height="2.81"/><rect class="a" x="50.27" y="87.77" width="2.8" height="2.8"/><rect class="a" x="50.27" y="84.96" width="2.8" height="2.81"/><rect class="a" x="50.27" y="82.15" width="2.8" height="2.81"/><rect class="a" x="47.46" y="107.42" width="2.81" height="2.8"/><rect class="a" x="47.46" y="104.61" width="2.81" height="2.81"/><rect class="a" x="47.46" y="101.81" width="2.81" height="2.8"/><rect class="a" x="47.46" y="99" width="2.81" height="2.81"/><rect class="a" x="47.46" y="96.19" width="2.81" height="2.81"/><rect class="a" x="47.46" y="93.39" width="2.81" height="2.8"/><rect class="a" x="47.46" y="90.58" width="2.81" height="2.81"/><rect class="a" x="47.46" y="87.77" width="2.81" height="2.8"/></svg>