<svg xmlns="http://www.w3.org/2000/svg" viewBox="0 0 200 200"><defs><style>.a{fill:#493526;}.b{fill:#664c36;}.c{fill:#7f6452;}</style></defs><title>male_hair_1</title><rect class="a" x="126.92" y="30.77" width="3.85" height="3.85"/><rect class="b" x="130.77" y="26.92" width="3.85" height="3.85"/><rect class="b" x="130.77" y="30.77" width="3.85" height="3.85"/><rect class="b" x="130.77" y="34.62" width="3.85" height="3.84"/><rect class="a" x="138.46" y="80.77" width="3.85" height="3.85"/><rect class="a" x="138.46" y="76.92" width="3.85" height="3.85"/><rect class="a" x="138.46" y="73.08" width="3.85" height="3.84"/><rect class="b" x="138.46" y="69.23" width="3.85" height="3.85"/><rect class="b" x="138.46" y="65.38" width="3.85" height="3.85"/><rect class="b" x="138.46" y="61.54" width="3.85" height="3.84"/><rect class="b" x="138.46" y="57.69" width="3.85" height="3.85"/><rect class="b" x="138.46" y="53.85" width="3.85" height="3.84"/><rect class="b" x="138.46" y="50" width="3.85" height="3.85"/><rect class="a" x="134.62" y="84.62" width="3.84" height="3.84"/><rect class="a" x="134.62" y="80.77" width="3.84" height="3.85"/><rect class="a" x="134.62" y="76.92" width="3.84" height="3.85"/><rect class="a" x="134.62" y="73.08" width="3.84" height="3.84"/><rect class="b" x="134.62" y="69.23" width="3.84" height="3.85"/><rect class="b" x="134.62" y="65.38" width="3.84" height="3.85"/><rect class="b" x="134.62" y="61.54" width="3.84" height="3.84"/><rect class="b" x="134.62" y="57.69" width="3.84" height="3.85"/><rect class="b" x="134.62" y="53.85" width="3.84" height="3.84"/><rect class="b" x="134.62" y="50" width="3.84" height="3.85"/><rect class="b" x="134.62" y="46.15" width="3.84" height="3.85"/><rect class="b" x="134.62" y="42.31" width="3.84" height="3.84"/><rect class="a" x="130.77" y="76.92" width="3.85" height="3.85"/><rect class="a" x="130.77" y="73.08" width="3.85" height="3.84"/><rect class="a" x="130.77" y="69.23" width="3.85" height="3.85"/><rect class="a" x="130.77" y="65.38" width="3.85" height="3.85"/><rect class="a" x="130.77" y="61.54" width="3.85" height="3.84"/><rect class="b" x="130.77" y="57.69" width="3.85" height="3.85"/><rect class="b" x="130.77" y="53.85" width="3.85" height="3.84"/><rect class="b" x="130.77" y="50" width="3.85" height="3.85"/><rect class="b" x="130.77" y="46.15" width="3.85" height="3.85"/><rect class="b" x="130.77" y="42.31" width="3.85" height="3.84"/><rect class="b" x="130.77" y="38.46" width="3.85" height="3.85"/><rect class="a" x="126.92" y="57.69" width="3.85" height="3.85"/><rect class="b" x="126.92" y="53.85" width="3.85" height="3.84"/><rect class="b" x="126.92" y="50" width="3.85" height="3.85"/><rect class="b" x="126.92" y="46.15" width="3.85" height="3.85"/><rect class="b" x="126.92" y="42.31" width="3.85" height="3.84"/><rect class="b" x="126.92" y="38.46" width="3.85" height="3.85"/><rect class="a" x="126.92" y="34.62" width="3.85" height="3.84"/><rect class="b" x="123.08" y="53.85" width="3.84" height="3.84"/><rect class="b" x="123.08" y="50" width="3.84" height="3.85"/><rect class="b" x="123.08" y="46.15" width="3.84" height="3.85"/><rect class="b" x="123.08" y="42.31" width="3.84" height="3.84"/><rect class="a" x="123.08" y="38.46" width="3.84" height="3.85"/><rect class="a" x="123.08" y="34.62" width="3.84" height="3.84"/><rect class="b" x="119.23" y="53.85" width="3.85" height="3.84"/><rect class="b" x="119.23" y="50" width="3.85" height="3.85"/><rect class="b" x="119.23" y="46.15" width="3.85" height="3.85"/><rect class="b" x="119.23" y="42.31" width="3.85" height="3.84"/><rect class="a" x="119.23" y="38.46" width="3.85" height="3.85"/><rect class="a" x="119.23" y="34.62" width="3.85" height="3.84"/><rect class="b" x="119.23" y="30.77" width="3.85" height="3.85"/><rect class="b" x="119.23" y="26.92" width="3.85" height="3.85"/><rect class="c" x="119.23" y="23.08" width="3.85" height="3.84"/><rect class="b" x="115.38" y="53.85" width="3.85" height="3.84"/><rect class="b" x="115.38" y="50" width="3.85" height="3.85"/><rect class="b" x="115.38" y="46.15" width="3.85" height="3.85"/><rect class="b" x="115.38" y="42.31" width="3.85" height="3.84"/><rect class="b" x="115.38" y="38.46" width="3.85" height="3.85"/><rect class="b" x="115.38" y="34.62" width="3.85" height="3.84"/><rect class="b" x="115.38" y="30.77" width="3.85" height="3.85"/><rect class="c" x="115.38" y="26.92" width="3.85" height="3.85"/><rect class="b" x="111.54" y="53.85" width="3.84" height="3.84"/><rect class="b" x="111.54" y="50" width="3.84" height="3.85"/><rect class="b" x="111.54" y="46.15" width="3.84" height="3.85"/><rect class="b" x="111.54" y="42.31" width="3.84" height="3.84"/><rect class="b" x="111.54" y="38.46" width="3.84" height="3.85"/><rect class="c" x="111.54" y="34.62" width="3.84" height="3.84"/><rect class="c" x="111.54" y="30.77" width="3.84" height="3.85"/><rect class="b" x="107.69" y="53.85" width="3.85" height="3.84"/><rect class="b" x="107.69" y="50" width="3.85" height="3.85"/><rect class="b" x="107.69" y="46.15" width="3.85" height="3.85"/><rect class="b" x="107.69" y="42.31" width="3.85" height="3.84"/><rect class="b" x="107.69" y="38.46" width="3.85" height="3.85"/><rect class="c" x="107.69" y="34.62" width="3.85" height="3.84"/><rect class="b" x="103.85" y="53.85" width="3.84" height="3.84"/><rect class="b" x="103.85" y="50" width="3.84" height="3.85"/><rect class="b" x="103.85" y="46.15" width="3.84" height="3.85"/><rect class="b" x="103.85" y="42.31" width="3.84" height="3.84"/><rect class="b" x="103.85" y="38.46" width="3.84" height="3.85"/><rect class="c" x="103.85" y="34.62" width="3.84" height="3.84"/><rect class="b" x="100" y="53.85" width="3.85" height="3.84"/><rect class="b" x="100" y="50" width="3.85" height="3.85"/><rect class="b" x="100" y="46.15" width="3.85" height="3.85"/><rect class="b" x="100" y="42.31" width="3.85" height="3.84"/><rect class="b" x="100" y="38.46" width="3.85" height="3.85"/><rect class="b" x="96.15" y="53.85" width="3.85" height="3.84"/><rect class="b" x="96.15" y="50" width="3.85" height="3.85"/><rect class="b" x="96.15" y="46.15" width="3.85" height="3.85"/><rect class="b" x="96.15" y="42.31" width="3.85" height="3.84"/><rect class="b" x="96.15" y="38.46" width="3.85" height="3.85"/><rect class="b" x="92.31" y="53.85" width="3.84" height="3.84"/><rect class="c" x="92.31" y="50" width="3.84" height="3.85"/><rect class="b" x="92.31" y="46.15" width="3.84" height="3.85"/><rect class="b" x="92.31" y="42.31" width="3.84" height="3.84"/><rect class="b" x="92.31" y="38.46" width="3.84" height="3.85"/><rect class="a" x="88.46" y="53.85" width="3.85" height="3.84"/><rect class="c" x="88.46" y="50" width="3.85" height="3.85"/><rect class="b" x="88.46" y="46.15" width="3.85" height="3.85"/><rect class="c" x="88.46" y="42.31" width="3.85" height="3.84"/><rect class="b" x="88.46" y="38.46" width="3.85" height="3.85"/><rect class="a" x="84.62" y="53.85" width="3.84" height="3.84"/><rect class="c" x="84.62" y="50" width="3.84" height="3.85"/><rect class="c" x="84.62" y="46.15" width="3.84" height="3.85"/><rect class="b" x="84.62" y="42.31" width="3.84" height="3.84"/><rect class="b" x="84.62" y="38.46" width="3.84" height="3.85"/><rect class="a" x="80.77" y="53.85" width="3.85" height="3.84"/><rect class="c" x="80.77" y="50" width="3.85" height="3.85"/><rect class="b" x="80.77" y="46.15" width="3.85" height="3.85"/><rect class="b" x="80.77" y="42.31" width="3.85" height="3.84"/><rect class="b" x="80.77" y="38.46" width="3.85" height="3.85"/><rect class="a" x="76.92" y="53.85" width="3.85" height="3.84"/><rect class="c" x="76.92" y="50" width="3.85" height="3.85"/><rect class="b" x="76.92" y="46.15" width="3.85" height="3.85"/><rect class="c" x="76.92" y="42.31" width="3.85" height="3.84"/><rect class="b" x="76.92" y="38.46" width="3.85" height="3.85"/><rect class="a" x="73.08" y="53.85" width="3.84" height="3.84"/><rect class="c" x="73.08" y="50" width="3.84" height="3.85"/><rect class="c" x="73.08" y="46.15" width="3.84" height="3.85"/><rect class="b" x="73.08" y="42.31" width="3.84" height="3.84"/><rect class="b" x="73.08" y="38.46" width="3.84" height="3.85"/><rect class="a" x="69.23" y="57.69" width="3.85" height="3.85"/><rect class="a" x="69.23" y="53.85" width="3.85" height="3.84"/><rect class="c" x="69.23" y="50" width="3.85" height="3.85"/><rect class="c" x="69.23" y="46.15" width="3.85" height="3.85"/><rect class="b" x="69.23" y="42.31" width="3.85" height="3.84"/><rect class="b" x="69.23" y="38.46" width="3.85" height="3.85"/><rect class="a" x="65.38" y="76.92" width="3.85" height="3.85"/><rect class="a" x="65.38" y="73.08" width="3.85" height="3.84"/><rect class="a" x="65.38" y="69.23" width="3.85" height="3.85"/><rect class="a" x="65.38" y="65.38" width="3.85" height="3.85"/><rect class="a" x="65.38" y="61.54" width="3.85" height="3.84"/><rect class="a" x="65.38" y="57.69" width="3.85" height="3.85"/><rect class="a" x="65.38" y="53.85" width="3.85" height="3.84"/><rect class="b" x="65.38" y="50" width="3.85" height="3.85"/><rect class="b" x="65.38" y="46.15" width="3.85" height="3.85"/><rect class="b" x="65.38" y="42.31" width="3.85" height="3.84"/><rect class="b" x="65.38" y="38.46" width="3.85" height="3.85"/><rect class="a" x="61.54" y="84.62" width="3.84" height="3.84"/><rect class="a" x="61.54" y="80.77" width="3.84" height="3.85"/><rect class="a" x="61.54" y="76.92" width="3.84" height="3.85"/><rect class="a" x="61.54" y="73.08" width="3.84" height="3.84"/><rect class="a" x="61.54" y="69.23" width="3.84" height="3.85"/><rect class="a" x="61.54" y="65.38" width="3.84" height="3.85"/><rect class="c" x="61.54" y="61.54" width="3.84" height="3.84"/><rect class="c" x="61.54" y="57.69" width="3.84" height="3.85"/><rect class="c" x="61.54" y="53.85" width="3.84" height="3.84"/><rect class="c" x="61.54" y="50" width="3.84" height="3.85"/><rect class="b" x="61.54" y="46.15" width="3.84" height="3.85"/><rect class="b" x="61.54" y="42.31" width="3.84" height="3.84"/><rect class="a" x="57.69" y="80.77" width="3.85" height="3.85"/><rect class="a" x="57.69" y="76.92" width="3.85" height="3.85"/><rect class="a" x="57.69" y="73.08" width="3.85" height="3.84"/><rect class="a" x="57.69" y="69.23" width="3.85" height="3.85"/><rect class="b" x="57.69" y="65.38" width="3.85" height="3.85"/><rect class="b" x="57.69" y="61.54" width="3.85" height="3.84"/><rect class="b" x="57.69" y="57.69" width="3.85" height="3.85"/><rect class="b" x="57.69" y="53.85" width="3.85" height="3.84"/><rect class="b" x="57.69" y="50" width="3.85" height="3.85"/></svg>