<svg xmlns="http://www.w3.org/2000/svg" viewBox="0 0 200 200"><defs><style>.a{fill:#e0e0e0;}.b{fill:#b7b6b6;}.c{fill:#8c8b8b;}.d{fill:#f9e7d7;}.e{fill:#edcfb9;}.f{fill:#ccaf9b;}.g{fill:#3a3a3a;}.h{fill:#fff;}.i{fill:#b2b2b2;}.j{fill:#aa8871;}</style></defs><title>0</title><rect class="a" x="134.62" y="176.92" width="3.84" height="3.85"/><rect class="a" x="134.62" y="173.08" width="3.84" height="3.84"/><rect class="a" x="130.77" y="180.77" width="3.85" height="3.85"/><rect class="a" x="130.77" y="176.92" width="3.85" height="3.85"/><rect class="b" x="130.77" y="173.08" width="3.85" height="3.84"/><rect class="a" x="130.77" y="169.23" width="3.85" height="3.85"/><rect class="a" x="126.92" y="184.62" width="3.85" height="3.84"/><rect class="a" x="126.92" y="180.77" width="3.85" height="3.85"/><rect class="b" x="126.92" y="176.92" width="3.85" height="3.85"/><rect class="b" x="126.92" y="173.08" width="3.85" height="3.84"/><rect class="b" x="126.92" y="169.23" width="3.85" height="3.85"/><rect class="b" x="126.92" y="165.38" width="3.85" height="3.85"/><rect class="a" x="123.08" y="184.62" width="3.84" height="3.84"/><rect class="b" x="123.08" y="180.77" width="3.84" height="3.85"/><rect class="b" x="123.08" y="176.92" width="3.84" height="3.85"/><rect class="b" x="123.08" y="173.08" width="3.84" height="3.84"/><rect class="b" x="123.08" y="169.23" width="3.84" height="3.85"/><rect class="b" x="123.08" y="165.38" width="3.84" height="3.85"/><rect class="a" x="119.23" y="184.62" width="3.85" height="3.84"/><rect class="b" x="119.23" y="180.77" width="3.85" height="3.85"/><rect class="c" x="119.23" y="176.92" width="3.85" height="3.85"/><rect class="c" x="119.23" y="173.08" width="3.85" height="3.84"/><rect class="b" x="119.23" y="169.23" width="3.85" height="3.85"/><rect class="b" x="119.23" y="165.38" width="3.85" height="3.85"/><rect class="b" x="115.38" y="184.62" width="3.85" height="3.84"/><rect class="b" x="115.38" y="180.77" width="3.85" height="3.85"/><rect class="c" x="115.38" y="176.92" width="3.85" height="3.85"/><rect class="c" x="115.38" y="173.08" width="3.85" height="3.84"/><rect class="b" x="115.38" y="169.23" width="3.85" height="3.85"/><rect class="b" x="115.38" y="165.38" width="3.85" height="3.85"/><rect class="b" x="111.54" y="184.62" width="3.84" height="3.84"/><rect class="b" x="111.54" y="180.77" width="3.84" height="3.85"/><rect class="c" x="111.54" y="176.92" width="3.84" height="3.85"/><rect class="c" x="111.54" y="173.08" width="3.84" height="3.84"/><rect class="b" x="111.54" y="169.23" width="3.84" height="3.85"/><rect class="b" x="111.54" y="165.38" width="3.84" height="3.85"/><rect class="b" x="107.69" y="184.62" width="3.85" height="3.84"/><rect class="b" x="107.69" y="180.77" width="3.85" height="3.85"/><rect class="c" x="107.69" y="176.92" width="3.85" height="3.85"/><rect class="c" x="107.69" y="173.08" width="3.85" height="3.84"/><rect class="b" x="107.69" y="169.23" width="3.85" height="3.85"/><rect class="b" x="107.69" y="165.38" width="3.85" height="3.85"/><rect class="b" x="103.85" y="184.62" width="3.84" height="3.84"/><rect class="b" x="103.85" y="180.77" width="3.84" height="3.85"/><rect class="c" x="103.85" y="176.92" width="3.84" height="3.85"/><rect class="c" x="103.85" y="173.08" width="3.84" height="3.84"/><rect class="b" x="103.85" y="169.23" width="3.84" height="3.85"/><rect class="b" x="103.85" y="165.38" width="3.84" height="3.85"/><rect class="b" x="100" y="184.62" width="3.85" height="3.84"/><rect class="b" x="100" y="180.77" width="3.85" height="3.85"/><rect class="c" x="100" y="176.92" width="3.85" height="3.85"/><rect class="b" x="100" y="173.08" width="3.85" height="3.84"/><rect class="b" x="100" y="169.23" width="3.85" height="3.85"/><rect class="b" x="100" y="165.38" width="3.85" height="3.85"/><rect class="b" x="96.15" y="184.62" width="3.85" height="3.84"/><rect class="b" x="96.15" y="180.77" width="3.85" height="3.85"/><rect class="c" x="96.15" y="176.92" width="3.85" height="3.85"/><rect class="c" x="96.15" y="173.08" width="3.85" height="3.84"/><rect class="b" x="96.15" y="169.23" width="3.85" height="3.85"/><rect class="b" x="96.15" y="165.38" width="3.85" height="3.85"/><rect class="b" x="92.31" y="184.62" width="3.84" height="3.84"/><rect class="b" x="92.31" y="180.77" width="3.84" height="3.85"/><rect class="c" x="92.31" y="176.92" width="3.84" height="3.85"/><rect class="c" x="92.31" y="173.08" width="3.84" height="3.84"/><rect class="b" x="92.31" y="169.23" width="3.84" height="3.85"/><rect class="b" x="92.31" y="165.38" width="3.84" height="3.85"/><rect class="b" x="88.46" y="184.62" width="3.85" height="3.84"/><rect class="b" x="88.46" y="180.77" width="3.85" height="3.85"/><rect class="c" x="88.46" y="176.92" width="3.85" height="3.85"/><rect class="c" x="88.46" y="173.08" width="3.85" height="3.84"/><rect class="b" x="88.46" y="169.23" width="3.85" height="3.85"/><rect class="b" x="88.46" y="165.38" width="3.85" height="3.85"/><rect class="b" x="84.62" y="184.62" width="3.84" height="3.84"/><rect class="b" x="84.62" y="180.77" width="3.84" height="3.85"/><rect class="c" x="84.62" y="176.92" width="3.84" height="3.85"/><rect class="c" x="84.62" y="173.08" width="3.84" height="3.84"/><rect class="b" x="84.62" y="169.23" width="3.84" height="3.85"/><rect class="b" x="84.62" y="165.38" width="3.84" height="3.85"/><rect class="c" x="80.77" y="184.62" width="3.85" height="3.84"/><rect class="b" x="80.77" y="180.77" width="3.85" height="3.85"/><rect class="c" x="80.77" y="176.92" width="3.85" height="3.85"/><rect class="c" x="80.77" y="173.08" width="3.85" height="3.84"/><rect class="b" x="80.77" y="169.23" width="3.85" height="3.85"/><rect class="b" x="80.77" y="165.38" width="3.85" height="3.85"/><rect class="c" x="76.92" y="184.62" width="3.85" height="3.84"/><rect class="b" x="76.92" y="180.77" width="3.85" height="3.85"/><rect class="c" x="76.92" y="176.92" width="3.85" height="3.85"/><rect class="c" x="76.92" y="173.08" width="3.85" height="3.84"/><rect class="b" x="76.92" y="169.23" width="3.85" height="3.85"/><rect class="b" x="76.92" y="165.38" width="3.85" height="3.85"/><rect class="c" x="73.08" y="184.62" width="3.84" height="3.84"/><rect class="c" x="73.08" y="180.77" width="3.84" height="3.85"/><rect class="c" x="73.08" y="176.92" width="3.84" height="3.85"/><rect class="b" x="73.08" y="173.08" width="3.84" height="3.84"/><rect class="b" x="73.08" y="169.23" width="3.84" height="3.85"/><rect class="c" x="73.08" y="165.38" width="3.84" height="3.85"/><rect class="c" x="69.23" y="184.62" width="3.85" height="3.84"/><rect class="c" x="69.23" y="180.77" width="3.85" height="3.85"/><rect class="c" x="69.23" y="176.92" width="3.85" height="3.85"/><rect class="b" x="69.23" y="173.08" width="3.85" height="3.84"/><rect class="c" x="69.23" y="169.23" width="3.85" height="3.85"/><rect class="c" x="69.23" y="165.38" width="3.85" height="3.85"/><rect class="c" x="65.38" y="180.77" width="3.85" height="3.85"/><rect class="c" x="65.38" y="176.92" width="3.85" height="3.85"/><rect class="c" x="65.38" y="173.08" width="3.85" height="3.84"/><rect class="c" x="65.38" y="169.23" width="3.85" height="3.85"/><rect class="c" x="61.54" y="176.92" width="3.84" height="3.85"/><rect class="c" x="61.54" y="173.08" width="3.84" height="3.84"/><rect class="d" x="134.62" y="92.31" width="3.84" height="3.84"/><rect class="d" x="134.62" y="88.46" width="3.84" height="3.85"/><rect class="d" x="134.62" y="84.62" width="3.84" height="3.84"/><rect class="d" x="134.62" y="80.77" width="3.84" height="3.85"/><rect class="d" x="134.62" y="76.92" width="3.84" height="3.85"/><rect class="d" x="134.62" y="73.08" width="3.84" height="3.84"/><rect class="d" x="134.62" y="69.23" width="3.84" height="3.85"/><rect class="d" x="134.62" y="65.38" width="3.84" height="3.85"/><rect class="d" x="134.62" y="61.54" width="3.84" height="3.84"/><rect class="d" x="134.62" y="57.69" width="3.84" height="3.85"/><rect class="d" x="134.62" y="53.85" width="3.84" height="3.84"/><rect class="d" x="134.62" y="50" width="3.84" height="3.85"/><rect class="d" x="130.77" y="92.31" width="3.85" height="3.84"/><rect class="d" x="130.77" y="88.46" width="3.85" height="3.85"/><rect class="d" x="130.77" y="84.62" width="3.85" height="3.84"/><rect class="d" x="130.77" y="80.77" width="3.85" height="3.85"/><rect class="d" x="130.77" y="76.92" width="3.85" height="3.85"/><rect class="d" x="130.77" y="73.08" width="3.85" height="3.84"/><rect class="d" x="130.77" y="69.23" width="3.85" height="3.85"/><rect class="d" x="130.77" y="65.38" width="3.85" height="3.85"/><rect class="d" x="130.77" y="61.54" width="3.85" height="3.84"/><rect class="d" x="130.77" y="57.69" width="3.85" height="3.85"/><rect class="d" x="130.77" y="53.85" width="3.85" height="3.84"/><rect class="d" x="130.77" y="50" width="3.85" height="3.85"/><rect class="d" x="126.92" y="96.15" width="3.85" height="3.85"/><rect class="d" x="126.92" y="92.31" width="3.85" height="3.84"/><rect class="d" x="126.92" y="88.46" width="3.85" height="3.85"/><rect class="d" x="126.92" y="84.62" width="3.85" height="3.84"/><rect class="d" x="126.92" y="80.77" width="3.85" height="3.85"/><rect class="d" x="126.92" y="76.92" width="3.85" height="3.85"/><rect class="d" x="126.92" y="73.08" width="3.85" height="3.84"/><rect class="d" x="126.92" y="69.23" width="3.85" height="3.85"/><rect class="d" x="126.92" y="65.38" width="3.85" height="3.85"/><rect class="d" x="126.92" y="61.54" width="3.85" height="3.84"/><rect class="d" x="126.92" y="57.69" width="3.85" height="3.85"/><rect class="d" x="126.92" y="53.85" width="3.85" height="3.84"/><rect class="d" x="126.92" y="50" width="3.85" height="3.85"/><rect class="d" x="126.92" y="46.15" width="3.85" height="3.85"/><rect class="d" x="126.92" y="42.31" width="3.85" height="3.84"/><rect class="e" x="123.08" y="146.15" width="3.84" height="3.85"/><rect class="e" x="123.08" y="142.31" width="3.84" height="3.84"/><rect class="d" x="123.08" y="138.46" width="3.84" height="3.85"/><rect class="d" x="123.08" y="134.62" width="3.84" height="3.84"/><rect class="d" x="123.08" y="130.77" width="3.84" height="3.85"/><rect class="d" x="123.08" y="126.92" width="3.84" height="3.85"/><rect class="d" x="123.08" y="123.08" width="3.84" height="3.84"/><rect class="d" x="123.08" y="119.23" width="3.84" height="3.85"/><rect class="d" x="123.08" y="115.38" width="3.84" height="3.85"/><rect class="d" x="123.08" y="111.54" width="3.84" height="3.84"/><rect class="d" x="123.08" y="107.69" width="3.84" height="3.85"/><rect class="d" x="123.08" y="96.15" width="3.84" height="3.85"/><rect class="d" x="123.08" y="92.31" width="3.84" height="3.84"/><rect class="d" x="123.08" y="88.46" width="3.84" height="3.85"/><rect class="d" x="123.08" y="84.62" width="3.84" height="3.84"/><rect class="d" x="123.08" y="80.77" width="3.84" height="3.85"/><rect class="d" x="123.08" y="76.92" width="3.84" height="3.85"/><rect class="e" x="123.08" y="73.08" width="3.84" height="3.84"/><rect class="e" x="123.08" y="69.23" width="3.84" height="3.85"/><rect class="d" x="123.08" y="65.38" width="3.84" height="3.85"/><rect class="d" x="123.08" y="61.54" width="3.84" height="3.84"/><rect class="d" x="123.08" y="57.69" width="3.84" height="3.85"/><rect class="d" x="123.08" y="53.85" width="3.84" height="3.84"/><rect class="d" x="123.08" y="50" width="3.84" height="3.85"/><rect class="d" x="123.08" y="46.15" width="3.84" height="3.85"/><rect class="d" x="123.08" y="42.31" width="3.84" height="3.84"/><rect class="e" x="119.23" y="173.08" width="3.85" height="3.84"/><rect class="d" x="119.23" y="169.23" width="3.85" height="3.85"/><rect class="f" x="119.23" y="146.15" width="3.85" height="3.85"/><rect class="f" x="119.23" y="142.31" width="3.85" height="3.84"/><rect class="e" x="119.23" y="138.46" width="3.85" height="3.85"/><rect class="e" x="119.23" y="134.62" width="3.85" height="3.84"/><rect class="e" x="119.23" y="130.77" width="3.85" height="3.85"/><rect class="e" x="119.23" y="126.92" width="3.85" height="3.85"/><rect class="e" x="119.23" y="123.08" width="3.85" height="3.84"/><rect class="e" x="119.23" y="119.23" width="3.85" height="3.85"/><rect class="d" x="119.23" y="115.38" width="3.85" height="3.85"/><rect class="d" x="119.23" y="111.54" width="3.85" height="3.84"/><rect class="d" x="119.23" y="107.69" width="3.85" height="3.85"/><rect class="d" x="119.23" y="96.15" width="3.85" height="3.85"/><rect class="d" x="119.23" y="92.31" width="3.85" height="3.84"/><rect class="d" x="119.23" y="88.46" width="3.85" height="3.85"/><rect class="d" x="119.23" y="84.62" width="3.85" height="3.84"/><rect class="d" x="119.23" y="80.77" width="3.85" height="3.85"/><rect class="d" x="119.23" y="76.92" width="3.85" height="3.85"/><rect class="d" x="119.23" y="73.08" width="3.85" height="3.84"/><rect class="d" x="119.23" y="69.23" width="3.85" height="3.85"/><rect class="d" x="119.23" y="65.38" width="3.85" height="3.85"/><rect class="d" x="119.23" y="61.54" width="3.85" height="3.84"/><rect class="d" x="119.23" y="57.69" width="3.85" height="3.85"/><rect class="d" x="119.23" y="53.85" width="3.85" height="3.84"/><rect class="d" x="119.23" y="50" width="3.85" height="3.85"/><rect class="d" x="119.23" y="46.15" width="3.85" height="3.85"/><rect class="d" x="119.23" y="42.31" width="3.85" height="3.84"/><rect class="e" x="115.38" y="173.08" width="3.85" height="3.84"/><rect class="d" x="115.38" y="169.23" width="3.85" height="3.85"/><rect class="d" x="115.38" y="165.38" width="3.85" height="3.85"/><rect class="e" x="115.38" y="161.54" width="3.85" height="3.84"/><rect class="e" x="115.38" y="157.69" width="3.85" height="3.85"/><rect class="d" x="115.38" y="153.85" width="3.85" height="3.84"/><rect class="d" x="115.38" y="150" width="3.85" height="3.85"/><rect class="d" x="115.38" y="146.15" width="3.85" height="3.85"/><rect class="d" x="115.38" y="142.31" width="3.85" height="3.84"/><rect class="d" x="115.38" y="138.46" width="3.85" height="3.85"/><rect class="d" x="115.38" y="134.62" width="3.85" height="3.84"/><rect class="e" x="115.38" y="130.77" width="3.85" height="3.85"/><rect class="e" x="115.38" y="126.92" width="3.85" height="3.85"/><rect class="e" x="115.38" y="123.08" width="3.85" height="3.84"/><rect class="e" x="115.38" y="119.23" width="3.85" height="3.85"/><rect class="e" x="115.38" y="115.38" width="3.85" height="3.85"/><rect class="d" x="115.38" y="111.54" width="3.85" height="3.84"/><rect class="d" x="115.38" y="107.69" width="3.85" height="3.85"/><rect class="d" x="115.38" y="103.85" width="3.85" height="3.84"/><rect class="d" x="115.38" y="96.15" width="3.85" height="3.85"/><rect class="d" x="115.38" y="92.31" width="3.85" height="3.84"/><rect class="d" x="115.38" y="88.46" width="3.85" height="3.85"/><rect class="d" x="115.38" y="84.62" width="3.85" height="3.84"/><rect class="d" x="115.38" y="80.77" width="3.85" height="3.85"/><rect class="d" x="115.38" y="76.92" width="3.85" height="3.85"/><rect class="d" x="115.38" y="73.08" width="3.85" height="3.84"/><rect class="d" x="115.38" y="69.23" width="3.85" height="3.85"/><rect class="d" x="115.38" y="65.38" width="3.85" height="3.85"/><rect class="d" x="115.38" y="61.54" width="3.85" height="3.84"/><rect class="d" x="115.38" y="57.69" width="3.85" height="3.85"/><rect class="d" x="115.38" y="53.85" width="3.85" height="3.84"/><rect class="d" x="115.38" y="50" width="3.85" height="3.85"/><rect class="d" x="115.38" y="46.15" width="3.85" height="3.85"/><rect class="d" x="115.38" y="42.31" width="3.85" height="3.84"/><rect class="f" x="111.54" y="173.08" width="3.84" height="3.84"/><rect class="e" x="111.54" y="169.23" width="3.84" height="3.85"/><rect class="e" x="111.54" y="165.38" width="3.84" height="3.85"/><rect class="e" x="111.54" y="161.54" width="3.84" height="3.84"/><rect class="e" x="111.54" y="157.69" width="3.84" height="3.85"/><rect class="e" x="111.54" y="153.85" width="3.84" height="3.84"/><rect class="e" x="111.54" y="150" width="3.84" height="3.85"/><rect class="d" x="111.54" y="146.15" width="3.84" height="3.85"/><rect class="d" x="111.54" y="142.31" width="3.84" height="3.84"/><rect class="d" x="111.54" y="138.46" width="3.84" height="3.85"/><rect class="d" x="111.54" y="134.62" width="3.84" height="3.84"/><rect class="d" x="111.54" y="130.77" width="3.84" height="3.85"/><rect class="d" x="111.54" y="126.92" width="3.84" height="3.85"/><rect class="d" x="111.54" y="123.08" width="3.84" height="3.84"/><rect class="d" x="111.54" y="119.23" width="3.84" height="3.85"/><rect class="d" x="111.54" y="115.38" width="3.84" height="3.85"/><rect class="d" x="111.54" y="111.54" width="3.84" height="3.84"/><rect class="d" x="111.54" y="107.69" width="3.84" height="3.85"/><rect class="d" x="111.54" y="103.85" width="3.84" height="3.84"/><rect class="d" x="111.54" y="96.15" width="3.84" height="3.85"/><rect class="d" x="111.54" y="92.31" width="3.84" height="3.84"/><rect class="d" x="111.54" y="88.46" width="3.84" height="3.85"/><rect class="d" x="111.54" y="84.62" width="3.84" height="3.84"/><rect class="d" x="111.54" y="80.77" width="3.84" height="3.85"/><rect class="d" x="111.54" y="76.92" width="3.84" height="3.85"/><rect class="d" x="111.54" y="73.08" width="3.84" height="3.84"/><rect class="d" x="111.54" y="69.23" width="3.84" height="3.85"/><rect class="d" x="111.54" y="65.38" width="3.84" height="3.85"/><rect class="d" x="111.54" y="61.54" width="3.84" height="3.84"/><rect class="d" x="111.54" y="57.69" width="3.84" height="3.85"/><rect class="d" x="111.54" y="53.85" width="3.84" height="3.84"/><rect class="d" x="111.54" y="50" width="3.84" height="3.85"/><rect class="d" x="111.54" y="46.15" width="3.84" height="3.85"/><rect class="d" x="111.54" y="42.31" width="3.84" height="3.84"/><rect class="f" x="107.69" y="173.08" width="3.85" height="3.84"/><rect class="e" x="107.69" y="169.23" width="3.85" height="3.85"/><rect class="e" x="107.69" y="165.38" width="3.85" height="3.85"/><rect class="e" x="107.69" y="161.54" width="3.85" height="3.84"/><rect class="e" x="107.69" y="157.69" width="3.85" height="3.85"/><rect class="e" x="107.69" y="153.85" width="3.85" height="3.84"/><rect class="e" x="107.69" y="150" width="3.85" height="3.85"/><rect class="d" x="107.69" y="146.15" width="3.85" height="3.85"/><rect class="d" x="107.69" y="142.31" width="3.85" height="3.84"/><rect class="d" x="107.69" y="138.46" width="3.85" height="3.85"/><rect class="d" x="107.69" y="134.62" width="3.85" height="3.84"/><rect class="d" x="107.69" y="130.77" width="3.85" height="3.85"/><rect class="d" x="107.69" y="126.92" width="3.85" height="3.85"/><rect class="d" x="107.69" y="123.08" width="3.85" height="3.84"/><rect class="d" x="107.69" y="119.23" width="3.85" height="3.85"/><rect class="d" x="107.69" y="115.38" width="3.85" height="3.85"/><rect class="d" x="107.69" y="111.54" width="3.85" height="3.84"/><rect class="d" x="107.69" y="107.69" width="3.85" height="3.85"/><rect class="d" x="107.69" y="103.85" width="3.85" height="3.84"/><rect class="e" x="107.69" y="96.15" width="3.85" height="3.85"/><rect class="d" x="107.69" y="92.31" width="3.85" height="3.84"/><rect class="d" x="107.69" y="88.46" width="3.85" height="3.85"/><rect class="d" x="107.69" y="84.62" width="3.85" height="3.84"/><rect class="d" x="107.69" y="80.77" width="3.85" height="3.85"/><rect class="d" x="107.69" y="76.92" width="3.85" height="3.85"/><rect class="d" x="107.69" y="73.08" width="3.85" height="3.84"/><rect class="d" x="107.69" y="69.23" width="3.85" height="3.85"/><rect class="d" x="107.69" y="65.38" width="3.85" height="3.85"/><rect class="d" x="107.69" y="61.54" width="3.85" height="3.84"/><rect class="d" x="107.69" y="57.69" width="3.85" height="3.85"/><rect class="d" x="107.69" y="53.85" width="3.85" height="3.84"/><rect class="d" x="107.69" y="50" width="3.85" height="3.85"/><rect class="d" x="107.69" y="46.15" width="3.85" height="3.85"/><rect class="d" x="107.69" y="42.31" width="3.85" height="3.84"/><rect class="e" x="103.85" y="150" width="3.84" height="3.85"/><rect class="d" x="103.85" y="146.15" width="3.84" height="3.85"/><rect class="d" x="103.85" y="142.31" width="3.84" height="3.84"/><rect class="d" x="103.85" y="138.46" width="3.84" height="3.85"/><rect class="d" x="103.85" y="134.62" width="3.84" height="3.84"/><rect class="d" x="103.85" y="130.77" width="3.84" height="3.85"/><rect class="d" x="103.85" y="126.92" width="3.84" height="3.85"/><rect class="d" x="103.85" y="123.08" width="3.84" height="3.84"/><rect class="d" x="103.85" y="119.23" width="3.84" height="3.85"/><rect class="d" x="103.85" y="115.38" width="3.84" height="3.85"/><rect class="d" x="103.85" y="111.54" width="3.84" height="3.84"/><rect class="d" x="103.85" y="107.69" width="3.84" height="3.85"/><rect class="d" x="103.85" y="103.85" width="3.84" height="3.84"/><rect class="e" x="103.85" y="100" width="3.84" height="3.85"/><rect class="e" x="103.85" y="96.15" width="3.84" height="3.85"/><rect class="d" x="103.85" y="92.31" width="3.84" height="3.84"/><rect class="d" x="103.85" y="88.46" width="3.84" height="3.85"/><rect class="d" x="103.85" y="84.62" width="3.84" height="3.84"/><rect class="d" x="103.85" y="80.77" width="3.84" height="3.85"/><rect class="d" x="103.85" y="76.92" width="3.84" height="3.85"/><rect class="d" x="103.85" y="73.08" width="3.84" height="3.84"/><rect class="d" x="103.85" y="69.23" width="3.84" height="3.85"/><rect class="d" x="103.85" y="65.38" width="3.84" height="3.85"/><rect class="d" x="103.85" y="61.54" width="3.84" height="3.84"/><rect class="d" x="103.85" y="57.69" width="3.84" height="3.85"/><rect class="d" x="103.85" y="53.85" width="3.84" height="3.84"/><rect class="d" x="103.85" y="50" width="3.84" height="3.85"/><rect class="d" x="103.85" y="46.15" width="3.84" height="3.85"/><rect class="d" x="103.85" y="42.31" width="3.84" height="3.84"/><rect class="e" x="100" y="150" width="3.85" height="3.85"/><rect class="d" x="100" y="146.15" width="3.85" height="3.85"/><rect class="d" x="100" y="142.31" width="3.85" height="3.84"/><rect class="d" x="100" y="138.46" width="3.85" height="3.85"/><rect class="d" x="100" y="134.62" width="3.85" height="3.84"/><rect class="d" x="100" y="130.77" width="3.85" height="3.85"/><rect class="d" x="100" y="126.92" width="3.85" height="3.85"/><rect class="d" x="100" y="123.08" width="3.85" height="3.84"/><rect class="d" x="100" y="119.23" width="3.85" height="3.85"/><rect class="d" x="100" y="115.38" width="3.85" height="3.85"/><rect class="d" x="100" y="111.54" width="3.85" height="3.84"/><rect class="d" x="100" y="107.69" width="3.85" height="3.85"/><rect class="d" x="100" y="103.85" width="3.85" height="3.84"/><rect class="e" x="100" y="100" width="3.85" height="3.85"/><rect class="e" x="100" y="96.15" width="3.85" height="3.85"/><rect class="d" x="100" y="92.31" width="3.85" height="3.84"/><rect class="d" x="100" y="88.46" width="3.85" height="3.85"/><rect class="d" x="100" y="84.62" width="3.85" height="3.84"/><rect class="d" x="100" y="80.77" width="3.85" height="3.85"/><rect class="d" x="100" y="76.92" width="3.85" height="3.85"/><rect class="d" x="100" y="73.08" width="3.85" height="3.84"/><rect class="d" x="100" y="69.23" width="3.85" height="3.85"/><rect class="d" x="100" y="65.38" width="3.85" height="3.85"/><rect class="d" x="100" y="61.54" width="3.85" height="3.84"/><rect class="d" x="100" y="57.69" width="3.85" height="3.85"/><rect class="d" x="100" y="53.85" width="3.85" height="3.84"/><rect class="d" x="100" y="50" width="3.85" height="3.85"/><rect class="d" x="100" y="46.15" width="3.85" height="3.85"/><rect class="d" x="100" y="42.31" width="3.85" height="3.84"/><rect class="e" x="96.15" y="150" width="3.85" height="3.85"/><rect class="e" x="96.15" y="146.15" width="3.85" height="3.85"/><rect class="d" x="96.15" y="142.31" width="3.85" height="3.84"/><rect class="d" x="96.15" y="138.46" width="3.85" height="3.85"/><rect class="d" x="96.15" y="134.62" width="3.85" height="3.84"/><rect class="d" x="96.15" y="130.77" width="3.85" height="3.85"/><rect class="d" x="96.15" y="126.92" width="3.85" height="3.85"/><rect class="d" x="96.15" y="123.08" width="3.85" height="3.84"/><rect class="d" x="96.15" y="119.23" width="3.85" height="3.85"/><rect class="d" x="96.15" y="115.38" width="3.85" height="3.85"/><rect class="d" x="96.15" y="111.54" width="3.85" height="3.84"/><rect class="d" x="96.15" y="107.69" width="3.85" height="3.85"/><rect class="e" x="96.15" y="103.85" width="3.85" height="3.84"/><rect class="e" x="96.15" y="100" width="3.85" height="3.85"/><rect class="e" x="96.15" y="96.15" width="3.85" height="3.85"/><rect class="d" x="96.15" y="92.31" width="3.85" height="3.84"/><rect class="d" x="96.15" y="88.46" width="3.85" height="3.85"/><rect class="d" x="96.15" y="84.62" width="3.85" height="3.84"/><rect class="d" x="96.15" y="80.77" width="3.85" height="3.85"/><rect class="d" x="96.15" y="76.92" width="3.85" height="3.85"/><rect class="d" x="96.15" y="73.08" width="3.85" height="3.84"/><rect class="d" x="96.15" y="69.23" width="3.85" height="3.85"/><rect class="d" x="96.15" y="65.38" width="3.85" height="3.85"/><rect class="d" x="96.15" y="61.54" width="3.85" height="3.84"/><rect class="d" x="96.15" y="57.69" width="3.85" height="3.85"/><rect class="d" x="96.15" y="53.85" width="3.85" height="3.84"/><rect class="d" x="96.15" y="50" width="3.85" height="3.85"/><rect class="d" x="96.15" y="46.15" width="3.85" height="3.85"/><rect class="d" x="96.15" y="42.31" width="3.85" height="3.84"/><rect class="e" x="92.31" y="150" width="3.84" height="3.85"/><rect class="e" x="92.31" y="146.15" width="3.84" height="3.85"/><rect class="d" x="92.31" y="142.31" width="3.84" height="3.84"/><rect class="d" x="92.31" y="138.46" width="3.84" height="3.85"/><rect class="d" x="92.31" y="134.62" width="3.84" height="3.84"/><rect class="d" x="92.31" y="130.77" width="3.84" height="3.85"/><rect class="d" x="92.31" y="126.92" width="3.84" height="3.85"/><rect class="d" x="92.31" y="123.08" width="3.84" height="3.84"/><rect class="d" x="92.31" y="119.23" width="3.84" height="3.85"/><rect class="d" x="92.31" y="115.38" width="3.84" height="3.85"/><rect class="d" x="92.31" y="111.54" width="3.84" height="3.84"/><rect class="d" x="92.31" y="107.69" width="3.84" height="3.85"/><rect class="e" x="92.31" y="103.85" width="3.84" height="3.84"/><rect class="e" x="92.31" y="100" width="3.84" height="3.85"/><rect class="e" x="92.31" y="96.15" width="3.84" height="3.85"/><rect class="d" x="92.31" y="92.31" width="3.84" height="3.84"/><rect class="d" x="92.31" y="88.46" width="3.84" height="3.85"/><rect class="d" x="92.31" y="84.62" width="3.84" height="3.84"/><rect class="d" x="92.31" y="80.77" width="3.84" height="3.85"/><rect class="d" x="92.31" y="76.92" width="3.84" height="3.85"/><rect class="d" x="92.31" y="73.08" width="3.84" height="3.84"/><rect class="d" x="92.31" y="69.23" width="3.84" height="3.85"/><rect class="d" x="92.31" y="65.38" width="3.84" height="3.85"/><rect class="d" x="92.31" y="61.54" width="3.84" height="3.84"/><rect class="d" x="92.31" y="57.69" width="3.84" height="3.85"/><rect class="d" x="92.31" y="53.85" width="3.84" height="3.84"/><rect class="d" x="92.31" y="50" width="3.84" height="3.85"/><rect class="d" x="92.31" y="46.15" width="3.84" height="3.85"/><rect class="d" x="92.31" y="42.31" width="3.84" height="3.84"/><rect class="f" x="88.46" y="173.08" width="3.85" height="3.84"/><rect class="f" x="88.46" y="169.23" width="3.85" height="3.85"/><rect class="e" x="88.46" y="165.38" width="3.85" height="3.85"/><rect class="e" x="88.46" y="161.54" width="3.85" height="3.84"/><rect class="e" x="88.46" y="157.69" width="3.85" height="3.85"/><rect class="e" x="88.46" y="153.85" width="3.85" height="3.84"/><rect class="f" x="88.46" y="150" width="3.85" height="3.85"/><rect class="e" x="88.46" y="146.15" width="3.85" height="3.85"/><rect class="e" x="88.46" y="142.31" width="3.85" height="3.84"/><rect class="d" x="88.46" y="138.46" width="3.85" height="3.85"/><rect class="d" x="88.46" y="134.62" width="3.85" height="3.84"/><rect class="d" x="88.46" y="130.77" width="3.85" height="3.85"/><rect class="d" x="88.46" y="126.92" width="3.85" height="3.85"/><rect class="d" x="88.46" y="123.08" width="3.85" height="3.84"/><rect class="d" x="88.46" y="119.23" width="3.85" height="3.85"/><rect class="d" x="88.46" y="115.38" width="3.85" height="3.85"/><rect class="d" x="88.46" y="111.54" width="3.85" height="3.84"/><rect class="d" x="88.46" y="107.69" width="3.85" height="3.85"/><rect class="e" x="88.46" y="103.85" width="3.85" height="3.84"/><rect class="e" x="88.46" y="96.15" width="3.85" height="3.85"/><rect class="d" x="88.46" y="92.31" width="3.85" height="3.84"/><rect class="d" x="88.46" y="88.46" width="3.85" height="3.85"/><rect class="d" x="88.46" y="84.62" width="3.85" height="3.84"/><rect class="d" x="88.46" y="80.77" width="3.85" height="3.85"/><rect class="d" x="88.46" y="76.92" width="3.85" height="3.85"/><rect class="d" x="88.46" y="73.08" width="3.85" height="3.84"/><rect class="d" x="88.46" y="69.23" width="3.85" height="3.85"/><rect class="d" x="88.46" y="65.38" width="3.85" height="3.85"/><rect class="d" x="88.46" y="61.54" width="3.85" height="3.84"/><rect class="d" x="88.46" y="57.69" width="3.85" height="3.85"/><rect class="d" x="88.46" y="53.85" width="3.85" height="3.84"/><rect class="d" x="88.46" y="50" width="3.85" height="3.85"/><rect class="d" x="88.46" y="46.15" width="3.85" height="3.85"/><rect class="d" x="88.46" y="42.31" width="3.85" height="3.84"/><rect class="f" x="84.62" y="173.08" width="3.84" height="3.84"/><rect class="e" x="84.62" y="169.23" width="3.84" height="3.85"/><rect class="e" x="84.62" y="165.38" width="3.84" height="3.85"/><rect class="e" x="84.62" y="161.54" width="3.84" height="3.84"/><rect class="e" x="84.62" y="157.69" width="3.84" height="3.85"/><rect class="e" x="84.62" y="153.85" width="3.84" height="3.84"/><rect class="f" x="84.62" y="150" width="3.84" height="3.85"/><rect class="f" x="84.62" y="146.15" width="3.84" height="3.85"/><rect class="e" x="84.62" y="142.31" width="3.84" height="3.84"/><rect class="e" x="84.62" y="138.46" width="3.84" height="3.85"/><rect class="d" x="84.62" y="134.62" width="3.84" height="3.84"/><rect class="d" x="84.62" y="130.77" width="3.84" height="3.85"/><rect class="d" x="84.62" y="126.92" width="3.84" height="3.85"/><rect class="d" x="84.62" y="123.08" width="3.84" height="3.84"/><rect class="d" x="84.62" y="119.23" width="3.84" height="3.85"/><rect class="d" x="84.62" y="115.38" width="3.84" height="3.85"/><rect class="d" x="84.62" y="111.54" width="3.84" height="3.84"/><rect class="d" x="84.62" y="107.69" width="3.84" height="3.85"/><rect class="e" x="84.62" y="103.85" width="3.84" height="3.84"/><rect class="e" x="84.62" y="96.15" width="3.84" height="3.85"/><rect class="d" x="84.62" y="92.31" width="3.84" height="3.84"/><rect class="d" x="84.62" y="88.46" width="3.84" height="3.85"/><rect class="d" x="84.62" y="84.62" width="3.84" height="3.84"/><rect class="d" x="84.62" y="80.77" width="3.84" height="3.85"/><rect class="d" x="84.62" y="76.92" width="3.84" height="3.85"/><rect class="d" x="84.62" y="73.08" width="3.84" height="3.84"/><rect class="d" x="84.62" y="69.23" width="3.84" height="3.85"/><rect class="d" x="84.62" y="65.38" width="3.84" height="3.85"/><rect class="d" x="84.62" y="61.54" width="3.84" height="3.84"/><rect class="d" x="84.62" y="57.69" width="3.84" height="3.85"/><rect class="d" x="84.62" y="53.85" width="3.84" height="3.84"/><rect class="d" x="84.62" y="50" width="3.84" height="3.85"/><rect class="d" x="84.62" y="46.15" width="3.84" height="3.85"/><rect class="d" x="84.62" y="42.31" width="3.84" height="3.84"/><rect class="e" x="80.77" y="173.08" width="3.85" height="3.84"/><rect class="d" x="80.77" y="169.23" width="3.85" height="3.85"/><rect class="d" x="80.77" y="165.38" width="3.85" height="3.85"/><rect class="e" x="80.77" y="161.54" width="3.85" height="3.84"/><rect class="e" x="80.77" y="157.69" width="3.85" height="3.85"/><rect class="d" x="80.77" y="153.85" width="3.85" height="3.84"/><rect class="d" x="80.77" y="150" width="3.85" height="3.85"/><rect class="d" x="80.77" y="146.15" width="3.85" height="3.85"/><rect class="f" x="80.77" y="142.31" width="3.85" height="3.84"/><rect class="f" x="80.77" y="138.46" width="3.85" height="3.85"/><rect class="f" x="80.77" y="134.62" width="3.85" height="3.84"/><rect class="f" x="80.77" y="130.77" width="3.85" height="3.85"/><rect class="e" x="80.77" y="126.92" width="3.85" height="3.85"/><rect class="e" x="80.77" y="123.08" width="3.85" height="3.84"/><rect class="e" x="80.77" y="119.23" width="3.85" height="3.85"/><rect class="d" x="80.77" y="115.38" width="3.85" height="3.85"/><rect class="d" x="80.77" y="111.54" width="3.85" height="3.84"/><rect class="e" x="80.77" y="107.69" width="3.85" height="3.85"/><rect class="e" x="80.77" y="103.85" width="3.85" height="3.84"/><rect class="e" x="80.77" y="96.15" width="3.85" height="3.85"/><rect class="d" x="80.77" y="92.31" width="3.85" height="3.84"/><rect class="d" x="80.77" y="88.46" width="3.85" height="3.85"/><rect class="d" x="80.77" y="84.62" width="3.85" height="3.84"/><rect class="d" x="80.77" y="80.77" width="3.85" height="3.85"/><rect class="d" x="80.77" y="76.92" width="3.85" height="3.85"/><rect class="d" x="80.77" y="73.08" width="3.85" height="3.84"/><rect class="d" x="80.77" y="69.23" width="3.85" height="3.85"/><rect class="d" x="80.77" y="65.38" width="3.85" height="3.85"/><rect class="d" x="80.77" y="61.54" width="3.85" height="3.84"/><rect class="d" x="80.77" y="57.69" width="3.85" height="3.85"/><rect class="d" x="80.77" y="53.85" width="3.85" height="3.84"/><rect class="d" x="80.77" y="50" width="3.85" height="3.85"/><rect class="d" x="80.77" y="46.15" width="3.85" height="3.85"/><rect class="e" x="80.77" y="42.31" width="3.85" height="3.84"/><rect class="e" x="76.92" y="173.08" width="3.85" height="3.84"/><rect class="d" x="76.92" y="169.23" width="3.85" height="3.85"/><rect class="e" x="76.92" y="146.15" width="3.85" height="3.85"/><rect class="e" x="76.92" y="142.31" width="3.85" height="3.84"/><rect class="e" x="76.92" y="138.46" width="3.85" height="3.85"/><rect class="e" x="76.92" y="134.62" width="3.85" height="3.84"/><rect class="e" x="76.92" y="130.77" width="3.85" height="3.85"/><rect class="d" x="76.92" y="126.92" width="3.85" height="3.85"/><rect class="d" x="76.92" y="123.08" width="3.85" height="3.84"/><rect class="d" x="76.92" y="119.23" width="3.85" height="3.85"/><rect class="d" x="76.92" y="115.38" width="3.85" height="3.85"/><rect class="d" x="76.92" y="111.54" width="3.85" height="3.84"/><rect class="e" x="76.92" y="107.69" width="3.85" height="3.85"/><rect class="e" x="76.92" y="96.15" width="3.85" height="3.85"/><rect class="d" x="76.92" y="92.31" width="3.85" height="3.84"/><rect class="d" x="76.92" y="88.46" width="3.85" height="3.85"/><rect class="d" x="76.92" y="84.62" width="3.85" height="3.84"/><rect class="d" x="76.92" y="80.77" width="3.85" height="3.85"/><rect class="d" x="76.92" y="76.92" width="3.85" height="3.85"/><rect class="d" x="76.92" y="73.08" width="3.85" height="3.84"/><rect class="d" x="76.92" y="69.23" width="3.85" height="3.85"/><rect class="e" x="76.92" y="65.38" width="3.85" height="3.85"/><rect class="d" x="76.92" y="61.54" width="3.85" height="3.84"/><rect class="d" x="76.92" y="57.69" width="3.85" height="3.85"/><rect class="d" x="76.92" y="53.85" width="3.85" height="3.84"/><rect class="d" x="76.92" y="50" width="3.85" height="3.85"/><rect class="d" x="76.92" y="46.15" width="3.85" height="3.85"/><rect class="e" x="76.92" y="42.31" width="3.85" height="3.84"/><rect class="d" x="73.08" y="146.15" width="3.84" height="3.85"/><rect class="d" x="73.08" y="142.31" width="3.84" height="3.84"/><rect class="d" x="73.08" y="138.46" width="3.84" height="3.85"/><rect class="e" x="73.08" y="134.62" width="3.84" height="3.84"/><rect class="e" x="73.08" y="130.77" width="3.84" height="3.85"/><rect class="e" x="73.08" y="126.92" width="3.84" height="3.85"/><rect class="e" x="73.08" y="123.08" width="3.84" height="3.84"/><rect class="e" x="73.08" y="119.23" width="3.84" height="3.85"/><rect class="d" x="73.08" y="115.38" width="3.84" height="3.85"/><rect class="d" x="73.08" y="111.54" width="3.84" height="3.84"/><rect class="e" x="73.08" y="107.69" width="3.84" height="3.85"/><rect class="e" x="73.08" y="96.15" width="3.84" height="3.85"/><rect class="d" x="73.08" y="92.31" width="3.84" height="3.84"/><rect class="d" x="73.08" y="88.46" width="3.84" height="3.85"/><rect class="d" x="73.08" y="84.62" width="3.84" height="3.84"/><rect class="d" x="73.08" y="80.77" width="3.84" height="3.85"/><rect class="d" x="73.08" y="76.92" width="3.84" height="3.85"/><rect class="e" x="73.08" y="73.08" width="3.84" height="3.84"/><rect class="e" x="73.08" y="69.23" width="3.84" height="3.85"/><rect class="e" x="73.08" y="65.38" width="3.84" height="3.85"/><rect class="d" x="73.08" y="61.54" width="3.84" height="3.84"/><rect class="d" x="73.08" y="57.69" width="3.84" height="3.85"/><rect class="d" x="73.08" y="53.85" width="3.84" height="3.84"/><rect class="d" x="73.08" y="50" width="3.84" height="3.85"/><rect class="e" x="73.08" y="46.15" width="3.84" height="3.85"/><rect class="f" x="73.08" y="42.31" width="3.84" height="3.84"/><rect class="f" x="69.23" y="96.15" width="3.85" height="3.85"/><rect class="e" x="69.23" y="92.31" width="3.85" height="3.84"/><rect class="d" x="69.23" y="88.46" width="3.85" height="3.85"/><rect class="d" x="69.23" y="84.62" width="3.85" height="3.84"/><rect class="d" x="69.23" y="80.77" width="3.85" height="3.85"/><rect class="d" x="69.23" y="76.92" width="3.85" height="3.85"/><rect class="d" x="69.23" y="73.08" width="3.85" height="3.84"/><rect class="d" x="69.23" y="69.23" width="3.85" height="3.85"/><rect class="d" x="69.23" y="65.38" width="3.85" height="3.85"/><rect class="d" x="69.23" y="61.54" width="3.85" height="3.84"/><rect class="d" x="69.23" y="57.69" width="3.85" height="3.85"/><rect class="d" x="69.23" y="53.85" width="3.85" height="3.84"/><rect class="e" x="69.23" y="50" width="3.85" height="3.85"/><rect class="f" x="69.23" y="46.15" width="3.85" height="3.85"/><rect class="f" x="69.23" y="42.31" width="3.85" height="3.84"/><rect class="f" x="65.38" y="92.31" width="3.85" height="3.84"/><rect class="e" x="65.38" y="88.46" width="3.85" height="3.85"/><rect class="e" x="65.38" y="84.62" width="3.85" height="3.84"/><rect class="e" x="65.38" y="80.77" width="3.85" height="3.85"/><rect class="d" x="65.38" y="76.92" width="3.85" height="3.85"/><rect class="d" x="65.38" y="73.08" width="3.85" height="3.84"/><rect class="d" x="65.38" y="69.23" width="3.85" height="3.85"/><rect class="d" x="65.38" y="65.38" width="3.85" height="3.85"/><rect class="d" x="65.38" y="61.54" width="3.85" height="3.84"/><rect class="d" x="65.38" y="57.69" width="3.85" height="3.85"/><rect class="e" x="65.38" y="53.85" width="3.85" height="3.84"/><rect class="e" x="65.38" y="50" width="3.85" height="3.85"/><rect class="f" x="61.54" y="92.31" width="3.84" height="3.84"/><rect class="f" x="61.54" y="88.46" width="3.84" height="3.85"/><rect class="f" x="61.54" y="84.62" width="3.84" height="3.84"/><rect class="e" x="61.54" y="80.77" width="3.84" height="3.85"/><rect class="e" x="61.54" y="76.92" width="3.84" height="3.85"/><rect class="e" x="61.54" y="73.08" width="3.84" height="3.84"/><rect class="e" x="61.54" y="69.23" width="3.84" height="3.85"/><rect class="e" x="61.54" y="65.38" width="3.84" height="3.85"/><rect class="e" x="61.54" y="61.54" width="3.84" height="3.84"/><rect class="e" x="61.54" y="57.69" width="3.84" height="3.85"/><rect class="e" x="61.54" y="53.85" width="3.84" height="3.84"/><rect class="e" x="61.54" y="50" width="3.84" height="3.85"/><rect class="g" x="119.23" y="80.77" width="3.85" height="3.85"/><rect class="g" x="119.23" y="76.92" width="3.85" height="3.85"/><rect class="g" x="119.23" y="73.08" width="3.85" height="3.84"/><rect class="g" x="119.23" y="69.23" width="3.85" height="3.85"/><rect class="g" x="115.38" y="80.77" width="3.85" height="3.85"/><rect class="g" x="115.38" y="76.92" width="3.85" height="3.85"/><rect class="g" x="115.38" y="73.08" width="3.85" height="3.84"/><rect class="g" x="115.38" y="69.23" width="3.85" height="3.85"/><rect class="g" x="80.77" y="76.92" width="3.85" height="3.85"/><rect class="g" x="80.77" y="80.77" width="3.85" height="3.85"/><rect class="g" x="80.77" y="73.08" width="3.85" height="3.84"/><rect class="g" x="80.77" y="69.23" width="3.85" height="3.85"/><rect class="g" x="76.92" y="80.77" width="3.85" height="3.85"/><rect class="g" x="76.92" y="76.92" width="3.85" height="3.85"/><rect class="g" x="76.92" y="73.08" width="3.85" height="3.84"/><rect class="g" x="76.92" y="69.23" width="3.85" height="3.85"/><rect class="h" x="111.54" y="142.31" width="3.84" height="3.84"/><rect class="h" x="107.69" y="146.15" width="3.85" height="3.85"/><rect class="h" x="107.69" y="142.31" width="3.85" height="3.84"/><rect class="h" x="103.85" y="146.15" width="3.84" height="3.85"/><rect class="h" x="103.85" y="142.31" width="3.84" height="3.84"/><rect class="h" x="100" y="146.15" width="3.85" height="3.85"/><rect class="h" x="100" y="142.31" width="3.85" height="3.84"/><rect class="h" x="96.15" y="146.15" width="3.85" height="3.85"/><rect class="h" x="96.15" y="142.31" width="3.85" height="3.84"/><rect class="h" x="92.31" y="146.15" width="3.84" height="3.85"/><rect class="h" x="92.31" y="142.31" width="3.84" height="3.84"/><rect class="h" x="88.46" y="142.31" width="3.85" height="3.84"/><rect class="h" x="84.62" y="142.31" width="3.84" height="3.84"/><rect class="i" x="84.62" y="150" width="3.84" height="3.85"/><rect class="i" x="115.38" y="146.15" width="3.85" height="3.85"/><rect class="i" x="115.38" y="142.31" width="3.85" height="3.84"/><rect class="i" x="115.38" y="138.46" width="3.85" height="3.85"/><rect class="i" x="111.54" y="150" width="3.84" height="3.85"/><rect class="i" x="111.54" y="146.15" width="3.84" height="3.85"/><rect class="h" x="111.54" y="138.46" width="3.84" height="3.85"/><rect class="i" x="107.69" y="150" width="3.85" height="3.85"/><rect class="h" x="107.69" y="138.46" width="3.85" height="3.85"/><rect class="i" x="103.85" y="150" width="3.84" height="3.85"/><rect class="h" x="103.85" y="138.46" width="3.84" height="3.85"/><rect class="i" x="100" y="150" width="3.85" height="3.85"/><rect class="h" x="100" y="138.46" width="3.85" height="3.85"/><rect class="i" x="96.15" y="150" width="3.85" height="3.85"/><rect class="h" x="96.15" y="138.46" width="3.85" height="3.85"/><rect class="i" x="92.31" y="150" width="3.84" height="3.85"/><rect class="h" x="92.31" y="138.46" width="3.84" height="3.85"/><rect class="i" x="88.46" y="150" width="3.85" height="3.85"/><rect class="h" x="88.46" y="146.15" width="3.85" height="3.85"/><rect class="h" x="88.46" y="138.46" width="3.85" height="3.85"/><rect class="i" x="84.62" y="146.15" width="3.84" height="3.85"/><rect class="h" x="84.62" y="138.46" width="3.84" height="3.85"/><rect class="i" x="80.77" y="146.15" width="3.85" height="3.85"/><rect class="i" x="80.77" y="142.31" width="3.85" height="3.84"/><rect class="i" x="80.77" y="138.46" width="3.85" height="3.85"/><rect class="j" x="103.85" y="88.46" width="3.84" height="3.85"/><rect class="j" x="100" y="92.31" width="3.85" height="3.84"/><rect class="j" x="96.15" y="92.31" width="3.85" height="3.84"/><rect class="j" x="92.31" y="88.46" width="3.84" height="3.85"/></svg>