<svg xmlns="http://www.w3.org/2000/svg" viewBox="0 0 200 200"><defs><style>.a{fill:#eae5e5;}.b{fill:#e52020;}.c{fill:#d6d6d8;}</style></defs><title>male_shoes_1</title><rect class="a" x="76.92" y="169.23" width="3.85" height="3.85"/><rect class="a" x="119.23" y="169.23" width="3.85" height="3.85"/><rect class="b" x="115.38" y="169.23" width="3.85" height="3.85"/><rect class="b" x="111.54" y="169.23" width="3.84" height="3.85"/><rect class="b" x="107.69" y="169.23" width="3.85" height="3.85"/><rect class="b" x="88.46" y="169.23" width="3.85" height="3.85"/><rect class="b" x="84.62" y="169.23" width="3.84" height="3.85"/><rect class="b" x="80.77" y="169.23" width="3.85" height="3.85"/><rect class="c" x="88.46" y="173.08" width="3.85" height="3.84"/><rect class="c" x="84.62" y="173.08" width="3.84" height="3.84"/><rect class="c" x="80.77" y="173.08" width="3.85" height="3.84"/><rect class="c" x="76.92" y="173.08" width="3.85" height="3.84"/><rect class="c" x="119.23" y="173.08" width="3.85" height="3.84"/><rect class="c" x="115.38" y="173.08" width="3.85" height="3.84"/><rect class="c" x="111.54" y="173.08" width="3.84" height="3.84"/><rect class="c" x="107.69" y="173.08" width="3.85" height="3.84"/></svg>