<svg xmlns="http://www.w3.org/2000/svg" viewBox="0 0 376.14 663.63"><defs><style>.a{fill:#353434;}.b{fill:#fffefd;}</style></defs><title>404-page</title><rect class="a" x="357.36" y="246.5" width="18.78" height="18.93"/><rect class="a" x="357.36" y="227.52" width="18.78" height="18.98"/><rect class="a" x="357.36" y="189.61" width="18.78" height="18.98"/><rect class="a" x="357.36" y="170.63" width="18.78" height="18.98"/><rect class="a" x="357.36" y="151.7" width="18.78" height="18.93"/><rect class="a" x="357.36" y="132.72" width="18.78" height="18.98"/><rect class="a" x="357.36" y="113.74" width="18.78" height="18.98"/><rect class="a" x="357.36" y="94.8" width="18.78" height="18.93"/><rect class="a" x="357.36" y="56.89" width="18.78" height="18.93"/><rect class="a" x="357.36" y="37.91" width="18.78" height="18.98"/><rect class="a" x="338.53" y="246.5" width="18.83" height="18.93"/><rect class="a" x="338.53" y="227.52" width="18.83" height="18.98"/><rect class="a" x="338.53" y="208.59" width="18.83" height="18.93"/><rect class="a" x="338.53" y="170.63" width="18.83" height="18.98"/><rect class="a" x="338.53" y="151.7" width="18.83" height="18.93"/><rect class="a" x="338.53" y="132.72" width="18.83" height="18.98"/><rect class="a" x="338.53" y="113.74" width="18.83" height="18.98"/><rect class="a" x="338.53" y="94.8" width="18.83" height="18.93"/><rect class="a" x="338.53" y="75.82" width="18.83" height="18.98"/><rect class="a" x="338.53" y="37.91" width="18.83" height="18.98"/><rect class="a" x="319.71" y="265.43" width="18.83" height="18.98"/><rect class="a" x="319.71" y="246.5" width="18.83" height="18.93"/><rect class="a" x="319.71" y="208.59" width="18.83" height="18.93"/><rect class="a" x="319.71" y="189.61" width="18.83" height="18.98"/><rect class="a" x="319.71" y="170.63" width="18.83" height="18.98"/><rect class="a" x="319.71" y="151.7" width="18.83" height="18.93"/><rect class="a" x="319.71" y="132.72" width="18.83" height="18.98"/><rect class="a" x="319.71" y="113.74" width="18.83" height="18.98"/><rect class="a" x="319.71" y="94.8" width="18.83" height="18.93"/><rect class="a" x="319.71" y="37.91" width="18.83" height="18.98"/><rect class="a" x="319.71" y="18.93" width="18.83" height="18.98"/><rect class="a" x="319.71" width="18.83" height="18.93"/><rect class="a" x="300.93" y="511.93" width="18.78" height="18.98"/><rect class="a" x="300.93" y="493" width="18.78" height="18.93"/><rect class="a" x="300.93" y="474.02" width="18.78" height="18.98"/><rect class="a" x="300.93" y="455.09" width="18.78" height="18.93"/><rect class="a" x="300.93" y="436.11" width="18.78" height="18.98"/><rect class="a" x="300.93" y="417.13" width="18.78" height="18.98"/><rect class="a" x="300.93" y="398.2" width="18.78" height="18.93"/><rect class="a" x="300.93" y="341.3" width="18.78" height="18.93"/><rect class="a" x="300.93" y="322.32" width="18.78" height="18.98"/><rect class="a" x="300.93" y="265.43" width="18.78" height="18.98"/><rect class="a" x="300.93" y="227.52" width="18.78" height="18.98"/><rect class="a" x="300.93" y="208.59" width="18.78" height="18.93"/><rect class="a" x="300.93" y="189.61" width="18.78" height="18.98"/><rect class="a" x="300.93" y="170.63" width="18.78" height="18.98"/><rect class="a" x="300.93" y="151.7" width="18.78" height="18.93"/><rect class="a" x="300.93" y="132.72" width="18.78" height="18.98"/><rect class="a" x="300.93" y="113.74" width="18.78" height="18.98"/><rect class="a" x="300.93" y="75.82" width="18.78" height="18.98"/><rect class="a" x="300.93" y="37.91" width="18.78" height="18.98"/><rect class="a" x="300.93" y="18.93" width="18.78" height="18.98"/><rect class="a" x="300.93" width="18.78" height="18.93"/><rect class="a" x="282.1" y="644.7" width="18.83" height="18.93"/><rect class="a" x="282.1" y="625.72" width="18.83" height="18.98"/><rect class="a" x="282.1" y="511.93" width="18.83" height="18.98"/><rect class="a" x="282.1" y="493" width="18.83" height="18.93"/><rect class="a" x="282.1" y="455.09" width="18.83" height="18.93"/><rect class="a" x="282.1" y="436.11" width="18.83" height="18.98"/><rect class="a" x="282.1" y="417.13" width="18.83" height="18.98"/><rect class="a" x="282.1" y="398.2" width="18.83" height="18.93"/><rect class="a" x="282.1" y="322.32" width="18.83" height="18.98"/><rect class="a" x="282.1" y="227.52" width="18.83" height="18.98"/><rect class="a" x="282.1" y="208.59" width="18.83" height="18.93"/><rect class="a" x="282.1" y="189.61" width="18.83" height="18.98"/><rect class="a" x="282.1" y="170.63" width="18.83" height="18.98"/><rect class="a" x="282.1" y="151.7" width="18.83" height="18.93"/><rect class="a" x="282.1" y="132.72" width="18.83" height="18.98"/><rect class="a" x="282.1" y="113.74" width="18.83" height="18.98"/><rect class="a" x="282.1" y="94.8" width="18.83" height="18.93"/><rect class="a" x="282.1" y="75.82" width="18.83" height="18.98"/><rect class="a" x="282.1" y="56.89" width="18.83" height="18.93"/><rect class="a" x="282.1" y="37.91" width="18.83" height="18.98"/><rect class="a" x="282.1" width="18.83" height="18.93"/><rect class="a" x="263.28" y="644.7" width="18.83" height="18.93"/><rect class="a" x="263.28" y="625.72" width="18.83" height="18.98"/><rect class="a" x="263.28" y="606.74" width="18.83" height="18.98"/><rect class="a" x="263.28" y="549.89" width="18.83" height="18.93"/><rect class="a" x="263.28" y="530.91" width="18.83" height="18.98"/><rect class="a" x="263.28" y="511.93" width="18.83" height="18.98"/><rect class="a" x="263.28" y="493" width="18.83" height="18.93"/><rect class="a" x="263.28" y="474.02" width="18.83" height="18.98"/><rect class="a" x="263.28" y="455.09" width="18.83" height="18.93"/><rect class="a" x="263.28" y="436.11" width="18.83" height="18.98"/><rect class="a" x="263.28" y="417.13" width="18.83" height="18.98"/><rect class="a" x="263.28" y="398.2" width="18.83" height="18.93"/><rect class="a" x="263.28" y="360.24" width="18.83" height="18.98"/><rect class="a" x="263.28" y="322.32" width="18.83" height="18.98"/><rect class="a" x="263.28" y="303.39" width="18.83" height="18.93"/><rect class="a" x="263.28" y="265.43" width="18.83" height="18.98"/><rect class="a" x="263.28" y="246.5" width="18.83" height="18.93"/><rect class="a" x="263.28" y="227.52" width="18.83" height="18.98"/><rect class="a" x="263.28" y="208.59" width="18.83" height="18.93"/><rect class="a" x="263.28" y="189.61" width="18.83" height="18.98"/><rect class="a" x="263.28" y="170.63" width="18.83" height="18.98"/><rect class="a" x="263.28" y="151.7" width="18.83" height="18.93"/><rect class="a" x="263.28" y="132.72" width="18.83" height="18.98"/><rect class="a" x="263.28" y="113.74" width="18.83" height="18.98"/><rect class="a" x="263.28" y="94.8" width="18.83" height="18.93"/><rect class="a" x="263.28" y="75.82" width="18.83" height="18.98"/><rect class="a" x="263.28" y="56.89" width="18.83" height="18.93"/><rect class="a" x="263.28" y="18.93" width="18.83" height="18.98"/><rect class="a" x="263.28" width="18.83" height="18.93"/><rect class="a" x="244.5" y="644.7" width="18.78" height="18.93"/><rect class="a" x="244.5" y="625.72" width="18.78" height="18.98"/><rect class="a" x="244.5" y="606.74" width="18.78" height="18.98"/><rect class="a" x="244.5" y="568.82" width="18.78" height="18.98"/><rect class="a" x="244.5" y="549.89" width="18.78" height="18.93"/><rect class="a" x="244.5" y="530.91" width="18.78" height="18.98"/><rect class="a" x="244.5" y="511.93" width="18.78" height="18.98"/><rect class="a" x="244.5" y="493" width="18.78" height="18.93"/><rect class="a" x="244.5" y="474.02" width="18.78" height="18.98"/><rect class="a" x="244.5" y="455.09" width="18.78" height="18.93"/><rect class="a" x="244.5" y="417.13" width="18.78" height="18.98"/><rect class="a" x="244.5" y="398.2" width="18.78" height="18.93"/><rect class="a" x="244.5" y="360.24" width="18.78" height="18.98"/><rect class="a" x="244.5" y="341.3" width="18.78" height="18.93"/><rect class="a" x="244.5" y="322.32" width="18.78" height="18.98"/><rect class="a" x="244.5" y="303.39" width="18.78" height="18.93"/><rect class="a" x="244.5" y="265.43" width="18.78" height="18.98"/><rect class="a" x="244.5" y="246.5" width="18.78" height="18.93"/><rect class="a" x="244.5" y="227.52" width="18.78" height="18.98"/><rect class="a" x="244.5" y="208.59" width="18.78" height="18.93"/><rect class="a" x="244.5" y="189.61" width="18.78" height="18.98"/><rect class="a" x="244.5" y="170.63" width="18.78" height="18.98"/><rect class="a" x="244.5" y="151.7" width="18.78" height="18.93"/><rect class="a" x="244.5" y="132.72" width="18.78" height="18.98"/><rect class="a" x="244.5" y="113.74" width="18.78" height="18.98"/><rect class="a" x="244.5" y="94.8" width="18.78" height="18.93"/><rect class="a" x="244.5" y="75.82" width="18.78" height="18.98"/><rect class="a" x="244.5" y="56.89" width="18.78" height="18.93"/><rect class="a" x="244.5" y="37.91" width="18.78" height="18.98"/><rect class="a" x="244.5" y="18.93" width="18.78" height="18.98"/><rect class="a" x="244.5" width="18.78" height="18.93"/><rect class="a" x="225.67" y="644.7" width="18.83" height="18.93"/><rect class="a" x="225.67" y="625.72" width="18.83" height="18.98"/><rect class="a" x="225.67" y="606.74" width="18.83" height="18.98"/><rect class="a" x="225.67" y="587.8" width="18.83" height="18.93"/><rect class="a" x="225.67" y="549.89" width="18.83" height="18.93"/><rect class="a" x="225.67" y="530.91" width="18.83" height="18.98"/><rect class="a" x="225.67" y="511.93" width="18.83" height="18.98"/><rect class="a" x="225.67" y="493" width="18.83" height="18.93"/><rect class="a" x="225.67" y="474.02" width="18.83" height="18.98"/><rect class="a" x="225.67" y="436.11" width="18.83" height="18.98"/><rect class="a" x="225.67" y="417.13" width="18.83" height="18.98"/><rect class="a" x="225.67" y="398.2" width="18.83" height="18.93"/><rect class="a" x="225.67" y="379.22" width="18.83" height="18.98"/><rect class="a" x="225.67" y="360.24" width="18.83" height="18.98"/><rect class="a" x="225.67" y="322.32" width="18.83" height="18.98"/><rect class="a" x="225.67" y="303.39" width="18.83" height="18.93"/><rect class="a" x="225.67" y="265.43" width="18.83" height="18.98"/><rect class="a" x="225.67" y="246.5" width="18.83" height="18.93"/><rect class="a" x="225.67" y="227.52" width="18.83" height="18.98"/><rect class="a" x="225.67" y="208.59" width="18.83" height="18.93"/><rect class="a" x="225.67" y="189.61" width="18.83" height="18.98"/><rect class="a" x="225.67" y="170.63" width="18.83" height="18.98"/><rect class="a" x="225.67" y="151.7" width="18.83" height="18.93"/><rect class="a" x="225.67" y="132.72" width="18.83" height="18.98"/><rect class="a" x="225.67" y="113.74" width="18.83" height="18.98"/><rect class="a" x="225.67" y="94.8" width="18.83" height="18.93"/><rect class="a" x="225.67" y="75.82" width="18.83" height="18.98"/><rect class="a" x="225.67" y="56.89" width="18.83" height="18.93"/><rect class="a" x="225.67" y="37.91" width="18.83" height="18.98"/><rect class="a" x="225.67" y="18.93" width="18.83" height="18.98"/><rect class="a" x="225.67" width="18.83" height="18.93"/><rect class="a" x="206.9" y="530.91" width="18.78" height="18.98"/><rect class="a" x="206.9" y="511.93" width="18.78" height="18.98"/><rect class="a" x="206.9" y="493" width="18.78" height="18.93"/><rect class="a" x="206.9" y="398.2" width="18.78" height="18.93"/><rect class="a" x="206.9" y="379.22" width="18.78" height="18.98"/><rect class="a" x="206.9" y="341.3" width="18.78" height="18.93"/><rect class="a" x="206.9" y="322.32" width="18.78" height="18.98"/><rect class="a" x="206.9" y="303.39" width="18.78" height="18.93"/><rect class="a" x="206.9" y="284.41" width="18.78" height="18.98"/><rect class="a" x="206.9" y="265.43" width="18.78" height="18.98"/><rect class="a" x="206.9" y="246.5" width="18.78" height="18.93"/><rect class="a" x="206.9" y="227.52" width="18.78" height="18.98"/><rect class="a" x="206.9" y="208.59" width="18.78" height="18.93"/><rect class="a" x="206.9" y="189.61" width="18.78" height="18.98"/><rect class="a" x="206.9" y="170.63" width="18.78" height="18.98"/><rect class="a" x="206.9" y="151.7" width="18.78" height="18.93"/><rect class="a" x="206.9" y="132.72" width="18.78" height="18.98"/><rect class="a" x="206.9" y="113.74" width="18.78" height="18.98"/><rect class="a" x="206.9" y="94.8" width="18.78" height="18.93"/><rect class="a" x="206.9" y="75.82" width="18.78" height="18.98"/><rect class="a" x="206.9" y="56.89" width="18.78" height="18.93"/><rect class="a" x="206.9" y="37.91" width="18.78" height="18.98"/><rect class="a" x="206.9" y="18.93" width="18.78" height="18.98"/><rect class="a" x="206.9" width="18.78" height="18.93"/><rect class="a" x="188.07" y="530.91" width="18.83" height="18.98"/><rect class="a" x="188.07" y="511.93" width="18.83" height="18.98"/><rect class="a" x="188.07" y="493" width="18.83" height="18.93"/><rect class="a" x="188.07" y="455.09" width="18.83" height="18.93"/><rect class="a" x="188.07" y="436.11" width="18.83" height="18.98"/><rect class="a" x="188.07" y="417.13" width="18.83" height="18.98"/><rect class="a" x="188.07" y="398.2" width="18.83" height="18.93"/><rect class="a" x="188.07" y="379.22" width="18.83" height="18.98"/><rect class="a" x="188.07" y="360.24" width="18.83" height="18.98"/><rect class="a" x="188.07" y="341.3" width="18.83" height="18.93"/><rect class="a" x="188.07" y="322.32" width="18.83" height="18.98"/><rect class="a" x="188.07" y="303.39" width="18.83" height="18.93"/><rect class="a" x="188.07" y="284.41" width="18.83" height="18.98"/><rect class="a" x="188.07" y="265.43" width="18.83" height="18.98"/><rect class="a" x="188.07" y="246.5" width="18.83" height="18.93"/><rect class="a" x="188.07" y="227.52" width="18.83" height="18.98"/><rect class="a" x="188.07" y="208.59" width="18.83" height="18.93"/><rect class="a" x="188.07" y="189.61" width="18.83" height="18.98"/><rect class="a" x="188.07" y="170.63" width="18.83" height="18.98"/><rect class="a" x="188.07" y="151.7" width="18.83" height="18.93"/><rect class="a" x="188.07" y="132.72" width="18.83" height="18.98"/><rect class="a" x="188.07" y="113.74" width="18.83" height="18.98"/><rect class="a" x="188.07" y="94.8" width="18.83" height="18.93"/><rect class="a" x="188.07" y="75.82" width="18.83" height="18.98"/><rect class="a" x="188.07" y="56.89" width="18.83" height="18.93"/><rect class="a" x="188.07" y="37.91" width="18.83" height="18.98"/><rect class="a" x="188.07" y="18.93" width="18.83" height="18.98"/><rect class="a" x="188.07" width="18.83" height="18.93"/><rect class="a" x="169.24" y="530.91" width="18.83" height="18.98"/><rect class="a" x="169.24" y="511.93" width="18.83" height="18.98"/><rect class="a" x="169.24" y="493" width="18.83" height="18.93"/><rect class="a" x="169.24" y="474.02" width="18.83" height="18.98"/><rect class="a" x="169.24" y="455.09" width="18.83" height="18.93"/><rect class="a" x="169.24" y="436.11" width="18.83" height="18.98"/><rect class="a" x="169.24" y="417.13" width="18.83" height="18.98"/><rect class="a" x="169.24" y="398.2" width="18.83" height="18.93"/><rect class="a" x="169.24" y="379.22" width="18.83" height="18.98"/><rect class="a" x="169.24" y="360.24" width="18.83" height="18.98"/><rect class="a" x="169.24" y="341.3" width="18.83" height="18.93"/><rect class="a" x="169.24" y="322.32" width="18.83" height="18.98"/><rect class="a" x="169.24" y="303.39" width="18.83" height="18.93"/><rect class="a" x="169.24" y="284.41" width="18.83" height="18.98"/><rect class="a" x="169.24" y="265.43" width="18.83" height="18.98"/><rect class="a" x="169.24" y="246.5" width="18.83" height="18.93"/><rect class="a" x="169.24" y="227.52" width="18.83" height="18.98"/><rect class="a" x="169.24" y="208.59" width="18.83" height="18.93"/><rect class="a" x="169.24" y="189.61" width="18.83" height="18.98"/><rect class="a" x="169.24" y="170.63" width="18.83" height="18.98"/><rect class="a" x="169.24" y="151.7" width="18.83" height="18.93"/><rect class="a" x="169.24" y="132.72" width="18.83" height="18.98"/><rect class="a" x="169.24" y="113.74" width="18.83" height="18.98"/><rect class="a" x="169.24" y="94.8" width="18.83" height="18.93"/><rect class="a" x="169.24" y="75.82" width="18.83" height="18.98"/><rect class="a" x="169.24" y="56.89" width="18.83" height="18.93"/><rect class="a" x="169.24" y="37.91" width="18.83" height="18.98"/><rect class="a" x="169.24" y="18.93" width="18.83" height="18.98"/><rect class="a" x="169.24" width="18.83" height="18.93"/><rect class="a" x="150.47" y="530.91" width="18.78" height="18.98"/><rect class="a" x="150.47" y="511.93" width="18.78" height="18.98"/><rect class="a" x="150.47" y="493" width="18.78" height="18.93"/><rect class="a" x="150.47" y="474.02" width="18.78" height="18.98"/><rect class="a" x="150.47" y="455.09" width="18.78" height="18.93"/><rect class="a" x="150.47" y="436.11" width="18.78" height="18.98"/><rect class="a" x="150.47" y="417.13" width="18.78" height="18.98"/><rect class="a" x="150.47" y="398.2" width="18.78" height="18.93"/><rect class="a" x="150.47" y="379.22" width="18.78" height="18.98"/><rect class="a" x="150.47" y="360.24" width="18.78" height="18.98"/><rect class="a" x="150.47" y="341.3" width="18.78" height="18.93"/><rect class="a" x="150.47" y="322.32" width="18.78" height="18.98"/><rect class="a" x="150.47" y="303.39" width="18.78" height="18.93"/><rect class="a" x="150.47" y="284.41" width="18.78" height="18.98"/><rect class="a" x="150.47" y="265.43" width="18.78" height="18.98"/><rect class="a" x="150.47" y="246.5" width="18.78" height="18.93"/><rect class="a" x="150.47" y="227.52" width="18.78" height="18.98"/><rect class="a" x="150.47" y="208.59" width="18.78" height="18.93"/><rect class="a" x="150.47" y="189.61" width="18.78" height="18.98"/><rect class="a" x="150.47" y="170.63" width="18.78" height="18.98"/><rect class="a" x="150.47" y="151.7" width="18.78" height="18.93"/><rect class="a" x="150.47" y="132.72" width="18.78" height="18.98"/><rect class="a" x="150.47" y="113.74" width="18.78" height="18.98"/><rect class="a" x="150.47" y="94.8" width="18.78" height="18.93"/><rect class="a" x="150.47" y="75.82" width="18.78" height="18.98"/><rect class="a" x="150.47" y="56.89" width="18.78" height="18.93"/><rect class="a" x="150.47" y="37.91" width="18.78" height="18.98"/><rect class="a" x="150.47" y="18.93" width="18.78" height="18.98"/><rect class="a" x="150.47" width="18.78" height="18.93"/><rect class="a" x="131.64" y="644.7" width="18.83" height="18.93"/><rect class="a" x="131.64" y="625.72" width="18.83" height="18.98"/><rect class="a" x="131.64" y="606.74" width="18.83" height="18.98"/><rect class="a" x="131.64" y="587.8" width="18.83" height="18.93"/><rect class="a" x="131.64" y="568.82" width="18.83" height="18.98"/><rect class="a" x="131.64" y="549.89" width="18.83" height="18.93"/><rect class="a" x="131.64" y="530.91" width="18.83" height="18.98"/><rect class="a" x="131.64" y="511.93" width="18.83" height="18.98"/><rect class="a" x="131.64" y="493" width="18.83" height="18.93"/><rect class="a" x="131.64" y="474.02" width="18.83" height="18.98"/><rect class="a" x="131.64" y="455.09" width="18.83" height="18.93"/><rect class="a" x="131.64" y="436.11" width="18.83" height="18.98"/><rect class="a" x="131.64" y="417.13" width="18.83" height="18.98"/><rect class="a" x="131.64" y="398.2" width="18.83" height="18.93"/><rect class="a" x="131.64" y="379.22" width="18.83" height="18.98"/><rect class="a" x="131.64" y="360.24" width="18.83" height="18.98"/><rect class="a" x="131.64" y="341.3" width="18.83" height="18.93"/><rect class="a" x="131.64" y="322.32" width="18.83" height="18.98"/><rect class="a" x="131.64" y="303.39" width="18.83" height="18.93"/><rect class="a" x="131.64" y="265.43" width="18.83" height="18.98"/><rect class="a" x="131.64" y="246.5" width="18.83" height="18.93"/><rect class="a" x="131.64" y="227.52" width="18.83" height="18.98"/><rect class="a" x="131.64" y="208.59" width="18.83" height="18.93"/><rect class="a" x="131.64" y="189.61" width="18.83" height="18.98"/><rect class="a" x="131.64" y="170.63" width="18.83" height="18.98"/><rect class="a" x="131.64" y="151.7" width="18.83" height="18.93"/><rect class="a" x="131.64" y="132.72" width="18.83" height="18.98"/><rect class="a" x="131.64" y="113.74" width="18.83" height="18.98"/><rect class="a" x="131.64" y="94.8" width="18.83" height="18.93"/><rect class="a" x="131.64" y="75.82" width="18.83" height="18.98"/><rect class="a" x="131.64" y="56.89" width="18.83" height="18.93"/><rect class="a" x="131.64" y="37.91" width="18.83" height="18.98"/><rect class="a" x="131.64" y="18.93" width="18.83" height="18.98"/><rect class="a" x="131.64" width="18.83" height="18.93"/><rect class="a" x="112.86" y="644.7" width="18.78" height="18.93"/><rect class="a" x="112.86" y="625.72" width="18.78" height="18.98"/><rect class="a" x="112.86" y="606.74" width="18.78" height="18.98"/><rect class="a" x="112.86" y="587.8" width="18.78" height="18.93"/><rect class="a" x="112.86" y="568.82" width="18.78" height="18.98"/><rect class="a" x="112.86" y="549.89" width="18.78" height="18.93"/><rect class="a" x="112.86" y="530.91" width="18.78" height="18.98"/><rect class="a" x="112.86" y="511.93" width="18.78" height="18.98"/><rect class="a" x="112.86" y="493" width="18.78" height="18.93"/><rect class="a" x="112.86" y="474.02" width="18.78" height="18.98"/><rect class="a" x="112.86" y="455.09" width="18.78" height="18.93"/><rect class="a" x="112.86" y="436.11" width="18.78" height="18.98"/><rect class="a" x="112.86" y="417.13" width="18.78" height="18.98"/><rect class="a" x="112.86" y="398.2" width="18.78" height="18.93"/><rect class="a" x="112.86" y="379.22" width="18.78" height="18.98"/><rect class="a" x="112.86" y="360.24" width="18.78" height="18.98"/><rect class="a" x="112.86" y="341.3" width="18.78" height="18.93"/><rect class="a" x="112.86" y="322.32" width="18.78" height="18.98"/><rect class="a" x="112.86" y="303.39" width="18.78" height="18.93"/><rect class="a" x="112.86" y="265.43" width="18.78" height="18.98"/><rect class="a" x="112.86" y="246.5" width="18.78" height="18.93"/><rect class="a" x="112.86" y="227.52" width="18.78" height="18.98"/><rect class="a" x="112.86" y="208.59" width="18.78" height="18.93"/><rect class="a" x="112.86" y="189.61" width="18.78" height="18.98"/><rect class="a" x="112.86" y="170.63" width="18.78" height="18.98"/><rect class="a" x="112.86" y="151.7" width="18.78" height="18.93"/><rect class="a" x="112.86" y="132.72" width="18.78" height="18.98"/><rect class="a" x="112.86" y="113.74" width="18.78" height="18.98"/><rect class="a" x="112.86" y="94.8" width="18.78" height="18.93"/><rect class="a" x="112.86" y="75.82" width="18.78" height="18.98"/><rect class="a" x="112.86" y="56.89" width="18.78" height="18.93"/><rect class="a" x="112.86" y="37.91" width="18.78" height="18.98"/><rect class="a" x="112.86" y="18.93" width="18.78" height="18.98"/><rect class="a" x="112.86" width="18.78" height="18.93"/><rect class="a" x="94.03" y="644.7" width="18.83" height="18.93"/><rect class="a" x="94.03" y="625.72" width="18.83" height="18.98"/><rect class="a" x="94.03" y="606.74" width="18.83" height="18.98"/><rect class="a" x="94.03" y="587.8" width="18.83" height="18.93"/><rect class="a" x="94.03" y="568.82" width="18.83" height="18.98"/><rect class="a" x="94.03" y="549.89" width="18.83" height="18.93"/><rect class="a" x="94.03" y="530.91" width="18.83" height="18.98"/><rect class="a" x="94.03" y="511.93" width="18.83" height="18.98"/><rect class="a" x="94.03" y="493" width="18.83" height="18.93"/><rect class="a" x="94.03" y="474.02" width="18.83" height="18.98"/><rect class="a" x="94.03" y="455.09" width="18.83" height="18.93"/><rect class="a" x="94.03" y="436.11" width="18.83" height="18.98"/><rect class="a" x="94.03" y="417.13" width="18.83" height="18.98"/><rect class="a" x="94.03" y="398.2" width="18.83" height="18.93"/><rect class="a" x="94.03" y="379.22" width="18.83" height="18.98"/><rect class="a" x="94.03" y="360.24" width="18.83" height="18.98"/><rect class="a" x="94.03" y="341.3" width="18.83" height="18.93"/><rect class="a" x="94.03" y="322.32" width="18.83" height="18.98"/><rect class="a" x="94.03" y="303.39" width="18.83" height="18.93"/><rect class="a" x="94.03" y="265.43" width="18.83" height="18.98"/><rect class="a" x="94.03" y="246.5" width="18.83" height="18.93"/><rect class="a" x="94.03" y="227.52" width="18.83" height="18.98"/><rect class="a" x="94.03" y="208.59" width="18.83" height="18.93"/><rect class="a" x="94.03" y="189.61" width="18.83" height="18.98"/><rect class="a" x="94.03" y="170.63" width="18.83" height="18.98"/><rect class="a" x="94.03" y="151.7" width="18.83" height="18.93"/><rect class="a" x="94.03" y="132.72" width="18.83" height="18.98"/><rect class="a" x="94.03" y="113.74" width="18.83" height="18.98"/><rect class="a" x="94.03" y="94.8" width="18.83" height="18.93"/><rect class="a" x="94.03" y="75.82" width="18.83" height="18.98"/><rect class="a" x="94.03" y="56.89" width="18.83" height="18.93"/><rect class="a" x="94.03" y="37.91" width="18.83" height="18.98"/><rect class="a" x="94.03" y="18.93" width="18.83" height="18.98"/><rect class="a" x="94.03" width="18.83" height="18.93"/><rect class="a" x="75.21" y="644.7" width="18.83" height="18.93"/><rect class="a" x="75.21" y="625.72" width="18.83" height="18.98"/><rect class="a" x="75.21" y="511.93" width="18.83" height="18.98"/><rect class="a" x="75.21" y="493" width="18.83" height="18.93"/><rect class="a" x="75.21" y="474.02" width="18.83" height="18.98"/><rect class="a" x="75.21" y="455.09" width="18.83" height="18.93"/><rect class="a" x="75.21" y="436.11" width="18.83" height="18.98"/><rect class="a" x="75.21" y="417.13" width="18.83" height="18.98"/><rect class="a" x="75.21" y="398.2" width="18.83" height="18.93"/><rect class="a" x="75.21" y="379.22" width="18.83" height="18.98"/><rect class="a" x="75.21" y="360.24" width="18.83" height="18.98"/><rect class="a" x="75.21" y="341.3" width="18.83" height="18.93"/><rect class="a" x="75.21" y="322.32" width="18.83" height="18.98"/><rect class="a" x="75.21" y="265.43" width="18.83" height="18.98"/><rect class="a" x="75.21" y="246.5" width="18.83" height="18.93"/><rect class="a" x="75.21" y="227.52" width="18.83" height="18.98"/><rect class="a" x="75.21" y="208.59" width="18.83" height="18.93"/><rect class="a" x="75.21" y="189.61" width="18.83" height="18.98"/><rect class="a" x="75.21" y="170.63" width="18.83" height="18.98"/><rect class="a" x="75.21" y="151.7" width="18.83" height="18.93"/><rect class="a" x="75.21" y="132.72" width="18.83" height="18.98"/><rect class="a" x="75.21" y="113.74" width="18.83" height="18.98"/><rect class="a" x="75.21" y="94.8" width="18.83" height="18.93"/><rect class="a" x="75.21" y="75.82" width="18.83" height="18.98"/><rect class="a" x="75.21" y="56.89" width="18.83" height="18.93"/><rect class="a" x="75.21" y="37.91" width="18.83" height="18.98"/><rect class="a" x="75.21" y="18.93" width="18.83" height="18.98"/><rect class="a" x="75.21" width="18.83" height="18.93"/><rect class="a" x="56.43" y="511.93" width="18.78" height="18.98"/><rect class="a" x="56.43" y="493" width="18.78" height="18.93"/><rect class="a" x="56.43" y="474.02" width="18.78" height="18.98"/><rect class="a" x="56.43" y="455.09" width="18.78" height="18.93"/><rect class="a" x="56.43" y="436.11" width="18.78" height="18.98"/><rect class="a" x="56.43" y="417.13" width="18.78" height="18.98"/><rect class="a" x="56.43" y="398.2" width="18.78" height="18.93"/><rect class="a" x="56.43" y="379.22" width="18.78" height="18.98"/><rect class="a" x="56.43" y="360.24" width="18.78" height="18.98"/><rect class="a" x="56.43" y="341.3" width="18.78" height="18.93"/><rect class="a" x="56.43" y="322.32" width="18.78" height="18.98"/><rect class="a" x="56.43" y="265.43" width="18.78" height="18.98"/><rect class="a" x="56.43" y="246.5" width="18.78" height="18.93"/><rect class="a" x="56.43" y="227.52" width="18.78" height="18.98"/><rect class="a" x="56.43" y="208.59" width="18.78" height="18.93"/><rect class="a" x="56.43" y="189.61" width="18.78" height="18.98"/><rect class="a" x="56.43" y="170.63" width="18.78" height="18.98"/><rect class="a" x="56.43" y="151.7" width="18.78" height="18.93"/><rect class="a" x="56.43" y="132.72" width="18.78" height="18.98"/><rect class="a" x="56.43" y="113.74" width="18.78" height="18.98"/><rect class="a" x="56.43" y="94.8" width="18.78" height="18.93"/><rect class="a" x="56.43" y="75.82" width="18.78" height="18.98"/><rect class="a" x="56.43" y="56.89" width="18.78" height="18.93"/><rect class="a" x="56.43" y="37.91" width="18.78" height="18.98"/><rect class="a" x="56.43" y="18.93" width="18.78" height="18.98"/><rect class="a" x="56.43" width="18.78" height="18.93"/><rect class="a" x="37.6" y="265.43" width="18.83" height="18.98"/><rect class="a" x="37.6" y="246.5" width="18.83" height="18.93"/><rect class="a" x="37.6" y="227.52" width="18.83" height="18.98"/><rect class="a" x="37.6" y="208.59" width="18.83" height="18.93"/><rect class="a" x="37.6" y="189.61" width="18.83" height="18.98"/><rect class="a" x="37.6" y="170.63" width="18.83" height="18.98"/><rect class="a" x="37.6" y="151.7" width="18.83" height="18.93"/><rect class="a" x="37.6" y="132.72" width="18.83" height="18.98"/><rect class="a" x="37.6" y="113.74" width="18.83" height="18.98"/><rect class="a" x="37.6" y="94.8" width="18.83" height="18.93"/><rect class="a" x="37.6" y="75.82" width="18.83" height="18.98"/><rect class="a" x="37.6" y="56.89" width="18.83" height="18.93"/><rect class="a" x="37.6" y="37.91" width="18.83" height="18.98"/><rect class="a" x="37.6" y="18.93" width="18.83" height="18.98"/><rect class="a" x="37.6" width="18.83" height="18.93"/><rect class="a" x="18.78" y="246.5" width="18.83" height="18.93"/><rect class="a" x="18.78" y="227.52" width="18.83" height="18.98"/><rect class="a" x="18.78" y="208.59" width="18.83" height="18.93"/><rect class="a" x="18.78" y="189.61" width="18.83" height="18.98"/><rect class="a" x="18.78" y="170.63" width="18.83" height="18.98"/><rect class="a" x="18.78" y="151.7" width="18.83" height="18.93"/><rect class="a" x="18.78" y="132.72" width="18.83" height="18.98"/><rect class="a" x="18.78" y="113.74" width="18.83" height="18.98"/><rect class="a" x="18.78" y="94.8" width="18.83" height="18.93"/><rect class="a" x="18.78" y="75.82" width="18.83" height="18.98"/><rect class="a" x="18.78" y="56.89" width="18.83" height="18.93"/><rect class="a" x="18.78" y="37.91" width="18.83" height="18.98"/><rect class="a" y="246.5" width="18.78" height="18.93"/><rect class="a" y="227.52" width="18.78" height="18.98"/><rect class="a" y="208.59" width="18.78" height="18.93"/><rect class="a" y="189.61" width="18.78" height="18.98"/><rect class="a" y="170.63" width="18.78" height="18.98"/><rect class="a" y="151.7" width="18.78" height="18.93"/><rect class="a" y="132.72" width="18.78" height="18.98"/><rect class="a" y="113.74" width="18.78" height="18.98"/><rect class="a" y="94.8" width="18.78" height="18.93"/><rect class="a" y="75.82" width="18.78" height="18.98"/><rect class="a" y="56.89" width="18.78" height="18.93"/><rect class="a" y="37.91" width="18.78" height="18.98"/><rect class="b" x="284.57" y="177.92" width="19.52" height="19.52"/><rect class="b" x="284.57" y="138.93" width="19.52" height="19.47"/><rect class="b" x="265.05" y="158.4" width="19.52" height="19.52"/><rect class="b" x="245.58" y="177.92" width="19.47" height="19.52"/><rect class="b" x="245.58" y="138.93" width="19.47" height="19.47"/><rect class="b" x="109.09" y="177.92" width="19.47" height="19.52"/><rect class="b" x="109.09" y="138.93" width="19.47" height="19.47"/><rect class="b" x="89.57" y="158.4" width="19.52" height="19.52"/><rect class="b" x="70.05" y="177.92" width="19.52" height="19.52"/><rect class="b" x="70.05" y="138.93" width="19.52" height="19.47"/></svg>