<svg xmlns="http://www.w3.org/2000/svg" viewBox="0 0 200 200"><defs><style>.a{fill:#f9e7d7;}.b{fill:#aa8871;}.c{fill:#3a3a3a;}.d{fill:#211913;}.e{fill:#513a26;}.f{fill:#2d1f15;}.g{fill:#af9754;}</style></defs><title>719</title><rect class="a" x="111.54" y="88.46" width="3.84" height="3.85"/><rect class="a" x="107.69" y="88.46" width="3.85" height="3.85"/><rect class="a" x="107.69" y="84.62" width="3.85" height="3.84"/><rect class="a" x="107.69" y="80.77" width="3.85" height="3.85"/><rect class="a" x="103.85" y="80.77" width="3.84" height="3.85"/><rect class="a" x="100" y="80.77" width="3.85" height="3.85"/><rect class="a" x="96.15" y="80.77" width="3.85" height="3.85"/><rect class="a" x="92.31" y="80.77" width="3.84" height="3.85"/><rect class="a" x="88.46" y="80.77" width="3.85" height="3.85"/><rect class="a" x="84.62" y="92.31" width="3.84" height="3.84"/><rect class="a" x="103.85" y="88.46" width="3.84" height="3.85"/><rect class="a" x="103.85" y="84.62" width="3.84" height="3.84"/><rect class="a" x="100" y="88.46" width="3.85" height="3.85"/><rect class="a" x="100" y="84.62" width="3.85" height="3.84"/><rect class="a" x="96.15" y="88.46" width="3.85" height="3.85"/><rect class="a" x="96.15" y="84.62" width="3.85" height="3.84"/><rect class="a" x="92.31" y="88.46" width="3.84" height="3.85"/><rect class="a" x="92.31" y="84.62" width="3.84" height="3.84"/><rect class="a" x="88.46" y="84.62" width="3.85" height="3.84"/><rect class="b" x="115.38" y="65.38" width="3.85" height="3.85"/><rect class="b" x="80.77" y="61.54" width="3.85" height="3.84"/><rect class="b" x="76.92" y="61.54" width="3.85" height="3.84"/><rect class="b" x="73.08" y="61.54" width="3.84" height="3.84"/><rect class="b" x="88.46" y="88.46" width="3.85" height="3.85"/><rect class="c" x="123.08" y="73.08" width="3.84" height="3.84"/><rect class="c" x="73.08" y="73.08" width="3.84" height="3.84"/><rect class="a" x="119.23" y="69.23" width="3.85" height="3.85"/><rect class="a" x="115.38" y="69.23" width="3.85" height="3.85"/><rect class="a" x="111.54" y="69.23" width="3.84" height="3.85"/><rect class="a" x="80.77" y="69.23" width="3.85" height="3.85"/><rect class="a" x="76.92" y="69.23" width="3.85" height="3.85"/><rect class="d" x="138.46" y="76.92" width="3.85" height="3.85"/><rect class="d" x="138.46" y="73.08" width="3.85" height="3.84"/><rect class="d" x="138.46" y="69.23" width="3.85" height="3.85"/><rect class="d" x="138.46" y="65.38" width="3.85" height="3.85"/><rect class="d" x="138.46" y="61.54" width="3.85" height="3.84"/><rect class="d" x="138.46" y="57.69" width="3.85" height="3.85"/><rect class="d" x="138.46" y="53.85" width="3.85" height="3.84"/><rect class="d" x="138.46" y="50" width="3.85" height="3.85"/><rect class="d" x="138.46" y="46.15" width="3.85" height="3.85"/><rect class="d" x="134.62" y="80.77" width="3.84" height="3.85"/><rect class="d" x="134.62" y="76.92" width="3.84" height="3.85"/><rect class="d" x="134.62" y="73.08" width="3.84" height="3.84"/><rect class="d" x="134.62" y="69.23" width="3.84" height="3.85"/><rect class="d" x="134.62" y="65.38" width="3.84" height="3.85"/><rect class="d" x="134.62" y="61.54" width="3.84" height="3.84"/><rect class="d" x="134.62" y="57.69" width="3.84" height="3.85"/><rect class="d" x="134.62" y="53.85" width="3.84" height="3.84"/><rect class="e" x="134.62" y="50" width="3.84" height="3.85"/><rect class="d" x="134.62" y="46.15" width="3.84" height="3.85"/><rect class="d" x="134.62" y="42.31" width="3.84" height="3.84"/><rect class="d" x="130.77" y="73.08" width="3.85" height="3.84"/><rect class="f" x="130.77" y="69.23" width="3.85" height="3.85"/><rect class="f" x="130.77" y="65.38" width="3.85" height="3.85"/><rect class="f" x="130.77" y="61.54" width="3.85" height="3.84"/><rect class="f" x="130.77" y="57.69" width="3.85" height="3.85"/><rect class="f" x="130.77" y="53.85" width="3.85" height="3.84"/><rect class="e" x="130.77" y="50" width="3.85" height="3.85"/><rect class="e" x="130.77" y="46.15" width="3.85" height="3.85"/><rect class="d" x="130.77" y="42.31" width="3.85" height="3.84"/><rect class="d" x="130.77" y="38.46" width="3.85" height="3.85"/><rect class="d" x="126.92" y="69.23" width="3.85" height="3.85"/><rect class="e" x="126.92" y="65.38" width="3.85" height="3.85"/><rect class="e" x="126.92" y="61.54" width="3.85" height="3.84"/><rect class="f" x="126.92" y="57.69" width="3.85" height="3.85"/><rect class="f" x="126.92" y="53.85" width="3.85" height="3.84"/><rect class="f" x="126.92" y="50" width="3.85" height="3.85"/><rect class="f" x="126.92" y="46.15" width="3.85" height="3.85"/><rect class="d" x="126.92" y="42.31" width="3.85" height="3.84"/><rect class="d" x="126.92" y="38.46" width="3.85" height="3.85"/><rect class="d" x="126.92" y="34.62" width="3.85" height="3.84"/><rect class="d" x="126.92" y="30.77" width="3.85" height="3.85"/><rect class="d" x="123.08" y="65.38" width="3.84" height="3.85"/><rect class="e" x="123.08" y="61.54" width="3.84" height="3.84"/><rect class="e" x="123.08" y="57.69" width="3.84" height="3.85"/><rect class="f" x="123.08" y="53.85" width="3.84" height="3.84"/><rect class="g" x="123.08" y="50" width="3.84" height="3.85"/><rect class="f" x="123.08" y="46.15" width="3.84" height="3.85"/><rect class="e" x="123.08" y="42.31" width="3.84" height="3.84"/><rect class="d" x="123.08" y="38.46" width="3.84" height="3.85"/><rect class="e" x="123.08" y="34.62" width="3.84" height="3.84"/><rect class="d" x="123.08" y="30.77" width="3.84" height="3.85"/><rect class="d" x="119.23" y="65.38" width="3.85" height="3.85"/><rect class="d" x="119.23" y="61.54" width="3.85" height="3.84"/><rect class="e" x="119.23" y="57.69" width="3.85" height="3.85"/><rect class="e" x="119.23" y="53.85" width="3.85" height="3.84"/><rect class="f" x="119.23" y="50" width="3.85" height="3.85"/><rect class="g" x="119.23" y="46.15" width="3.85" height="3.85"/><rect class="e" x="119.23" y="42.31" width="3.85" height="3.84"/><rect class="d" x="119.23" y="38.46" width="3.85" height="3.85"/><rect class="e" x="119.23" y="34.62" width="3.85" height="3.84"/><rect class="d" x="119.23" y="30.77" width="3.85" height="3.85"/><rect class="d" x="115.38" y="61.54" width="3.85" height="3.84"/><rect class="d" x="115.38" y="57.69" width="3.85" height="3.85"/><rect class="g" x="115.38" y="53.85" width="3.85" height="3.84"/><rect class="e" x="115.38" y="50" width="3.85" height="3.85"/><rect class="f" x="115.38" y="46.15" width="3.85" height="3.85"/><rect class="g" x="115.38" y="42.31" width="3.85" height="3.84"/><rect class="e" x="115.38" y="38.46" width="3.85" height="3.85"/><rect class="d" x="115.38" y="34.62" width="3.85" height="3.84"/><rect class="d" x="115.38" y="30.77" width="3.85" height="3.85"/><rect class="d" x="111.54" y="61.54" width="3.84" height="3.84"/><rect class="f" x="111.54" y="57.69" width="3.84" height="3.85"/><rect class="d" x="111.54" y="53.85" width="3.84" height="3.84"/><rect class="g" x="111.54" y="50" width="3.84" height="3.85"/><rect class="e" x="111.54" y="46.15" width="3.84" height="3.85"/><rect class="e" x="111.54" y="42.31" width="3.84" height="3.84"/><rect class="g" x="111.54" y="38.46" width="3.84" height="3.85"/><rect class="e" x="111.54" y="34.62" width="3.84" height="3.84"/><rect class="d" x="111.54" y="30.77" width="3.84" height="3.85"/><rect class="d" x="107.69" y="61.54" width="3.85" height="3.84"/><rect class="f" x="107.69" y="57.69" width="3.85" height="3.85"/><rect class="f" x="107.69" y="53.85" width="3.85" height="3.84"/><rect class="g" x="107.69" y="50" width="3.85" height="3.85"/><rect class="e" x="107.69" y="46.15" width="3.85" height="3.85"/><rect class="e" x="107.69" y="42.31" width="3.85" height="3.84"/><rect class="g" x="107.69" y="38.46" width="3.85" height="3.85"/><rect class="e" x="107.69" y="34.62" width="3.85" height="3.84"/><rect class="e" x="107.69" y="30.77" width="3.85" height="3.85"/><rect class="b" x="103.85" y="92.31" width="3.84" height="3.84"/><rect class="d" x="103.85" y="61.54" width="3.84" height="3.84"/><rect class="d" x="103.85" y="57.69" width="3.84" height="3.85"/><rect class="f" x="103.85" y="53.85" width="3.84" height="3.84"/><rect class="f" x="103.85" y="50" width="3.84" height="3.85"/><rect class="g" x="103.85" y="46.15" width="3.84" height="3.85"/><rect class="d" x="103.85" y="42.31" width="3.84" height="3.84"/><rect class="e" x="103.85" y="38.46" width="3.84" height="3.85"/><rect class="e" x="103.85" y="34.62" width="3.84" height="3.84"/><rect class="e" x="103.85" y="30.77" width="3.84" height="3.85"/><rect class="b" x="100" y="92.31" width="3.85" height="3.84"/><rect class="f" x="100" y="57.69" width="3.85" height="3.85"/><rect class="f" x="100" y="53.85" width="3.85" height="3.84"/><rect class="f" x="100" y="50" width="3.85" height="3.85"/><rect class="f" x="100" y="46.15" width="3.85" height="3.85"/><rect class="e" x="100" y="42.31" width="3.85" height="3.84"/><rect class="d" x="100" y="38.46" width="3.85" height="3.85"/><rect class="e" x="100" y="34.62" width="3.85" height="3.84"/><rect class="d" x="100" y="30.77" width="3.85" height="3.85"/><rect class="b" x="96.15" y="92.31" width="3.85" height="3.84"/><rect class="d" x="96.15" y="57.69" width="3.85" height="3.85"/><rect class="f" x="96.15" y="53.85" width="3.85" height="3.84"/><rect class="d" x="96.15" y="50" width="3.85" height="3.85"/><rect class="f" x="96.15" y="46.15" width="3.85" height="3.85"/><rect class="e" x="96.15" y="42.31" width="3.85" height="3.84"/><rect class="e" x="96.15" y="38.46" width="3.85" height="3.85"/><rect class="d" x="96.15" y="34.62" width="3.85" height="3.84"/><rect class="d" x="96.15" y="30.77" width="3.85" height="3.85"/><rect class="b" x="92.31" y="92.31" width="3.84" height="3.84"/><rect class="d" x="92.31" y="53.85" width="3.84" height="3.84"/><rect class="f" x="92.31" y="50" width="3.84" height="3.85"/><rect class="d" x="92.31" y="46.15" width="3.84" height="3.85"/><rect class="e" x="92.31" y="42.31" width="3.84" height="3.84"/><rect class="e" x="92.31" y="38.46" width="3.84" height="3.85"/><rect class="d" x="92.31" y="34.62" width="3.84" height="3.84"/><rect class="d" x="92.31" y="30.77" width="3.84" height="3.85"/><rect class="a" x="88.46" y="92.31" width="3.85" height="3.84"/><rect class="d" x="88.46" y="53.85" width="3.85" height="3.84"/><rect class="d" x="88.46" y="50" width="3.85" height="3.85"/><rect class="f" x="88.46" y="46.15" width="3.85" height="3.85"/><rect class="e" x="88.46" y="42.31" width="3.85" height="3.84"/><rect class="e" x="88.46" y="38.46" width="3.85" height="3.85"/><rect class="d" x="88.46" y="34.62" width="3.85" height="3.84"/><rect class="d" x="88.46" y="30.77" width="3.85" height="3.85"/><rect class="d" x="84.62" y="50" width="3.84" height="3.85"/><rect class="d" x="84.62" y="46.15" width="3.84" height="3.85"/><rect class="f" x="84.62" y="42.31" width="3.84" height="3.84"/><rect class="e" x="84.62" y="38.46" width="3.84" height="3.85"/><rect class="d" x="84.62" y="34.62" width="3.84" height="3.84"/><rect class="d" x="84.62" y="30.77" width="3.84" height="3.85"/><rect class="d" x="80.77" y="46.15" width="3.85" height="3.85"/><rect class="d" x="80.77" y="42.31" width="3.85" height="3.84"/><rect class="e" x="80.77" y="38.46" width="3.85" height="3.85"/><rect class="d" x="80.77" y="34.62" width="3.85" height="3.84"/><rect class="d" x="80.77" y="30.77" width="3.85" height="3.85"/><rect class="d" x="76.92" y="53.85" width="3.85" height="3.84"/><rect class="d" x="76.92" y="50" width="3.85" height="3.85"/><rect class="d" x="76.92" y="46.15" width="3.85" height="3.85"/><rect class="d" x="76.92" y="42.31" width="3.85" height="3.84"/><rect class="d" x="76.92" y="38.46" width="3.85" height="3.85"/><rect class="d" x="76.92" y="34.62" width="3.85" height="3.84"/><rect class="d" x="76.92" y="30.77" width="3.85" height="3.85"/><rect class="f" x="73.08" y="57.69" width="3.84" height="3.85"/><rect class="d" x="73.08" y="53.85" width="3.84" height="3.84"/><rect class="f" x="73.08" y="50" width="3.84" height="3.85"/><rect class="e" x="73.08" y="46.15" width="3.84" height="3.85"/><rect class="e" x="73.08" y="42.31" width="3.84" height="3.84"/><rect class="d" x="73.08" y="38.46" width="3.84" height="3.85"/><rect class="d" x="73.08" y="34.62" width="3.84" height="3.84"/><rect class="d" x="69.23" y="65.38" width="3.85" height="3.85"/><rect class="d" x="69.23" y="61.54" width="3.85" height="3.84"/><rect class="d" x="69.23" y="57.69" width="3.85" height="3.85"/><rect class="f" x="69.23" y="53.85" width="3.85" height="3.84"/><rect class="e" x="69.23" y="50" width="3.85" height="3.85"/><rect class="g" x="69.23" y="46.15" width="3.85" height="3.85"/><rect class="d" x="69.23" y="42.31" width="3.85" height="3.84"/><rect class="d" x="69.23" y="38.46" width="3.85" height="3.85"/><rect class="d" x="69.23" y="34.62" width="3.85" height="3.84"/><rect class="d" x="65.38" y="69.23" width="3.85" height="3.85"/><rect class="f" x="65.38" y="65.38" width="3.85" height="3.85"/><rect class="f" x="65.38" y="61.54" width="3.85" height="3.84"/><rect class="f" x="65.38" y="57.69" width="3.85" height="3.85"/><rect class="f" x="65.38" y="53.85" width="3.85" height="3.84"/><rect class="g" x="65.38" y="50" width="3.85" height="3.85"/><rect class="d" x="65.38" y="46.15" width="3.85" height="3.85"/><rect class="e" x="65.38" y="42.31" width="3.85" height="3.84"/><rect class="e" x="65.38" y="38.46" width="3.85" height="3.85"/><rect class="d" x="61.54" y="80.77" width="3.84" height="3.85"/><rect class="d" x="61.54" y="76.92" width="3.84" height="3.85"/><rect class="d" x="61.54" y="73.08" width="3.84" height="3.84"/><rect class="d" x="61.54" y="69.23" width="3.84" height="3.85"/><rect class="d" x="61.54" y="65.38" width="3.84" height="3.85"/><rect class="d" x="61.54" y="61.54" width="3.84" height="3.84"/><rect class="d" x="61.54" y="57.69" width="3.84" height="3.85"/><rect class="g" x="61.54" y="53.85" width="3.84" height="3.84"/><rect class="d" x="61.54" y="50" width="3.84" height="3.85"/><rect class="e" x="61.54" y="46.15" width="3.84" height="3.85"/><rect class="e" x="61.54" y="42.31" width="3.84" height="3.84"/><rect class="d" x="57.69" y="76.92" width="3.85" height="3.85"/><rect class="d" x="57.69" y="73.08" width="3.85" height="3.84"/><rect class="d" x="57.69" y="69.23" width="3.85" height="3.85"/><rect class="d" x="57.69" y="65.38" width="3.85" height="3.85"/><rect class="d" x="57.69" y="61.54" width="3.85" height="3.84"/><rect class="d" x="57.69" y="57.69" width="3.85" height="3.85"/><rect class="d" x="57.69" y="53.85" width="3.85" height="3.84"/><rect class="d" x="57.69" y="50" width="3.85" height="3.85"/><rect class="e" x="57.69" y="46.15" width="3.85" height="3.85"/></svg>