<svg xmlns="http://www.w3.org/2000/svg" viewBox="0 0 200 200"><defs><style>.a{fill:#0a1a33;}.b{fill:#1b315b;}.c{fill:#243651;}</style></defs><title>444</title><rect class="a" x="103.85" y="150" width="3.84" height="3.85"/><rect class="a" x="100" y="150" width="3.85" height="3.85"/><rect class="a" x="111.54" y="165.38" width="3.84" height="3.85"/><rect class="b" x="111.54" y="161.54" width="3.84" height="3.84"/><rect class="c" x="111.54" y="157.69" width="3.84" height="3.85"/><rect class="c" x="111.54" y="153.85" width="3.84" height="3.84"/><rect class="c" x="111.54" y="150" width="3.84" height="3.85"/><rect class="b" x="111.54" y="146.15" width="3.84" height="3.85"/><rect class="a" x="111.54" y="142.31" width="3.84" height="3.84"/><rect class="a" x="107.69" y="165.38" width="3.85" height="3.85"/><rect class="a" x="107.69" y="161.54" width="3.85" height="3.84"/><rect class="a" x="107.69" y="157.69" width="3.85" height="3.85"/><rect class="a" x="107.69" y="153.85" width="3.85" height="3.84"/><rect class="a" x="107.69" y="150" width="3.85" height="3.85"/><rect class="a" x="107.69" y="146.15" width="3.85" height="3.85"/><rect class="a" x="107.69" y="142.31" width="3.85" height="3.84"/><rect class="a" x="103.85" y="146.15" width="3.84" height="3.85"/><rect class="a" x="103.85" y="142.31" width="3.84" height="3.84"/><rect class="a" x="100" y="146.15" width="3.85" height="3.85"/><rect class="a" x="100" y="142.31" width="3.85" height="3.84"/><rect class="a" x="96.15" y="150" width="3.85" height="3.85"/><rect class="b" x="96.15" y="146.15" width="3.85" height="3.85"/><rect class="a" x="96.15" y="142.31" width="3.85" height="3.84"/><rect class="b" x="88.46" y="150" width="3.85" height="3.85"/><rect class="c" x="88.46" y="146.15" width="3.85" height="3.85"/><rect class="a" x="88.46" y="157.69" width="3.85" height="3.85"/><rect class="b" x="92.31" y="150" width="3.84" height="3.85"/><rect class="a" x="92.31" y="142.31" width="3.84" height="3.84"/><rect class="a" x="88.46" y="142.31" width="3.85" height="3.84"/><rect class="b" x="84.62" y="153.85" width="3.84" height="3.84"/><rect class="b" x="84.62" y="157.69" width="3.84" height="3.85"/><rect class="b" x="84.62" y="161.54" width="3.84" height="3.84"/><rect class="a" x="84.62" y="142.31" width="3.84" height="3.84"/><rect class="c" x="84.62" y="146.15" width="3.84" height="3.85"/><rect class="b" x="84.62" y="150" width="3.84" height="3.85"/><rect class="c" x="92.31" y="146.15" width="3.84" height="3.85"/><rect class="a" x="88.46" y="153.85" width="3.85" height="3.84"/><rect class="a" x="88.46" y="161.54" width="3.85" height="3.84"/><rect class="a" x="84.62" y="165.38" width="3.84" height="3.85"/><rect class="a" x="88.46" y="165.38" width="3.85" height="3.85"/></svg>